M48
M72, LZ
T1C0.0400
T2C0.0200
T3C0.1181
%
T1
X1.2000Y2.4250
X1.2000Y2.3250
X1.2000Y2.2250
X1.2000Y2.1250
X1.2000Y2.0250
X1.2000Y1.9250
X1.2000Y1.8250
X1.2000Y1.7250
X1.2000Y1.6250
X1.2000Y1.5250
X1.2000Y1.4250
X1.2000Y1.3250
X1.2000Y1.2250
X1.2000Y1.1250
X1.2000Y1.0250
X2.3000Y1.0250
X2.3000Y1.1250
X2.3000Y1.2250
X2.3000Y1.3250
X2.3000Y1.4250
X2.3000Y1.5250
X2.3000Y1.6250
X2.3000Y1.7250
X2.3000Y1.8250
X2.3000Y1.9250
X2.3000Y2.0250
X2.3000Y2.1250
X2.3000Y2.2250
X2.3000Y2.3250
X2.3000Y2.4250
X2.3000Y0.7250
X2.2000Y0.7250
X2.1000Y0.7250
X2.0000Y0.7250
X1.9000Y0.7250
X1.8000Y0.7250
X1.7000Y0.7250
X1.6000Y0.7250
X1.5000Y0.7250
X1.4000Y0.7250
X1.4000Y0.4250
X1.5000Y0.4250
X1.6000Y0.4250
X1.7000Y0.4250
X1.8000Y0.4250
X1.9000Y0.4250
X2.0000Y0.4250
X2.1000Y0.4250
X2.2000Y0.4250
X2.3000Y0.4250
X0.8000Y2.4250
X0.7000Y2.4250
X0.6000Y2.4250
X0.5000Y2.4250
X0.5000Y2.1250
X0.6000Y2.1250
X0.7000Y2.1250
X0.8000Y2.1250
X0.8000Y1.9250
X0.7000Y1.9250
X0.6000Y1.9250
X0.5000Y1.9250
X0.5000Y1.6250
X0.6000Y1.6250
X0.7000Y1.6250
X0.8000Y1.6250
X0.8000Y1.4250
X0.7000Y1.4250
X0.6000Y1.4250
X0.5000Y1.4250
X0.5000Y1.1250
X0.6000Y1.1250
X0.7000Y1.1250
X0.8000Y1.1250
X0.9000Y2.4250
X1.1000Y2.4250
X1.0000Y2.3000
X1.0000Y2.1000
X1.9000Y0.1000
X2.0000Y0.1000
X1.2000Y0.6500
X1.0000Y0.6500
X1.2000Y0.5000
X1.0000Y0.5000
X1.2000Y0.3500
X1.0000Y0.3500
X0.9250Y0.7500
X0.9250Y0.9500
X0.7750Y0.7500
X0.7750Y0.9500
X0.6250Y0.7500
X0.6250Y0.9500
X0.3000Y2.4250
X0.1000Y2.4250
X0.3000Y2.2750
X0.1000Y2.2750
X0.3000Y2.1250
X0.1000Y2.1250
X0.3000Y1.9250
X0.1000Y1.9250
X0.3000Y1.7750
X0.1000Y1.7750
X0.3000Y1.6250
X0.1000Y1.6250
X0.3000Y1.4250
X0.1000Y1.4250
X0.3000Y1.2750
X0.1000Y1.2750
X0.3000Y1.1250
X0.1000Y1.1250
X2.1000Y0.1000
X2.2000Y0.1000
X1.7000Y0.1000
X1.6000Y0.1000
X1.5000Y0.1000
X1.4000Y0.1000
X1.3000Y0.1000
X1.2000Y0.1000
X1.0000Y0.1500
X0.9000Y0.1500
X0.7750Y0.1500
X0.6750Y0.1500
X0.5500Y0.1500
X0.4500Y0.1500
X0.3250Y0.1500
X0.2250Y0.1500
X0.9500Y1.5000
X0.9500Y1.3000
T2
X1.3250Y0.5750
X1.9000Y0.5750
X1.8000Y0.3500
X2.0000Y0.3500
X1.5500Y0.2750
X1.1250Y0.8250
X0.9000Y0.4000
X0.7750Y0.6500
X0.9250Y0.5750
X1.4500Y0.3250
X1.0500Y1.0000
X0.4000Y1.7250
X0.4000Y2.2250
X0.4000Y1.2250
X1.3500Y2.1750
X2.1250Y1.1000
X2.0500Y0.5750
T3
X2.0500Y2.3000
X2.0500Y0.9000
X0.1500Y0.4250
X1.0000Y1.8750
X1.0000Y1.1500
T00
M30
