G04 -- Generated By PCBWeb Designer*
%FSLAX24Y24*%
%MOIN*%
%OFA0B0*%
%SFA1.0B1.0*%
%AMROTRECT*21,1,$1,$2,0,0,$3*%
%AMROTOBLONG*1,1,$7,$1,$2*1,1,$7,$3,$4*21,1,$5,$6,0,0,$8*%
%ADD10C,0.025*%
%ADD11C,0.075*%
%ADD12C,0.04*%
%ADD13C,0.085*%
%ADD14C,0.01*%
%ADD15C,0.026*%
%ADD16C,0.008*%
%ADD17C,0.024*%
%ADD18C,0.02*%
%ADD19C,0.05*%
%ADD20C,0.005*%
%ADD21C,0.021*%
%ADD22C,0.03*%
%ADD23C,0.046*%
%ADD24C,0.1378*%
%ADD25C,0.1181*%
%ADD26C,0.1478*%
%ADD27C,0.001*%
%ADD28C,0.0*%
G01*
%LNSTD*%
%LPD*%
G54D13*
X12000Y24250D03*
X12000Y23250D03*
X12000Y22250D03*
X12000Y21250D03*
X12000Y20250D03*
X12000Y19250D03*
X12000Y18250D03*
X12000Y17250D03*
X12000Y16250D03*
X12000Y15250D03*
X12000Y14250D03*
X12000Y13250D03*
X12000Y12250D03*
X12000Y11250D03*
X12000Y10250D03*
X23000Y10250D03*
X23000Y11250D03*
X23000Y12250D03*
X23000Y13250D03*
X23000Y14250D03*
X23000Y15250D03*
X23000Y16250D03*
X23000Y17250D03*
X23000Y18250D03*
X23000Y19250D03*
X23000Y20250D03*
X23000Y21250D03*
X23000Y22250D03*
X23000Y23250D03*
X23000Y24250D03*
X23000Y7250D03*
X22000Y7250D03*
X21000Y7250D03*
X20000Y7250D03*
X19000Y7250D03*
X18000Y7250D03*
X17000Y7250D03*
X16000Y7250D03*
X15000Y7250D03*
X14000Y7250D03*
X14000Y4250D03*
X15000Y4250D03*
X16000Y4250D03*
X17000Y4250D03*
X18000Y4250D03*
X19000Y4250D03*
X20000Y4250D03*
X21000Y4250D03*
X22000Y4250D03*
X23000Y4250D03*
X8000Y24250D03*
X7000Y24250D03*
X6000Y24250D03*
X5000Y24250D03*
X5000Y21250D03*
X6000Y21250D03*
X7000Y21250D03*
X8000Y21250D03*
X8000Y19250D03*
X7000Y19250D03*
X6000Y19250D03*
X5000Y19250D03*
X5000Y16250D03*
X6000Y16250D03*
X7000Y16250D03*
X8000Y16250D03*
X8000Y14250D03*
X7000Y14250D03*
X6000Y14250D03*
X5000Y14250D03*
X5000Y11250D03*
X6000Y11250D03*
X7000Y11250D03*
X8000Y11250D03*
X9000Y24250D03*
X11000Y24250D03*
X10000Y23000D03*
X10000Y21000D03*
G54D19*
X13250Y5750D03*
X19000Y5750D03*
G54D13*
X19000Y1000D03*
X20000Y1000D03*
X12000Y6500D03*
X10000Y6500D03*
X12000Y5000D03*
X10000Y5000D03*
X12000Y3500D03*
X10000Y3500D03*
X9250Y7500D03*
X9250Y9500D03*
X7750Y7500D03*
X7750Y9500D03*
X6250Y7500D03*
X6250Y9500D03*
X3000Y24250D03*
X1000Y24250D03*
X3000Y22750D03*
X1000Y22750D03*
X3000Y21250D03*
X1000Y21250D03*
X3000Y19250D03*
X1000Y19250D03*
X3000Y17750D03*
X1000Y17750D03*
X3000Y16250D03*
X1000Y16250D03*
X3000Y14250D03*
X1000Y14250D03*
X3000Y12750D03*
X1000Y12750D03*
X3000Y11250D03*
X1000Y11250D03*
X21000Y1000D03*
X22000Y1000D03*
G54D19*
X18000Y3500D03*
X20000Y3500D03*
G54D13*
X17000Y1000D03*
X16000Y1000D03*
X15000Y1000D03*
X14000Y1000D03*
X13000Y1000D03*
X12000Y1000D03*
G54D19*
X15500Y2750D03*
X11250Y8250D03*
G54D13*
X10000Y1500D03*
X9000Y1500D03*
X7750Y1500D03*
X6750Y1500D03*
X5500Y1500D03*
X4500Y1500D03*
G54D19*
X9000Y4000D03*
X7750Y6500D03*
G54D13*
X3250Y1500D03*
X2250Y1500D03*
G54D26*
X20500Y23000D03*
X20500Y9000D03*
X1500Y4250D03*
X10000Y18750D03*
X10000Y11500D03*
G54D13*
X9500Y15000D03*
X9500Y13000D03*
G54D19*
X9250Y5750D03*
X14500Y3250D03*
X10500Y10000D03*
X4000Y17250D03*
X4000Y22250D03*
X4000Y12250D03*
X13500Y21750D03*
X21250Y11000D03*
X20500Y5750D03*
M02*
