G04 -- Generated By PCBWeb Designer*
%FSLAX24Y24*%
%MOIN*%
%OFA0B0*%
%SFA1.0B1.0*%
%AMROTRECT*21,1,$1,$2,0,0,$3*%
%AMROTOBLONG*1,1,$7,$1,$2*1,1,$7,$3,$4*21,1,$5,$6,0,0,$8*%
%ADD10C,0.025*%
%ADD11C,0.075*%
%ADD12C,0.04*%
%ADD13C,0.085*%
%ADD14C,0.01*%
%ADD15C,0.026*%
%ADD16C,0.008*%
%ADD17C,0.024*%
%ADD18C,0.02*%
%ADD19C,0.05*%
%ADD20C,0.005*%
%ADD21C,0.021*%
%ADD22C,0.03*%
%ADD23C,0.046*%
%ADD24C,0.1378*%
%ADD25C,0.1181*%
%ADD26C,0.1478*%
%ADD27C,0.001*%
%ADD28C,0.0*%
G01*
%LNERASE*%
%LPC*%
G54D15*
X12600Y24450D02*
X12650Y24500D01*
X12775Y24500D01*
X12825Y24450D01*
X12825Y24350D01*
X12775Y24300D01*
X12700Y24300D01*
X12775Y24300D02*
X12825Y24250D01*
X12825Y24150D01*
X12775Y24100D01*
X12650Y24100D01*
X12600Y24150D01*
X12925Y24500D02*
X13075Y24100D01*
X13225Y24500D01*
X13325Y24450D02*
X13375Y24500D01*
X13500Y24500D01*
X13550Y24450D01*
X13550Y24350D01*
X13500Y24300D01*
X13425Y24300D01*
X13500Y24300D02*
X13550Y24250D01*
X13550Y24150D01*
X13500Y24100D01*
X13375Y24100D01*
X13325Y24150D01*
X12850Y23450D02*
X12800Y23500D01*
X12650Y23500D01*
X12600Y23450D01*
X12600Y23150D01*
X12650Y23100D01*
X12800Y23100D01*
X12850Y23150D01*
X12850Y23300D01*
X12675Y23300D01*
X12950Y23100D02*
X12950Y23500D01*
X13200Y23100D01*
X13200Y23500D01*
X13300Y23100D02*
X13300Y23500D01*
X13475Y23500D01*
X13550Y23425D01*
X13550Y23175D01*
X13475Y23100D01*
X13300Y23100D01*
X13300Y23100D01*
X12600Y22500D02*
X12900Y22500D01*
X12750Y22500D02*
X12750Y22100D01*
X13000Y22100D02*
X13300Y22500D01*
X13000Y22500D02*
X13300Y22100D01*
X12600Y21100D02*
X12600Y21500D01*
X12775Y21500D01*
X12850Y21425D01*
X12850Y21350D01*
X12775Y21275D01*
X12600Y21275D01*
X12775Y21275D02*
X12875Y21100D01*
X12975Y21100D02*
X13275Y21500D01*
X12975Y21500D02*
X13275Y21100D01*
X12600Y20100D02*
X12600Y20500D01*
X12775Y20500D01*
X12850Y20425D01*
X12850Y20175D01*
X12775Y20100D01*
X12600Y20100D01*
X12600Y20100D01*
X12950Y20150D02*
X13000Y20100D01*
X13125Y20100D01*
X13175Y20150D01*
X13175Y20250D01*
X13125Y20300D01*
X13000Y20300D01*
X12950Y20250D01*
X12950Y20150D01*
X12950Y20150D01*
X13125Y20300D02*
X13175Y20350D01*
X13175Y20450D01*
X13125Y20500D01*
X13000Y20500D01*
X12950Y20450D01*
X12950Y20350D01*
X13000Y20300D01*
X12600Y19100D02*
X12600Y19500D01*
X12775Y19500D01*
X12850Y19425D01*
X12850Y19175D01*
X12775Y19100D01*
X12600Y19100D01*
X12600Y19100D01*
X12950Y19500D02*
X13175Y19500D01*
X12950Y19100D01*
X12600Y18100D02*
X12600Y18500D01*
X12775Y18500D01*
X12850Y18425D01*
X12850Y18175D01*
X12775Y18100D01*
X12600Y18100D01*
X12600Y18100D01*
X13025Y18500D02*
X12950Y18425D01*
X12950Y18150D01*
X13000Y18100D01*
X13125Y18100D01*
X13175Y18150D01*
X13175Y18250D01*
X13125Y18300D01*
X13000Y18300D01*
X12950Y18250D01*
X12600Y17100D02*
X12600Y17500D01*
X12775Y17500D01*
X12850Y17425D01*
X12850Y17175D01*
X12775Y17100D01*
X12600Y17100D01*
X12600Y17100D01*
X13150Y17500D02*
X12950Y17500D01*
X12950Y17325D01*
X13100Y17325D01*
X13150Y17275D01*
X13150Y17150D01*
X13100Y17100D01*
X12950Y17100D01*
X12850Y16450D02*
X12800Y16500D01*
X12650Y16500D01*
X12600Y16450D01*
X12600Y16150D01*
X12650Y16100D01*
X12800Y16100D01*
X12850Y16150D01*
X12850Y16300D01*
X12675Y16300D01*
X12950Y16100D02*
X12950Y16500D01*
X13200Y16100D01*
X13200Y16500D01*
X13300Y16100D02*
X13300Y16500D01*
X13475Y16500D01*
X13550Y16425D01*
X13550Y16175D01*
X13475Y16100D01*
X13300Y16100D01*
X13300Y16100D01*
X12600Y15450D02*
X12650Y15500D01*
X12775Y15500D01*
X12825Y15450D01*
X12825Y15350D01*
X12775Y15300D01*
X12700Y15300D01*
X12775Y15300D02*
X12825Y15250D01*
X12825Y15150D01*
X12775Y15100D01*
X12650Y15100D01*
X12600Y15150D01*
X12925Y15500D02*
X13075Y15100D01*
X13225Y15500D01*
X13325Y15450D02*
X13375Y15500D01*
X13500Y15500D01*
X13550Y15450D01*
X13550Y15350D01*
X13500Y15300D01*
X13425Y15300D01*
X13500Y15300D02*
X13550Y15250D01*
X13550Y15150D01*
X13500Y15100D01*
X13375Y15100D01*
X13325Y15150D01*
X12600Y14100D02*
X12600Y14500D01*
X12775Y14500D01*
X12850Y14425D01*
X12850Y14175D01*
X12775Y14100D01*
X12600Y14100D01*
X12600Y14100D01*
X12950Y14500D02*
X12950Y14275D01*
X13150Y14275D01*
X13100Y14450D02*
X13100Y14100D01*
X12600Y13100D02*
X12600Y13500D01*
X12775Y13500D01*
X12850Y13425D01*
X12850Y13175D01*
X12775Y13100D01*
X12600Y13100D01*
X12600Y13100D01*
X12950Y13450D02*
X13000Y13500D01*
X13125Y13500D01*
X13175Y13450D01*
X13175Y13350D01*
X13125Y13300D01*
X13050Y13300D01*
X13125Y13300D02*
X13175Y13250D01*
X13175Y13150D01*
X13125Y13100D01*
X13000Y13100D01*
X12950Y13150D01*
X12600Y12100D02*
X12600Y12500D01*
X12775Y12500D01*
X12850Y12425D01*
X12850Y12175D01*
X12775Y12100D01*
X12600Y12100D01*
X12600Y12100D01*
X12950Y12425D02*
X13025Y12500D01*
X13100Y12500D01*
X13175Y12425D01*
X13175Y12325D01*
X13125Y12275D01*
X13000Y12275D01*
X12950Y12225D01*
X12950Y12100D01*
X13175Y12100D01*
X12600Y11100D02*
X12600Y11500D01*
X12775Y11500D01*
X12850Y11425D01*
X12850Y11175D01*
X12775Y11100D01*
X12600Y11100D01*
X12600Y11100D01*
X12950Y11100D02*
X13100Y11100D01*
X13025Y11100D02*
X13025Y11500D01*
X12950Y11450D01*
X12600Y10100D02*
X12600Y10500D01*
X12775Y10500D01*
X12850Y10425D01*
X12850Y10175D01*
X12775Y10100D01*
X12600Y10100D01*
X12600Y10100D01*
X12950Y10200D02*
X12975Y10150D01*
X13000Y10125D01*
X13050Y10100D01*
X13150Y10100D01*
X13200Y10125D01*
X13225Y10150D01*
X13250Y10200D01*
X13250Y10400D01*
X13225Y10450D01*
X13200Y10475D01*
X13150Y10500D01*
X13050Y10500D01*
X13000Y10475D01*
X12975Y10450D01*
X12950Y10400D01*
X12950Y10200D01*
X12950Y10200D01*
X12950Y10100D02*
X13250Y10500D01*
X21908Y10250D02*
X22092Y10250D01*
X21850Y10100D02*
X22000Y10500D01*
X22150Y10100D01*
X22250Y10200D02*
X22275Y10150D01*
X22300Y10125D01*
X22350Y10100D01*
X22450Y10100D01*
X22500Y10125D01*
X22525Y10150D01*
X22550Y10200D01*
X22550Y10400D01*
X22525Y10450D01*
X22500Y10475D01*
X22450Y10500D01*
X22350Y10500D01*
X22300Y10475D01*
X22275Y10450D01*
X22250Y10400D01*
X22250Y10200D01*
X22250Y10200D01*
X22250Y10100D02*
X22550Y10500D01*
X21600Y11100D02*
X21600Y11500D01*
X21775Y11500D01*
X21850Y11425D01*
X21850Y11350D01*
X21775Y11275D01*
X21600Y11275D01*
X21775Y11275D02*
X21875Y11100D01*
X22225Y11425D02*
X22150Y11500D01*
X22050Y11500D01*
X21975Y11425D01*
X21975Y11350D01*
X22025Y11300D01*
X22175Y11300D01*
X22225Y11250D01*
X22225Y11175D01*
X22150Y11100D01*
X22050Y11100D01*
X21975Y11175D01*
X22325Y11500D02*
X22475Y11100D01*
X22625Y11500D01*
X21600Y12100D02*
X21600Y12500D01*
X21775Y12500D01*
X21850Y12425D01*
X21850Y12350D01*
X21775Y12275D01*
X21600Y12275D01*
X21775Y12275D02*
X21875Y12100D01*
X22225Y12425D02*
X22150Y12500D01*
X22050Y12500D01*
X21975Y12425D01*
X21975Y12350D01*
X22025Y12300D01*
X22175Y12300D01*
X22225Y12250D01*
X22225Y12175D01*
X22150Y12100D01*
X22050Y12100D01*
X21975Y12175D01*
X22325Y12500D02*
X22475Y12100D01*
X22625Y12500D01*
X21600Y13100D02*
X21600Y13500D01*
X21775Y13500D01*
X21850Y13425D01*
X21850Y13350D01*
X21775Y13275D01*
X21600Y13275D01*
X21775Y13275D02*
X21875Y13100D01*
X22225Y13425D02*
X22150Y13500D01*
X22050Y13500D01*
X21975Y13425D01*
X21975Y13350D01*
X22025Y13300D01*
X22175Y13300D01*
X22225Y13250D01*
X22225Y13175D01*
X22150Y13100D01*
X22050Y13100D01*
X21975Y13175D01*
X22325Y13500D02*
X22475Y13100D01*
X22625Y13500D01*
X21600Y14100D02*
X21600Y14500D01*
X21775Y14500D01*
X21850Y14425D01*
X21850Y14350D01*
X21775Y14275D01*
X21600Y14275D01*
X21775Y14275D02*
X21875Y14100D01*
X22225Y14425D02*
X22150Y14500D01*
X22050Y14500D01*
X21975Y14425D01*
X21975Y14350D01*
X22025Y14300D01*
X22175Y14300D01*
X22225Y14250D01*
X22225Y14175D01*
X22150Y14100D01*
X22050Y14100D01*
X21975Y14175D01*
X22325Y14500D02*
X22475Y14100D01*
X22625Y14500D01*
X21600Y15100D02*
X21600Y15500D01*
X21775Y15500D01*
X21850Y15425D01*
X21850Y15350D01*
X21775Y15275D01*
X21600Y15275D01*
X21775Y15275D02*
X21875Y15100D01*
X22225Y15425D02*
X22150Y15500D01*
X22050Y15500D01*
X21975Y15425D01*
X21975Y15350D01*
X22025Y15300D01*
X22175Y15300D01*
X22225Y15250D01*
X22225Y15175D01*
X22150Y15100D01*
X22050Y15100D01*
X21975Y15175D01*
X22325Y15500D02*
X22475Y15100D01*
X22625Y15500D01*
X21600Y16100D02*
X21600Y16500D01*
X21775Y16500D01*
X21850Y16425D01*
X21850Y16350D01*
X21775Y16275D01*
X21600Y16275D01*
X21775Y16275D02*
X21875Y16100D01*
X22225Y16425D02*
X22150Y16500D01*
X22050Y16500D01*
X21975Y16425D01*
X21975Y16350D01*
X22025Y16300D01*
X22175Y16300D01*
X22225Y16250D01*
X22225Y16175D01*
X22150Y16100D01*
X22050Y16100D01*
X21975Y16175D01*
X22325Y16500D02*
X22475Y16100D01*
X22625Y16500D01*
X21850Y17450D02*
X21800Y17500D01*
X21650Y17500D01*
X21600Y17450D01*
X21600Y17150D01*
X21650Y17100D01*
X21800Y17100D01*
X21850Y17150D01*
X21850Y17300D01*
X21675Y17300D01*
X21950Y17100D02*
X21950Y17500D01*
X22200Y17100D01*
X22200Y17500D01*
X22300Y17100D02*
X22300Y17500D01*
X22475Y17500D01*
X22550Y17425D01*
X22550Y17175D01*
X22475Y17100D01*
X22300Y17100D01*
X22300Y17100D01*
X21600Y18450D02*
X21650Y18500D01*
X21775Y18500D01*
X21825Y18450D01*
X21825Y18350D01*
X21775Y18300D01*
X21700Y18300D01*
X21775Y18300D02*
X21825Y18250D01*
X21825Y18150D01*
X21775Y18100D01*
X21650Y18100D01*
X21600Y18150D01*
X21925Y18500D02*
X22075Y18100D01*
X22225Y18500D01*
X22325Y18450D02*
X22375Y18500D01*
X22500Y18500D01*
X22550Y18450D01*
X22550Y18350D01*
X22500Y18300D01*
X22425Y18300D01*
X22500Y18300D02*
X22550Y18250D01*
X22550Y18150D01*
X22500Y18100D01*
X22375Y18100D01*
X22325Y18150D01*
X21850Y19450D02*
X21800Y19500D01*
X21650Y19500D01*
X21600Y19450D01*
X21600Y19150D01*
X21650Y19100D01*
X21800Y19100D01*
X21850Y19150D01*
X21850Y19300D01*
X21675Y19300D01*
X21950Y19100D02*
X21950Y19500D01*
X22200Y19100D01*
X22200Y19500D01*
X22300Y19100D02*
X22300Y19500D01*
X22475Y19500D01*
X22550Y19425D01*
X22550Y19175D01*
X22475Y19100D01*
X22300Y19100D01*
X22300Y19100D01*
X21600Y20450D02*
X21650Y20500D01*
X21775Y20500D01*
X21825Y20450D01*
X21825Y20350D01*
X21775Y20300D01*
X21700Y20300D01*
X21775Y20300D02*
X21825Y20250D01*
X21825Y20150D01*
X21775Y20100D01*
X21650Y20100D01*
X21600Y20150D01*
X21925Y20500D02*
X22075Y20100D01*
X22225Y20500D01*
X22325Y20450D02*
X22375Y20500D01*
X22500Y20500D01*
X22550Y20450D01*
X22550Y20350D01*
X22500Y20300D01*
X22425Y20300D01*
X22500Y20300D02*
X22550Y20250D01*
X22550Y20150D01*
X22500Y20100D01*
X22375Y20100D01*
X22325Y20150D01*
X22100Y21500D02*
X21850Y21500D01*
X21850Y21100D01*
X22100Y21100D01*
X21850Y21300D02*
X22000Y21300D01*
X22200Y21100D02*
X22200Y21500D01*
X22450Y21100D01*
X22450Y21500D01*
X21600Y22100D02*
X21600Y22500D01*
X21775Y22500D01*
X21850Y22425D01*
X21850Y22350D01*
X21775Y22275D01*
X21600Y22275D01*
X21775Y22275D02*
X21875Y22100D01*
X22225Y22425D02*
X22150Y22500D01*
X22050Y22500D01*
X21975Y22425D01*
X21975Y22350D01*
X22025Y22300D01*
X22175Y22300D01*
X22225Y22250D01*
X22225Y22175D01*
X22150Y22100D01*
X22050Y22100D01*
X21975Y22175D01*
X22325Y22500D02*
X22625Y22500D01*
X22475Y22500D02*
X22475Y22100D01*
X21850Y23450D02*
X21800Y23500D01*
X21650Y23500D01*
X21600Y23450D01*
X21600Y23150D01*
X21650Y23100D01*
X21800Y23100D01*
X21850Y23150D01*
X21850Y23300D01*
X21675Y23300D01*
X21950Y23100D02*
X21950Y23500D01*
X22200Y23100D01*
X22200Y23500D01*
X22300Y23100D02*
X22300Y23500D01*
X22475Y23500D01*
X22550Y23425D01*
X22550Y23175D01*
X22475Y23100D01*
X22300Y23100D01*
X22300Y23100D01*
X22050Y24500D02*
X21850Y24500D01*
X21850Y24325D01*
X22000Y24325D01*
X22050Y24275D01*
X22050Y24150D01*
X22000Y24100D01*
X21850Y24100D01*
X22150Y24500D02*
X22300Y24100D01*
X22450Y24500D01*
X23100Y6350D02*
X23250Y6350D01*
X23175Y6350D02*
X23175Y6750D01*
X23100Y6700D01*
X13600Y6350D02*
X13750Y6350D01*
X13675Y6350D02*
X13675Y6750D01*
X13600Y6700D01*
X13850Y6450D02*
X13875Y6400D01*
X13900Y6375D01*
X13950Y6350D01*
X14050Y6350D01*
X14100Y6375D01*
X14125Y6400D01*
X14150Y6450D01*
X14150Y6650D01*
X14125Y6700D01*
X14100Y6725D01*
X14050Y6750D01*
X13950Y6750D01*
X13900Y6725D01*
X13875Y6700D01*
X13850Y6650D01*
X13850Y6450D01*
X13850Y6450D01*
X13850Y6350D02*
X14150Y6750D01*
X13600Y4850D02*
X13750Y4850D01*
X13675Y4850D02*
X13675Y5250D01*
X13600Y5200D01*
X13850Y4850D02*
X14000Y4850D01*
X13925Y4850D02*
X13925Y5250D01*
X13850Y5200D01*
X23100Y5175D02*
X23175Y5250D01*
X23250Y5250D01*
X23325Y5175D01*
X23325Y5075D01*
X23275Y5025D01*
X23150Y5025D01*
X23100Y4975D01*
X23100Y4850D01*
X23325Y4850D01*
X23425Y4950D02*
X23450Y4900D01*
X23475Y4875D01*
X23525Y4850D01*
X23625Y4850D01*
X23675Y4875D01*
X23700Y4900D01*
X23725Y4950D01*
X23725Y5150D01*
X23700Y5200D01*
X23675Y5225D01*
X23625Y5250D01*
X23525Y5250D01*
X23475Y5225D01*
X23450Y5200D01*
X23425Y5150D01*
X23425Y4950D01*
X23425Y4950D01*
X23425Y4850D02*
X23725Y5250D01*
X16100Y5600D02*
X16100Y6000D01*
X16225Y5725D01*
X16350Y6000D01*
X16350Y5600D01*
X16508Y5750D02*
X16692Y5750D01*
X16450Y5600D02*
X16600Y6000D01*
X16750Y5600D01*
X16850Y5600D02*
X17150Y6000D01*
X16850Y6000D02*
X17150Y5600D01*
X17250Y6000D02*
X17250Y5775D01*
X17450Y5775D01*
X17400Y5950D02*
X17400Y5600D01*
X17750Y6000D02*
X17550Y6000D01*
X17550Y5825D01*
X17700Y5825D01*
X17750Y5775D01*
X17750Y5650D01*
X17700Y5600D01*
X17550Y5600D01*
X17850Y6000D02*
X17850Y5775D01*
X18050Y5775D01*
X18000Y5950D02*
X18000Y5600D01*
X18350Y6000D02*
X18150Y6000D01*
X18150Y5825D01*
X18300Y5825D01*
X18350Y5775D01*
X18350Y5650D01*
X18300Y5600D01*
X18150Y5600D01*
G54D17*
X16350Y17250D02*
X16100Y17250D01*
X16100Y16850D01*
X16350Y16850D01*
X16100Y17050D02*
X16250Y17050D01*
X16700Y17175D02*
X16625Y17250D01*
X16525Y17250D01*
X16450Y17175D01*
X16450Y17100D01*
X16500Y17050D01*
X16650Y17050D01*
X16700Y17000D01*
X16700Y16925D01*
X16625Y16850D01*
X16525Y16850D01*
X16450Y16925D01*
X16800Y16850D02*
X16800Y17250D01*
X16950Y17250D01*
X17000Y17200D01*
X17000Y17100D01*
X16950Y17050D01*
X16800Y17050D01*
X17100Y16900D02*
X17150Y16850D01*
X17275Y16850D01*
X17325Y16900D01*
X17325Y17000D01*
X17275Y17050D01*
X17150Y17050D01*
X17100Y17000D01*
X17100Y16900D01*
X17100Y16900D01*
X17275Y17050D02*
X17325Y17100D01*
X17325Y17200D01*
X17275Y17250D01*
X17150Y17250D01*
X17100Y17200D01*
X17100Y17100D01*
X17150Y17050D01*
X17425Y17175D02*
X17500Y17250D01*
X17575Y17250D01*
X17650Y17175D01*
X17650Y17075D01*
X17600Y17025D01*
X17475Y17025D01*
X17425Y16975D01*
X17425Y16850D01*
X17650Y16850D01*
X17825Y17250D02*
X17750Y17175D01*
X17750Y16900D01*
X17800Y16850D01*
X17925Y16850D01*
X17975Y16900D01*
X17975Y17000D01*
X17925Y17050D01*
X17800Y17050D01*
X17750Y17000D01*
X18150Y17250D02*
X18075Y17175D01*
X18075Y16900D01*
X18125Y16850D01*
X18250Y16850D01*
X18300Y16900D01*
X18300Y17000D01*
X18250Y17050D01*
X18125Y17050D01*
X18075Y17000D01*
X18400Y17025D02*
X18550Y17025D01*
X18650Y16850D02*
X18800Y16850D01*
X18725Y16850D02*
X18725Y17250D01*
X18650Y17200D01*
X18900Y17175D02*
X18975Y17250D01*
X19050Y17250D01*
X19125Y17175D01*
X19125Y17075D01*
X19075Y17025D01*
X18950Y17025D01*
X18900Y16975D01*
X18900Y16850D01*
X19125Y16850D01*
X19475Y17250D02*
X19225Y17250D01*
X19225Y16850D01*
X19475Y16850D01*
X19225Y17050D02*
X19375Y17050D01*
G54D15*
X4850Y23400D02*
X4900Y23350D01*
X5025Y23350D01*
X5075Y23400D01*
X5075Y23500D01*
X5025Y23550D01*
X4900Y23550D01*
X4850Y23500D01*
X4850Y23400D01*
X4850Y23400D01*
X5025Y23550D02*
X5075Y23600D01*
X5075Y23700D01*
X5025Y23750D01*
X4900Y23750D01*
X4850Y23700D01*
X4850Y23600D01*
X4900Y23550D01*
X4850Y21850D02*
X5000Y21850D01*
X4925Y21850D02*
X4925Y22250D01*
X4850Y22200D01*
X7850Y22250D02*
X7850Y22025D01*
X8050Y22025D01*
X8000Y22200D02*
X8000Y21850D01*
X8050Y23750D02*
X7850Y23750D01*
X7850Y23575D01*
X8000Y23575D01*
X8050Y23525D01*
X8050Y23400D01*
X8000Y23350D01*
X7850Y23350D01*
X5600Y23000D02*
X5600Y22600D01*
X5825Y22600D01*
X5925Y22600D02*
X5925Y23000D01*
X6050Y22725D01*
X6175Y23000D01*
X6175Y22600D01*
X6275Y22600D02*
X6425Y22600D01*
X6350Y22600D02*
X6350Y23000D01*
X6275Y22950D01*
X6525Y22650D02*
X6575Y22600D01*
X6700Y22600D01*
X6750Y22650D01*
X6750Y22750D01*
X6700Y22800D01*
X6575Y22800D01*
X6525Y22750D01*
X6525Y22650D01*
X6525Y22650D01*
X6700Y22800D02*
X6750Y22850D01*
X6750Y22950D01*
X6700Y23000D01*
X6575Y23000D01*
X6525Y22950D01*
X6525Y22850D01*
X6575Y22800D01*
X6850Y22650D02*
X6900Y22600D01*
X7025Y22600D01*
X7075Y22650D01*
X7075Y22750D01*
X7025Y22800D01*
X6900Y22800D01*
X6850Y22750D01*
X6850Y22650D01*
X6850Y22650D01*
X7025Y22800D02*
X7075Y22850D01*
X7075Y22950D01*
X7025Y23000D01*
X6900Y23000D01*
X6850Y22950D01*
X6850Y22850D01*
X6900Y22800D01*
X7175Y22600D02*
X7325Y22600D01*
X7250Y22600D02*
X7250Y23000D01*
X7175Y22950D01*
X4850Y18400D02*
X4900Y18350D01*
X5025Y18350D01*
X5075Y18400D01*
X5075Y18500D01*
X5025Y18550D01*
X4900Y18550D01*
X4850Y18500D01*
X4850Y18400D01*
X4850Y18400D01*
X5025Y18550D02*
X5075Y18600D01*
X5075Y18700D01*
X5025Y18750D01*
X4900Y18750D01*
X4850Y18700D01*
X4850Y18600D01*
X4900Y18550D01*
X4850Y16850D02*
X5000Y16850D01*
X4925Y16850D02*
X4925Y17250D01*
X4850Y17200D01*
X7850Y17250D02*
X7850Y17025D01*
X8050Y17025D01*
X8000Y17200D02*
X8000Y16850D01*
X8050Y18750D02*
X7850Y18750D01*
X7850Y18575D01*
X8000Y18575D01*
X8050Y18525D01*
X8050Y18400D01*
X8000Y18350D01*
X7850Y18350D01*
X5600Y18000D02*
X5600Y17600D01*
X5825Y17600D01*
X5925Y17600D02*
X5925Y18000D01*
X6050Y17725D01*
X6175Y18000D01*
X6175Y17600D01*
X6275Y17600D02*
X6425Y17600D01*
X6350Y17600D02*
X6350Y18000D01*
X6275Y17950D01*
X6525Y17650D02*
X6575Y17600D01*
X6700Y17600D01*
X6750Y17650D01*
X6750Y17750D01*
X6700Y17800D01*
X6575Y17800D01*
X6525Y17750D01*
X6525Y17650D01*
X6525Y17650D01*
X6700Y17800D02*
X6750Y17850D01*
X6750Y17950D01*
X6700Y18000D01*
X6575Y18000D01*
X6525Y17950D01*
X6525Y17850D01*
X6575Y17800D01*
X6850Y17650D02*
X6900Y17600D01*
X7025Y17600D01*
X7075Y17650D01*
X7075Y17750D01*
X7025Y17800D01*
X6900Y17800D01*
X6850Y17750D01*
X6850Y17650D01*
X6850Y17650D01*
X7025Y17800D02*
X7075Y17850D01*
X7075Y17950D01*
X7025Y18000D01*
X6900Y18000D01*
X6850Y17950D01*
X6850Y17850D01*
X6900Y17800D01*
X7175Y17600D02*
X7325Y17600D01*
X7250Y17600D02*
X7250Y18000D01*
X7175Y17950D01*
X4850Y13400D02*
X4900Y13350D01*
X5025Y13350D01*
X5075Y13400D01*
X5075Y13500D01*
X5025Y13550D01*
X4900Y13550D01*
X4850Y13500D01*
X4850Y13400D01*
X4850Y13400D01*
X5025Y13550D02*
X5075Y13600D01*
X5075Y13700D01*
X5025Y13750D01*
X4900Y13750D01*
X4850Y13700D01*
X4850Y13600D01*
X4900Y13550D01*
X4850Y11850D02*
X5000Y11850D01*
X4925Y11850D02*
X4925Y12250D01*
X4850Y12200D01*
X7850Y12250D02*
X7850Y12025D01*
X8050Y12025D01*
X8000Y12200D02*
X8000Y11850D01*
X8050Y13750D02*
X7850Y13750D01*
X7850Y13575D01*
X8000Y13575D01*
X8050Y13525D01*
X8050Y13400D01*
X8000Y13350D01*
X7850Y13350D01*
X5600Y13000D02*
X5600Y12600D01*
X5825Y12600D01*
X5925Y12600D02*
X5925Y13000D01*
X6050Y12725D01*
X6175Y13000D01*
X6175Y12600D01*
X6275Y12600D02*
X6425Y12600D01*
X6350Y12600D02*
X6350Y13000D01*
X6275Y12950D01*
X6525Y12650D02*
X6575Y12600D01*
X6700Y12600D01*
X6750Y12650D01*
X6750Y12750D01*
X6700Y12800D01*
X6575Y12800D01*
X6525Y12750D01*
X6525Y12650D01*
X6525Y12650D01*
X6700Y12800D02*
X6750Y12850D01*
X6750Y12950D01*
X6700Y13000D01*
X6575Y13000D01*
X6525Y12950D01*
X6525Y12850D01*
X6575Y12800D01*
X6850Y12650D02*
X6900Y12600D01*
X7025Y12600D01*
X7075Y12650D01*
X7075Y12750D01*
X7025Y12800D01*
X6900Y12800D01*
X6850Y12750D01*
X6850Y12650D01*
X6850Y12650D01*
X7025Y12800D02*
X7075Y12850D01*
X7075Y12950D01*
X7025Y13000D01*
X6900Y13000D01*
X6850Y12950D01*
X6850Y12850D01*
X6900Y12800D01*
X7175Y12600D02*
X7325Y12600D01*
X7250Y12600D02*
X7250Y13000D01*
X7175Y12950D01*
G54D21*
X1560Y24110D02*
X1650Y24110D01*
X1605Y24110D02*
X1605Y24350D01*
X1560Y24320D01*
X1710Y24170D02*
X1725Y24140D01*
X1740Y24125D01*
X1770Y24110D01*
X1830Y24110D01*
X1860Y24125D01*
X1875Y24140D01*
X1890Y24170D01*
X1890Y24290D01*
X1875Y24320D01*
X1860Y24335D01*
X1830Y24350D01*
X1770Y24350D01*
X1740Y24335D01*
X1725Y24320D01*
X1710Y24290D01*
X1710Y24170D01*
X1710Y24170D01*
X1710Y24110D02*
X1890Y24350D01*
X1950Y24170D02*
X1965Y24140D01*
X1980Y24125D01*
X2010Y24110D01*
X2070Y24110D01*
X2100Y24125D01*
X2115Y24140D01*
X2130Y24170D01*
X2130Y24290D01*
X2115Y24320D01*
X2100Y24335D01*
X2070Y24350D01*
X2010Y24350D01*
X1980Y24335D01*
X1965Y24320D01*
X1950Y24290D01*
X1950Y24170D01*
X1950Y24170D01*
X1950Y24110D02*
X2130Y24350D01*
X2190Y24245D02*
X2190Y24110D01*
X2190Y24222D02*
X2212Y24245D01*
X2272Y24245D01*
X2295Y24222D01*
X2295Y24110D01*
X2505Y24350D02*
X2355Y24350D01*
X2355Y24110D01*
X2355Y24230D02*
X2445Y24230D01*
X1560Y21110D02*
X1650Y21110D01*
X1605Y21110D02*
X1605Y21350D01*
X1560Y21320D01*
X1710Y21170D02*
X1725Y21140D01*
X1740Y21125D01*
X1770Y21110D01*
X1830Y21110D01*
X1860Y21125D01*
X1875Y21140D01*
X1890Y21170D01*
X1890Y21290D01*
X1875Y21320D01*
X1860Y21335D01*
X1830Y21350D01*
X1770Y21350D01*
X1740Y21335D01*
X1725Y21320D01*
X1710Y21290D01*
X1710Y21170D01*
X1710Y21170D01*
X1710Y21110D02*
X1890Y21350D01*
X1950Y21170D02*
X1965Y21140D01*
X1980Y21125D01*
X2010Y21110D01*
X2070Y21110D01*
X2100Y21125D01*
X2115Y21140D01*
X2130Y21170D01*
X2130Y21290D01*
X2115Y21320D01*
X2100Y21335D01*
X2070Y21350D01*
X2010Y21350D01*
X1980Y21335D01*
X1965Y21320D01*
X1950Y21290D01*
X1950Y21170D01*
X1950Y21170D01*
X1950Y21110D02*
X2130Y21350D01*
X2190Y21245D02*
X2190Y21110D01*
X2190Y21222D02*
X2212Y21245D01*
X2272Y21245D01*
X2295Y21222D01*
X2295Y21110D01*
X2505Y21350D02*
X2355Y21350D01*
X2355Y21110D01*
X2355Y21230D02*
X2445Y21230D01*
X1560Y19110D02*
X1650Y19110D01*
X1605Y19110D02*
X1605Y19350D01*
X1560Y19320D01*
X1710Y19170D02*
X1725Y19140D01*
X1740Y19125D01*
X1770Y19110D01*
X1830Y19110D01*
X1860Y19125D01*
X1875Y19140D01*
X1890Y19170D01*
X1890Y19290D01*
X1875Y19320D01*
X1860Y19335D01*
X1830Y19350D01*
X1770Y19350D01*
X1740Y19335D01*
X1725Y19320D01*
X1710Y19290D01*
X1710Y19170D01*
X1710Y19170D01*
X1710Y19110D02*
X1890Y19350D01*
X1950Y19170D02*
X1965Y19140D01*
X1980Y19125D01*
X2010Y19110D01*
X2070Y19110D01*
X2100Y19125D01*
X2115Y19140D01*
X2130Y19170D01*
X2130Y19290D01*
X2115Y19320D01*
X2100Y19335D01*
X2070Y19350D01*
X2010Y19350D01*
X1980Y19335D01*
X1965Y19320D01*
X1950Y19290D01*
X1950Y19170D01*
X1950Y19170D01*
X1950Y19110D02*
X2130Y19350D01*
X2190Y19245D02*
X2190Y19110D01*
X2190Y19222D02*
X2212Y19245D01*
X2272Y19245D01*
X2295Y19222D01*
X2295Y19110D01*
X2505Y19350D02*
X2355Y19350D01*
X2355Y19110D01*
X2355Y19230D02*
X2445Y19230D01*
X1560Y16110D02*
X1650Y16110D01*
X1605Y16110D02*
X1605Y16350D01*
X1560Y16320D01*
X1710Y16170D02*
X1725Y16140D01*
X1740Y16125D01*
X1770Y16110D01*
X1830Y16110D01*
X1860Y16125D01*
X1875Y16140D01*
X1890Y16170D01*
X1890Y16290D01*
X1875Y16320D01*
X1860Y16335D01*
X1830Y16350D01*
X1770Y16350D01*
X1740Y16335D01*
X1725Y16320D01*
X1710Y16290D01*
X1710Y16170D01*
X1710Y16170D01*
X1710Y16110D02*
X1890Y16350D01*
X1950Y16170D02*
X1965Y16140D01*
X1980Y16125D01*
X2010Y16110D01*
X2070Y16110D01*
X2100Y16125D01*
X2115Y16140D01*
X2130Y16170D01*
X2130Y16290D01*
X2115Y16320D01*
X2100Y16335D01*
X2070Y16350D01*
X2010Y16350D01*
X1980Y16335D01*
X1965Y16320D01*
X1950Y16290D01*
X1950Y16170D01*
X1950Y16170D01*
X1950Y16110D02*
X2130Y16350D01*
X2190Y16245D02*
X2190Y16110D01*
X2190Y16222D02*
X2212Y16245D01*
X2272Y16245D01*
X2295Y16222D01*
X2295Y16110D01*
X2505Y16350D02*
X2355Y16350D01*
X2355Y16110D01*
X2355Y16230D02*
X2445Y16230D01*
X1560Y14110D02*
X1650Y14110D01*
X1605Y14110D02*
X1605Y14350D01*
X1560Y14320D01*
X1710Y14170D02*
X1725Y14140D01*
X1740Y14125D01*
X1770Y14110D01*
X1830Y14110D01*
X1860Y14125D01*
X1875Y14140D01*
X1890Y14170D01*
X1890Y14290D01*
X1875Y14320D01*
X1860Y14335D01*
X1830Y14350D01*
X1770Y14350D01*
X1740Y14335D01*
X1725Y14320D01*
X1710Y14290D01*
X1710Y14170D01*
X1710Y14170D01*
X1710Y14110D02*
X1890Y14350D01*
X1950Y14170D02*
X1965Y14140D01*
X1980Y14125D01*
X2010Y14110D01*
X2070Y14110D01*
X2100Y14125D01*
X2115Y14140D01*
X2130Y14170D01*
X2130Y14290D01*
X2115Y14320D01*
X2100Y14335D01*
X2070Y14350D01*
X2010Y14350D01*
X1980Y14335D01*
X1965Y14320D01*
X1950Y14290D01*
X1950Y14170D01*
X1950Y14170D01*
X1950Y14110D02*
X2130Y14350D01*
X2190Y14245D02*
X2190Y14110D01*
X2190Y14222D02*
X2212Y14245D01*
X2272Y14245D01*
X2295Y14222D01*
X2295Y14110D01*
X2505Y14350D02*
X2355Y14350D01*
X2355Y14110D01*
X2355Y14230D02*
X2445Y14230D01*
X1560Y11110D02*
X1650Y11110D01*
X1605Y11110D02*
X1605Y11350D01*
X1560Y11320D01*
X1710Y11170D02*
X1725Y11140D01*
X1740Y11125D01*
X1770Y11110D01*
X1830Y11110D01*
X1860Y11125D01*
X1875Y11140D01*
X1890Y11170D01*
X1890Y11290D01*
X1875Y11320D01*
X1860Y11335D01*
X1830Y11350D01*
X1770Y11350D01*
X1740Y11335D01*
X1725Y11320D01*
X1710Y11290D01*
X1710Y11170D01*
X1710Y11170D01*
X1710Y11110D02*
X1890Y11350D01*
X1950Y11170D02*
X1965Y11140D01*
X1980Y11125D01*
X2010Y11110D01*
X2070Y11110D01*
X2100Y11125D01*
X2115Y11140D01*
X2130Y11170D01*
X2130Y11290D01*
X2115Y11320D01*
X2100Y11335D01*
X2070Y11350D01*
X2010Y11350D01*
X1980Y11335D01*
X1965Y11320D01*
X1950Y11290D01*
X1950Y11170D01*
X1950Y11170D01*
X1950Y11110D02*
X2130Y11350D01*
X2190Y11245D02*
X2190Y11110D01*
X2190Y11222D02*
X2212Y11245D01*
X2272Y11245D01*
X2295Y11222D01*
X2295Y11110D01*
X2505Y11350D02*
X2355Y11350D01*
X2355Y11110D01*
X2355Y11230D02*
X2445Y11230D01*
X9560Y24110D02*
X9650Y24110D01*
X9605Y24110D02*
X9605Y24350D01*
X9560Y24320D01*
X9710Y24170D02*
X9725Y24140D01*
X9740Y24125D01*
X9770Y24110D01*
X9830Y24110D01*
X9860Y24125D01*
X9875Y24140D01*
X9890Y24170D01*
X9890Y24290D01*
X9875Y24320D01*
X9860Y24335D01*
X9830Y24350D01*
X9770Y24350D01*
X9740Y24335D01*
X9725Y24320D01*
X9710Y24290D01*
X9710Y24170D01*
X9710Y24170D01*
X9710Y24110D02*
X9890Y24350D01*
X9950Y24170D02*
X9965Y24140D01*
X9980Y24125D01*
X10010Y24110D01*
X10070Y24110D01*
X10100Y24125D01*
X10115Y24140D01*
X10130Y24170D01*
X10130Y24290D01*
X10115Y24320D01*
X10100Y24335D01*
X10070Y24350D01*
X10010Y24350D01*
X9980Y24335D01*
X9965Y24320D01*
X9950Y24290D01*
X9950Y24170D01*
X9950Y24170D01*
X9950Y24110D02*
X10130Y24350D01*
X10190Y24245D02*
X10190Y24110D01*
X10190Y24222D02*
X10212Y24245D01*
X10272Y24245D01*
X10295Y24222D01*
X10295Y24110D01*
X10505Y24350D02*
X10355Y24350D01*
X10355Y24110D01*
X10355Y24230D02*
X10445Y24230D01*
X9560Y22100D02*
X9560Y21965D01*
X9680Y21965D01*
X9650Y22070D02*
X9650Y21860D01*
X9740Y22100D02*
X9875Y22100D01*
X9740Y21860D01*
X9935Y21920D02*
X9950Y21890D01*
X9965Y21875D01*
X9995Y21860D01*
X10055Y21860D01*
X10085Y21875D01*
X10100Y21890D01*
X10115Y21920D01*
X10115Y22040D01*
X10100Y22070D01*
X10085Y22085D01*
X10055Y22100D01*
X9995Y22100D01*
X9965Y22085D01*
X9950Y22070D01*
X9935Y22040D01*
X9935Y21920D01*
X9935Y21920D01*
X9935Y21860D02*
X10115Y22100D01*
X10175Y21995D02*
X10175Y21882D01*
X10198Y21860D01*
X10258Y21860D01*
X10280Y21882D01*
X10280Y21995D01*
X10280Y21890D02*
X10280Y21860D01*
X10490Y22100D02*
X10340Y22100D01*
X10340Y21860D01*
X10340Y21980D02*
X10430Y21980D01*
X1605Y12850D02*
X1560Y12805D01*
X1560Y12640D01*
X1590Y12610D01*
X1665Y12610D01*
X1695Y12640D01*
X1695Y12700D01*
X1665Y12730D01*
X1590Y12730D01*
X1560Y12700D01*
X1755Y12640D02*
X1785Y12610D01*
X1860Y12610D01*
X1890Y12640D01*
X1890Y12700D01*
X1860Y12730D01*
X1785Y12730D01*
X1755Y12700D01*
X1755Y12640D01*
X1755Y12640D01*
X1860Y12730D02*
X1890Y12760D01*
X1890Y12820D01*
X1860Y12850D01*
X1785Y12850D01*
X1755Y12820D01*
X1755Y12760D01*
X1785Y12730D01*
X1950Y12670D02*
X1965Y12640D01*
X1980Y12625D01*
X2010Y12610D01*
X2070Y12610D01*
X2100Y12625D01*
X2115Y12640D01*
X2130Y12670D01*
X2130Y12790D01*
X2115Y12820D01*
X2100Y12835D01*
X2070Y12850D01*
X2010Y12850D01*
X1980Y12835D01*
X1965Y12820D01*
X1950Y12790D01*
X1950Y12670D01*
X1950Y12670D01*
X1950Y12610D02*
X2130Y12850D01*
X2190Y12610D02*
X2190Y12850D01*
X2190Y12685D02*
X2302Y12745D01*
X2205Y12692D02*
X2302Y12610D01*
X1605Y17850D02*
X1560Y17805D01*
X1560Y17640D01*
X1590Y17610D01*
X1665Y17610D01*
X1695Y17640D01*
X1695Y17700D01*
X1665Y17730D01*
X1590Y17730D01*
X1560Y17700D01*
X1755Y17640D02*
X1785Y17610D01*
X1860Y17610D01*
X1890Y17640D01*
X1890Y17700D01*
X1860Y17730D01*
X1785Y17730D01*
X1755Y17700D01*
X1755Y17640D01*
X1755Y17640D01*
X1860Y17730D02*
X1890Y17760D01*
X1890Y17820D01*
X1860Y17850D01*
X1785Y17850D01*
X1755Y17820D01*
X1755Y17760D01*
X1785Y17730D01*
X1950Y17670D02*
X1965Y17640D01*
X1980Y17625D01*
X2010Y17610D01*
X2070Y17610D01*
X2100Y17625D01*
X2115Y17640D01*
X2130Y17670D01*
X2130Y17790D01*
X2115Y17820D01*
X2100Y17835D01*
X2070Y17850D01*
X2010Y17850D01*
X1980Y17835D01*
X1965Y17820D01*
X1950Y17790D01*
X1950Y17670D01*
X1950Y17670D01*
X1950Y17610D02*
X2130Y17850D01*
X2190Y17610D02*
X2190Y17850D01*
X2190Y17685D02*
X2302Y17745D01*
X2205Y17692D02*
X2302Y17610D01*
X1605Y22850D02*
X1560Y22805D01*
X1560Y22640D01*
X1590Y22610D01*
X1665Y22610D01*
X1695Y22640D01*
X1695Y22700D01*
X1665Y22730D01*
X1590Y22730D01*
X1560Y22700D01*
X1755Y22640D02*
X1785Y22610D01*
X1860Y22610D01*
X1890Y22640D01*
X1890Y22700D01*
X1860Y22730D01*
X1785Y22730D01*
X1755Y22700D01*
X1755Y22640D01*
X1755Y22640D01*
X1860Y22730D02*
X1890Y22760D01*
X1890Y22820D01*
X1860Y22850D01*
X1785Y22850D01*
X1755Y22820D01*
X1755Y22760D01*
X1785Y22730D01*
X1950Y22670D02*
X1965Y22640D01*
X1980Y22625D01*
X2010Y22610D01*
X2070Y22610D01*
X2100Y22625D01*
X2115Y22640D01*
X2130Y22670D01*
X2130Y22790D01*
X2115Y22820D01*
X2100Y22835D01*
X2070Y22850D01*
X2010Y22850D01*
X1980Y22835D01*
X1965Y22820D01*
X1950Y22790D01*
X1950Y22670D01*
X1950Y22670D01*
X1950Y22610D02*
X2130Y22850D01*
X2190Y22610D02*
X2190Y22850D01*
X2190Y22685D02*
X2302Y22745D01*
X2205Y22692D02*
X2302Y22610D01*
G54D17*
X18850Y1700D02*
X19050Y1700D01*
X18950Y1600D02*
X18950Y1800D01*
X18750Y2100D02*
X18750Y1900D01*
X18925Y1900D01*
X18925Y2050D01*
X18975Y2100D01*
X19100Y2100D01*
X19150Y2050D01*
X19150Y1900D01*
X18750Y2200D02*
X19150Y2350D01*
X18750Y2500D01*
X21750Y1600D02*
X22150Y1750D01*
X21750Y1900D01*
X22050Y2000D02*
X21800Y2000D01*
X21750Y2050D01*
X21750Y2225D01*
X21800Y2275D01*
X22100Y2275D01*
X22150Y2225D01*
X22150Y2050D01*
X22100Y2000D01*
X22050Y2000D01*
X21750Y2375D02*
X22100Y2375D01*
X22150Y2425D01*
X22150Y2600D01*
X22100Y2650D01*
X21750Y2650D01*
X21750Y2750D02*
X21750Y3050D01*
X21750Y2900D02*
X22150Y2900D01*
X19800Y1850D02*
X19750Y1800D01*
X19750Y1650D01*
X19800Y1600D01*
X20100Y1600D01*
X20150Y1650D01*
X20150Y1800D01*
X20100Y1850D01*
X19950Y1850D01*
X19950Y1675D01*
X20150Y1950D02*
X19750Y1950D01*
X20150Y2200D01*
X19750Y2200D01*
X20150Y2300D02*
X19750Y2300D01*
X19750Y2475D01*
X19825Y2550D01*
X20075Y2550D01*
X20150Y2475D01*
X20150Y2300D01*
X20150Y2300D01*
X20800Y1850D02*
X20750Y1800D01*
X20750Y1650D01*
X20800Y1600D01*
X21100Y1600D01*
X21150Y1650D01*
X21150Y1800D01*
X21100Y1850D01*
X20950Y1850D01*
X20950Y1675D01*
X21150Y1950D02*
X20750Y1950D01*
X21150Y2200D01*
X20750Y2200D01*
X21150Y2300D02*
X20750Y2300D01*
X20750Y2475D01*
X20825Y2550D01*
X21075Y2550D01*
X21150Y2475D01*
X21150Y2300D01*
X21150Y2300D01*
G54D15*
X2350Y350D02*
X2350Y750D01*
X2500Y750D01*
X2550Y700D01*
X2550Y600D01*
X2500Y550D01*
X2350Y550D01*
X2650Y750D02*
X2725Y350D01*
X2800Y750D01*
X2875Y350D01*
X2950Y750D01*
X3050Y350D02*
X3050Y750D01*
X3225Y750D01*
X3300Y675D01*
X3300Y600D01*
X3225Y525D01*
X3050Y525D01*
X3225Y525D02*
X3325Y350D01*
X4600Y350D02*
X4600Y750D01*
X4775Y750D01*
X4850Y675D01*
X4850Y600D01*
X4775Y525D01*
X4600Y525D01*
X4775Y525D02*
X4875Y350D01*
X4975Y350D02*
X5275Y750D01*
X4975Y750D02*
X5275Y350D01*
X5375Y350D02*
X5525Y350D01*
X5450Y350D02*
X5450Y750D01*
X5375Y700D01*
X6850Y350D02*
X6850Y750D01*
X7025Y750D01*
X7100Y675D01*
X7100Y600D01*
X7025Y525D01*
X6850Y525D01*
X7025Y525D02*
X7125Y350D01*
X7225Y350D02*
X7525Y750D01*
X7225Y750D02*
X7525Y350D01*
X7625Y675D02*
X7700Y750D01*
X7775Y750D01*
X7850Y675D01*
X7850Y575D01*
X7800Y525D01*
X7675Y525D01*
X7625Y475D01*
X7625Y350D01*
X7850Y350D01*
X9100Y350D02*
X9100Y750D01*
X9275Y750D01*
X9350Y675D01*
X9350Y600D01*
X9275Y525D01*
X9100Y525D01*
X9275Y525D02*
X9375Y350D01*
X9475Y350D02*
X9775Y750D01*
X9475Y750D02*
X9775Y350D01*
X9875Y700D02*
X9925Y750D01*
X10050Y750D01*
X10100Y700D01*
X10100Y600D01*
X10050Y550D01*
X9975Y550D01*
X10050Y550D02*
X10100Y500D01*
X10100Y400D01*
X10050Y350D01*
X9925Y350D01*
X9875Y400D01*
G54D17*
X12750Y1600D02*
X13150Y1750D01*
X12750Y1900D01*
X13150Y2000D02*
X13150Y2150D01*
X12750Y2000D02*
X12750Y2150D01*
X12750Y2075D02*
X13150Y2075D01*
X13150Y2250D02*
X12750Y2250D01*
X13150Y2500D01*
X12750Y2500D01*
X13150Y2600D02*
X13150Y2750D01*
X13150Y2675D02*
X12750Y2675D01*
X12800Y2600D01*
X14750Y1600D02*
X15150Y1750D01*
X14750Y1900D01*
X15150Y2000D02*
X15150Y2150D01*
X14750Y2000D02*
X14750Y2150D01*
X14750Y2075D02*
X15150Y2075D01*
X15150Y2250D02*
X14750Y2250D01*
X15150Y2500D01*
X14750Y2500D01*
X14825Y2600D02*
X14750Y2675D01*
X14750Y2750D01*
X14825Y2825D01*
X14925Y2825D01*
X14975Y2775D01*
X14975Y2650D01*
X15025Y2600D01*
X15150Y2600D01*
X15150Y2825D01*
X16750Y1600D02*
X17150Y1750D01*
X16750Y1900D01*
X17150Y2000D02*
X17150Y2150D01*
X16750Y2000D02*
X16750Y2150D01*
X16750Y2075D02*
X17150Y2075D01*
X17150Y2250D02*
X16750Y2250D01*
X17150Y2500D01*
X16750Y2500D01*
X16800Y2600D02*
X16750Y2650D01*
X16750Y2775D01*
X16800Y2825D01*
X16900Y2825D01*
X16950Y2775D01*
X16950Y2700D01*
X16950Y2775D02*
X17000Y2825D01*
X17100Y2825D01*
X17150Y2775D01*
X17150Y2650D01*
X17100Y2600D01*
X15800Y1850D02*
X15750Y1800D01*
X15750Y1650D01*
X15800Y1600D01*
X16100Y1600D01*
X16150Y1650D01*
X16150Y1800D01*
X16100Y1850D01*
X15950Y1850D01*
X15950Y1675D01*
X16150Y1950D02*
X15750Y1950D01*
X16150Y2200D01*
X15750Y2200D01*
X16150Y2300D02*
X15750Y2300D01*
X15750Y2475D01*
X15825Y2550D01*
X16075Y2550D01*
X16150Y2475D01*
X16150Y2300D01*
X16150Y2300D01*
X13800Y1850D02*
X13750Y1800D01*
X13750Y1650D01*
X13800Y1600D01*
X14100Y1600D01*
X14150Y1650D01*
X14150Y1800D01*
X14100Y1850D01*
X13950Y1850D01*
X13950Y1675D01*
X14150Y1950D02*
X13750Y1950D01*
X14150Y2200D01*
X13750Y2200D01*
X14150Y2300D02*
X13750Y2300D01*
X13750Y2475D01*
X13825Y2550D01*
X14075Y2550D01*
X14150Y2475D01*
X14150Y2300D01*
X14150Y2300D01*
X11800Y1850D02*
X11750Y1800D01*
X11750Y1650D01*
X11800Y1600D01*
X12100Y1600D01*
X12150Y1650D01*
X12150Y1800D01*
X12100Y1850D01*
X11950Y1850D01*
X11950Y1675D01*
X12150Y1950D02*
X11750Y1950D01*
X12150Y2200D01*
X11750Y2200D01*
X12150Y2300D02*
X11750Y2300D01*
X11750Y2475D01*
X11825Y2550D01*
X12075Y2550D01*
X12150Y2475D01*
X12150Y2300D01*
X12150Y2300D01*
G54D15*
X600Y7750D02*
X750Y7350D01*
X900Y7750D01*
X1000Y7350D02*
X1150Y7350D01*
X1000Y7750D02*
X1150Y7750D01*
X1075Y7750D02*
X1075Y7350D01*
X1250Y7350D02*
X1250Y7750D01*
X1425Y7750D01*
X1500Y7675D01*
X1500Y7425D01*
X1425Y7350D01*
X1250Y7350D01*
X1250Y7350D01*
X1850Y7750D02*
X1600Y7750D01*
X1600Y7350D01*
X1850Y7350D01*
X1600Y7550D02*
X1750Y7550D01*
X1950Y7450D02*
X1950Y7700D01*
X2000Y7750D01*
X2175Y7750D01*
X2225Y7700D01*
X2225Y7400D01*
X2175Y7350D01*
X2000Y7350D01*
X1950Y7400D01*
X1950Y7450D01*
X2425Y7350D02*
X2425Y7750D01*
X2600Y7750D01*
X2675Y7675D01*
X2675Y7425D01*
X2600Y7350D01*
X2425Y7350D01*
X2425Y7350D01*
X2775Y7350D02*
X2925Y7350D01*
X2775Y7750D02*
X2925Y7750D01*
X2850Y7750D02*
X2850Y7350D01*
X3025Y7750D02*
X3175Y7350D01*
X3325Y7750D01*
X3675Y7750D02*
X3425Y7750D01*
X3425Y7350D01*
X3675Y7350D01*
X3425Y7550D02*
X3575Y7550D01*
X3775Y7350D02*
X3775Y7750D01*
X3950Y7750D01*
X4025Y7675D01*
X4025Y7600D01*
X3950Y7525D01*
X3775Y7525D01*
X3950Y7525D02*
X4050Y7350D01*
X4400Y7675D02*
X4325Y7750D01*
X4225Y7750D01*
X4150Y7675D01*
X4150Y7600D01*
X4200Y7550D01*
X4350Y7550D01*
X4400Y7500D01*
X4400Y7425D01*
X4325Y7350D01*
X4225Y7350D01*
X4150Y7425D01*
X4500Y7350D02*
X4650Y7350D01*
X4500Y7750D02*
X4650Y7750D01*
X4575Y7750D02*
X4575Y7350D01*
X4750Y7750D02*
X5050Y7750D01*
X4900Y7750D02*
X4900Y7350D01*
X5300Y7550D02*
X5450Y7750D01*
X5150Y7750D02*
X5300Y7550D01*
X5300Y7350D01*
X3100Y3850D02*
X3100Y4250D01*
X3250Y4250D01*
X3300Y4200D01*
X3300Y4100D01*
X3250Y4050D01*
X3100Y4050D01*
X3675Y4175D02*
X3600Y4250D01*
X3475Y4250D01*
X3400Y4175D01*
X3400Y3925D01*
X3475Y3850D01*
X3600Y3850D01*
X3675Y3925D01*
X3775Y3850D02*
X3775Y4250D01*
X3950Y4250D01*
X4000Y4200D01*
X4000Y4100D01*
X3950Y4050D01*
X4000Y4000D01*
X4000Y3900D01*
X3950Y3850D01*
X3775Y3850D01*
X3950Y4050D02*
X3775Y4050D01*
X4200Y3850D02*
X4200Y4250D01*
X4200Y3900D02*
X4250Y3850D01*
X4325Y3850D01*
X4375Y3900D01*
X4375Y4025D01*
X4325Y4075D01*
X4250Y4075D01*
X4200Y4025D01*
X4475Y4075D02*
X4562Y3850D01*
X4638Y4075D01*
X4562Y3850D02*
X4538Y3762D01*
X4525Y3750D01*
X4500Y3750D01*
X4838Y3850D02*
X4838Y4250D01*
X5012Y4250D01*
X5088Y4175D01*
X5088Y3925D01*
X5012Y3850D01*
X4838Y3850D01*
X4838Y3850D01*
X5245Y4000D02*
X5430Y4000D01*
X5188Y3850D02*
X5338Y4250D01*
X5488Y3850D01*
X5588Y3850D02*
X5588Y4250D01*
X5838Y3850D01*
X5838Y4250D01*
X6188Y4200D02*
X6138Y4250D01*
X5988Y4250D01*
X5938Y4200D01*
X5938Y3900D01*
X5988Y3850D01*
X6138Y3850D01*
X6188Y3900D01*
X6188Y4050D01*
X6012Y4050D01*
X6538Y4250D02*
X6288Y4250D01*
X6288Y3850D01*
X6538Y3850D01*
X6288Y4050D02*
X6438Y4050D01*
X6638Y3850D02*
X6638Y4250D01*
X6812Y4250D01*
X6888Y4175D01*
X6888Y4100D01*
X6812Y4025D01*
X6638Y4025D01*
X6812Y4025D02*
X6912Y3850D01*
X7262Y4250D02*
X7012Y4250D01*
X7012Y3850D01*
X7012Y4050D02*
X7162Y4050D01*
X7362Y4250D02*
X7362Y3850D01*
X7588Y3850D01*
X7688Y3850D02*
X7838Y3850D01*
X7688Y4250D02*
X7838Y4250D01*
X7762Y4250D02*
X7762Y3850D01*
X7938Y4250D02*
X8238Y4250D01*
X8088Y4250D02*
X8088Y3850D01*
X8588Y4250D02*
X8338Y4250D01*
X8338Y3850D01*
X8588Y3850D01*
X8338Y4050D02*
X8488Y4050D01*
X2625Y4925D02*
X2550Y5000D01*
X2425Y5000D01*
X2350Y4925D01*
X2350Y4675D01*
X2425Y4600D01*
X2550Y4600D01*
X2625Y4675D01*
X2725Y4600D02*
X2875Y4600D01*
X2725Y5000D02*
X2875Y5000D01*
X2800Y5000D02*
X2800Y4600D01*
X2975Y4600D02*
X2975Y5000D01*
X3150Y5000D01*
X3225Y4925D01*
X3225Y4850D01*
X3150Y4775D01*
X2975Y4775D01*
X3150Y4775D02*
X3250Y4600D01*
X3625Y4925D02*
X3550Y5000D01*
X3425Y5000D01*
X3350Y4925D01*
X3350Y4675D01*
X3425Y4600D01*
X3550Y4600D01*
X3625Y4675D01*
X3725Y5000D02*
X3725Y4650D01*
X3775Y4600D01*
X3950Y4600D01*
X4000Y4650D01*
X4000Y5000D01*
X4100Y4600D02*
X4250Y4600D01*
X4100Y5000D02*
X4250Y5000D01*
X4175Y5000D02*
X4175Y4600D01*
X4350Y5000D02*
X4650Y5000D01*
X4500Y5000D02*
X4500Y4600D01*
X4850Y4600D02*
X4850Y5000D01*
X5025Y5000D01*
X5100Y4925D01*
X5100Y4675D01*
X5025Y4600D01*
X4850Y4600D01*
X4850Y4600D01*
X5450Y5000D02*
X5200Y5000D01*
X5200Y4600D01*
X5450Y4600D01*
X5200Y4800D02*
X5350Y4800D01*
X5800Y4925D02*
X5725Y5000D01*
X5625Y5000D01*
X5550Y4925D01*
X5550Y4850D01*
X5600Y4800D01*
X5750Y4800D01*
X5800Y4750D01*
X5800Y4675D01*
X5725Y4600D01*
X5625Y4600D01*
X5550Y4675D01*
X5900Y4600D02*
X6050Y4600D01*
X5900Y5000D02*
X6050Y5000D01*
X5975Y5000D02*
X5975Y4600D01*
X6400Y4950D02*
X6350Y5000D01*
X6200Y5000D01*
X6150Y4950D01*
X6150Y4650D01*
X6200Y4600D01*
X6350Y4600D01*
X6400Y4650D01*
X6400Y4800D01*
X6225Y4800D01*
X6500Y4600D02*
X6500Y5000D01*
X6750Y4600D01*
X6750Y5000D01*
X6950Y4600D02*
X6950Y5000D01*
X6950Y4650D02*
X7000Y4600D01*
X7075Y4600D01*
X7125Y4650D01*
X7125Y4775D01*
X7075Y4825D01*
X7000Y4825D01*
X6950Y4775D01*
X7225Y4825D02*
X7312Y4600D01*
X7388Y4825D01*
X7312Y4600D02*
X7288Y4512D01*
X7275Y4500D01*
X7250Y4500D01*
X7838Y4950D02*
X7788Y5000D01*
X7638Y5000D01*
X7588Y4950D01*
X7588Y4650D01*
X7638Y4600D01*
X7788Y4600D01*
X7838Y4650D01*
X7838Y4800D01*
X7662Y4800D01*
X7938Y4600D02*
X7938Y5000D01*
X8112Y5000D01*
X8188Y4925D01*
X8188Y4850D01*
X8112Y4775D01*
X7938Y4775D01*
X8112Y4775D02*
X8212Y4600D01*
X8312Y4600D02*
X8312Y5000D01*
X8438Y4725D01*
X8562Y5000D01*
X8562Y4600D01*
X8662Y4600D02*
X8812Y4600D01*
X8662Y5000D02*
X8812Y5000D01*
X8738Y5000D02*
X8738Y4600D01*
X9162Y4925D02*
X9088Y5000D01*
X8988Y5000D01*
X8912Y4925D01*
X8912Y4850D01*
X8962Y4800D01*
X9112Y4800D01*
X9162Y4750D01*
X9162Y4675D01*
X9088Y4600D01*
X8988Y4600D01*
X8912Y4675D01*
X2600Y6825D02*
X2600Y6600D01*
X2750Y6788D02*
X2712Y6825D01*
X2638Y6825D01*
X2600Y6788D01*
X2600Y6775D01*
X3025Y6650D02*
X2975Y6600D01*
X2900Y6600D01*
X2850Y6650D01*
X2850Y6775D01*
X2900Y6825D01*
X2975Y6825D01*
X3025Y6775D01*
X3025Y6725D01*
X2850Y6725D01*
X3125Y6825D02*
X3200Y6600D01*
X3275Y6825D01*
X3375Y6925D02*
X3450Y7000D01*
X3525Y7000D01*
X3600Y6925D01*
X3600Y6825D01*
X3550Y6775D01*
X3425Y6775D01*
X3375Y6725D01*
X3375Y6600D01*
X3600Y6600D01*
G54D23*
X3800Y9875D02*
X3625Y10050D01*
X3450Y9875D01*
X3625Y9700D01*
X3800Y9875D01*
X2400Y9875D02*
X2225Y10050D01*
X2050Y9875D01*
X2225Y9700D01*
X2400Y9875D01*
X1700Y9000D02*
X2400Y8475D01*
X3100Y8300D01*
X3800Y8475D01*
X4500Y9000D01*
G54D21*
X10810Y6360D02*
X10810Y6600D01*
X10915Y6600D01*
X10960Y6555D01*
X10960Y6510D01*
X10915Y6465D01*
X10810Y6465D01*
X10915Y6465D02*
X10975Y6360D01*
X11035Y6360D02*
X11125Y6360D01*
X11080Y6360D02*
X11080Y6600D01*
X11035Y6570D01*
X10810Y4860D02*
X10810Y5100D01*
X10915Y5100D01*
X10960Y5055D01*
X10960Y5010D01*
X10915Y4965D01*
X10810Y4965D01*
X10915Y4965D02*
X10975Y4860D01*
X11035Y5055D02*
X11080Y5100D01*
X11125Y5100D01*
X11170Y5055D01*
X11170Y4995D01*
X11140Y4965D01*
X11065Y4965D01*
X11035Y4935D01*
X11035Y4860D01*
X11170Y4860D01*
X10810Y3360D02*
X10810Y3600D01*
X10915Y3600D01*
X10960Y3555D01*
X10960Y3510D01*
X10915Y3465D01*
X10810Y3465D01*
X10915Y3465D02*
X10975Y3360D01*
X11035Y3570D02*
X11065Y3600D01*
X11140Y3600D01*
X11170Y3570D01*
X11170Y3510D01*
X11140Y3480D01*
X11095Y3480D01*
X11140Y3480D02*
X11170Y3450D01*
X11170Y3390D01*
X11140Y3360D01*
X11065Y3360D01*
X11035Y3390D01*
X9200Y8110D02*
X9200Y8245D01*
X9440Y8110D01*
X9200Y8425D02*
X9200Y8305D01*
X9305Y8305D01*
X9305Y8395D01*
X9335Y8425D01*
X9410Y8425D01*
X9440Y8395D01*
X9440Y8305D01*
X9305Y8508D02*
X9328Y8485D01*
X9418Y8485D01*
X9440Y8508D01*
X9440Y8568D01*
X9418Y8590D01*
X9328Y8590D01*
X9305Y8568D01*
X9305Y8508D01*
X9440Y8650D02*
X9200Y8650D01*
X9335Y8650D02*
X9305Y8680D01*
X9305Y8725D01*
X9335Y8755D01*
X9440Y8755D01*
X9305Y8815D02*
X9440Y8815D01*
X9328Y8815D02*
X9305Y8838D01*
X9305Y8860D01*
X9328Y8882D01*
X9305Y8905D01*
X9305Y8928D01*
X9328Y8950D01*
X9440Y8950D01*
X9328Y8882D02*
X9372Y8882D01*
X7700Y8110D02*
X7700Y8245D01*
X7940Y8110D01*
X7700Y8425D02*
X7700Y8305D01*
X7805Y8305D01*
X7805Y8395D01*
X7835Y8425D01*
X7910Y8425D01*
X7940Y8395D01*
X7940Y8305D01*
X7805Y8508D02*
X7828Y8485D01*
X7918Y8485D01*
X7940Y8508D01*
X7940Y8568D01*
X7918Y8590D01*
X7828Y8590D01*
X7805Y8568D01*
X7805Y8508D01*
X7940Y8650D02*
X7700Y8650D01*
X7835Y8650D02*
X7805Y8680D01*
X7805Y8725D01*
X7835Y8755D01*
X7940Y8755D01*
X7805Y8815D02*
X7940Y8815D01*
X7828Y8815D02*
X7805Y8838D01*
X7805Y8860D01*
X7828Y8882D01*
X7805Y8905D01*
X7805Y8928D01*
X7828Y8950D01*
X7940Y8950D01*
X7828Y8882D02*
X7872Y8882D01*
X6200Y8110D02*
X6200Y8245D01*
X6440Y8110D01*
X6200Y8425D02*
X6200Y8305D01*
X6305Y8305D01*
X6305Y8395D01*
X6335Y8425D01*
X6410Y8425D01*
X6440Y8395D01*
X6440Y8305D01*
X6305Y8508D02*
X6328Y8485D01*
X6418Y8485D01*
X6440Y8508D01*
X6440Y8568D01*
X6418Y8590D01*
X6328Y8590D01*
X6305Y8568D01*
X6305Y8508D01*
X6440Y8650D02*
X6200Y8650D01*
X6335Y8650D02*
X6305Y8680D01*
X6305Y8725D01*
X6335Y8755D01*
X6440Y8755D01*
X6305Y8815D02*
X6440Y8815D01*
X6328Y8815D02*
X6305Y8838D01*
X6305Y8860D01*
X6328Y8882D01*
X6305Y8905D01*
X6305Y8928D01*
X6328Y8950D01*
X6440Y8950D01*
X6328Y8882D02*
X6372Y8882D01*
G54D15*
X2450Y2060D02*
X2690Y2060D01*
X2690Y2195D01*
X2450Y2405D02*
X2450Y2255D01*
X2690Y2255D01*
X2690Y2405D01*
X2570Y2255D02*
X2570Y2345D01*
X2690Y2465D02*
X2450Y2465D01*
X2450Y2570D01*
X2495Y2615D01*
X2645Y2615D01*
X2690Y2570D01*
X2690Y2465D01*
X2690Y2465D01*
X2690Y2675D02*
X2690Y2765D01*
X2690Y2720D02*
X2450Y2720D01*
X2480Y2675D01*
X4700Y2060D02*
X4940Y2060D01*
X4940Y2195D01*
X4700Y2405D02*
X4700Y2255D01*
X4940Y2255D01*
X4940Y2405D01*
X4820Y2255D02*
X4820Y2345D01*
X4940Y2465D02*
X4700Y2465D01*
X4700Y2570D01*
X4745Y2615D01*
X4895Y2615D01*
X4940Y2570D01*
X4940Y2465D01*
X4940Y2465D01*
X4745Y2675D02*
X4700Y2720D01*
X4700Y2765D01*
X4745Y2810D01*
X4805Y2810D01*
X4835Y2780D01*
X4835Y2705D01*
X4865Y2675D01*
X4940Y2675D01*
X4940Y2810D01*
X6950Y2060D02*
X7190Y2060D01*
X7190Y2195D01*
X6950Y2405D02*
X6950Y2255D01*
X7190Y2255D01*
X7190Y2405D01*
X7070Y2255D02*
X7070Y2345D01*
X7190Y2465D02*
X6950Y2465D01*
X6950Y2570D01*
X6995Y2615D01*
X7145Y2615D01*
X7190Y2570D01*
X7190Y2465D01*
X7190Y2465D01*
X6980Y2675D02*
X6950Y2705D01*
X6950Y2780D01*
X6980Y2810D01*
X7040Y2810D01*
X7070Y2780D01*
X7070Y2735D01*
X7070Y2780D02*
X7100Y2810D01*
X7160Y2810D01*
X7190Y2780D01*
X7190Y2705D01*
X7160Y2675D01*
X9200Y2060D02*
X9440Y2060D01*
X9440Y2195D01*
X9200Y2405D02*
X9200Y2255D01*
X9440Y2255D01*
X9440Y2405D01*
X9320Y2255D02*
X9320Y2345D01*
X9440Y2465D02*
X9200Y2465D01*
X9200Y2570D01*
X9245Y2615D01*
X9395Y2615D01*
X9440Y2570D01*
X9440Y2465D01*
X9440Y2465D01*
X9200Y2675D02*
X9335Y2675D01*
X9335Y2795D01*
X9230Y2765D02*
X9440Y2765D01*
X10010Y2120D02*
X10130Y2120D01*
X10070Y2060D02*
X10070Y2180D01*
X7760Y2120D02*
X7880Y2120D01*
X7820Y2060D02*
X7820Y2180D01*
X5510Y2120D02*
X5630Y2120D01*
X5570Y2060D02*
X5570Y2180D01*
X3260Y2120D02*
X3380Y2120D01*
X3320Y2060D02*
X3320Y2180D01*
G54D17*
X15350Y16100D02*
X15350Y16500D01*
X15600Y16100D01*
X15600Y16500D01*
X15738Y16325D02*
X15700Y16288D01*
X15700Y16138D01*
X15738Y16100D01*
X15838Y16100D01*
X15875Y16138D01*
X15875Y16288D01*
X15838Y16325D01*
X15738Y16325D01*
X15975Y16150D02*
X15975Y16275D01*
X16025Y16325D01*
X16100Y16325D01*
X16150Y16275D01*
X16150Y16150D01*
X16100Y16100D01*
X16025Y16100D01*
X15975Y16150D01*
X16150Y16100D02*
X16150Y16500D01*
X16425Y16150D02*
X16375Y16100D01*
X16300Y16100D01*
X16250Y16150D01*
X16250Y16275D01*
X16300Y16325D01*
X16375Y16325D01*
X16425Y16275D01*
X16425Y16225D01*
X16250Y16225D01*
X16525Y16100D02*
X16525Y16500D01*
X16650Y16225D01*
X16775Y16500D01*
X16775Y16100D01*
X17150Y16425D02*
X17075Y16500D01*
X16950Y16500D01*
X16875Y16425D01*
X16875Y16175D01*
X16950Y16100D01*
X17075Y16100D01*
X17150Y16175D01*
X17250Y16500D02*
X17250Y16150D01*
X17300Y16100D01*
X17475Y16100D01*
X17525Y16150D01*
X17525Y16500D01*
X17725Y16100D02*
X17725Y16500D01*
X17900Y16500D01*
X17975Y16425D01*
X17975Y16175D01*
X17900Y16100D01*
X17725Y16100D01*
X17725Y16100D01*
X18250Y16150D02*
X18200Y16100D01*
X18125Y16100D01*
X18075Y16150D01*
X18075Y16275D01*
X18125Y16325D01*
X18200Y16325D01*
X18250Y16275D01*
X18250Y16225D01*
X18075Y16225D01*
X18350Y16325D02*
X18425Y16100D01*
X18500Y16325D01*
X18600Y16100D02*
X18600Y16500D01*
X18600Y16225D02*
X18788Y16325D01*
X18625Y16238D02*
X18788Y16100D01*
X18906Y16106D02*
X18906Y16412D01*
X18894Y16425D02*
X18906Y16438D01*
X18919Y16425D01*
X18906Y16412D01*
X18894Y16425D01*
X19019Y16325D02*
X19119Y16325D01*
X19119Y16100D02*
X19094Y16100D01*
X19069Y16125D01*
X19069Y16500D01*
X19319Y16325D02*
X19394Y16100D01*
X19469Y16325D01*
X19569Y16200D02*
X19594Y16150D01*
X19619Y16125D01*
X19669Y16100D01*
X19769Y16100D01*
X19819Y16125D01*
X19844Y16150D01*
X19869Y16200D01*
X19869Y16400D01*
X19844Y16450D01*
X19819Y16475D01*
X19769Y16500D01*
X19669Y16500D01*
X19619Y16475D01*
X19594Y16450D01*
X19569Y16400D01*
X19569Y16200D01*
X19569Y16200D01*
X19569Y16100D02*
X19869Y16500D01*
X19969Y16125D02*
X19994Y16100D01*
X20019Y16125D01*
X19994Y16150D01*
X19969Y16125D01*
X20119Y16450D02*
X20169Y16500D01*
X20294Y16500D01*
X20344Y16450D01*
X20344Y16350D01*
X20294Y16300D01*
X20169Y16300D01*
X20119Y16350D01*
X20119Y16450D01*
X20119Y16450D01*
X20344Y16350D02*
X20344Y16100D01*
G54D21*
X9690Y13860D02*
X9450Y13860D01*
X9450Y13965D01*
X9495Y14010D01*
X9540Y14010D01*
X9585Y13965D01*
X9585Y13860D01*
X9585Y13965D02*
X9690Y14025D01*
X9450Y14085D02*
X9585Y14085D01*
X9585Y14205D01*
X9480Y14175D02*
X9690Y14175D01*
G54D15*
X5620Y22350D02*
X5800Y21870D01*
X5980Y22350D01*
X6100Y21870D02*
X6280Y21870D01*
X6100Y22350D02*
X6280Y22350D01*
X6190Y22350D02*
X6190Y21870D01*
X6400Y21870D02*
X6400Y22350D01*
X6610Y22350D01*
X6700Y22260D01*
X6700Y21960D01*
X6610Y21870D01*
X6400Y21870D01*
X6400Y21870D01*
X6940Y22290D02*
X7000Y22350D01*
X7150Y22350D01*
X7210Y22290D01*
X7210Y22170D01*
X7150Y22110D01*
X7060Y22110D01*
X7150Y22110D02*
X7210Y22050D01*
X7210Y21930D01*
X7150Y21870D01*
X7000Y21870D01*
X6940Y21930D01*
X5620Y17350D02*
X5800Y16870D01*
X5980Y17350D01*
X6100Y16870D02*
X6280Y16870D01*
X6100Y17350D02*
X6280Y17350D01*
X6190Y17350D02*
X6190Y16870D01*
X6400Y16870D02*
X6400Y17350D01*
X6610Y17350D01*
X6700Y17260D01*
X6700Y16960D01*
X6610Y16870D01*
X6400Y16870D01*
X6400Y16870D01*
X6940Y17260D02*
X7030Y17350D01*
X7120Y17350D01*
X7210Y17260D01*
X7210Y17140D01*
X7150Y17080D01*
X7000Y17080D01*
X6940Y17020D01*
X6940Y16870D01*
X7210Y16870D01*
X5620Y12350D02*
X5800Y11870D01*
X5980Y12350D01*
X6100Y11870D02*
X6280Y11870D01*
X6100Y12350D02*
X6280Y12350D01*
X6190Y12350D02*
X6190Y11870D01*
X6400Y11870D02*
X6400Y12350D01*
X6610Y12350D01*
X6700Y12260D01*
X6700Y11960D01*
X6610Y11870D01*
X6400Y11870D01*
X6400Y11870D01*
X6940Y11870D02*
X7120Y11870D01*
X7030Y11870D02*
X7030Y12350D01*
X6940Y12290D01*
%LNSTD*%
%LPD*%
G54D14*
X12600Y24450D02*
X12650Y24500D01*
X12775Y24500D01*
X12825Y24450D01*
X12825Y24350D01*
X12775Y24300D01*
X12700Y24300D01*
X12775Y24300D02*
X12825Y24250D01*
X12825Y24150D01*
X12775Y24100D01*
X12650Y24100D01*
X12600Y24150D01*
X12925Y24500D02*
X13075Y24100D01*
X13225Y24500D01*
X13325Y24450D02*
X13375Y24500D01*
X13500Y24500D01*
X13550Y24450D01*
X13550Y24350D01*
X13500Y24300D01*
X13425Y24300D01*
X13500Y24300D02*
X13550Y24250D01*
X13550Y24150D01*
X13500Y24100D01*
X13375Y24100D01*
X13325Y24150D01*
X12850Y23450D02*
X12800Y23500D01*
X12650Y23500D01*
X12600Y23450D01*
X12600Y23150D01*
X12650Y23100D01*
X12800Y23100D01*
X12850Y23150D01*
X12850Y23300D01*
X12675Y23300D01*
X12950Y23100D02*
X12950Y23500D01*
X13200Y23100D01*
X13200Y23500D01*
X13300Y23100D02*
X13300Y23500D01*
X13475Y23500D01*
X13550Y23425D01*
X13550Y23175D01*
X13475Y23100D01*
X13300Y23100D01*
X13300Y23100D01*
X12600Y22500D02*
X12900Y22500D01*
X12750Y22500D02*
X12750Y22100D01*
X13000Y22100D02*
X13300Y22500D01*
X13000Y22500D02*
X13300Y22100D01*
X12600Y21100D02*
X12600Y21500D01*
X12775Y21500D01*
X12850Y21425D01*
X12850Y21350D01*
X12775Y21275D01*
X12600Y21275D01*
X12775Y21275D02*
X12875Y21100D01*
X12975Y21100D02*
X13275Y21500D01*
X12975Y21500D02*
X13275Y21100D01*
X12600Y20100D02*
X12600Y20500D01*
X12775Y20500D01*
X12850Y20425D01*
X12850Y20175D01*
X12775Y20100D01*
X12600Y20100D01*
X12600Y20100D01*
X12950Y20150D02*
X13000Y20100D01*
X13125Y20100D01*
X13175Y20150D01*
X13175Y20250D01*
X13125Y20300D01*
X13000Y20300D01*
X12950Y20250D01*
X12950Y20150D01*
X12950Y20150D01*
X13125Y20300D02*
X13175Y20350D01*
X13175Y20450D01*
X13125Y20500D01*
X13000Y20500D01*
X12950Y20450D01*
X12950Y20350D01*
X13000Y20300D01*
X12600Y19100D02*
X12600Y19500D01*
X12775Y19500D01*
X12850Y19425D01*
X12850Y19175D01*
X12775Y19100D01*
X12600Y19100D01*
X12600Y19100D01*
X12950Y19500D02*
X13175Y19500D01*
X12950Y19100D01*
X12600Y18100D02*
X12600Y18500D01*
X12775Y18500D01*
X12850Y18425D01*
X12850Y18175D01*
X12775Y18100D01*
X12600Y18100D01*
X12600Y18100D01*
X13025Y18500D02*
X12950Y18425D01*
X12950Y18150D01*
X13000Y18100D01*
X13125Y18100D01*
X13175Y18150D01*
X13175Y18250D01*
X13125Y18300D01*
X13000Y18300D01*
X12950Y18250D01*
X12600Y17100D02*
X12600Y17500D01*
X12775Y17500D01*
X12850Y17425D01*
X12850Y17175D01*
X12775Y17100D01*
X12600Y17100D01*
X12600Y17100D01*
X13150Y17500D02*
X12950Y17500D01*
X12950Y17325D01*
X13100Y17325D01*
X13150Y17275D01*
X13150Y17150D01*
X13100Y17100D01*
X12950Y17100D01*
X12850Y16450D02*
X12800Y16500D01*
X12650Y16500D01*
X12600Y16450D01*
X12600Y16150D01*
X12650Y16100D01*
X12800Y16100D01*
X12850Y16150D01*
X12850Y16300D01*
X12675Y16300D01*
X12950Y16100D02*
X12950Y16500D01*
X13200Y16100D01*
X13200Y16500D01*
X13300Y16100D02*
X13300Y16500D01*
X13475Y16500D01*
X13550Y16425D01*
X13550Y16175D01*
X13475Y16100D01*
X13300Y16100D01*
X13300Y16100D01*
X12600Y15450D02*
X12650Y15500D01*
X12775Y15500D01*
X12825Y15450D01*
X12825Y15350D01*
X12775Y15300D01*
X12700Y15300D01*
X12775Y15300D02*
X12825Y15250D01*
X12825Y15150D01*
X12775Y15100D01*
X12650Y15100D01*
X12600Y15150D01*
X12925Y15500D02*
X13075Y15100D01*
X13225Y15500D01*
X13325Y15450D02*
X13375Y15500D01*
X13500Y15500D01*
X13550Y15450D01*
X13550Y15350D01*
X13500Y15300D01*
X13425Y15300D01*
X13500Y15300D02*
X13550Y15250D01*
X13550Y15150D01*
X13500Y15100D01*
X13375Y15100D01*
X13325Y15150D01*
X12600Y14100D02*
X12600Y14500D01*
X12775Y14500D01*
X12850Y14425D01*
X12850Y14175D01*
X12775Y14100D01*
X12600Y14100D01*
X12600Y14100D01*
X12950Y14500D02*
X12950Y14275D01*
X13150Y14275D01*
X13100Y14450D02*
X13100Y14100D01*
X12600Y13100D02*
X12600Y13500D01*
X12775Y13500D01*
X12850Y13425D01*
X12850Y13175D01*
X12775Y13100D01*
X12600Y13100D01*
X12600Y13100D01*
X12950Y13450D02*
X13000Y13500D01*
X13125Y13500D01*
X13175Y13450D01*
X13175Y13350D01*
X13125Y13300D01*
X13050Y13300D01*
X13125Y13300D02*
X13175Y13250D01*
X13175Y13150D01*
X13125Y13100D01*
X13000Y13100D01*
X12950Y13150D01*
X12600Y12100D02*
X12600Y12500D01*
X12775Y12500D01*
X12850Y12425D01*
X12850Y12175D01*
X12775Y12100D01*
X12600Y12100D01*
X12600Y12100D01*
X12950Y12425D02*
X13025Y12500D01*
X13100Y12500D01*
X13175Y12425D01*
X13175Y12325D01*
X13125Y12275D01*
X13000Y12275D01*
X12950Y12225D01*
X12950Y12100D01*
X13175Y12100D01*
X12600Y11100D02*
X12600Y11500D01*
X12775Y11500D01*
X12850Y11425D01*
X12850Y11175D01*
X12775Y11100D01*
X12600Y11100D01*
X12600Y11100D01*
X12950Y11100D02*
X13100Y11100D01*
X13025Y11100D02*
X13025Y11500D01*
X12950Y11450D01*
X12600Y10100D02*
X12600Y10500D01*
X12775Y10500D01*
X12850Y10425D01*
X12850Y10175D01*
X12775Y10100D01*
X12600Y10100D01*
X12600Y10100D01*
X12950Y10200D02*
X12975Y10150D01*
X13000Y10125D01*
X13050Y10100D01*
X13150Y10100D01*
X13200Y10125D01*
X13225Y10150D01*
X13250Y10200D01*
X13250Y10400D01*
X13225Y10450D01*
X13200Y10475D01*
X13150Y10500D01*
X13050Y10500D01*
X13000Y10475D01*
X12975Y10450D01*
X12950Y10400D01*
X12950Y10200D01*
X12950Y10200D01*
X12950Y10100D02*
X13250Y10500D01*
X21908Y10250D02*
X22092Y10250D01*
X21850Y10100D02*
X22000Y10500D01*
X22150Y10100D01*
X22250Y10200D02*
X22275Y10150D01*
X22300Y10125D01*
X22350Y10100D01*
X22450Y10100D01*
X22500Y10125D01*
X22525Y10150D01*
X22550Y10200D01*
X22550Y10400D01*
X22525Y10450D01*
X22500Y10475D01*
X22450Y10500D01*
X22350Y10500D01*
X22300Y10475D01*
X22275Y10450D01*
X22250Y10400D01*
X22250Y10200D01*
X22250Y10200D01*
X22250Y10100D02*
X22550Y10500D01*
X21600Y11100D02*
X21600Y11500D01*
X21775Y11500D01*
X21850Y11425D01*
X21850Y11350D01*
X21775Y11275D01*
X21600Y11275D01*
X21775Y11275D02*
X21875Y11100D01*
X22225Y11425D02*
X22150Y11500D01*
X22050Y11500D01*
X21975Y11425D01*
X21975Y11350D01*
X22025Y11300D01*
X22175Y11300D01*
X22225Y11250D01*
X22225Y11175D01*
X22150Y11100D01*
X22050Y11100D01*
X21975Y11175D01*
X22325Y11500D02*
X22475Y11100D01*
X22625Y11500D01*
X21600Y12100D02*
X21600Y12500D01*
X21775Y12500D01*
X21850Y12425D01*
X21850Y12350D01*
X21775Y12275D01*
X21600Y12275D01*
X21775Y12275D02*
X21875Y12100D01*
X22225Y12425D02*
X22150Y12500D01*
X22050Y12500D01*
X21975Y12425D01*
X21975Y12350D01*
X22025Y12300D01*
X22175Y12300D01*
X22225Y12250D01*
X22225Y12175D01*
X22150Y12100D01*
X22050Y12100D01*
X21975Y12175D01*
X22325Y12500D02*
X22475Y12100D01*
X22625Y12500D01*
X21600Y13100D02*
X21600Y13500D01*
X21775Y13500D01*
X21850Y13425D01*
X21850Y13350D01*
X21775Y13275D01*
X21600Y13275D01*
X21775Y13275D02*
X21875Y13100D01*
X22225Y13425D02*
X22150Y13500D01*
X22050Y13500D01*
X21975Y13425D01*
X21975Y13350D01*
X22025Y13300D01*
X22175Y13300D01*
X22225Y13250D01*
X22225Y13175D01*
X22150Y13100D01*
X22050Y13100D01*
X21975Y13175D01*
X22325Y13500D02*
X22475Y13100D01*
X22625Y13500D01*
X21600Y14100D02*
X21600Y14500D01*
X21775Y14500D01*
X21850Y14425D01*
X21850Y14350D01*
X21775Y14275D01*
X21600Y14275D01*
X21775Y14275D02*
X21875Y14100D01*
X22225Y14425D02*
X22150Y14500D01*
X22050Y14500D01*
X21975Y14425D01*
X21975Y14350D01*
X22025Y14300D01*
X22175Y14300D01*
X22225Y14250D01*
X22225Y14175D01*
X22150Y14100D01*
X22050Y14100D01*
X21975Y14175D01*
X22325Y14500D02*
X22475Y14100D01*
X22625Y14500D01*
X21600Y15100D02*
X21600Y15500D01*
X21775Y15500D01*
X21850Y15425D01*
X21850Y15350D01*
X21775Y15275D01*
X21600Y15275D01*
X21775Y15275D02*
X21875Y15100D01*
X22225Y15425D02*
X22150Y15500D01*
X22050Y15500D01*
X21975Y15425D01*
X21975Y15350D01*
X22025Y15300D01*
X22175Y15300D01*
X22225Y15250D01*
X22225Y15175D01*
X22150Y15100D01*
X22050Y15100D01*
X21975Y15175D01*
X22325Y15500D02*
X22475Y15100D01*
X22625Y15500D01*
X21600Y16100D02*
X21600Y16500D01*
X21775Y16500D01*
X21850Y16425D01*
X21850Y16350D01*
X21775Y16275D01*
X21600Y16275D01*
X21775Y16275D02*
X21875Y16100D01*
X22225Y16425D02*
X22150Y16500D01*
X22050Y16500D01*
X21975Y16425D01*
X21975Y16350D01*
X22025Y16300D01*
X22175Y16300D01*
X22225Y16250D01*
X22225Y16175D01*
X22150Y16100D01*
X22050Y16100D01*
X21975Y16175D01*
X22325Y16500D02*
X22475Y16100D01*
X22625Y16500D01*
X21850Y17450D02*
X21800Y17500D01*
X21650Y17500D01*
X21600Y17450D01*
X21600Y17150D01*
X21650Y17100D01*
X21800Y17100D01*
X21850Y17150D01*
X21850Y17300D01*
X21675Y17300D01*
X21950Y17100D02*
X21950Y17500D01*
X22200Y17100D01*
X22200Y17500D01*
X22300Y17100D02*
X22300Y17500D01*
X22475Y17500D01*
X22550Y17425D01*
X22550Y17175D01*
X22475Y17100D01*
X22300Y17100D01*
X22300Y17100D01*
X21600Y18450D02*
X21650Y18500D01*
X21775Y18500D01*
X21825Y18450D01*
X21825Y18350D01*
X21775Y18300D01*
X21700Y18300D01*
X21775Y18300D02*
X21825Y18250D01*
X21825Y18150D01*
X21775Y18100D01*
X21650Y18100D01*
X21600Y18150D01*
X21925Y18500D02*
X22075Y18100D01*
X22225Y18500D01*
X22325Y18450D02*
X22375Y18500D01*
X22500Y18500D01*
X22550Y18450D01*
X22550Y18350D01*
X22500Y18300D01*
X22425Y18300D01*
X22500Y18300D02*
X22550Y18250D01*
X22550Y18150D01*
X22500Y18100D01*
X22375Y18100D01*
X22325Y18150D01*
X21850Y19450D02*
X21800Y19500D01*
X21650Y19500D01*
X21600Y19450D01*
X21600Y19150D01*
X21650Y19100D01*
X21800Y19100D01*
X21850Y19150D01*
X21850Y19300D01*
X21675Y19300D01*
X21950Y19100D02*
X21950Y19500D01*
X22200Y19100D01*
X22200Y19500D01*
X22300Y19100D02*
X22300Y19500D01*
X22475Y19500D01*
X22550Y19425D01*
X22550Y19175D01*
X22475Y19100D01*
X22300Y19100D01*
X22300Y19100D01*
X21600Y20450D02*
X21650Y20500D01*
X21775Y20500D01*
X21825Y20450D01*
X21825Y20350D01*
X21775Y20300D01*
X21700Y20300D01*
X21775Y20300D02*
X21825Y20250D01*
X21825Y20150D01*
X21775Y20100D01*
X21650Y20100D01*
X21600Y20150D01*
X21925Y20500D02*
X22075Y20100D01*
X22225Y20500D01*
X22325Y20450D02*
X22375Y20500D01*
X22500Y20500D01*
X22550Y20450D01*
X22550Y20350D01*
X22500Y20300D01*
X22425Y20300D01*
X22500Y20300D02*
X22550Y20250D01*
X22550Y20150D01*
X22500Y20100D01*
X22375Y20100D01*
X22325Y20150D01*
X22100Y21500D02*
X21850Y21500D01*
X21850Y21100D01*
X22100Y21100D01*
X21850Y21300D02*
X22000Y21300D01*
X22200Y21100D02*
X22200Y21500D01*
X22450Y21100D01*
X22450Y21500D01*
X21600Y22100D02*
X21600Y22500D01*
X21775Y22500D01*
X21850Y22425D01*
X21850Y22350D01*
X21775Y22275D01*
X21600Y22275D01*
X21775Y22275D02*
X21875Y22100D01*
X22225Y22425D02*
X22150Y22500D01*
X22050Y22500D01*
X21975Y22425D01*
X21975Y22350D01*
X22025Y22300D01*
X22175Y22300D01*
X22225Y22250D01*
X22225Y22175D01*
X22150Y22100D01*
X22050Y22100D01*
X21975Y22175D01*
X22325Y22500D02*
X22625Y22500D01*
X22475Y22500D02*
X22475Y22100D01*
X21850Y23450D02*
X21800Y23500D01*
X21650Y23500D01*
X21600Y23450D01*
X21600Y23150D01*
X21650Y23100D01*
X21800Y23100D01*
X21850Y23150D01*
X21850Y23300D01*
X21675Y23300D01*
X21950Y23100D02*
X21950Y23500D01*
X22200Y23100D01*
X22200Y23500D01*
X22300Y23100D02*
X22300Y23500D01*
X22475Y23500D01*
X22550Y23425D01*
X22550Y23175D01*
X22475Y23100D01*
X22300Y23100D01*
X22300Y23100D01*
X22050Y24500D02*
X21850Y24500D01*
X21850Y24325D01*
X22000Y24325D01*
X22050Y24275D01*
X22050Y24150D01*
X22000Y24100D01*
X21850Y24100D01*
X22150Y24500D02*
X22300Y24100D01*
X22450Y24500D01*
X23100Y6350D02*
X23250Y6350D01*
X23175Y6350D02*
X23175Y6750D01*
X23100Y6700D01*
X13600Y6350D02*
X13750Y6350D01*
X13675Y6350D02*
X13675Y6750D01*
X13600Y6700D01*
X13850Y6450D02*
X13875Y6400D01*
X13900Y6375D01*
X13950Y6350D01*
X14050Y6350D01*
X14100Y6375D01*
X14125Y6400D01*
X14150Y6450D01*
X14150Y6650D01*
X14125Y6700D01*
X14100Y6725D01*
X14050Y6750D01*
X13950Y6750D01*
X13900Y6725D01*
X13875Y6700D01*
X13850Y6650D01*
X13850Y6450D01*
X13850Y6450D01*
X13850Y6350D02*
X14150Y6750D01*
X13600Y4850D02*
X13750Y4850D01*
X13675Y4850D02*
X13675Y5250D01*
X13600Y5200D01*
X13850Y4850D02*
X14000Y4850D01*
X13925Y4850D02*
X13925Y5250D01*
X13850Y5200D01*
X23100Y5175D02*
X23175Y5250D01*
X23250Y5250D01*
X23325Y5175D01*
X23325Y5075D01*
X23275Y5025D01*
X23150Y5025D01*
X23100Y4975D01*
X23100Y4850D01*
X23325Y4850D01*
X23425Y4950D02*
X23450Y4900D01*
X23475Y4875D01*
X23525Y4850D01*
X23625Y4850D01*
X23675Y4875D01*
X23700Y4900D01*
X23725Y4950D01*
X23725Y5150D01*
X23700Y5200D01*
X23675Y5225D01*
X23625Y5250D01*
X23525Y5250D01*
X23475Y5225D01*
X23450Y5200D01*
X23425Y5150D01*
X23425Y4950D01*
X23425Y4950D01*
X23425Y4850D02*
X23725Y5250D01*
X16100Y5600D02*
X16100Y6000D01*
X16225Y5725D01*
X16350Y6000D01*
X16350Y5600D01*
X16508Y5750D02*
X16692Y5750D01*
X16450Y5600D02*
X16600Y6000D01*
X16750Y5600D01*
X16850Y5600D02*
X17150Y6000D01*
X16850Y6000D02*
X17150Y5600D01*
X17250Y6000D02*
X17250Y5775D01*
X17450Y5775D01*
X17400Y5950D02*
X17400Y5600D01*
X17750Y6000D02*
X17550Y6000D01*
X17550Y5825D01*
X17700Y5825D01*
X17750Y5775D01*
X17750Y5650D01*
X17700Y5600D01*
X17550Y5600D01*
X17850Y6000D02*
X17850Y5775D01*
X18050Y5775D01*
X18000Y5950D02*
X18000Y5600D01*
X18350Y6000D02*
X18150Y6000D01*
X18150Y5825D01*
X18300Y5825D01*
X18350Y5775D01*
X18350Y5650D01*
X18300Y5600D01*
X18150Y5600D01*
G54D16*
X16350Y17250D02*
X16100Y17250D01*
X16100Y16850D01*
X16350Y16850D01*
X16100Y17050D02*
X16250Y17050D01*
X16700Y17175D02*
X16625Y17250D01*
X16525Y17250D01*
X16450Y17175D01*
X16450Y17100D01*
X16500Y17050D01*
X16650Y17050D01*
X16700Y17000D01*
X16700Y16925D01*
X16625Y16850D01*
X16525Y16850D01*
X16450Y16925D01*
X16800Y16850D02*
X16800Y17250D01*
X16950Y17250D01*
X17000Y17200D01*
X17000Y17100D01*
X16950Y17050D01*
X16800Y17050D01*
X17100Y16900D02*
X17150Y16850D01*
X17275Y16850D01*
X17325Y16900D01*
X17325Y17000D01*
X17275Y17050D01*
X17150Y17050D01*
X17100Y17000D01*
X17100Y16900D01*
X17100Y16900D01*
X17275Y17050D02*
X17325Y17100D01*
X17325Y17200D01*
X17275Y17250D01*
X17150Y17250D01*
X17100Y17200D01*
X17100Y17100D01*
X17150Y17050D01*
X17425Y17175D02*
X17500Y17250D01*
X17575Y17250D01*
X17650Y17175D01*
X17650Y17075D01*
X17600Y17025D01*
X17475Y17025D01*
X17425Y16975D01*
X17425Y16850D01*
X17650Y16850D01*
X17825Y17250D02*
X17750Y17175D01*
X17750Y16900D01*
X17800Y16850D01*
X17925Y16850D01*
X17975Y16900D01*
X17975Y17000D01*
X17925Y17050D01*
X17800Y17050D01*
X17750Y17000D01*
X18150Y17250D02*
X18075Y17175D01*
X18075Y16900D01*
X18125Y16850D01*
X18250Y16850D01*
X18300Y16900D01*
X18300Y17000D01*
X18250Y17050D01*
X18125Y17050D01*
X18075Y17000D01*
X18400Y17025D02*
X18550Y17025D01*
X18650Y16850D02*
X18800Y16850D01*
X18725Y16850D02*
X18725Y17250D01*
X18650Y17200D01*
X18900Y17175D02*
X18975Y17250D01*
X19050Y17250D01*
X19125Y17175D01*
X19125Y17075D01*
X19075Y17025D01*
X18950Y17025D01*
X18900Y16975D01*
X18900Y16850D01*
X19125Y16850D01*
X19475Y17250D02*
X19225Y17250D01*
X19225Y16850D01*
X19475Y16850D01*
X19225Y17050D02*
X19375Y17050D01*
G54D14*
X4850Y23400D02*
X4900Y23350D01*
X5025Y23350D01*
X5075Y23400D01*
X5075Y23500D01*
X5025Y23550D01*
X4900Y23550D01*
X4850Y23500D01*
X4850Y23400D01*
X4850Y23400D01*
X5025Y23550D02*
X5075Y23600D01*
X5075Y23700D01*
X5025Y23750D01*
X4900Y23750D01*
X4850Y23700D01*
X4850Y23600D01*
X4900Y23550D01*
X4850Y21850D02*
X5000Y21850D01*
X4925Y21850D02*
X4925Y22250D01*
X4850Y22200D01*
X7850Y22250D02*
X7850Y22025D01*
X8050Y22025D01*
X8000Y22200D02*
X8000Y21850D01*
X8050Y23750D02*
X7850Y23750D01*
X7850Y23575D01*
X8000Y23575D01*
X8050Y23525D01*
X8050Y23400D01*
X8000Y23350D01*
X7850Y23350D01*
X5600Y23000D02*
X5600Y22600D01*
X5825Y22600D01*
X5925Y22600D02*
X5925Y23000D01*
X6050Y22725D01*
X6175Y23000D01*
X6175Y22600D01*
X6275Y22600D02*
X6425Y22600D01*
X6350Y22600D02*
X6350Y23000D01*
X6275Y22950D01*
X6525Y22650D02*
X6575Y22600D01*
X6700Y22600D01*
X6750Y22650D01*
X6750Y22750D01*
X6700Y22800D01*
X6575Y22800D01*
X6525Y22750D01*
X6525Y22650D01*
X6525Y22650D01*
X6700Y22800D02*
X6750Y22850D01*
X6750Y22950D01*
X6700Y23000D01*
X6575Y23000D01*
X6525Y22950D01*
X6525Y22850D01*
X6575Y22800D01*
X6850Y22650D02*
X6900Y22600D01*
X7025Y22600D01*
X7075Y22650D01*
X7075Y22750D01*
X7025Y22800D01*
X6900Y22800D01*
X6850Y22750D01*
X6850Y22650D01*
X6850Y22650D01*
X7025Y22800D02*
X7075Y22850D01*
X7075Y22950D01*
X7025Y23000D01*
X6900Y23000D01*
X6850Y22950D01*
X6850Y22850D01*
X6900Y22800D01*
X7175Y22600D02*
X7325Y22600D01*
X7250Y22600D02*
X7250Y23000D01*
X7175Y22950D01*
X4850Y18400D02*
X4900Y18350D01*
X5025Y18350D01*
X5075Y18400D01*
X5075Y18500D01*
X5025Y18550D01*
X4900Y18550D01*
X4850Y18500D01*
X4850Y18400D01*
X4850Y18400D01*
X5025Y18550D02*
X5075Y18600D01*
X5075Y18700D01*
X5025Y18750D01*
X4900Y18750D01*
X4850Y18700D01*
X4850Y18600D01*
X4900Y18550D01*
X4850Y16850D02*
X5000Y16850D01*
X4925Y16850D02*
X4925Y17250D01*
X4850Y17200D01*
X7850Y17250D02*
X7850Y17025D01*
X8050Y17025D01*
X8000Y17200D02*
X8000Y16850D01*
X8050Y18750D02*
X7850Y18750D01*
X7850Y18575D01*
X8000Y18575D01*
X8050Y18525D01*
X8050Y18400D01*
X8000Y18350D01*
X7850Y18350D01*
X5600Y18000D02*
X5600Y17600D01*
X5825Y17600D01*
X5925Y17600D02*
X5925Y18000D01*
X6050Y17725D01*
X6175Y18000D01*
X6175Y17600D01*
X6275Y17600D02*
X6425Y17600D01*
X6350Y17600D02*
X6350Y18000D01*
X6275Y17950D01*
X6525Y17650D02*
X6575Y17600D01*
X6700Y17600D01*
X6750Y17650D01*
X6750Y17750D01*
X6700Y17800D01*
X6575Y17800D01*
X6525Y17750D01*
X6525Y17650D01*
X6525Y17650D01*
X6700Y17800D02*
X6750Y17850D01*
X6750Y17950D01*
X6700Y18000D01*
X6575Y18000D01*
X6525Y17950D01*
X6525Y17850D01*
X6575Y17800D01*
X6850Y17650D02*
X6900Y17600D01*
X7025Y17600D01*
X7075Y17650D01*
X7075Y17750D01*
X7025Y17800D01*
X6900Y17800D01*
X6850Y17750D01*
X6850Y17650D01*
X6850Y17650D01*
X7025Y17800D02*
X7075Y17850D01*
X7075Y17950D01*
X7025Y18000D01*
X6900Y18000D01*
X6850Y17950D01*
X6850Y17850D01*
X6900Y17800D01*
X7175Y17600D02*
X7325Y17600D01*
X7250Y17600D02*
X7250Y18000D01*
X7175Y17950D01*
X4850Y13400D02*
X4900Y13350D01*
X5025Y13350D01*
X5075Y13400D01*
X5075Y13500D01*
X5025Y13550D01*
X4900Y13550D01*
X4850Y13500D01*
X4850Y13400D01*
X4850Y13400D01*
X5025Y13550D02*
X5075Y13600D01*
X5075Y13700D01*
X5025Y13750D01*
X4900Y13750D01*
X4850Y13700D01*
X4850Y13600D01*
X4900Y13550D01*
X4850Y11850D02*
X5000Y11850D01*
X4925Y11850D02*
X4925Y12250D01*
X4850Y12200D01*
X7850Y12250D02*
X7850Y12025D01*
X8050Y12025D01*
X8000Y12200D02*
X8000Y11850D01*
X8050Y13750D02*
X7850Y13750D01*
X7850Y13575D01*
X8000Y13575D01*
X8050Y13525D01*
X8050Y13400D01*
X8000Y13350D01*
X7850Y13350D01*
X5600Y13000D02*
X5600Y12600D01*
X5825Y12600D01*
X5925Y12600D02*
X5925Y13000D01*
X6050Y12725D01*
X6175Y13000D01*
X6175Y12600D01*
X6275Y12600D02*
X6425Y12600D01*
X6350Y12600D02*
X6350Y13000D01*
X6275Y12950D01*
X6525Y12650D02*
X6575Y12600D01*
X6700Y12600D01*
X6750Y12650D01*
X6750Y12750D01*
X6700Y12800D01*
X6575Y12800D01*
X6525Y12750D01*
X6525Y12650D01*
X6525Y12650D01*
X6700Y12800D02*
X6750Y12850D01*
X6750Y12950D01*
X6700Y13000D01*
X6575Y13000D01*
X6525Y12950D01*
X6525Y12850D01*
X6575Y12800D01*
X6850Y12650D02*
X6900Y12600D01*
X7025Y12600D01*
X7075Y12650D01*
X7075Y12750D01*
X7025Y12800D01*
X6900Y12800D01*
X6850Y12750D01*
X6850Y12650D01*
X6850Y12650D01*
X7025Y12800D02*
X7075Y12850D01*
X7075Y12950D01*
X7025Y13000D01*
X6900Y13000D01*
X6850Y12950D01*
X6850Y12850D01*
X6900Y12800D01*
X7175Y12600D02*
X7325Y12600D01*
X7250Y12600D02*
X7250Y13000D01*
X7175Y12950D01*
G54D20*
X1560Y24110D02*
X1650Y24110D01*
X1605Y24110D02*
X1605Y24350D01*
X1560Y24320D01*
X1710Y24170D02*
X1725Y24140D01*
X1740Y24125D01*
X1770Y24110D01*
X1830Y24110D01*
X1860Y24125D01*
X1875Y24140D01*
X1890Y24170D01*
X1890Y24290D01*
X1875Y24320D01*
X1860Y24335D01*
X1830Y24350D01*
X1770Y24350D01*
X1740Y24335D01*
X1725Y24320D01*
X1710Y24290D01*
X1710Y24170D01*
X1710Y24170D01*
X1710Y24110D02*
X1890Y24350D01*
X1950Y24170D02*
X1965Y24140D01*
X1980Y24125D01*
X2010Y24110D01*
X2070Y24110D01*
X2100Y24125D01*
X2115Y24140D01*
X2130Y24170D01*
X2130Y24290D01*
X2115Y24320D01*
X2100Y24335D01*
X2070Y24350D01*
X2010Y24350D01*
X1980Y24335D01*
X1965Y24320D01*
X1950Y24290D01*
X1950Y24170D01*
X1950Y24170D01*
X1950Y24110D02*
X2130Y24350D01*
X2190Y24245D02*
X2190Y24110D01*
X2190Y24222D02*
X2212Y24245D01*
X2272Y24245D01*
X2295Y24222D01*
X2295Y24110D01*
X2505Y24350D02*
X2355Y24350D01*
X2355Y24110D01*
X2355Y24230D02*
X2445Y24230D01*
G54D14*
X1500Y24500D02*
X1500Y24000D01*
X2500Y24000D01*
X2500Y24500D01*
X1500Y24500D01*
G54D20*
X1560Y21110D02*
X1650Y21110D01*
X1605Y21110D02*
X1605Y21350D01*
X1560Y21320D01*
X1710Y21170D02*
X1725Y21140D01*
X1740Y21125D01*
X1770Y21110D01*
X1830Y21110D01*
X1860Y21125D01*
X1875Y21140D01*
X1890Y21170D01*
X1890Y21290D01*
X1875Y21320D01*
X1860Y21335D01*
X1830Y21350D01*
X1770Y21350D01*
X1740Y21335D01*
X1725Y21320D01*
X1710Y21290D01*
X1710Y21170D01*
X1710Y21170D01*
X1710Y21110D02*
X1890Y21350D01*
X1950Y21170D02*
X1965Y21140D01*
X1980Y21125D01*
X2010Y21110D01*
X2070Y21110D01*
X2100Y21125D01*
X2115Y21140D01*
X2130Y21170D01*
X2130Y21290D01*
X2115Y21320D01*
X2100Y21335D01*
X2070Y21350D01*
X2010Y21350D01*
X1980Y21335D01*
X1965Y21320D01*
X1950Y21290D01*
X1950Y21170D01*
X1950Y21170D01*
X1950Y21110D02*
X2130Y21350D01*
X2190Y21245D02*
X2190Y21110D01*
X2190Y21222D02*
X2212Y21245D01*
X2272Y21245D01*
X2295Y21222D01*
X2295Y21110D01*
X2505Y21350D02*
X2355Y21350D01*
X2355Y21110D01*
X2355Y21230D02*
X2445Y21230D01*
G54D14*
X1500Y21500D02*
X1500Y21000D01*
X2500Y21000D01*
X2500Y21500D01*
X1500Y21500D01*
G54D20*
X1560Y19110D02*
X1650Y19110D01*
X1605Y19110D02*
X1605Y19350D01*
X1560Y19320D01*
X1710Y19170D02*
X1725Y19140D01*
X1740Y19125D01*
X1770Y19110D01*
X1830Y19110D01*
X1860Y19125D01*
X1875Y19140D01*
X1890Y19170D01*
X1890Y19290D01*
X1875Y19320D01*
X1860Y19335D01*
X1830Y19350D01*
X1770Y19350D01*
X1740Y19335D01*
X1725Y19320D01*
X1710Y19290D01*
X1710Y19170D01*
X1710Y19170D01*
X1710Y19110D02*
X1890Y19350D01*
X1950Y19170D02*
X1965Y19140D01*
X1980Y19125D01*
X2010Y19110D01*
X2070Y19110D01*
X2100Y19125D01*
X2115Y19140D01*
X2130Y19170D01*
X2130Y19290D01*
X2115Y19320D01*
X2100Y19335D01*
X2070Y19350D01*
X2010Y19350D01*
X1980Y19335D01*
X1965Y19320D01*
X1950Y19290D01*
X1950Y19170D01*
X1950Y19170D01*
X1950Y19110D02*
X2130Y19350D01*
X2190Y19245D02*
X2190Y19110D01*
X2190Y19222D02*
X2212Y19245D01*
X2272Y19245D01*
X2295Y19222D01*
X2295Y19110D01*
X2505Y19350D02*
X2355Y19350D01*
X2355Y19110D01*
X2355Y19230D02*
X2445Y19230D01*
G54D14*
X1500Y19500D02*
X1500Y19000D01*
X2500Y19000D01*
X2500Y19500D01*
X1500Y19500D01*
G54D20*
X1560Y16110D02*
X1650Y16110D01*
X1605Y16110D02*
X1605Y16350D01*
X1560Y16320D01*
X1710Y16170D02*
X1725Y16140D01*
X1740Y16125D01*
X1770Y16110D01*
X1830Y16110D01*
X1860Y16125D01*
X1875Y16140D01*
X1890Y16170D01*
X1890Y16290D01*
X1875Y16320D01*
X1860Y16335D01*
X1830Y16350D01*
X1770Y16350D01*
X1740Y16335D01*
X1725Y16320D01*
X1710Y16290D01*
X1710Y16170D01*
X1710Y16170D01*
X1710Y16110D02*
X1890Y16350D01*
X1950Y16170D02*
X1965Y16140D01*
X1980Y16125D01*
X2010Y16110D01*
X2070Y16110D01*
X2100Y16125D01*
X2115Y16140D01*
X2130Y16170D01*
X2130Y16290D01*
X2115Y16320D01*
X2100Y16335D01*
X2070Y16350D01*
X2010Y16350D01*
X1980Y16335D01*
X1965Y16320D01*
X1950Y16290D01*
X1950Y16170D01*
X1950Y16170D01*
X1950Y16110D02*
X2130Y16350D01*
X2190Y16245D02*
X2190Y16110D01*
X2190Y16222D02*
X2212Y16245D01*
X2272Y16245D01*
X2295Y16222D01*
X2295Y16110D01*
X2505Y16350D02*
X2355Y16350D01*
X2355Y16110D01*
X2355Y16230D02*
X2445Y16230D01*
G54D14*
X1500Y16500D02*
X1500Y16000D01*
X2500Y16000D01*
X2500Y16500D01*
X1500Y16500D01*
G54D20*
X1560Y14110D02*
X1650Y14110D01*
X1605Y14110D02*
X1605Y14350D01*
X1560Y14320D01*
X1710Y14170D02*
X1725Y14140D01*
X1740Y14125D01*
X1770Y14110D01*
X1830Y14110D01*
X1860Y14125D01*
X1875Y14140D01*
X1890Y14170D01*
X1890Y14290D01*
X1875Y14320D01*
X1860Y14335D01*
X1830Y14350D01*
X1770Y14350D01*
X1740Y14335D01*
X1725Y14320D01*
X1710Y14290D01*
X1710Y14170D01*
X1710Y14170D01*
X1710Y14110D02*
X1890Y14350D01*
X1950Y14170D02*
X1965Y14140D01*
X1980Y14125D01*
X2010Y14110D01*
X2070Y14110D01*
X2100Y14125D01*
X2115Y14140D01*
X2130Y14170D01*
X2130Y14290D01*
X2115Y14320D01*
X2100Y14335D01*
X2070Y14350D01*
X2010Y14350D01*
X1980Y14335D01*
X1965Y14320D01*
X1950Y14290D01*
X1950Y14170D01*
X1950Y14170D01*
X1950Y14110D02*
X2130Y14350D01*
X2190Y14245D02*
X2190Y14110D01*
X2190Y14222D02*
X2212Y14245D01*
X2272Y14245D01*
X2295Y14222D01*
X2295Y14110D01*
X2505Y14350D02*
X2355Y14350D01*
X2355Y14110D01*
X2355Y14230D02*
X2445Y14230D01*
G54D14*
X1500Y14500D02*
X1500Y14000D01*
X2500Y14000D01*
X2500Y14500D01*
X1500Y14500D01*
G54D20*
X1560Y11110D02*
X1650Y11110D01*
X1605Y11110D02*
X1605Y11350D01*
X1560Y11320D01*
X1710Y11170D02*
X1725Y11140D01*
X1740Y11125D01*
X1770Y11110D01*
X1830Y11110D01*
X1860Y11125D01*
X1875Y11140D01*
X1890Y11170D01*
X1890Y11290D01*
X1875Y11320D01*
X1860Y11335D01*
X1830Y11350D01*
X1770Y11350D01*
X1740Y11335D01*
X1725Y11320D01*
X1710Y11290D01*
X1710Y11170D01*
X1710Y11170D01*
X1710Y11110D02*
X1890Y11350D01*
X1950Y11170D02*
X1965Y11140D01*
X1980Y11125D01*
X2010Y11110D01*
X2070Y11110D01*
X2100Y11125D01*
X2115Y11140D01*
X2130Y11170D01*
X2130Y11290D01*
X2115Y11320D01*
X2100Y11335D01*
X2070Y11350D01*
X2010Y11350D01*
X1980Y11335D01*
X1965Y11320D01*
X1950Y11290D01*
X1950Y11170D01*
X1950Y11170D01*
X1950Y11110D02*
X2130Y11350D01*
X2190Y11245D02*
X2190Y11110D01*
X2190Y11222D02*
X2212Y11245D01*
X2272Y11245D01*
X2295Y11222D01*
X2295Y11110D01*
X2505Y11350D02*
X2355Y11350D01*
X2355Y11110D01*
X2355Y11230D02*
X2445Y11230D01*
G54D14*
X1500Y11500D02*
X1500Y11000D01*
X2500Y11000D01*
X2500Y11500D01*
X1500Y11500D01*
G54D20*
X9560Y24110D02*
X9650Y24110D01*
X9605Y24110D02*
X9605Y24350D01*
X9560Y24320D01*
X9710Y24170D02*
X9725Y24140D01*
X9740Y24125D01*
X9770Y24110D01*
X9830Y24110D01*
X9860Y24125D01*
X9875Y24140D01*
X9890Y24170D01*
X9890Y24290D01*
X9875Y24320D01*
X9860Y24335D01*
X9830Y24350D01*
X9770Y24350D01*
X9740Y24335D01*
X9725Y24320D01*
X9710Y24290D01*
X9710Y24170D01*
X9710Y24170D01*
X9710Y24110D02*
X9890Y24350D01*
X9950Y24170D02*
X9965Y24140D01*
X9980Y24125D01*
X10010Y24110D01*
X10070Y24110D01*
X10100Y24125D01*
X10115Y24140D01*
X10130Y24170D01*
X10130Y24290D01*
X10115Y24320D01*
X10100Y24335D01*
X10070Y24350D01*
X10010Y24350D01*
X9980Y24335D01*
X9965Y24320D01*
X9950Y24290D01*
X9950Y24170D01*
X9950Y24170D01*
X9950Y24110D02*
X10130Y24350D01*
X10190Y24245D02*
X10190Y24110D01*
X10190Y24222D02*
X10212Y24245D01*
X10272Y24245D01*
X10295Y24222D01*
X10295Y24110D01*
X10505Y24350D02*
X10355Y24350D01*
X10355Y24110D01*
X10355Y24230D02*
X10445Y24230D01*
G54D14*
X9500Y24500D02*
X9500Y24000D01*
X10500Y24000D01*
X10500Y24500D01*
X9500Y24500D01*
G54D20*
X9560Y22100D02*
X9560Y21965D01*
X9680Y21965D01*
X9650Y22070D02*
X9650Y21860D01*
X9740Y22100D02*
X9875Y22100D01*
X9740Y21860D01*
X9935Y21920D02*
X9950Y21890D01*
X9965Y21875D01*
X9995Y21860D01*
X10055Y21860D01*
X10085Y21875D01*
X10100Y21890D01*
X10115Y21920D01*
X10115Y22040D01*
X10100Y22070D01*
X10085Y22085D01*
X10055Y22100D01*
X9995Y22100D01*
X9965Y22085D01*
X9950Y22070D01*
X9935Y22040D01*
X9935Y21920D01*
X9935Y21920D01*
X9935Y21860D02*
X10115Y22100D01*
X10175Y21995D02*
X10175Y21882D01*
X10198Y21860D01*
X10258Y21860D01*
X10280Y21882D01*
X10280Y21995D01*
X10280Y21890D02*
X10280Y21860D01*
X10490Y22100D02*
X10340Y22100D01*
X10340Y21860D01*
X10340Y21980D02*
X10430Y21980D01*
G54D14*
X9500Y22500D02*
X9500Y21500D01*
X10500Y21500D01*
X10500Y22500D01*
X9500Y22500D01*
G54D20*
X1605Y12850D02*
X1560Y12805D01*
X1560Y12640D01*
X1590Y12610D01*
X1665Y12610D01*
X1695Y12640D01*
X1695Y12700D01*
X1665Y12730D01*
X1590Y12730D01*
X1560Y12700D01*
X1755Y12640D02*
X1785Y12610D01*
X1860Y12610D01*
X1890Y12640D01*
X1890Y12700D01*
X1860Y12730D01*
X1785Y12730D01*
X1755Y12700D01*
X1755Y12640D01*
X1755Y12640D01*
X1860Y12730D02*
X1890Y12760D01*
X1890Y12820D01*
X1860Y12850D01*
X1785Y12850D01*
X1755Y12820D01*
X1755Y12760D01*
X1785Y12730D01*
X1950Y12670D02*
X1965Y12640D01*
X1980Y12625D01*
X2010Y12610D01*
X2070Y12610D01*
X2100Y12625D01*
X2115Y12640D01*
X2130Y12670D01*
X2130Y12790D01*
X2115Y12820D01*
X2100Y12835D01*
X2070Y12850D01*
X2010Y12850D01*
X1980Y12835D01*
X1965Y12820D01*
X1950Y12790D01*
X1950Y12670D01*
X1950Y12670D01*
X1950Y12610D02*
X2130Y12850D01*
X2190Y12610D02*
X2190Y12850D01*
X2190Y12685D02*
X2302Y12745D01*
X2205Y12692D02*
X2302Y12610D01*
G54D14*
X1500Y13000D02*
X1500Y12500D01*
X2500Y12500D01*
X2500Y13000D01*
X1500Y13000D01*
G54D20*
X1605Y17850D02*
X1560Y17805D01*
X1560Y17640D01*
X1590Y17610D01*
X1665Y17610D01*
X1695Y17640D01*
X1695Y17700D01*
X1665Y17730D01*
X1590Y17730D01*
X1560Y17700D01*
X1755Y17640D02*
X1785Y17610D01*
X1860Y17610D01*
X1890Y17640D01*
X1890Y17700D01*
X1860Y17730D01*
X1785Y17730D01*
X1755Y17700D01*
X1755Y17640D01*
X1755Y17640D01*
X1860Y17730D02*
X1890Y17760D01*
X1890Y17820D01*
X1860Y17850D01*
X1785Y17850D01*
X1755Y17820D01*
X1755Y17760D01*
X1785Y17730D01*
X1950Y17670D02*
X1965Y17640D01*
X1980Y17625D01*
X2010Y17610D01*
X2070Y17610D01*
X2100Y17625D01*
X2115Y17640D01*
X2130Y17670D01*
X2130Y17790D01*
X2115Y17820D01*
X2100Y17835D01*
X2070Y17850D01*
X2010Y17850D01*
X1980Y17835D01*
X1965Y17820D01*
X1950Y17790D01*
X1950Y17670D01*
X1950Y17670D01*
X1950Y17610D02*
X2130Y17850D01*
X2190Y17610D02*
X2190Y17850D01*
X2190Y17685D02*
X2302Y17745D01*
X2205Y17692D02*
X2302Y17610D01*
G54D14*
X1500Y18000D02*
X1500Y17500D01*
X2500Y17500D01*
X2500Y18000D01*
X1500Y18000D01*
G54D20*
X1605Y22850D02*
X1560Y22805D01*
X1560Y22640D01*
X1590Y22610D01*
X1665Y22610D01*
X1695Y22640D01*
X1695Y22700D01*
X1665Y22730D01*
X1590Y22730D01*
X1560Y22700D01*
X1755Y22640D02*
X1785Y22610D01*
X1860Y22610D01*
X1890Y22640D01*
X1890Y22700D01*
X1860Y22730D01*
X1785Y22730D01*
X1755Y22700D01*
X1755Y22640D01*
X1755Y22640D01*
X1860Y22730D02*
X1890Y22760D01*
X1890Y22820D01*
X1860Y22850D01*
X1785Y22850D01*
X1755Y22820D01*
X1755Y22760D01*
X1785Y22730D01*
X1950Y22670D02*
X1965Y22640D01*
X1980Y22625D01*
X2010Y22610D01*
X2070Y22610D01*
X2100Y22625D01*
X2115Y22640D01*
X2130Y22670D01*
X2130Y22790D01*
X2115Y22820D01*
X2100Y22835D01*
X2070Y22850D01*
X2010Y22850D01*
X1980Y22835D01*
X1965Y22820D01*
X1950Y22790D01*
X1950Y22670D01*
X1950Y22670D01*
X1950Y22610D02*
X2130Y22850D01*
X2190Y22610D02*
X2190Y22850D01*
X2190Y22685D02*
X2302Y22745D01*
X2205Y22692D02*
X2302Y22610D01*
G54D14*
X1500Y23000D02*
X1500Y22500D01*
X2500Y22500D01*
X2500Y23000D01*
X1500Y23000D01*
G54D16*
X18850Y1700D02*
X19050Y1700D01*
X18950Y1600D02*
X18950Y1800D01*
X18750Y2100D02*
X18750Y1900D01*
X18925Y1900D01*
X18925Y2050D01*
X18975Y2100D01*
X19100Y2100D01*
X19150Y2050D01*
X19150Y1900D01*
X18750Y2200D02*
X19150Y2350D01*
X18750Y2500D01*
X21750Y1600D02*
X22150Y1750D01*
X21750Y1900D01*
X22050Y2000D02*
X21800Y2000D01*
X21750Y2050D01*
X21750Y2225D01*
X21800Y2275D01*
X22100Y2275D01*
X22150Y2225D01*
X22150Y2050D01*
X22100Y2000D01*
X22050Y2000D01*
X21750Y2375D02*
X22100Y2375D01*
X22150Y2425D01*
X22150Y2600D01*
X22100Y2650D01*
X21750Y2650D01*
X21750Y2750D02*
X21750Y3050D01*
X21750Y2900D02*
X22150Y2900D01*
X19800Y1850D02*
X19750Y1800D01*
X19750Y1650D01*
X19800Y1600D01*
X20100Y1600D01*
X20150Y1650D01*
X20150Y1800D01*
X20100Y1850D01*
X19950Y1850D01*
X19950Y1675D01*
X20150Y1950D02*
X19750Y1950D01*
X20150Y2200D01*
X19750Y2200D01*
X20150Y2300D02*
X19750Y2300D01*
X19750Y2475D01*
X19825Y2550D01*
X20075Y2550D01*
X20150Y2475D01*
X20150Y2300D01*
X20150Y2300D01*
X20800Y1850D02*
X20750Y1800D01*
X20750Y1650D01*
X20800Y1600D01*
X21100Y1600D01*
X21150Y1650D01*
X21150Y1800D01*
X21100Y1850D01*
X20950Y1850D01*
X20950Y1675D01*
X21150Y1950D02*
X20750Y1950D01*
X21150Y2200D01*
X20750Y2200D01*
X21150Y2300D02*
X20750Y2300D01*
X20750Y2475D01*
X20825Y2550D01*
X21075Y2550D01*
X21150Y2475D01*
X21150Y2300D01*
X21150Y2300D01*
G54D14*
X2350Y350D02*
X2350Y750D01*
X2500Y750D01*
X2550Y700D01*
X2550Y600D01*
X2500Y550D01*
X2350Y550D01*
X2650Y750D02*
X2725Y350D01*
X2800Y750D01*
X2875Y350D01*
X2950Y750D01*
X3050Y350D02*
X3050Y750D01*
X3225Y750D01*
X3300Y675D01*
X3300Y600D01*
X3225Y525D01*
X3050Y525D01*
X3225Y525D02*
X3325Y350D01*
X4600Y350D02*
X4600Y750D01*
X4775Y750D01*
X4850Y675D01*
X4850Y600D01*
X4775Y525D01*
X4600Y525D01*
X4775Y525D02*
X4875Y350D01*
X4975Y350D02*
X5275Y750D01*
X4975Y750D02*
X5275Y350D01*
X5375Y350D02*
X5525Y350D01*
X5450Y350D02*
X5450Y750D01*
X5375Y700D01*
X6850Y350D02*
X6850Y750D01*
X7025Y750D01*
X7100Y675D01*
X7100Y600D01*
X7025Y525D01*
X6850Y525D01*
X7025Y525D02*
X7125Y350D01*
X7225Y350D02*
X7525Y750D01*
X7225Y750D02*
X7525Y350D01*
X7625Y675D02*
X7700Y750D01*
X7775Y750D01*
X7850Y675D01*
X7850Y575D01*
X7800Y525D01*
X7675Y525D01*
X7625Y475D01*
X7625Y350D01*
X7850Y350D01*
X9100Y350D02*
X9100Y750D01*
X9275Y750D01*
X9350Y675D01*
X9350Y600D01*
X9275Y525D01*
X9100Y525D01*
X9275Y525D02*
X9375Y350D01*
X9475Y350D02*
X9775Y750D01*
X9475Y750D02*
X9775Y350D01*
X9875Y700D02*
X9925Y750D01*
X10050Y750D01*
X10100Y700D01*
X10100Y600D01*
X10050Y550D01*
X9975Y550D01*
X10050Y550D02*
X10100Y500D01*
X10100Y400D01*
X10050Y350D01*
X9925Y350D01*
X9875Y400D01*
G54D16*
X12750Y1600D02*
X13150Y1750D01*
X12750Y1900D01*
X13150Y2000D02*
X13150Y2150D01*
X12750Y2000D02*
X12750Y2150D01*
X12750Y2075D02*
X13150Y2075D01*
X13150Y2250D02*
X12750Y2250D01*
X13150Y2500D01*
X12750Y2500D01*
X13150Y2600D02*
X13150Y2750D01*
X13150Y2675D02*
X12750Y2675D01*
X12800Y2600D01*
X14750Y1600D02*
X15150Y1750D01*
X14750Y1900D01*
X15150Y2000D02*
X15150Y2150D01*
X14750Y2000D02*
X14750Y2150D01*
X14750Y2075D02*
X15150Y2075D01*
X15150Y2250D02*
X14750Y2250D01*
X15150Y2500D01*
X14750Y2500D01*
X14825Y2600D02*
X14750Y2675D01*
X14750Y2750D01*
X14825Y2825D01*
X14925Y2825D01*
X14975Y2775D01*
X14975Y2650D01*
X15025Y2600D01*
X15150Y2600D01*
X15150Y2825D01*
X16750Y1600D02*
X17150Y1750D01*
X16750Y1900D01*
X17150Y2000D02*
X17150Y2150D01*
X16750Y2000D02*
X16750Y2150D01*
X16750Y2075D02*
X17150Y2075D01*
X17150Y2250D02*
X16750Y2250D01*
X17150Y2500D01*
X16750Y2500D01*
X16800Y2600D02*
X16750Y2650D01*
X16750Y2775D01*
X16800Y2825D01*
X16900Y2825D01*
X16950Y2775D01*
X16950Y2700D01*
X16950Y2775D02*
X17000Y2825D01*
X17100Y2825D01*
X17150Y2775D01*
X17150Y2650D01*
X17100Y2600D01*
X15800Y1850D02*
X15750Y1800D01*
X15750Y1650D01*
X15800Y1600D01*
X16100Y1600D01*
X16150Y1650D01*
X16150Y1800D01*
X16100Y1850D01*
X15950Y1850D01*
X15950Y1675D01*
X16150Y1950D02*
X15750Y1950D01*
X16150Y2200D01*
X15750Y2200D01*
X16150Y2300D02*
X15750Y2300D01*
X15750Y2475D01*
X15825Y2550D01*
X16075Y2550D01*
X16150Y2475D01*
X16150Y2300D01*
X16150Y2300D01*
X13800Y1850D02*
X13750Y1800D01*
X13750Y1650D01*
X13800Y1600D01*
X14100Y1600D01*
X14150Y1650D01*
X14150Y1800D01*
X14100Y1850D01*
X13950Y1850D01*
X13950Y1675D01*
X14150Y1950D02*
X13750Y1950D01*
X14150Y2200D01*
X13750Y2200D01*
X14150Y2300D02*
X13750Y2300D01*
X13750Y2475D01*
X13825Y2550D01*
X14075Y2550D01*
X14150Y2475D01*
X14150Y2300D01*
X14150Y2300D01*
X11800Y1850D02*
X11750Y1800D01*
X11750Y1650D01*
X11800Y1600D01*
X12100Y1600D01*
X12150Y1650D01*
X12150Y1800D01*
X12100Y1850D01*
X11950Y1850D01*
X11950Y1675D01*
X12150Y1950D02*
X11750Y1950D01*
X12150Y2200D01*
X11750Y2200D01*
X12150Y2300D02*
X11750Y2300D01*
X11750Y2475D01*
X11825Y2550D01*
X12075Y2550D01*
X12150Y2475D01*
X12150Y2300D01*
X12150Y2300D01*
G54D14*
X600Y7750D02*
X750Y7350D01*
X900Y7750D01*
X1000Y7350D02*
X1150Y7350D01*
X1000Y7750D02*
X1150Y7750D01*
X1075Y7750D02*
X1075Y7350D01*
X1250Y7350D02*
X1250Y7750D01*
X1425Y7750D01*
X1500Y7675D01*
X1500Y7425D01*
X1425Y7350D01*
X1250Y7350D01*
X1250Y7350D01*
X1850Y7750D02*
X1600Y7750D01*
X1600Y7350D01*
X1850Y7350D01*
X1600Y7550D02*
X1750Y7550D01*
X1950Y7450D02*
X1950Y7700D01*
X2000Y7750D01*
X2175Y7750D01*
X2225Y7700D01*
X2225Y7400D01*
X2175Y7350D01*
X2000Y7350D01*
X1950Y7400D01*
X1950Y7450D01*
X2425Y7350D02*
X2425Y7750D01*
X2600Y7750D01*
X2675Y7675D01*
X2675Y7425D01*
X2600Y7350D01*
X2425Y7350D01*
X2425Y7350D01*
X2775Y7350D02*
X2925Y7350D01*
X2775Y7750D02*
X2925Y7750D01*
X2850Y7750D02*
X2850Y7350D01*
X3025Y7750D02*
X3175Y7350D01*
X3325Y7750D01*
X3675Y7750D02*
X3425Y7750D01*
X3425Y7350D01*
X3675Y7350D01*
X3425Y7550D02*
X3575Y7550D01*
X3775Y7350D02*
X3775Y7750D01*
X3950Y7750D01*
X4025Y7675D01*
X4025Y7600D01*
X3950Y7525D01*
X3775Y7525D01*
X3950Y7525D02*
X4050Y7350D01*
X4400Y7675D02*
X4325Y7750D01*
X4225Y7750D01*
X4150Y7675D01*
X4150Y7600D01*
X4200Y7550D01*
X4350Y7550D01*
X4400Y7500D01*
X4400Y7425D01*
X4325Y7350D01*
X4225Y7350D01*
X4150Y7425D01*
X4500Y7350D02*
X4650Y7350D01*
X4500Y7750D02*
X4650Y7750D01*
X4575Y7750D02*
X4575Y7350D01*
X4750Y7750D02*
X5050Y7750D01*
X4900Y7750D02*
X4900Y7350D01*
X5300Y7550D02*
X5450Y7750D01*
X5150Y7750D02*
X5300Y7550D01*
X5300Y7350D01*
X3100Y3850D02*
X3100Y4250D01*
X3250Y4250D01*
X3300Y4200D01*
X3300Y4100D01*
X3250Y4050D01*
X3100Y4050D01*
X3675Y4175D02*
X3600Y4250D01*
X3475Y4250D01*
X3400Y4175D01*
X3400Y3925D01*
X3475Y3850D01*
X3600Y3850D01*
X3675Y3925D01*
X3775Y3850D02*
X3775Y4250D01*
X3950Y4250D01*
X4000Y4200D01*
X4000Y4100D01*
X3950Y4050D01*
X4000Y4000D01*
X4000Y3900D01*
X3950Y3850D01*
X3775Y3850D01*
X3950Y4050D02*
X3775Y4050D01*
X4200Y3850D02*
X4200Y4250D01*
X4200Y3900D02*
X4250Y3850D01*
X4325Y3850D01*
X4375Y3900D01*
X4375Y4025D01*
X4325Y4075D01*
X4250Y4075D01*
X4200Y4025D01*
X4475Y4075D02*
X4562Y3850D01*
X4638Y4075D01*
X4562Y3850D02*
X4538Y3762D01*
X4525Y3750D01*
X4500Y3750D01*
X4838Y3850D02*
X4838Y4250D01*
X5012Y4250D01*
X5088Y4175D01*
X5088Y3925D01*
X5012Y3850D01*
X4838Y3850D01*
X4838Y3850D01*
X5245Y4000D02*
X5430Y4000D01*
X5188Y3850D02*
X5338Y4250D01*
X5488Y3850D01*
X5588Y3850D02*
X5588Y4250D01*
X5838Y3850D01*
X5838Y4250D01*
X6188Y4200D02*
X6138Y4250D01*
X5988Y4250D01*
X5938Y4200D01*
X5938Y3900D01*
X5988Y3850D01*
X6138Y3850D01*
X6188Y3900D01*
X6188Y4050D01*
X6012Y4050D01*
X6538Y4250D02*
X6288Y4250D01*
X6288Y3850D01*
X6538Y3850D01*
X6288Y4050D02*
X6438Y4050D01*
X6638Y3850D02*
X6638Y4250D01*
X6812Y4250D01*
X6888Y4175D01*
X6888Y4100D01*
X6812Y4025D01*
X6638Y4025D01*
X6812Y4025D02*
X6912Y3850D01*
X7262Y4250D02*
X7012Y4250D01*
X7012Y3850D01*
X7012Y4050D02*
X7162Y4050D01*
X7362Y4250D02*
X7362Y3850D01*
X7588Y3850D01*
X7688Y3850D02*
X7838Y3850D01*
X7688Y4250D02*
X7838Y4250D01*
X7762Y4250D02*
X7762Y3850D01*
X7938Y4250D02*
X8238Y4250D01*
X8088Y4250D02*
X8088Y3850D01*
X8588Y4250D02*
X8338Y4250D01*
X8338Y3850D01*
X8588Y3850D01*
X8338Y4050D02*
X8488Y4050D01*
X2625Y4925D02*
X2550Y5000D01*
X2425Y5000D01*
X2350Y4925D01*
X2350Y4675D01*
X2425Y4600D01*
X2550Y4600D01*
X2625Y4675D01*
X2725Y4600D02*
X2875Y4600D01*
X2725Y5000D02*
X2875Y5000D01*
X2800Y5000D02*
X2800Y4600D01*
X2975Y4600D02*
X2975Y5000D01*
X3150Y5000D01*
X3225Y4925D01*
X3225Y4850D01*
X3150Y4775D01*
X2975Y4775D01*
X3150Y4775D02*
X3250Y4600D01*
X3625Y4925D02*
X3550Y5000D01*
X3425Y5000D01*
X3350Y4925D01*
X3350Y4675D01*
X3425Y4600D01*
X3550Y4600D01*
X3625Y4675D01*
X3725Y5000D02*
X3725Y4650D01*
X3775Y4600D01*
X3950Y4600D01*
X4000Y4650D01*
X4000Y5000D01*
X4100Y4600D02*
X4250Y4600D01*
X4100Y5000D02*
X4250Y5000D01*
X4175Y5000D02*
X4175Y4600D01*
X4350Y5000D02*
X4650Y5000D01*
X4500Y5000D02*
X4500Y4600D01*
X4850Y4600D02*
X4850Y5000D01*
X5025Y5000D01*
X5100Y4925D01*
X5100Y4675D01*
X5025Y4600D01*
X4850Y4600D01*
X4850Y4600D01*
X5450Y5000D02*
X5200Y5000D01*
X5200Y4600D01*
X5450Y4600D01*
X5200Y4800D02*
X5350Y4800D01*
X5800Y4925D02*
X5725Y5000D01*
X5625Y5000D01*
X5550Y4925D01*
X5550Y4850D01*
X5600Y4800D01*
X5750Y4800D01*
X5800Y4750D01*
X5800Y4675D01*
X5725Y4600D01*
X5625Y4600D01*
X5550Y4675D01*
X5900Y4600D02*
X6050Y4600D01*
X5900Y5000D02*
X6050Y5000D01*
X5975Y5000D02*
X5975Y4600D01*
X6400Y4950D02*
X6350Y5000D01*
X6200Y5000D01*
X6150Y4950D01*
X6150Y4650D01*
X6200Y4600D01*
X6350Y4600D01*
X6400Y4650D01*
X6400Y4800D01*
X6225Y4800D01*
X6500Y4600D02*
X6500Y5000D01*
X6750Y4600D01*
X6750Y5000D01*
X6950Y4600D02*
X6950Y5000D01*
X6950Y4650D02*
X7000Y4600D01*
X7075Y4600D01*
X7125Y4650D01*
X7125Y4775D01*
X7075Y4825D01*
X7000Y4825D01*
X6950Y4775D01*
X7225Y4825D02*
X7312Y4600D01*
X7388Y4825D01*
X7312Y4600D02*
X7288Y4512D01*
X7275Y4500D01*
X7250Y4500D01*
X7838Y4950D02*
X7788Y5000D01*
X7638Y5000D01*
X7588Y4950D01*
X7588Y4650D01*
X7638Y4600D01*
X7788Y4600D01*
X7838Y4650D01*
X7838Y4800D01*
X7662Y4800D01*
X7938Y4600D02*
X7938Y5000D01*
X8112Y5000D01*
X8188Y4925D01*
X8188Y4850D01*
X8112Y4775D01*
X7938Y4775D01*
X8112Y4775D02*
X8212Y4600D01*
X8312Y4600D02*
X8312Y5000D01*
X8438Y4725D01*
X8562Y5000D01*
X8562Y4600D01*
X8662Y4600D02*
X8812Y4600D01*
X8662Y5000D02*
X8812Y5000D01*
X8738Y5000D02*
X8738Y4600D01*
X9162Y4925D02*
X9088Y5000D01*
X8988Y5000D01*
X8912Y4925D01*
X8912Y4850D01*
X8962Y4800D01*
X9112Y4800D01*
X9162Y4750D01*
X9162Y4675D01*
X9088Y4600D01*
X8988Y4600D01*
X8912Y4675D01*
X2600Y6825D02*
X2600Y6600D01*
X2750Y6788D02*
X2712Y6825D01*
X2638Y6825D01*
X2600Y6788D01*
X2600Y6775D01*
X3025Y6650D02*
X2975Y6600D01*
X2900Y6600D01*
X2850Y6650D01*
X2850Y6775D01*
X2900Y6825D01*
X2975Y6825D01*
X3025Y6775D01*
X3025Y6725D01*
X2850Y6725D01*
X3125Y6825D02*
X3200Y6600D01*
X3275Y6825D01*
X3375Y6925D02*
X3450Y7000D01*
X3525Y7000D01*
X3600Y6925D01*
X3600Y6825D01*
X3550Y6775D01*
X3425Y6775D01*
X3375Y6725D01*
X3375Y6600D01*
X3600Y6600D01*
G54D22*
X3800Y9875D02*
X3625Y10050D01*
X3450Y9875D01*
X3625Y9700D01*
X3800Y9875D01*
X2400Y9875D02*
X2225Y10050D01*
X2050Y9875D01*
X2225Y9700D01*
X2400Y9875D01*
X1700Y9000D02*
X2400Y8475D01*
X3100Y8300D01*
X3800Y8475D01*
X4500Y9000D01*
G54D20*
X10810Y6360D02*
X10810Y6600D01*
X10915Y6600D01*
X10960Y6555D01*
X10960Y6510D01*
X10915Y6465D01*
X10810Y6465D01*
X10915Y6465D02*
X10975Y6360D01*
X11035Y6360D02*
X11125Y6360D01*
X11080Y6360D02*
X11080Y6600D01*
X11035Y6570D01*
G54D14*
X10500Y6750D02*
X10500Y6250D01*
X11500Y6250D01*
X11500Y6750D01*
X10500Y6750D01*
G54D20*
X10810Y4860D02*
X10810Y5100D01*
X10915Y5100D01*
X10960Y5055D01*
X10960Y5010D01*
X10915Y4965D01*
X10810Y4965D01*
X10915Y4965D02*
X10975Y4860D01*
X11035Y5055D02*
X11080Y5100D01*
X11125Y5100D01*
X11170Y5055D01*
X11170Y4995D01*
X11140Y4965D01*
X11065Y4965D01*
X11035Y4935D01*
X11035Y4860D01*
X11170Y4860D01*
G54D14*
X10500Y5250D02*
X10500Y4750D01*
X11500Y4750D01*
X11500Y5250D01*
X10500Y5250D01*
G54D20*
X10810Y3360D02*
X10810Y3600D01*
X10915Y3600D01*
X10960Y3555D01*
X10960Y3510D01*
X10915Y3465D01*
X10810Y3465D01*
X10915Y3465D02*
X10975Y3360D01*
X11035Y3570D02*
X11065Y3600D01*
X11140Y3600D01*
X11170Y3570D01*
X11170Y3510D01*
X11140Y3480D01*
X11095Y3480D01*
X11140Y3480D02*
X11170Y3450D01*
X11170Y3390D01*
X11140Y3360D01*
X11065Y3360D01*
X11035Y3390D01*
G54D14*
X10500Y3750D02*
X10500Y3250D01*
X11500Y3250D01*
X11500Y3750D01*
X10500Y3750D01*
G54D20*
X9200Y8110D02*
X9200Y8245D01*
X9440Y8110D01*
X9200Y8425D02*
X9200Y8305D01*
X9305Y8305D01*
X9305Y8395D01*
X9335Y8425D01*
X9410Y8425D01*
X9440Y8395D01*
X9440Y8305D01*
X9305Y8508D02*
X9328Y8485D01*
X9418Y8485D01*
X9440Y8508D01*
X9440Y8568D01*
X9418Y8590D01*
X9328Y8590D01*
X9305Y8568D01*
X9305Y8508D01*
X9440Y8650D02*
X9200Y8650D01*
X9335Y8650D02*
X9305Y8680D01*
X9305Y8725D01*
X9335Y8755D01*
X9440Y8755D01*
X9305Y8815D02*
X9440Y8815D01*
X9328Y8815D02*
X9305Y8838D01*
X9305Y8860D01*
X9328Y8882D01*
X9305Y8905D01*
X9305Y8928D01*
X9328Y8950D01*
X9440Y8950D01*
X9328Y8882D02*
X9372Y8882D01*
G54D14*
X9000Y9000D02*
X9000Y8000D01*
X9500Y8000D01*
X9500Y9000D01*
X9000Y9000D01*
G54D20*
X7700Y8110D02*
X7700Y8245D01*
X7940Y8110D01*
X7700Y8425D02*
X7700Y8305D01*
X7805Y8305D01*
X7805Y8395D01*
X7835Y8425D01*
X7910Y8425D01*
X7940Y8395D01*
X7940Y8305D01*
X7805Y8508D02*
X7828Y8485D01*
X7918Y8485D01*
X7940Y8508D01*
X7940Y8568D01*
X7918Y8590D01*
X7828Y8590D01*
X7805Y8568D01*
X7805Y8508D01*
X7940Y8650D02*
X7700Y8650D01*
X7835Y8650D02*
X7805Y8680D01*
X7805Y8725D01*
X7835Y8755D01*
X7940Y8755D01*
X7805Y8815D02*
X7940Y8815D01*
X7828Y8815D02*
X7805Y8838D01*
X7805Y8860D01*
X7828Y8882D01*
X7805Y8905D01*
X7805Y8928D01*
X7828Y8950D01*
X7940Y8950D01*
X7828Y8882D02*
X7872Y8882D01*
G54D14*
X7500Y9000D02*
X7500Y8000D01*
X8000Y8000D01*
X8000Y9000D01*
X7500Y9000D01*
G54D20*
X6200Y8110D02*
X6200Y8245D01*
X6440Y8110D01*
X6200Y8425D02*
X6200Y8305D01*
X6305Y8305D01*
X6305Y8395D01*
X6335Y8425D01*
X6410Y8425D01*
X6440Y8395D01*
X6440Y8305D01*
X6305Y8508D02*
X6328Y8485D01*
X6418Y8485D01*
X6440Y8508D01*
X6440Y8568D01*
X6418Y8590D01*
X6328Y8590D01*
X6305Y8568D01*
X6305Y8508D01*
X6440Y8650D02*
X6200Y8650D01*
X6335Y8650D02*
X6305Y8680D01*
X6305Y8725D01*
X6335Y8755D01*
X6440Y8755D01*
X6305Y8815D02*
X6440Y8815D01*
X6328Y8815D02*
X6305Y8838D01*
X6305Y8860D01*
X6328Y8882D01*
X6305Y8905D01*
X6305Y8928D01*
X6328Y8950D01*
X6440Y8950D01*
X6328Y8882D02*
X6372Y8882D01*
G54D14*
X6000Y9000D02*
X6000Y8000D01*
X6500Y8000D01*
X6500Y9000D01*
X6000Y9000D01*
X4750Y14500D02*
X8250Y14500D01*
X8250Y11000D01*
X4750Y11000D01*
X4750Y14500D01*
X4750Y19500D02*
X8250Y19500D01*
X8250Y16000D01*
X4750Y16000D01*
X4750Y19500D01*
X4750Y24500D02*
X8250Y24500D01*
X8250Y21000D01*
X4750Y21000D01*
X4750Y24500D01*
X11750Y24500D02*
X23250Y24500D01*
X23250Y10000D01*
X11750Y10000D01*
X11750Y24500D01*
X13750Y7500D02*
X23250Y7500D01*
X23250Y4000D01*
X13750Y4000D01*
X13750Y7500D01*
X2450Y2060D02*
X2690Y2060D01*
X2690Y2195D01*
X2450Y2405D02*
X2450Y2255D01*
X2690Y2255D01*
X2690Y2405D01*
X2570Y2255D02*
X2570Y2345D01*
X2690Y2465D02*
X2450Y2465D01*
X2450Y2570D01*
X2495Y2615D01*
X2645Y2615D01*
X2690Y2570D01*
X2690Y2465D01*
X2690Y2465D01*
X2690Y2675D02*
X2690Y2765D01*
X2690Y2720D02*
X2450Y2720D01*
X2480Y2675D01*
X4700Y2060D02*
X4940Y2060D01*
X4940Y2195D01*
X4700Y2405D02*
X4700Y2255D01*
X4940Y2255D01*
X4940Y2405D01*
X4820Y2255D02*
X4820Y2345D01*
X4940Y2465D02*
X4700Y2465D01*
X4700Y2570D01*
X4745Y2615D01*
X4895Y2615D01*
X4940Y2570D01*
X4940Y2465D01*
X4940Y2465D01*
X4745Y2675D02*
X4700Y2720D01*
X4700Y2765D01*
X4745Y2810D01*
X4805Y2810D01*
X4835Y2780D01*
X4835Y2705D01*
X4865Y2675D01*
X4940Y2675D01*
X4940Y2810D01*
X6950Y2060D02*
X7190Y2060D01*
X7190Y2195D01*
X6950Y2405D02*
X6950Y2255D01*
X7190Y2255D01*
X7190Y2405D01*
X7070Y2255D02*
X7070Y2345D01*
X7190Y2465D02*
X6950Y2465D01*
X6950Y2570D01*
X6995Y2615D01*
X7145Y2615D01*
X7190Y2570D01*
X7190Y2465D01*
X7190Y2465D01*
X6980Y2675D02*
X6950Y2705D01*
X6950Y2780D01*
X6980Y2810D01*
X7040Y2810D01*
X7070Y2780D01*
X7070Y2735D01*
X7070Y2780D02*
X7100Y2810D01*
X7160Y2810D01*
X7190Y2780D01*
X7190Y2705D01*
X7160Y2675D01*
X9200Y2060D02*
X9440Y2060D01*
X9440Y2195D01*
X9200Y2405D02*
X9200Y2255D01*
X9440Y2255D01*
X9440Y2405D01*
X9320Y2255D02*
X9320Y2345D01*
X9440Y2465D02*
X9200Y2465D01*
X9200Y2570D01*
X9245Y2615D01*
X9395Y2615D01*
X9440Y2570D01*
X9440Y2465D01*
X9440Y2465D01*
X9200Y2675D02*
X9335Y2675D01*
X9335Y2795D01*
X9230Y2765D02*
X9440Y2765D01*
X10010Y2120D02*
X10130Y2120D01*
X10070Y2060D02*
X10070Y2180D01*
X7760Y2120D02*
X7880Y2120D01*
X7820Y2060D02*
X7820Y2180D01*
X5510Y2120D02*
X5630Y2120D01*
X5570Y2060D02*
X5570Y2180D01*
X3260Y2120D02*
X3380Y2120D01*
X3320Y2060D02*
X3320Y2180D01*
G54D16*
X15350Y16100D02*
X15350Y16500D01*
X15600Y16100D01*
X15600Y16500D01*
X15738Y16325D02*
X15700Y16288D01*
X15700Y16138D01*
X15738Y16100D01*
X15838Y16100D01*
X15875Y16138D01*
X15875Y16288D01*
X15838Y16325D01*
X15738Y16325D01*
X15975Y16150D02*
X15975Y16275D01*
X16025Y16325D01*
X16100Y16325D01*
X16150Y16275D01*
X16150Y16150D01*
X16100Y16100D01*
X16025Y16100D01*
X15975Y16150D01*
X16150Y16100D02*
X16150Y16500D01*
X16425Y16150D02*
X16375Y16100D01*
X16300Y16100D01*
X16250Y16150D01*
X16250Y16275D01*
X16300Y16325D01*
X16375Y16325D01*
X16425Y16275D01*
X16425Y16225D01*
X16250Y16225D01*
X16525Y16100D02*
X16525Y16500D01*
X16650Y16225D01*
X16775Y16500D01*
X16775Y16100D01*
X17150Y16425D02*
X17075Y16500D01*
X16950Y16500D01*
X16875Y16425D01*
X16875Y16175D01*
X16950Y16100D01*
X17075Y16100D01*
X17150Y16175D01*
X17250Y16500D02*
X17250Y16150D01*
X17300Y16100D01*
X17475Y16100D01*
X17525Y16150D01*
X17525Y16500D01*
X17725Y16100D02*
X17725Y16500D01*
X17900Y16500D01*
X17975Y16425D01*
X17975Y16175D01*
X17900Y16100D01*
X17725Y16100D01*
X17725Y16100D01*
X18250Y16150D02*
X18200Y16100D01*
X18125Y16100D01*
X18075Y16150D01*
X18075Y16275D01*
X18125Y16325D01*
X18200Y16325D01*
X18250Y16275D01*
X18250Y16225D01*
X18075Y16225D01*
X18350Y16325D02*
X18425Y16100D01*
X18500Y16325D01*
X18600Y16100D02*
X18600Y16500D01*
X18600Y16225D02*
X18788Y16325D01*
X18625Y16238D02*
X18788Y16100D01*
X18906Y16106D02*
X18906Y16412D01*
X18894Y16425D02*
X18906Y16438D01*
X18919Y16425D01*
X18906Y16412D01*
X18894Y16425D01*
X19019Y16325D02*
X19119Y16325D01*
X19119Y16100D02*
X19094Y16100D01*
X19069Y16125D01*
X19069Y16500D01*
X19319Y16325D02*
X19394Y16100D01*
X19469Y16325D01*
X19569Y16200D02*
X19594Y16150D01*
X19619Y16125D01*
X19669Y16100D01*
X19769Y16100D01*
X19819Y16125D01*
X19844Y16150D01*
X19869Y16200D01*
X19869Y16400D01*
X19844Y16450D01*
X19819Y16475D01*
X19769Y16500D01*
X19669Y16500D01*
X19619Y16475D01*
X19594Y16450D01*
X19569Y16400D01*
X19569Y16200D01*
X19569Y16200D01*
X19569Y16100D02*
X19869Y16500D01*
X19969Y16125D02*
X19994Y16100D01*
X20019Y16125D01*
X19994Y16150D01*
X19969Y16125D01*
X20119Y16450D02*
X20169Y16500D01*
X20294Y16500D01*
X20344Y16450D01*
X20344Y16350D01*
X20294Y16300D01*
X20169Y16300D01*
X20119Y16350D01*
X20119Y16450D01*
X20119Y16450D01*
X20344Y16350D02*
X20344Y16100D01*
G54D20*
X9690Y13860D02*
X9450Y13860D01*
X9450Y13965D01*
X9495Y14010D01*
X9540Y14010D01*
X9585Y13965D01*
X9585Y13860D01*
X9585Y13965D02*
X9690Y14025D01*
X9450Y14085D02*
X9585Y14085D01*
X9585Y14205D01*
X9480Y14175D02*
X9690Y14175D01*
G54D14*
X9250Y14500D02*
X9250Y13500D01*
X9750Y13500D01*
X9750Y14500D01*
X9250Y14500D01*
X5620Y22350D02*
X5800Y21870D01*
X5980Y22350D01*
X6100Y21870D02*
X6280Y21870D01*
X6100Y22350D02*
X6280Y22350D01*
X6190Y22350D02*
X6190Y21870D01*
X6400Y21870D02*
X6400Y22350D01*
X6610Y22350D01*
X6700Y22260D01*
X6700Y21960D01*
X6610Y21870D01*
X6400Y21870D01*
X6400Y21870D01*
X6940Y22290D02*
X7000Y22350D01*
X7150Y22350D01*
X7210Y22290D01*
X7210Y22170D01*
X7150Y22110D01*
X7060Y22110D01*
X7150Y22110D02*
X7210Y22050D01*
X7210Y21930D01*
X7150Y21870D01*
X7000Y21870D01*
X6940Y21930D01*
X5620Y17350D02*
X5800Y16870D01*
X5980Y17350D01*
X6100Y16870D02*
X6280Y16870D01*
X6100Y17350D02*
X6280Y17350D01*
X6190Y17350D02*
X6190Y16870D01*
X6400Y16870D02*
X6400Y17350D01*
X6610Y17350D01*
X6700Y17260D01*
X6700Y16960D01*
X6610Y16870D01*
X6400Y16870D01*
X6400Y16870D01*
X6940Y17260D02*
X7030Y17350D01*
X7120Y17350D01*
X7210Y17260D01*
X7210Y17140D01*
X7150Y17080D01*
X7000Y17080D01*
X6940Y17020D01*
X6940Y16870D01*
X7210Y16870D01*
X5620Y12350D02*
X5800Y11870D01*
X5980Y12350D01*
X6100Y11870D02*
X6280Y11870D01*
X6100Y12350D02*
X6280Y12350D01*
X6190Y12350D02*
X6190Y11870D01*
X6400Y11870D02*
X6400Y12350D01*
X6610Y12350D01*
X6700Y12260D01*
X6700Y11960D01*
X6610Y11870D01*
X6400Y11870D01*
X6400Y11870D01*
X6940Y11870D02*
X7120Y11870D01*
X7030Y11870D02*
X7030Y12350D01*
X6940Y12290D01*
M02*
