G04 EAGLE Gerber RS-274X export*
G75*
%MOMM*%
%FSLAX34Y34*%
%LPD*%
%INBottom Copper*%
%IPPOS*%
%AMOC8*
5,1,8,0,0,1.08239X$1,22.5*%
G01*
%ADD10C,1.524000*%
%ADD11C,1.508000*%
%ADD12C,0.152400*%
%ADD13C,0.756400*%
%ADD14C,0.304800*%
%ADD15C,0.254000*%

G36*
X368122Y10164D02*
X368122Y10164D01*
X368160Y10163D01*
X368438Y10185D01*
X368443Y10186D01*
X368449Y10186D01*
X368613Y10220D01*
X369142Y10392D01*
X369174Y10408D01*
X369209Y10417D01*
X369355Y10500D01*
X369805Y10827D01*
X369830Y10852D01*
X369860Y10871D01*
X369973Y10995D01*
X370300Y11445D01*
X370316Y11477D01*
X370339Y11505D01*
X370408Y11658D01*
X370580Y12187D01*
X370581Y12192D01*
X370584Y12197D01*
X370615Y12362D01*
X370637Y12640D01*
X370635Y12662D01*
X370639Y12700D01*
X370639Y695200D01*
X370636Y695222D01*
X370637Y695260D01*
X370615Y695538D01*
X370614Y695543D01*
X370614Y695549D01*
X370580Y695713D01*
X370408Y696242D01*
X370392Y696274D01*
X370383Y696309D01*
X370300Y696455D01*
X369973Y696905D01*
X369948Y696930D01*
X369929Y696960D01*
X369805Y697073D01*
X369355Y697400D01*
X369323Y697416D01*
X369295Y697439D01*
X369142Y697508D01*
X368613Y697680D01*
X368608Y697681D01*
X368603Y697684D01*
X368438Y697715D01*
X368160Y697737D01*
X368138Y697735D01*
X368100Y697739D01*
X12700Y697739D01*
X12678Y697736D01*
X12640Y697737D01*
X12362Y697715D01*
X12357Y697714D01*
X12351Y697714D01*
X12187Y697680D01*
X11658Y697508D01*
X11626Y697492D01*
X11591Y697483D01*
X11445Y697400D01*
X10995Y697073D01*
X10970Y697048D01*
X10940Y697029D01*
X10827Y696905D01*
X10500Y696455D01*
X10484Y696423D01*
X10461Y696395D01*
X10392Y696242D01*
X10220Y695713D01*
X10219Y695708D01*
X10216Y695703D01*
X10185Y695538D01*
X10163Y695260D01*
X10165Y695238D01*
X10161Y695200D01*
X10161Y12700D01*
X10164Y12678D01*
X10163Y12640D01*
X10185Y12362D01*
X10186Y12357D01*
X10186Y12351D01*
X10220Y12187D01*
X10392Y11658D01*
X10408Y11626D01*
X10417Y11591D01*
X10500Y11445D01*
X10827Y10995D01*
X10852Y10970D01*
X10871Y10940D01*
X10995Y10827D01*
X11445Y10500D01*
X11477Y10484D01*
X11505Y10461D01*
X11658Y10392D01*
X12187Y10220D01*
X12192Y10219D01*
X12197Y10216D01*
X12362Y10185D01*
X12640Y10163D01*
X12662Y10165D01*
X12700Y10161D01*
X368100Y10161D01*
X368122Y10164D01*
G37*
%LPC*%
G36*
X187718Y298477D02*
X187718Y298477D01*
X185394Y299440D01*
X183616Y301218D01*
X182653Y303542D01*
X182653Y306058D01*
X183616Y308382D01*
X185450Y310216D01*
X185503Y310290D01*
X185563Y310359D01*
X185575Y310390D01*
X185594Y310416D01*
X185621Y310503D01*
X185655Y310588D01*
X185659Y310629D01*
X185666Y310651D01*
X185665Y310683D01*
X185673Y310754D01*
X185673Y327758D01*
X205798Y347883D01*
X205851Y347957D01*
X205911Y348026D01*
X205923Y348057D01*
X205942Y348083D01*
X205969Y348170D01*
X206003Y348255D01*
X206007Y348296D01*
X206014Y348318D01*
X206013Y348350D01*
X206021Y348421D01*
X206021Y351016D01*
X206984Y353340D01*
X208762Y355118D01*
X210681Y355913D01*
X210764Y355964D01*
X210850Y356010D01*
X210868Y356029D01*
X210890Y356042D01*
X210952Y356117D01*
X211019Y356188D01*
X211030Y356212D01*
X211047Y356232D01*
X211081Y356323D01*
X211123Y356411D01*
X211125Y356437D01*
X211135Y356461D01*
X211139Y356559D01*
X211150Y356655D01*
X211144Y356681D01*
X211145Y356707D01*
X211118Y356801D01*
X211097Y356896D01*
X211084Y356918D01*
X211077Y356943D01*
X211021Y357023D01*
X210971Y357107D01*
X210951Y357124D01*
X210936Y357145D01*
X210858Y357204D01*
X210784Y357267D01*
X210760Y357277D01*
X210739Y357292D01*
X210647Y357322D01*
X210556Y357359D01*
X210524Y357362D01*
X210505Y357368D01*
X210472Y357368D01*
X210389Y357377D01*
X183290Y357377D01*
X134523Y406144D01*
X134507Y406156D01*
X134495Y406171D01*
X134407Y406227D01*
X134324Y406287D01*
X134305Y406293D01*
X134288Y406304D01*
X134187Y406329D01*
X134088Y406360D01*
X134069Y406359D01*
X134049Y406364D01*
X133946Y406356D01*
X133843Y406353D01*
X133824Y406347D01*
X133804Y406345D01*
X133709Y406305D01*
X133612Y406269D01*
X133596Y406257D01*
X133578Y406249D01*
X133447Y406144D01*
X94938Y367635D01*
X94885Y367561D01*
X94825Y367492D01*
X94813Y367461D01*
X94794Y367435D01*
X94767Y367348D01*
X94733Y367263D01*
X94729Y367222D01*
X94722Y367200D01*
X94723Y367168D01*
X94715Y367097D01*
X94715Y364502D01*
X93752Y362178D01*
X91974Y360400D01*
X91121Y360047D01*
X91082Y360022D01*
X91039Y360007D01*
X90978Y359958D01*
X90912Y359917D01*
X90882Y359882D01*
X90847Y359853D01*
X90805Y359788D01*
X90755Y359728D01*
X90738Y359685D01*
X90714Y359646D01*
X90695Y359570D01*
X90667Y359498D01*
X90665Y359452D01*
X90654Y359408D01*
X90660Y359330D01*
X90656Y359252D01*
X90669Y359208D01*
X90673Y359162D01*
X90703Y359091D01*
X90725Y359016D01*
X90751Y358978D01*
X90769Y358936D01*
X90854Y358829D01*
X90865Y358814D01*
X90869Y358811D01*
X90874Y358805D01*
X122294Y327385D01*
X122310Y327373D01*
X122323Y327357D01*
X122410Y327301D01*
X122494Y327241D01*
X122513Y327235D01*
X122530Y327224D01*
X122630Y327199D01*
X122729Y327169D01*
X122749Y327169D01*
X122768Y327164D01*
X122871Y327172D01*
X122975Y327175D01*
X122994Y327182D01*
X123014Y327183D01*
X123108Y327224D01*
X123206Y327259D01*
X123222Y327272D01*
X123240Y327280D01*
X123371Y327385D01*
X124434Y328448D01*
X126758Y329411D01*
X129274Y329411D01*
X131598Y328448D01*
X133376Y326670D01*
X134339Y324346D01*
X134339Y321751D01*
X134353Y321661D01*
X134361Y321570D01*
X134373Y321541D01*
X134378Y321509D01*
X134421Y321428D01*
X134457Y321344D01*
X134483Y321312D01*
X134494Y321291D01*
X134517Y321269D01*
X134562Y321213D01*
X135285Y320490D01*
X135359Y320437D01*
X135428Y320377D01*
X135459Y320365D01*
X135485Y320346D01*
X135572Y320319D01*
X135657Y320285D01*
X135698Y320281D01*
X135720Y320274D01*
X135752Y320275D01*
X135823Y320267D01*
X138418Y320267D01*
X140742Y319304D01*
X142520Y317526D01*
X143483Y315202D01*
X143483Y312686D01*
X142520Y310362D01*
X140742Y308584D01*
X138418Y307621D01*
X135902Y307621D01*
X133578Y308584D01*
X131800Y310362D01*
X130837Y312686D01*
X130837Y315281D01*
X130823Y315371D01*
X130815Y315462D01*
X130803Y315491D01*
X130798Y315523D01*
X130755Y315604D01*
X130719Y315688D01*
X130693Y315720D01*
X130682Y315741D01*
X130659Y315763D01*
X130614Y315819D01*
X129891Y316542D01*
X129817Y316595D01*
X129748Y316655D01*
X129717Y316667D01*
X129691Y316686D01*
X129604Y316713D01*
X129519Y316747D01*
X129478Y316751D01*
X129456Y316758D01*
X129424Y316757D01*
X129353Y316765D01*
X126758Y316765D01*
X124434Y317728D01*
X122600Y319562D01*
X122526Y319615D01*
X122457Y319675D01*
X122426Y319687D01*
X122400Y319706D01*
X122313Y319733D01*
X122228Y319767D01*
X122187Y319771D01*
X122165Y319778D01*
X122133Y319777D01*
X122062Y319785D01*
X120552Y319785D01*
X75945Y364392D01*
X75945Y395510D01*
X75938Y395555D01*
X75940Y395601D01*
X75918Y395676D01*
X75906Y395753D01*
X75884Y395793D01*
X75871Y395837D01*
X75827Y395901D01*
X75790Y395970D01*
X75757Y396002D01*
X75731Y396039D01*
X75669Y396086D01*
X75612Y396140D01*
X75570Y396159D01*
X75534Y396186D01*
X75460Y396210D01*
X75389Y396243D01*
X75343Y396248D01*
X75300Y396262D01*
X75222Y396262D01*
X75145Y396270D01*
X75100Y396261D01*
X75054Y396260D01*
X74922Y396222D01*
X74904Y396218D01*
X74900Y396215D01*
X74893Y396213D01*
X74410Y396013D01*
X71894Y396013D01*
X69570Y396976D01*
X67792Y398754D01*
X66829Y401078D01*
X66829Y403594D01*
X67792Y405918D01*
X69626Y407752D01*
X69679Y407826D01*
X69682Y407830D01*
X69718Y407866D01*
X69722Y407875D01*
X69739Y407895D01*
X69751Y407926D01*
X69770Y407952D01*
X69795Y408033D01*
X69821Y408089D01*
X69823Y408103D01*
X69831Y408124D01*
X69835Y408165D01*
X69842Y408187D01*
X69841Y408219D01*
X69849Y408290D01*
X69849Y571344D01*
X72007Y573502D01*
X163861Y665356D01*
X163873Y665372D01*
X163888Y665385D01*
X163944Y665472D01*
X164005Y665556D01*
X164011Y665575D01*
X164021Y665592D01*
X164047Y665692D01*
X164077Y665791D01*
X164077Y665811D01*
X164081Y665830D01*
X164073Y665933D01*
X164071Y666037D01*
X164064Y666055D01*
X164062Y666075D01*
X164022Y666170D01*
X163986Y666268D01*
X163974Y666283D01*
X163966Y666302D01*
X163861Y666433D01*
X162904Y667390D01*
X161369Y671095D01*
X161369Y675105D01*
X162904Y678810D01*
X165740Y681646D01*
X169445Y683181D01*
X173455Y683181D01*
X177160Y681646D01*
X179996Y678810D01*
X181531Y675105D01*
X181531Y671095D01*
X179996Y667390D01*
X177160Y664554D01*
X173455Y663019D01*
X171181Y663019D01*
X171091Y663005D01*
X171000Y662997D01*
X170971Y662985D01*
X170939Y662980D01*
X170858Y662937D01*
X170774Y662901D01*
X170742Y662875D01*
X170721Y662864D01*
X170699Y662841D01*
X170643Y662796D01*
X76678Y568831D01*
X76625Y568757D01*
X76565Y568688D01*
X76553Y568657D01*
X76534Y568631D01*
X76507Y568544D01*
X76473Y568459D01*
X76469Y568418D01*
X76462Y568396D01*
X76463Y568364D01*
X76455Y568293D01*
X76455Y561499D01*
X76466Y561429D01*
X76468Y561357D01*
X76486Y561308D01*
X76494Y561257D01*
X76528Y561193D01*
X76553Y561126D01*
X76585Y561085D01*
X76610Y561039D01*
X76661Y560990D01*
X76706Y560934D01*
X76750Y560906D01*
X76788Y560870D01*
X76853Y560840D01*
X76913Y560801D01*
X76964Y560788D01*
X77011Y560766D01*
X77082Y560758D01*
X77152Y560741D01*
X77204Y560745D01*
X77255Y560739D01*
X77326Y560754D01*
X77397Y560760D01*
X77445Y560780D01*
X77496Y560791D01*
X77557Y560828D01*
X77623Y560856D01*
X77679Y560901D01*
X77707Y560918D01*
X77722Y560935D01*
X77754Y560961D01*
X78103Y561310D01*
X186737Y669944D01*
X186805Y670038D01*
X186875Y670133D01*
X186877Y670139D01*
X186881Y670144D01*
X186915Y670255D01*
X186951Y670367D01*
X186951Y670373D01*
X186953Y670379D01*
X186950Y670496D01*
X186949Y670613D01*
X186947Y670620D01*
X186947Y670625D01*
X186940Y670642D01*
X186902Y670774D01*
X186769Y671095D01*
X186769Y675105D01*
X188304Y678810D01*
X191140Y681646D01*
X194845Y683181D01*
X198855Y683181D01*
X202560Y681646D01*
X205396Y678810D01*
X206931Y675105D01*
X206931Y671095D01*
X205396Y667390D01*
X202560Y664554D01*
X198855Y663019D01*
X194845Y663019D01*
X191291Y664491D01*
X191177Y664518D01*
X191064Y664547D01*
X191057Y664546D01*
X191051Y664548D01*
X190935Y664537D01*
X190818Y664528D01*
X190813Y664525D01*
X190806Y664524D01*
X190699Y664477D01*
X190592Y664431D01*
X190586Y664427D01*
X190582Y664424D01*
X190568Y664412D01*
X190461Y664326D01*
X82774Y556639D01*
X82721Y556565D01*
X82661Y556496D01*
X82649Y556465D01*
X82630Y556439D01*
X82603Y556352D01*
X82569Y556267D01*
X82565Y556226D01*
X82558Y556204D01*
X82559Y556172D01*
X82551Y556101D01*
X82551Y370698D01*
X82562Y370628D01*
X82564Y370556D01*
X82582Y370507D01*
X82590Y370455D01*
X82624Y370392D01*
X82649Y370325D01*
X82681Y370284D01*
X82706Y370238D01*
X82758Y370189D01*
X82802Y370133D01*
X82846Y370105D01*
X82884Y370069D01*
X82949Y370039D01*
X83009Y370000D01*
X83060Y369987D01*
X83107Y369965D01*
X83178Y369957D01*
X83248Y369940D01*
X83300Y369944D01*
X83351Y369938D01*
X83422Y369953D01*
X83493Y369959D01*
X83541Y369979D01*
X83592Y369990D01*
X83653Y370027D01*
X83719Y370055D01*
X83775Y370100D01*
X83803Y370116D01*
X83818Y370134D01*
X83850Y370160D01*
X84810Y371120D01*
X87134Y372083D01*
X89729Y372083D01*
X89819Y372097D01*
X89910Y372105D01*
X89939Y372117D01*
X89971Y372122D01*
X90052Y372165D01*
X90136Y372201D01*
X90168Y372227D01*
X90189Y372238D01*
X90211Y372261D01*
X90267Y372306D01*
X130614Y412653D01*
X130667Y412727D01*
X130727Y412796D01*
X130739Y412827D01*
X130758Y412853D01*
X130785Y412940D01*
X130819Y413025D01*
X130823Y413066D01*
X130830Y413088D01*
X130829Y413120D01*
X130837Y413191D01*
X130837Y415786D01*
X131800Y418110D01*
X133578Y419888D01*
X135902Y420851D01*
X138418Y420851D01*
X140742Y419888D01*
X142520Y418110D01*
X143483Y415786D01*
X143483Y413270D01*
X142520Y410946D01*
X141330Y409756D01*
X141318Y409740D01*
X141302Y409727D01*
X141246Y409640D01*
X141186Y409556D01*
X141180Y409537D01*
X141169Y409520D01*
X141144Y409420D01*
X141114Y409321D01*
X141114Y409301D01*
X141109Y409282D01*
X141117Y409179D01*
X141120Y409075D01*
X141127Y409056D01*
X141128Y409037D01*
X141169Y408942D01*
X141204Y408844D01*
X141217Y408828D01*
X141225Y408810D01*
X141330Y408679D01*
X181100Y368909D01*
X181158Y368867D01*
X181210Y368818D01*
X181257Y368796D01*
X181299Y368765D01*
X181368Y368744D01*
X181433Y368714D01*
X181485Y368708D01*
X181535Y368693D01*
X181606Y368695D01*
X181677Y368687D01*
X181728Y368698D01*
X181780Y368699D01*
X181848Y368724D01*
X181918Y368739D01*
X181962Y368766D01*
X182011Y368784D01*
X182067Y368829D01*
X182129Y368866D01*
X182163Y368905D01*
X182203Y368938D01*
X182242Y368998D01*
X182289Y369052D01*
X182308Y369101D01*
X182336Y369145D01*
X182354Y369214D01*
X182381Y369281D01*
X182389Y369352D01*
X182397Y369383D01*
X182395Y369406D01*
X182399Y369447D01*
X182399Y371844D01*
X183362Y374168D01*
X185196Y376002D01*
X185249Y376076D01*
X185309Y376145D01*
X185321Y376175D01*
X185340Y376202D01*
X185367Y376289D01*
X185401Y376374D01*
X185405Y376414D01*
X185412Y376437D01*
X185411Y376469D01*
X185419Y376540D01*
X185419Y428339D01*
X185405Y428429D01*
X185397Y428520D01*
X185385Y428549D01*
X185380Y428581D01*
X185337Y428662D01*
X185301Y428746D01*
X185275Y428778D01*
X185264Y428799D01*
X185241Y428821D01*
X185196Y428877D01*
X178178Y435895D01*
X178162Y435907D01*
X178149Y435923D01*
X178062Y435979D01*
X177978Y436039D01*
X177959Y436045D01*
X177942Y436055D01*
X177842Y436081D01*
X177743Y436111D01*
X177723Y436111D01*
X177704Y436115D01*
X177601Y436107D01*
X177497Y436105D01*
X177479Y436098D01*
X177459Y436096D01*
X177364Y436056D01*
X177266Y436020D01*
X177251Y436008D01*
X177232Y436000D01*
X177191Y435967D01*
X173455Y434419D01*
X169445Y434419D01*
X165740Y435954D01*
X162904Y438790D01*
X161369Y442495D01*
X161369Y446505D01*
X162904Y450210D01*
X165740Y453046D01*
X169445Y454581D01*
X173455Y454581D01*
X177160Y453046D01*
X179996Y450210D01*
X181531Y446505D01*
X181531Y442466D01*
X181520Y442419D01*
X181491Y442306D01*
X181492Y442300D01*
X181490Y442294D01*
X181501Y442176D01*
X181510Y442061D01*
X181513Y442055D01*
X181513Y442049D01*
X181561Y441941D01*
X181607Y441834D01*
X181611Y441829D01*
X181613Y441824D01*
X181626Y441810D01*
X181711Y441703D01*
X189867Y433548D01*
X192025Y431390D01*
X192025Y376540D01*
X192039Y376450D01*
X192047Y376359D01*
X192059Y376329D01*
X192064Y376298D01*
X192107Y376217D01*
X192143Y376133D01*
X192169Y376101D01*
X192180Y376080D01*
X192203Y376058D01*
X192248Y376002D01*
X194082Y374168D01*
X195045Y371844D01*
X195045Y369328D01*
X194082Y367004D01*
X192360Y365282D01*
X192318Y365224D01*
X192269Y365172D01*
X192247Y365125D01*
X192216Y365083D01*
X192195Y365014D01*
X192165Y364949D01*
X192159Y364897D01*
X192144Y364847D01*
X192146Y364776D01*
X192138Y364705D01*
X192149Y364654D01*
X192150Y364602D01*
X192175Y364534D01*
X192190Y364464D01*
X192217Y364419D01*
X192235Y364371D01*
X192280Y364315D01*
X192316Y364253D01*
X192356Y364219D01*
X192389Y364179D01*
X192449Y364140D01*
X192503Y364093D01*
X192552Y364074D01*
X192595Y364046D01*
X192665Y364028D01*
X192732Y364001D01*
X192803Y363993D01*
X192834Y363985D01*
X192857Y363987D01*
X192898Y363983D01*
X241144Y363983D01*
X251109Y354018D01*
X251183Y353965D01*
X251252Y353905D01*
X251283Y353893D01*
X251309Y353874D01*
X251396Y353847D01*
X251481Y353813D01*
X251522Y353809D01*
X251544Y353802D01*
X251576Y353803D01*
X251647Y353795D01*
X254242Y353795D01*
X256566Y352832D01*
X258344Y351054D01*
X259307Y348730D01*
X259307Y346214D01*
X258344Y343890D01*
X256566Y342112D01*
X254242Y341149D01*
X251726Y341149D01*
X249402Y342112D01*
X247624Y343890D01*
X246661Y346214D01*
X246661Y348809D01*
X246647Y348899D01*
X246639Y348990D01*
X246627Y349019D01*
X246622Y349051D01*
X246579Y349132D01*
X246543Y349216D01*
X246517Y349248D01*
X246506Y349269D01*
X246483Y349291D01*
X246438Y349347D01*
X238631Y357154D01*
X238557Y357207D01*
X238488Y357267D01*
X238457Y357279D01*
X238431Y357298D01*
X238344Y357325D01*
X238259Y357359D01*
X238218Y357363D01*
X238196Y357370D01*
X238164Y357369D01*
X238093Y357377D01*
X214299Y357377D01*
X214203Y357362D01*
X214106Y357352D01*
X214082Y357342D01*
X214056Y357338D01*
X213970Y357292D01*
X213881Y357252D01*
X213862Y357235D01*
X213838Y357222D01*
X213771Y357152D01*
X213700Y357086D01*
X213687Y357063D01*
X213669Y357044D01*
X213628Y356956D01*
X213581Y356870D01*
X213576Y356845D01*
X213565Y356821D01*
X213555Y356724D01*
X213537Y356628D01*
X213541Y356602D01*
X213538Y356577D01*
X213559Y356481D01*
X213573Y356385D01*
X213585Y356362D01*
X213591Y356336D01*
X213641Y356253D01*
X213685Y356166D01*
X213703Y356147D01*
X213717Y356125D01*
X213791Y356062D01*
X213860Y355994D01*
X213889Y355978D01*
X213904Y355965D01*
X213934Y355953D01*
X214007Y355913D01*
X215926Y355118D01*
X217704Y353340D01*
X218667Y351016D01*
X218667Y348500D01*
X217704Y346176D01*
X215926Y344398D01*
X213602Y343435D01*
X211007Y343435D01*
X210917Y343421D01*
X210826Y343413D01*
X210797Y343401D01*
X210765Y343396D01*
X210684Y343353D01*
X210600Y343317D01*
X210568Y343291D01*
X210547Y343280D01*
X210525Y343257D01*
X210469Y343212D01*
X192502Y325245D01*
X192449Y325171D01*
X192389Y325102D01*
X192377Y325071D01*
X192358Y325045D01*
X192331Y324958D01*
X192297Y324873D01*
X192293Y324832D01*
X192286Y324810D01*
X192287Y324778D01*
X192279Y324707D01*
X192279Y310754D01*
X192293Y310664D01*
X192301Y310573D01*
X192313Y310544D01*
X192318Y310512D01*
X192361Y310431D01*
X192397Y310347D01*
X192423Y310315D01*
X192434Y310294D01*
X192457Y310272D01*
X192502Y310216D01*
X194336Y308382D01*
X195299Y306058D01*
X195299Y303542D01*
X194336Y301218D01*
X192558Y299440D01*
X190234Y298477D01*
X187718Y298477D01*
G37*
%LPD*%
%LPC*%
G36*
X129806Y191797D02*
X129806Y191797D01*
X127482Y192760D01*
X125704Y194538D01*
X124741Y196862D01*
X124741Y199378D01*
X125704Y201702D01*
X127482Y203480D01*
X129806Y204443D01*
X132322Y204443D01*
X134646Y203480D01*
X135718Y202408D01*
X135792Y202355D01*
X135861Y202295D01*
X135892Y202283D01*
X135918Y202264D01*
X136005Y202237D01*
X136090Y202203D01*
X136131Y202199D01*
X136153Y202192D01*
X136185Y202193D01*
X136256Y202185D01*
X202072Y202185D01*
X202162Y202199D01*
X202253Y202207D01*
X202282Y202219D01*
X202314Y202224D01*
X202395Y202267D01*
X202479Y202303D01*
X202511Y202329D01*
X202532Y202340D01*
X202554Y202363D01*
X202610Y202408D01*
X203682Y203480D01*
X206006Y204443D01*
X207523Y204443D01*
X207613Y204457D01*
X207704Y204465D01*
X207734Y204477D01*
X207766Y204482D01*
X207846Y204525D01*
X207930Y204561D01*
X207962Y204587D01*
X207983Y204598D01*
X208005Y204621D01*
X208061Y204666D01*
X311434Y308039D01*
X314261Y310866D01*
X334835Y331440D01*
X334877Y331498D01*
X334927Y331550D01*
X334949Y331597D01*
X334979Y331639D01*
X335000Y331708D01*
X335030Y331773D01*
X335036Y331825D01*
X335051Y331875D01*
X335049Y331946D01*
X335057Y332017D01*
X335046Y332068D01*
X335045Y332120D01*
X335020Y332188D01*
X335005Y332258D01*
X334978Y332302D01*
X334960Y332351D01*
X334916Y332407D01*
X334879Y332469D01*
X334839Y332503D01*
X334807Y332543D01*
X334746Y332582D01*
X334692Y332629D01*
X334644Y332648D01*
X334600Y332676D01*
X334530Y332694D01*
X334464Y332721D01*
X334392Y332729D01*
X334361Y332737D01*
X334338Y332735D01*
X334297Y332739D01*
X333259Y332739D01*
X329524Y334286D01*
X326666Y337144D01*
X325119Y340879D01*
X325119Y344921D01*
X326666Y348656D01*
X329524Y351514D01*
X333259Y353061D01*
X352541Y353061D01*
X356276Y351514D01*
X359134Y348656D01*
X360681Y344921D01*
X360681Y340879D01*
X359134Y337144D01*
X356276Y334286D01*
X352541Y332739D01*
X347947Y332739D01*
X347857Y332725D01*
X347766Y332717D01*
X347736Y332705D01*
X347704Y332700D01*
X347624Y332657D01*
X347540Y332621D01*
X347508Y332595D01*
X347487Y332584D01*
X347465Y332561D01*
X347409Y332516D01*
X345885Y330992D01*
X320739Y305846D01*
X320727Y305830D01*
X320711Y305818D01*
X320655Y305730D01*
X320595Y305647D01*
X320589Y305628D01*
X320578Y305611D01*
X320553Y305510D01*
X320523Y305411D01*
X320523Y305392D01*
X320518Y305372D01*
X320526Y305269D01*
X320529Y305166D01*
X320536Y305147D01*
X320538Y305127D01*
X320578Y305032D01*
X320614Y304935D01*
X320626Y304919D01*
X320634Y304901D01*
X320739Y304770D01*
X321783Y303726D01*
X321857Y303673D01*
X321926Y303613D01*
X321956Y303601D01*
X321982Y303582D01*
X322069Y303555D01*
X322154Y303521D01*
X322195Y303517D01*
X322218Y303510D01*
X322250Y303511D01*
X322321Y303503D01*
X323838Y303503D01*
X326162Y302540D01*
X327940Y300762D01*
X328903Y298438D01*
X328903Y295922D01*
X327940Y293598D01*
X326162Y291820D01*
X323838Y290857D01*
X321322Y290857D01*
X318998Y291820D01*
X317220Y293598D01*
X316257Y295922D01*
X316257Y297439D01*
X316243Y297529D01*
X316235Y297620D01*
X316223Y297650D01*
X316218Y297682D01*
X316175Y297762D01*
X316139Y297846D01*
X316113Y297878D01*
X316102Y297899D01*
X316079Y297921D01*
X316034Y297977D01*
X314990Y299021D01*
X314974Y299033D01*
X314962Y299049D01*
X314874Y299105D01*
X314791Y299165D01*
X314772Y299171D01*
X314755Y299182D01*
X314654Y299207D01*
X314555Y299237D01*
X314536Y299237D01*
X314516Y299242D01*
X314413Y299234D01*
X314310Y299231D01*
X314291Y299224D01*
X314271Y299222D01*
X314176Y299182D01*
X314079Y299146D01*
X314063Y299134D01*
X314045Y299126D01*
X313914Y299021D01*
X213810Y198917D01*
X213757Y198843D01*
X213697Y198774D01*
X213685Y198744D01*
X213666Y198718D01*
X213639Y198631D01*
X213605Y198546D01*
X213601Y198505D01*
X213594Y198483D01*
X213595Y198450D01*
X213587Y198379D01*
X213587Y196862D01*
X212624Y194538D01*
X210846Y192760D01*
X208522Y191797D01*
X206006Y191797D01*
X203682Y192760D01*
X202610Y193832D01*
X202536Y193885D01*
X202467Y193945D01*
X202436Y193957D01*
X202410Y193976D01*
X202323Y194003D01*
X202238Y194037D01*
X202197Y194041D01*
X202175Y194048D01*
X202143Y194047D01*
X202072Y194055D01*
X136256Y194055D01*
X136166Y194041D01*
X136075Y194033D01*
X136046Y194021D01*
X136014Y194016D01*
X135933Y193973D01*
X135849Y193937D01*
X135817Y193911D01*
X135796Y193900D01*
X135774Y193877D01*
X135718Y193832D01*
X134646Y192760D01*
X132322Y191797D01*
X129806Y191797D01*
G37*
%LPD*%
%LPC*%
G36*
X48779Y20319D02*
X48779Y20319D01*
X45044Y21866D01*
X42186Y24724D01*
X40639Y28459D01*
X40639Y47741D01*
X42186Y51476D01*
X45044Y54334D01*
X48779Y55881D01*
X52821Y55881D01*
X56556Y54334D01*
X59414Y51476D01*
X60961Y47741D01*
X60961Y28459D01*
X59414Y24724D01*
X56556Y21866D01*
X52821Y20319D01*
X48779Y20319D01*
G37*
%LPD*%
%LPC*%
G36*
X175779Y20319D02*
X175779Y20319D01*
X172044Y21866D01*
X169186Y24724D01*
X167639Y28459D01*
X167639Y47741D01*
X169186Y51476D01*
X172044Y54334D01*
X175779Y55881D01*
X179821Y55881D01*
X183556Y54334D01*
X186414Y51476D01*
X187961Y47741D01*
X187961Y28459D01*
X186414Y24724D01*
X183556Y21866D01*
X179821Y20319D01*
X175779Y20319D01*
G37*
%LPD*%
%LPC*%
G36*
X302779Y20319D02*
X302779Y20319D01*
X299044Y21866D01*
X296186Y24724D01*
X294639Y28459D01*
X294639Y47741D01*
X296186Y51476D01*
X299044Y54334D01*
X302779Y55881D01*
X306821Y55881D01*
X310556Y54334D01*
X313414Y51476D01*
X314961Y47741D01*
X314961Y28459D01*
X313414Y24724D01*
X310556Y21866D01*
X306821Y20319D01*
X302779Y20319D01*
G37*
%LPD*%
%LPC*%
G36*
X28459Y332739D02*
X28459Y332739D01*
X24724Y334286D01*
X21866Y337144D01*
X20319Y340879D01*
X20319Y344921D01*
X21866Y348656D01*
X24724Y351514D01*
X28459Y353061D01*
X47741Y353061D01*
X51476Y351514D01*
X54334Y348656D01*
X55881Y344921D01*
X55881Y340879D01*
X54334Y337144D01*
X51476Y334286D01*
X47741Y332739D01*
X28459Y332739D01*
G37*
%LPD*%
%LPC*%
G36*
X118645Y434419D02*
X118645Y434419D01*
X114940Y435954D01*
X112104Y438790D01*
X110569Y442495D01*
X110569Y446505D01*
X112104Y450210D01*
X114940Y453046D01*
X118645Y454581D01*
X122655Y454581D01*
X126360Y453046D01*
X129196Y450210D01*
X130731Y446505D01*
X130731Y442495D01*
X129196Y438790D01*
X126360Y435954D01*
X122655Y434419D01*
X118645Y434419D01*
G37*
%LPD*%
%LPC*%
G36*
X144045Y434419D02*
X144045Y434419D01*
X140340Y435954D01*
X137504Y438790D01*
X135969Y442495D01*
X135969Y446505D01*
X137504Y450210D01*
X140340Y453046D01*
X144045Y454581D01*
X148055Y454581D01*
X151760Y453046D01*
X154596Y450210D01*
X156131Y446505D01*
X156131Y442495D01*
X154596Y438790D01*
X151760Y435954D01*
X148055Y434419D01*
X144045Y434419D01*
G37*
%LPD*%
%LPC*%
G36*
X118645Y663019D02*
X118645Y663019D01*
X114940Y664554D01*
X112104Y667390D01*
X110569Y671095D01*
X110569Y675105D01*
X112104Y678810D01*
X114940Y681646D01*
X118645Y683181D01*
X122655Y683181D01*
X126360Y681646D01*
X129196Y678810D01*
X130731Y675105D01*
X130731Y671095D01*
X129196Y667390D01*
X126360Y664554D01*
X122655Y663019D01*
X118645Y663019D01*
G37*
%LPD*%
%LPC*%
G36*
X144045Y663019D02*
X144045Y663019D01*
X140340Y664554D01*
X137504Y667390D01*
X135969Y671095D01*
X135969Y675105D01*
X137504Y678810D01*
X140340Y681646D01*
X144045Y683181D01*
X148055Y683181D01*
X151760Y681646D01*
X154596Y678810D01*
X156131Y675105D01*
X156131Y671095D01*
X154596Y667390D01*
X151760Y664554D01*
X148055Y663019D01*
X144045Y663019D01*
G37*
%LPD*%
%LPC*%
G36*
X271045Y663019D02*
X271045Y663019D01*
X267340Y664554D01*
X264504Y667390D01*
X262969Y671095D01*
X262969Y675105D01*
X264504Y678810D01*
X267340Y681646D01*
X271045Y683181D01*
X275055Y683181D01*
X278760Y681646D01*
X281596Y678810D01*
X283131Y675105D01*
X283131Y671095D01*
X281596Y667390D01*
X278760Y664554D01*
X275055Y663019D01*
X271045Y663019D01*
G37*
%LPD*%
%LPC*%
G36*
X93245Y434419D02*
X93245Y434419D01*
X89540Y435954D01*
X86704Y438790D01*
X85169Y442495D01*
X85169Y446505D01*
X86704Y450210D01*
X89540Y453046D01*
X93245Y454581D01*
X97255Y454581D01*
X100960Y453046D01*
X103796Y450210D01*
X105331Y446505D01*
X105331Y442495D01*
X103796Y438790D01*
X100960Y435954D01*
X97255Y434419D01*
X93245Y434419D01*
G37*
%LPD*%
%LPC*%
G36*
X271045Y434419D02*
X271045Y434419D01*
X267340Y435954D01*
X264504Y438790D01*
X262969Y442495D01*
X262969Y446505D01*
X264504Y450210D01*
X267340Y453046D01*
X271045Y454581D01*
X275055Y454581D01*
X278760Y453046D01*
X281596Y450210D01*
X283131Y446505D01*
X283131Y442495D01*
X281596Y438790D01*
X278760Y435954D01*
X275055Y434419D01*
X271045Y434419D01*
G37*
%LPD*%
%LPC*%
G36*
X220245Y434419D02*
X220245Y434419D01*
X216540Y435954D01*
X213704Y438790D01*
X212169Y442495D01*
X212169Y446505D01*
X213704Y450210D01*
X216540Y453046D01*
X220245Y454581D01*
X224255Y454581D01*
X227960Y453046D01*
X230796Y450210D01*
X232331Y446505D01*
X232331Y442495D01*
X230796Y438790D01*
X227960Y435954D01*
X224255Y434419D01*
X220245Y434419D01*
G37*
%LPD*%
%LPC*%
G36*
X194845Y434419D02*
X194845Y434419D01*
X191140Y435954D01*
X188304Y438790D01*
X186769Y442495D01*
X186769Y446505D01*
X188304Y450210D01*
X191140Y453046D01*
X194845Y454581D01*
X198855Y454581D01*
X202560Y453046D01*
X205396Y450210D01*
X206931Y446505D01*
X206931Y442495D01*
X205396Y438790D01*
X202560Y435954D01*
X198855Y434419D01*
X194845Y434419D01*
G37*
%LPD*%
%LPC*%
G36*
X220245Y663019D02*
X220245Y663019D01*
X216540Y664554D01*
X213704Y667390D01*
X212169Y671095D01*
X212169Y675105D01*
X213704Y678810D01*
X216540Y681646D01*
X220245Y683181D01*
X224255Y683181D01*
X227960Y681646D01*
X230796Y678810D01*
X232331Y675105D01*
X232331Y671095D01*
X230796Y667390D01*
X227960Y664554D01*
X224255Y663019D01*
X220245Y663019D01*
G37*
%LPD*%
%LPC*%
G36*
X93245Y663019D02*
X93245Y663019D01*
X89540Y664554D01*
X86704Y667390D01*
X85169Y671095D01*
X85169Y675105D01*
X86704Y678810D01*
X89540Y681646D01*
X93245Y683181D01*
X97255Y683181D01*
X100960Y681646D01*
X103796Y678810D01*
X105331Y675105D01*
X105331Y671095D01*
X103796Y667390D01*
X100960Y664554D01*
X97255Y663019D01*
X93245Y663019D01*
G37*
%LPD*%
%LPC*%
G36*
X245645Y434419D02*
X245645Y434419D01*
X241940Y435954D01*
X239104Y438790D01*
X237569Y442495D01*
X237569Y446505D01*
X239104Y450210D01*
X241940Y453046D01*
X245645Y454581D01*
X249655Y454581D01*
X253360Y453046D01*
X256196Y450210D01*
X257731Y446505D01*
X257731Y442495D01*
X256196Y438790D01*
X253360Y435954D01*
X249655Y434419D01*
X245645Y434419D01*
G37*
%LPD*%
%LPC*%
G36*
X331723Y39623D02*
X331723Y39623D01*
X331723Y55766D01*
X332579Y55631D01*
X334100Y55136D01*
X335525Y54410D01*
X336819Y53470D01*
X337950Y52339D01*
X338890Y51045D01*
X339616Y49620D01*
X340111Y48099D01*
X340361Y46520D01*
X340361Y39623D01*
X331723Y39623D01*
G37*
%LPD*%
%LPC*%
G36*
X77723Y39623D02*
X77723Y39623D01*
X77723Y55766D01*
X78579Y55631D01*
X80100Y55136D01*
X81525Y54410D01*
X82819Y53470D01*
X83950Y52339D01*
X84890Y51045D01*
X85616Y49620D01*
X86111Y48099D01*
X86361Y46520D01*
X86361Y39623D01*
X77723Y39623D01*
G37*
%LPD*%
%LPC*%
G36*
X204723Y39623D02*
X204723Y39623D01*
X204723Y55766D01*
X205579Y55631D01*
X207100Y55136D01*
X208525Y54410D01*
X209819Y53470D01*
X210950Y52339D01*
X211890Y51045D01*
X212616Y49620D01*
X213111Y48099D01*
X213361Y46520D01*
X213361Y39623D01*
X204723Y39623D01*
G37*
%LPD*%
%LPC*%
G36*
X344423Y369823D02*
X344423Y369823D01*
X344423Y378461D01*
X351320Y378461D01*
X352899Y378211D01*
X354420Y377716D01*
X355845Y376990D01*
X357139Y376050D01*
X358270Y374919D01*
X359210Y373625D01*
X359936Y372200D01*
X360431Y370679D01*
X360566Y369823D01*
X344423Y369823D01*
G37*
%LPD*%
%LPC*%
G36*
X39623Y369823D02*
X39623Y369823D01*
X39623Y378461D01*
X46520Y378461D01*
X48099Y378211D01*
X49620Y377716D01*
X51045Y376990D01*
X52339Y376050D01*
X53470Y374919D01*
X54410Y373625D01*
X55136Y372200D01*
X55631Y370679D01*
X55766Y369823D01*
X39623Y369823D01*
G37*
%LPD*%
%LPC*%
G36*
X325234Y369823D02*
X325234Y369823D01*
X325369Y370679D01*
X325864Y372200D01*
X326590Y373625D01*
X327530Y374919D01*
X328661Y376050D01*
X329955Y376990D01*
X331380Y377716D01*
X332901Y378211D01*
X334480Y378461D01*
X341377Y378461D01*
X341377Y369823D01*
X325234Y369823D01*
G37*
%LPD*%
%LPC*%
G36*
X20434Y369823D02*
X20434Y369823D01*
X20569Y370679D01*
X21064Y372200D01*
X21790Y373625D01*
X22730Y374919D01*
X23861Y376050D01*
X25155Y376990D01*
X26580Y377716D01*
X28101Y378211D01*
X29680Y378461D01*
X36577Y378461D01*
X36577Y369823D01*
X20434Y369823D01*
G37*
%LPD*%
%LPC*%
G36*
X204723Y36577D02*
X204723Y36577D01*
X213361Y36577D01*
X213361Y29680D01*
X213111Y28101D01*
X212616Y26580D01*
X211890Y25155D01*
X210950Y23861D01*
X209819Y22730D01*
X208525Y21790D01*
X207100Y21064D01*
X205579Y20569D01*
X204723Y20434D01*
X204723Y36577D01*
G37*
%LPD*%
%LPC*%
G36*
X331723Y36577D02*
X331723Y36577D01*
X340361Y36577D01*
X340361Y29680D01*
X340111Y28101D01*
X339616Y26580D01*
X338890Y25155D01*
X337950Y23861D01*
X336819Y22730D01*
X335525Y21790D01*
X334100Y21064D01*
X332579Y20569D01*
X331723Y20434D01*
X331723Y36577D01*
G37*
%LPD*%
%LPC*%
G36*
X77723Y36577D02*
X77723Y36577D01*
X86361Y36577D01*
X86361Y29680D01*
X86111Y28101D01*
X85616Y26580D01*
X84890Y25155D01*
X83950Y23861D01*
X82819Y22730D01*
X81525Y21790D01*
X80100Y21064D01*
X78579Y20569D01*
X77723Y20434D01*
X77723Y36577D01*
G37*
%LPD*%
%LPC*%
G36*
X344423Y358139D02*
X344423Y358139D01*
X344423Y366777D01*
X360566Y366777D01*
X360431Y365921D01*
X359936Y364400D01*
X359210Y362975D01*
X358270Y361681D01*
X357139Y360550D01*
X355845Y359610D01*
X354420Y358884D01*
X352899Y358389D01*
X351320Y358139D01*
X344423Y358139D01*
G37*
%LPD*%
%LPC*%
G36*
X39623Y358139D02*
X39623Y358139D01*
X39623Y366777D01*
X55766Y366777D01*
X55631Y365921D01*
X55136Y364400D01*
X54410Y362975D01*
X53470Y361681D01*
X52339Y360550D01*
X51045Y359610D01*
X49620Y358884D01*
X48099Y358389D01*
X46520Y358139D01*
X39623Y358139D01*
G37*
%LPD*%
%LPC*%
G36*
X320039Y39623D02*
X320039Y39623D01*
X320039Y46520D01*
X320289Y48099D01*
X320784Y49620D01*
X321510Y51045D01*
X322450Y52339D01*
X323581Y53470D01*
X324875Y54410D01*
X326300Y55136D01*
X327821Y55631D01*
X328677Y55766D01*
X328677Y39623D01*
X320039Y39623D01*
G37*
%LPD*%
%LPC*%
G36*
X66039Y39623D02*
X66039Y39623D01*
X66039Y46520D01*
X66289Y48099D01*
X66784Y49620D01*
X67510Y51045D01*
X68450Y52339D01*
X69581Y53470D01*
X70875Y54410D01*
X72300Y55136D01*
X73821Y55631D01*
X74677Y55766D01*
X74677Y39623D01*
X66039Y39623D01*
G37*
%LPD*%
%LPC*%
G36*
X193039Y39623D02*
X193039Y39623D01*
X193039Y46520D01*
X193289Y48099D01*
X193784Y49620D01*
X194510Y51045D01*
X195450Y52339D01*
X196581Y53470D01*
X197875Y54410D01*
X199300Y55136D01*
X200821Y55631D01*
X201677Y55766D01*
X201677Y39623D01*
X193039Y39623D01*
G37*
%LPD*%
%LPC*%
G36*
X334480Y358139D02*
X334480Y358139D01*
X332901Y358389D01*
X331380Y358884D01*
X329955Y359610D01*
X328661Y360550D01*
X327530Y361681D01*
X326590Y362975D01*
X325864Y364400D01*
X325369Y365921D01*
X325234Y366777D01*
X341377Y366777D01*
X341377Y358139D01*
X334480Y358139D01*
G37*
%LPD*%
%LPC*%
G36*
X29680Y358139D02*
X29680Y358139D01*
X28101Y358389D01*
X26580Y358884D01*
X25155Y359610D01*
X23861Y360550D01*
X22730Y361681D01*
X21790Y362975D01*
X21064Y364400D01*
X20569Y365921D01*
X20434Y366777D01*
X36577Y366777D01*
X36577Y358139D01*
X29680Y358139D01*
G37*
%LPD*%
%LPC*%
G36*
X200821Y20569D02*
X200821Y20569D01*
X199300Y21064D01*
X197875Y21790D01*
X196581Y22730D01*
X195450Y23861D01*
X194510Y25155D01*
X193784Y26580D01*
X193289Y28101D01*
X193039Y29680D01*
X193039Y36577D01*
X201677Y36577D01*
X201677Y20434D01*
X200821Y20569D01*
G37*
%LPD*%
%LPC*%
G36*
X327821Y20569D02*
X327821Y20569D01*
X326300Y21064D01*
X324875Y21790D01*
X323581Y22730D01*
X322450Y23861D01*
X321510Y25155D01*
X320784Y26580D01*
X320289Y28101D01*
X320039Y29680D01*
X320039Y36577D01*
X328677Y36577D01*
X328677Y20434D01*
X327821Y20569D01*
G37*
%LPD*%
%LPC*%
G36*
X73821Y20569D02*
X73821Y20569D01*
X72300Y21064D01*
X70875Y21790D01*
X69581Y22730D01*
X68450Y23861D01*
X67510Y25155D01*
X66784Y26580D01*
X66289Y28101D01*
X66039Y29680D01*
X66039Y36577D01*
X74677Y36577D01*
X74677Y20434D01*
X73821Y20569D01*
G37*
%LPD*%
%LPC*%
G36*
X249173Y674623D02*
X249173Y674623D01*
X249173Y683065D01*
X250011Y682933D01*
X251520Y682442D01*
X252933Y681722D01*
X254217Y680789D01*
X255339Y679667D01*
X256272Y678383D01*
X256992Y676970D01*
X257483Y675461D01*
X257615Y674623D01*
X249173Y674623D01*
G37*
%LPD*%
%LPC*%
G36*
X237685Y674623D02*
X237685Y674623D01*
X237817Y675461D01*
X238308Y676970D01*
X239028Y678383D01*
X239961Y679667D01*
X241083Y680789D01*
X242367Y681722D01*
X243780Y682442D01*
X245289Y682933D01*
X246127Y683065D01*
X246127Y674623D01*
X237685Y674623D01*
G37*
%LPD*%
%LPC*%
G36*
X249173Y671577D02*
X249173Y671577D01*
X257615Y671577D01*
X257483Y670739D01*
X256992Y669230D01*
X256272Y667817D01*
X255339Y666533D01*
X254217Y665411D01*
X252933Y664478D01*
X251520Y663758D01*
X250011Y663267D01*
X249173Y663135D01*
X249173Y671577D01*
G37*
%LPD*%
%LPC*%
G36*
X245289Y663267D02*
X245289Y663267D01*
X243780Y663758D01*
X242367Y664478D01*
X241083Y665411D01*
X239961Y666533D01*
X239028Y667817D01*
X238308Y669230D01*
X237817Y670739D01*
X237685Y671577D01*
X246127Y671577D01*
X246127Y663135D01*
X245289Y663267D01*
G37*
%LPD*%
%LPC*%
G36*
X247649Y673099D02*
X247649Y673099D01*
X247649Y673101D01*
X247651Y673101D01*
X247651Y673099D01*
X247649Y673099D01*
G37*
%LPD*%
%LPC*%
G36*
X76199Y38099D02*
X76199Y38099D01*
X76199Y38101D01*
X76201Y38101D01*
X76201Y38099D01*
X76199Y38099D01*
G37*
%LPD*%
%LPC*%
G36*
X203199Y38099D02*
X203199Y38099D01*
X203199Y38101D01*
X203201Y38101D01*
X203201Y38099D01*
X203199Y38099D01*
G37*
%LPD*%
%LPC*%
G36*
X330199Y38099D02*
X330199Y38099D01*
X330199Y38101D01*
X330201Y38101D01*
X330201Y38099D01*
X330199Y38099D01*
G37*
%LPD*%
%LPC*%
G36*
X38099Y368299D02*
X38099Y368299D01*
X38099Y368301D01*
X38101Y368301D01*
X38101Y368299D01*
X38099Y368299D01*
G37*
%LPD*%
%LPC*%
G36*
X342899Y368299D02*
X342899Y368299D01*
X342899Y368301D01*
X342901Y368301D01*
X342901Y368299D01*
X342899Y368299D01*
G37*
%LPD*%
D10*
X50800Y30480D02*
X50800Y45720D01*
X76200Y45720D02*
X76200Y30480D01*
X177800Y30480D02*
X177800Y45720D01*
X203200Y45720D02*
X203200Y30480D01*
X304800Y30480D02*
X304800Y45720D01*
X330200Y45720D02*
X330200Y30480D01*
X45720Y342900D02*
X30480Y342900D01*
X30480Y368300D02*
X45720Y368300D01*
X335280Y342900D02*
X350520Y342900D01*
X350520Y368300D02*
X335280Y368300D01*
D11*
X247650Y444500D03*
X222250Y444500D03*
X196850Y444500D03*
X171450Y444500D03*
X146050Y444500D03*
X120650Y444500D03*
X95250Y444500D03*
X247650Y673100D03*
X222250Y673100D03*
X196850Y673100D03*
X171450Y673100D03*
X146050Y673100D03*
X120650Y673100D03*
X95250Y673100D03*
X273050Y444500D03*
X273050Y673100D03*
D12*
X170688Y670560D02*
X170688Y667512D01*
X73152Y569976D01*
X73152Y402336D01*
X170688Y670560D02*
X171450Y673100D01*
D13*
X73152Y402336D03*
X50800Y292100D03*
X25400Y254000D03*
X215900Y304800D03*
X152400Y279400D03*
X266700Y368300D03*
X266700Y127000D03*
X330200Y139700D03*
X228600Y254000D03*
X266700Y304800D03*
X266700Y215900D03*
X317500Y266700D03*
X76200Y139700D03*
X127000Y381000D03*
X127000Y355600D03*
D14*
X131064Y198120D02*
X207264Y198120D01*
X315722Y306578D02*
X344424Y335280D01*
X315722Y306578D02*
X207264Y198120D01*
X344424Y335280D02*
X344424Y341376D01*
X342900Y342900D01*
D13*
X131064Y198120D03*
X207264Y198120D03*
X322580Y297180D03*
D14*
X315722Y304038D01*
X315722Y306578D01*
D12*
X212344Y349758D02*
X188976Y326390D01*
X188976Y304800D01*
D13*
X212344Y349758D03*
X188976Y304800D03*
D12*
X137160Y313944D02*
X128016Y323088D01*
X192024Y670560D02*
X195072Y670560D01*
X192024Y670560D02*
X79248Y557784D01*
X79248Y365760D01*
X121920Y323088D01*
X128016Y323088D01*
X195072Y670560D02*
X196850Y673100D01*
D13*
X128016Y323088D03*
X137160Y313944D03*
D12*
X88392Y365760D02*
X137160Y414528D01*
X239776Y360680D02*
X252984Y347472D01*
X239776Y360680D02*
X184658Y360680D01*
X137160Y408178D01*
X137160Y414528D01*
D13*
X88392Y365760D03*
X137160Y414528D03*
X252984Y347472D03*
D12*
X188722Y370586D02*
X188722Y430022D01*
X173736Y445008D01*
X171450Y444500D01*
D13*
X188722Y370586D03*
D15*
X0Y12700D02*
X48Y11593D01*
X193Y10495D01*
X433Y9413D01*
X766Y8356D01*
X1190Y7333D01*
X1701Y6350D01*
X2297Y5416D01*
X2971Y4537D01*
X3720Y3720D01*
X4537Y2971D01*
X5416Y2297D01*
X6350Y1701D01*
X7333Y1190D01*
X8356Y766D01*
X9413Y433D01*
X10495Y193D01*
X11593Y48D01*
X12700Y0D01*
X368100Y0D01*
X369207Y48D01*
X370305Y193D01*
X371387Y433D01*
X372444Y766D01*
X373467Y1190D01*
X374450Y1701D01*
X375384Y2297D01*
X376263Y2971D01*
X377080Y3720D01*
X377829Y4537D01*
X378503Y5416D01*
X379099Y6350D01*
X379610Y7333D01*
X380034Y8356D01*
X380367Y9413D01*
X380607Y10495D01*
X380752Y11593D01*
X380800Y12700D01*
X380800Y695200D01*
X380752Y696307D01*
X380607Y697405D01*
X380367Y698487D01*
X380034Y699544D01*
X379610Y700567D01*
X379099Y701550D01*
X378503Y702484D01*
X377829Y703363D01*
X377080Y704180D01*
X376263Y704929D01*
X375384Y705603D01*
X374450Y706199D01*
X373467Y706710D01*
X372444Y707134D01*
X371387Y707467D01*
X370305Y707707D01*
X369207Y707852D01*
X368100Y707900D01*
X12700Y707900D01*
X11593Y707852D01*
X10495Y707707D01*
X9413Y707467D01*
X8356Y707134D01*
X7333Y706710D01*
X6350Y706199D01*
X5416Y705603D01*
X4537Y704929D01*
X3720Y704180D01*
X2971Y703363D01*
X2297Y702484D01*
X1701Y701550D01*
X1190Y700567D01*
X766Y699544D01*
X433Y698487D01*
X193Y697405D01*
X48Y696307D01*
X0Y695200D01*
X0Y12700D01*
M02*
