G04 EAGLE Gerber RS-274X export*
G75*
%MOMM*%
%FSLAX34Y34*%
%LPD*%
%INBottom Copper*%
%IPPOS*%
%AMOC8*
5,1,8,0,0,1.08239X$1,22.5*%
G01*
%ADD10C,1.524000*%
%ADD11C,1.508000*%
%ADD12C,0.756400*%
%ADD13C,0.304800*%
%ADD14C,0.200000*%
%ADD15C,0.406400*%

G36*
X503175Y17289D02*
X503175Y17289D01*
X503402Y17305D01*
X503421Y17309D01*
X503440Y17311D01*
X503661Y17366D01*
X503882Y17418D01*
X503900Y17425D01*
X503918Y17429D01*
X504128Y17519D01*
X504338Y17606D01*
X504354Y17616D01*
X504372Y17624D01*
X504564Y17746D01*
X504758Y17866D01*
X504772Y17879D01*
X504788Y17889D01*
X504957Y18041D01*
X505129Y18190D01*
X505142Y18205D01*
X505156Y18218D01*
X505299Y18395D01*
X505444Y18570D01*
X505454Y18587D01*
X505466Y18602D01*
X505579Y18800D01*
X505693Y18996D01*
X505700Y19014D01*
X505710Y19030D01*
X505789Y19245D01*
X505871Y19456D01*
X505875Y19475D01*
X505881Y19493D01*
X505925Y19715D01*
X505971Y19939D01*
X505972Y19959D01*
X505976Y19977D01*
X505983Y20204D01*
X505993Y20432D01*
X505991Y20448D01*
X505991Y20470D01*
X505927Y20959D01*
X505900Y21048D01*
X505891Y21107D01*
X504311Y27005D01*
X504311Y33631D01*
X506025Y40030D01*
X509338Y45767D01*
X514022Y50452D01*
X519760Y53764D01*
X526159Y55479D01*
X529471Y55479D01*
X529547Y55485D01*
X529623Y55483D01*
X529793Y55505D01*
X529963Y55519D01*
X530037Y55537D01*
X530113Y55547D01*
X530276Y55596D01*
X530442Y55637D01*
X530512Y55667D01*
X530585Y55689D01*
X530738Y55765D01*
X530895Y55832D01*
X530960Y55873D01*
X531028Y55906D01*
X531167Y56005D01*
X531311Y56097D01*
X531368Y56148D01*
X531430Y56192D01*
X531552Y56312D01*
X531679Y56426D01*
X531727Y56485D01*
X531781Y56538D01*
X531882Y56677D01*
X531989Y56809D01*
X532027Y56876D01*
X532072Y56937D01*
X532149Y57090D01*
X532233Y57238D01*
X532260Y57310D01*
X532294Y57378D01*
X532345Y57541D01*
X532405Y57701D01*
X532419Y57775D01*
X532442Y57848D01*
X532454Y57953D01*
X532499Y58185D01*
X532507Y58421D01*
X532519Y58526D01*
X532519Y872110D01*
X532512Y872186D01*
X532515Y872262D01*
X532493Y872431D01*
X532479Y872602D01*
X532460Y872676D01*
X532450Y872751D01*
X532401Y872915D01*
X532360Y873081D01*
X532330Y873150D01*
X532308Y873223D01*
X532233Y873377D01*
X532165Y873534D01*
X532125Y873598D01*
X532091Y873667D01*
X531992Y873806D01*
X531900Y873950D01*
X531850Y874007D01*
X531806Y874069D01*
X531686Y874190D01*
X531572Y874318D01*
X531512Y874366D01*
X531459Y874420D01*
X531321Y874521D01*
X531188Y874628D01*
X531122Y874665D01*
X531060Y874710D01*
X530908Y874787D01*
X530759Y874872D01*
X530688Y874898D01*
X530620Y874933D01*
X530457Y874984D01*
X530297Y875043D01*
X530222Y875058D01*
X530149Y875081D01*
X530044Y875093D01*
X529812Y875138D01*
X529576Y875145D01*
X529471Y875157D01*
X526159Y875157D01*
X519760Y876872D01*
X514022Y880184D01*
X509338Y884869D01*
X506025Y890606D01*
X504311Y897005D01*
X504311Y903630D01*
X505891Y909529D01*
X505932Y909753D01*
X505976Y909977D01*
X505977Y909996D01*
X505980Y910015D01*
X505984Y910243D01*
X505991Y910470D01*
X505989Y910489D01*
X505989Y910508D01*
X505956Y910734D01*
X505927Y910959D01*
X505921Y910977D01*
X505919Y910996D01*
X505850Y911213D01*
X505784Y911431D01*
X505776Y911449D01*
X505770Y911467D01*
X505668Y911670D01*
X505567Y911875D01*
X505557Y911890D01*
X505548Y911907D01*
X505413Y912092D01*
X505282Y912277D01*
X505269Y912290D01*
X505257Y912306D01*
X505096Y912465D01*
X504935Y912628D01*
X504920Y912639D01*
X504906Y912652D01*
X504721Y912784D01*
X504537Y912918D01*
X504520Y912927D01*
X504504Y912938D01*
X504299Y913038D01*
X504096Y913141D01*
X504078Y913146D01*
X504061Y913155D01*
X503843Y913220D01*
X503626Y913289D01*
X503610Y913291D01*
X503589Y913297D01*
X503100Y913361D01*
X503007Y913359D01*
X502948Y913365D01*
X55995Y913365D01*
X55767Y913347D01*
X55541Y913331D01*
X55522Y913327D01*
X55503Y913325D01*
X55282Y913270D01*
X55060Y913218D01*
X55043Y913211D01*
X55024Y913207D01*
X54815Y913117D01*
X54605Y913030D01*
X54588Y913020D01*
X54571Y913012D01*
X54379Y912890D01*
X54185Y912770D01*
X54171Y912757D01*
X54155Y912747D01*
X53985Y912595D01*
X53813Y912446D01*
X53801Y912431D01*
X53787Y912418D01*
X53644Y912241D01*
X53499Y912066D01*
X53489Y912049D01*
X53477Y912034D01*
X53364Y911836D01*
X53249Y911640D01*
X53243Y911622D01*
X53233Y911606D01*
X53154Y911392D01*
X53072Y911180D01*
X53068Y911161D01*
X53062Y911143D01*
X53018Y910921D01*
X52971Y910697D01*
X52970Y910677D01*
X52967Y910659D01*
X52960Y910432D01*
X52950Y910204D01*
X52952Y910188D01*
X52951Y910166D01*
X53016Y909677D01*
X53043Y909588D01*
X53052Y909529D01*
X54632Y903630D01*
X54632Y897005D01*
X52917Y890606D01*
X49605Y884869D01*
X44920Y880184D01*
X39183Y876872D01*
X32784Y875157D01*
X26159Y875157D01*
X20260Y876738D01*
X20036Y876779D01*
X19812Y876823D01*
X19793Y876823D01*
X19775Y876827D01*
X19546Y876831D01*
X19319Y876838D01*
X19301Y876835D01*
X19282Y876836D01*
X19055Y876803D01*
X18830Y876773D01*
X18812Y876768D01*
X18793Y876765D01*
X18577Y876697D01*
X18358Y876631D01*
X18341Y876623D01*
X18323Y876617D01*
X18119Y876514D01*
X17915Y876414D01*
X17899Y876403D01*
X17882Y876395D01*
X17698Y876260D01*
X17512Y876129D01*
X17499Y876115D01*
X17484Y876104D01*
X17324Y875942D01*
X17161Y875782D01*
X17150Y875767D01*
X17137Y875753D01*
X17005Y875567D01*
X16871Y875383D01*
X16863Y875366D01*
X16852Y875351D01*
X16751Y875146D01*
X16649Y874943D01*
X16643Y874925D01*
X16635Y874908D01*
X16569Y874690D01*
X16500Y874472D01*
X16499Y874457D01*
X16492Y874435D01*
X16428Y873946D01*
X16431Y873854D01*
X16424Y873794D01*
X16424Y56842D01*
X16429Y56777D01*
X16428Y56733D01*
X16441Y56634D01*
X16443Y56614D01*
X16458Y56387D01*
X16463Y56369D01*
X16464Y56350D01*
X16519Y56128D01*
X16571Y55907D01*
X16578Y55889D01*
X16583Y55871D01*
X16673Y55661D01*
X16760Y55451D01*
X16770Y55435D01*
X16777Y55418D01*
X16900Y55225D01*
X17020Y55032D01*
X17032Y55017D01*
X17042Y55002D01*
X17194Y54832D01*
X17344Y54660D01*
X17358Y54648D01*
X17371Y54634D01*
X17548Y54491D01*
X17724Y54345D01*
X17740Y54336D01*
X17755Y54324D01*
X17953Y54211D01*
X18150Y54096D01*
X18167Y54089D01*
X18184Y54080D01*
X18398Y54000D01*
X18610Y53919D01*
X18628Y53915D01*
X18646Y53908D01*
X18869Y53865D01*
X19093Y53818D01*
X19112Y53817D01*
X19130Y53813D01*
X19357Y53806D01*
X19586Y53796D01*
X19601Y53799D01*
X19623Y53798D01*
X20113Y53862D01*
X20201Y53889D01*
X20260Y53898D01*
X26159Y55479D01*
X32784Y55479D01*
X39183Y53764D01*
X44920Y50452D01*
X49605Y45767D01*
X52917Y40030D01*
X54632Y33631D01*
X54632Y27005D01*
X53052Y21107D01*
X53011Y20883D01*
X52967Y20659D01*
X52966Y20640D01*
X52963Y20621D01*
X52959Y20392D01*
X52951Y20166D01*
X52954Y20147D01*
X52954Y20128D01*
X52986Y19902D01*
X53016Y19677D01*
X53021Y19659D01*
X53024Y19640D01*
X53092Y19423D01*
X53158Y19204D01*
X53167Y19187D01*
X53172Y19169D01*
X53275Y18966D01*
X53375Y18761D01*
X53386Y18746D01*
X53395Y18729D01*
X53529Y18544D01*
X53661Y18359D01*
X53674Y18346D01*
X53685Y18330D01*
X53847Y18171D01*
X54007Y18008D01*
X54023Y17997D01*
X54036Y17984D01*
X54222Y17852D01*
X54406Y17718D01*
X54423Y17709D01*
X54439Y17698D01*
X54643Y17598D01*
X54847Y17495D01*
X54865Y17490D01*
X54882Y17481D01*
X55100Y17416D01*
X55317Y17347D01*
X55333Y17345D01*
X55354Y17339D01*
X55843Y17275D01*
X55936Y17277D01*
X55995Y17271D01*
X502948Y17271D01*
X503175Y17289D01*
G37*
%LPC*%
G36*
X213996Y31130D02*
X213996Y31130D01*
X213864Y31173D01*
X213855Y31174D01*
X213845Y31177D01*
X213805Y31181D01*
X213377Y31246D01*
X213246Y31244D01*
X213168Y31253D01*
X73663Y31253D01*
X72169Y31872D01*
X39258Y64783D01*
X38639Y66277D01*
X38639Y134359D01*
X39258Y135853D01*
X49822Y146417D01*
X51316Y147036D01*
X55606Y147036D01*
X55720Y147045D01*
X55834Y147044D01*
X55966Y147065D01*
X56098Y147075D01*
X56208Y147103D01*
X56321Y147121D01*
X56448Y147162D01*
X56577Y147194D01*
X56682Y147239D01*
X56790Y147275D01*
X56908Y147336D01*
X57030Y147389D01*
X57126Y147450D01*
X57228Y147503D01*
X57301Y147562D01*
X57446Y147654D01*
X57688Y147870D01*
X57761Y147928D01*
X58164Y148331D01*
X60487Y149294D01*
X63003Y149294D01*
X65327Y148331D01*
X67105Y146552D01*
X68068Y144229D01*
X68068Y141713D01*
X67105Y139389D01*
X65327Y137611D01*
X63003Y136648D01*
X60487Y136648D01*
X58164Y137611D01*
X57761Y138014D01*
X57674Y138088D01*
X57593Y138169D01*
X57486Y138247D01*
X57385Y138333D01*
X57287Y138392D01*
X57195Y138459D01*
X57076Y138519D01*
X56962Y138588D01*
X56856Y138630D01*
X56754Y138681D01*
X56628Y138721D01*
X56504Y138771D01*
X56393Y138795D01*
X56284Y138830D01*
X56190Y138840D01*
X56023Y138877D01*
X55698Y138896D01*
X55606Y138906D01*
X55070Y138906D01*
X54956Y138897D01*
X54842Y138898D01*
X54711Y138877D01*
X54578Y138866D01*
X54468Y138839D01*
X54355Y138821D01*
X54228Y138779D01*
X54100Y138747D01*
X53995Y138702D01*
X53886Y138667D01*
X53768Y138605D01*
X53646Y138553D01*
X53550Y138492D01*
X53449Y138439D01*
X53375Y138380D01*
X53230Y138288D01*
X52988Y138071D01*
X52915Y138014D01*
X47661Y132759D01*
X47587Y132672D01*
X47506Y132592D01*
X47428Y132485D01*
X47342Y132383D01*
X47283Y132285D01*
X47216Y132193D01*
X47156Y132075D01*
X47087Y131961D01*
X47045Y131855D01*
X46993Y131753D01*
X46953Y131626D01*
X46904Y131503D01*
X46879Y131391D01*
X46845Y131282D01*
X46834Y131189D01*
X46797Y131021D01*
X46779Y130697D01*
X46769Y130605D01*
X46769Y70031D01*
X46778Y69918D01*
X46777Y69803D01*
X46798Y69672D01*
X46809Y69540D01*
X46836Y69429D01*
X46854Y69316D01*
X46895Y69190D01*
X46927Y69061D01*
X46972Y68956D01*
X47008Y68847D01*
X47069Y68729D01*
X47122Y68607D01*
X47183Y68511D01*
X47236Y68410D01*
X47295Y68336D01*
X47387Y68191D01*
X47603Y67949D01*
X47661Y67877D01*
X75263Y40275D01*
X75349Y40201D01*
X75430Y40120D01*
X75537Y40042D01*
X75638Y39956D01*
X75736Y39897D01*
X75829Y39830D01*
X75947Y39770D01*
X76061Y39701D01*
X76167Y39659D01*
X76269Y39607D01*
X76396Y39567D01*
X76519Y39518D01*
X76630Y39493D01*
X76740Y39459D01*
X76833Y39448D01*
X77001Y39411D01*
X77325Y39393D01*
X77417Y39383D01*
X207302Y39383D01*
X207339Y39386D01*
X207378Y39384D01*
X207585Y39406D01*
X207793Y39423D01*
X207830Y39432D01*
X207868Y39436D01*
X208069Y39491D01*
X208272Y39541D01*
X208307Y39556D01*
X208344Y39567D01*
X208534Y39654D01*
X208725Y39736D01*
X208758Y39756D01*
X208792Y39772D01*
X208966Y39889D01*
X209142Y40001D01*
X209170Y40026D01*
X209202Y40048D01*
X209354Y40190D01*
X209509Y40330D01*
X209533Y40359D01*
X209561Y40385D01*
X209688Y40551D01*
X209819Y40713D01*
X209838Y40747D01*
X209861Y40777D01*
X209960Y40961D01*
X210063Y41142D01*
X210077Y41178D01*
X210095Y41212D01*
X210162Y41409D01*
X210235Y41605D01*
X210242Y41642D01*
X210255Y41678D01*
X210290Y41885D01*
X210330Y42089D01*
X210331Y42127D01*
X210337Y42165D01*
X210339Y42374D01*
X210345Y42582D01*
X210340Y42620D01*
X210340Y42658D01*
X210308Y42865D01*
X210281Y43071D01*
X210270Y43108D01*
X210264Y43145D01*
X210198Y43344D01*
X210138Y43543D01*
X210121Y43578D01*
X210109Y43614D01*
X210013Y43799D01*
X209921Y43987D01*
X209899Y44018D01*
X209882Y44051D01*
X209823Y44124D01*
X209636Y44389D01*
X209515Y44511D01*
X209456Y44585D01*
X186025Y68015D01*
X185407Y69509D01*
X185407Y131127D01*
X186025Y132620D01*
X198893Y145488D01*
X200386Y146106D01*
X206816Y146106D01*
X206930Y146116D01*
X207044Y146115D01*
X207176Y146136D01*
X207308Y146146D01*
X207419Y146174D01*
X207532Y146192D01*
X207658Y146233D01*
X207787Y146265D01*
X207892Y146310D01*
X208000Y146346D01*
X208118Y146407D01*
X208240Y146460D01*
X208336Y146521D01*
X208438Y146574D01*
X208511Y146632D01*
X208656Y146725D01*
X208898Y146941D01*
X208971Y146999D01*
X209374Y147402D01*
X211698Y148364D01*
X214213Y148364D01*
X216537Y147402D01*
X218315Y145623D01*
X219278Y143299D01*
X219278Y140784D01*
X218315Y138460D01*
X216537Y136681D01*
X214213Y135719D01*
X211698Y135719D01*
X209374Y136681D01*
X208971Y137084D01*
X208884Y137158D01*
X208804Y137240D01*
X208696Y137318D01*
X208595Y137404D01*
X208497Y137463D01*
X208405Y137530D01*
X208286Y137590D01*
X208172Y137658D01*
X208066Y137701D01*
X207964Y137752D01*
X207838Y137792D01*
X207714Y137842D01*
X207603Y137866D01*
X207494Y137901D01*
X207400Y137911D01*
X207233Y137948D01*
X206908Y137967D01*
X206816Y137977D01*
X204141Y137977D01*
X204027Y137968D01*
X203913Y137968D01*
X203782Y137948D01*
X203649Y137937D01*
X203538Y137909D01*
X203426Y137892D01*
X203299Y137850D01*
X203170Y137818D01*
X203066Y137773D01*
X202957Y137737D01*
X202839Y137676D01*
X202717Y137624D01*
X202621Y137562D01*
X202519Y137510D01*
X202446Y137451D01*
X202301Y137359D01*
X202059Y137142D01*
X201986Y137084D01*
X194429Y129527D01*
X194355Y129440D01*
X194273Y129360D01*
X194195Y129252D01*
X194109Y129151D01*
X194050Y129053D01*
X193983Y128961D01*
X193923Y128842D01*
X193855Y128728D01*
X193812Y128622D01*
X193761Y128520D01*
X193721Y128394D01*
X193671Y128270D01*
X193647Y128159D01*
X193612Y128050D01*
X193602Y127956D01*
X193565Y127789D01*
X193546Y127464D01*
X193536Y127372D01*
X193536Y73264D01*
X193545Y73150D01*
X193545Y73036D01*
X193565Y72904D01*
X193576Y72772D01*
X193604Y72661D01*
X193621Y72548D01*
X193663Y72422D01*
X193695Y72293D01*
X193740Y72188D01*
X193776Y72080D01*
X193837Y71962D01*
X193889Y71840D01*
X193951Y71744D01*
X194003Y71642D01*
X194062Y71569D01*
X194154Y71424D01*
X194371Y71182D01*
X194429Y71109D01*
X219275Y46263D01*
X219362Y46189D01*
X219442Y46108D01*
X219550Y46029D01*
X219651Y45943D01*
X219749Y45884D01*
X219841Y45817D01*
X219959Y45757D01*
X220074Y45689D01*
X220180Y45646D01*
X220282Y45595D01*
X220408Y45555D01*
X220532Y45506D01*
X220643Y45481D01*
X220752Y45447D01*
X220846Y45436D01*
X221013Y45399D01*
X221338Y45381D01*
X221430Y45370D01*
X361314Y45370D01*
X361352Y45373D01*
X361390Y45371D01*
X361598Y45393D01*
X361806Y45410D01*
X361843Y45419D01*
X361881Y45423D01*
X362082Y45479D01*
X362285Y45529D01*
X362320Y45544D01*
X362356Y45554D01*
X362546Y45641D01*
X362738Y45723D01*
X362770Y45744D01*
X362805Y45760D01*
X362978Y45876D01*
X363154Y45988D01*
X363182Y46014D01*
X363214Y46035D01*
X363366Y46178D01*
X363522Y46317D01*
X363546Y46347D01*
X363574Y46373D01*
X363701Y46539D01*
X363832Y46701D01*
X363851Y46734D01*
X363874Y46764D01*
X363973Y46948D01*
X364076Y47130D01*
X364089Y47166D01*
X364107Y47199D01*
X364175Y47397D01*
X364247Y47592D01*
X364255Y47630D01*
X364267Y47666D01*
X364302Y47872D01*
X364342Y48076D01*
X364343Y48114D01*
X364350Y48152D01*
X364351Y48361D01*
X364357Y48570D01*
X364353Y48607D01*
X364353Y48645D01*
X364320Y48852D01*
X364293Y49059D01*
X364282Y49095D01*
X364276Y49133D01*
X364211Y49331D01*
X364151Y49531D01*
X364134Y49565D01*
X364122Y49601D01*
X364025Y49787D01*
X363934Y49974D01*
X363912Y50005D01*
X363894Y50039D01*
X363836Y50112D01*
X363648Y50376D01*
X363527Y50499D01*
X363469Y50572D01*
X347597Y66443D01*
X346025Y68015D01*
X345407Y69509D01*
X345407Y119098D01*
X346025Y120592D01*
X367170Y141736D01*
X367244Y141823D01*
X367325Y141904D01*
X367403Y142011D01*
X367490Y142112D01*
X367549Y142210D01*
X367616Y142302D01*
X367675Y142421D01*
X367744Y142535D01*
X367787Y142641D01*
X367838Y142743D01*
X367878Y142870D01*
X367927Y142993D01*
X367952Y143104D01*
X367986Y143213D01*
X367997Y143307D01*
X368034Y143474D01*
X368052Y143799D01*
X368063Y143891D01*
X368063Y144461D01*
X369025Y146785D01*
X370804Y148563D01*
X373128Y149526D01*
X375643Y149526D01*
X377967Y148563D01*
X379746Y146785D01*
X380708Y144461D01*
X380708Y141945D01*
X379746Y139622D01*
X377967Y137843D01*
X375643Y136880D01*
X375073Y136880D01*
X374960Y136871D01*
X374845Y136872D01*
X374714Y136851D01*
X374582Y136840D01*
X374471Y136813D01*
X374358Y136795D01*
X374232Y136754D01*
X374103Y136722D01*
X373998Y136677D01*
X373889Y136641D01*
X373771Y136580D01*
X373649Y136527D01*
X373553Y136466D01*
X373452Y136413D01*
X373378Y136354D01*
X373233Y136262D01*
X372991Y136046D01*
X372919Y135988D01*
X354429Y117498D01*
X354355Y117411D01*
X354273Y117331D01*
X354195Y117223D01*
X354109Y117122D01*
X354050Y117024D01*
X353983Y116932D01*
X353923Y116813D01*
X353855Y116699D01*
X353812Y116593D01*
X353761Y116491D01*
X353721Y116365D01*
X353671Y116241D01*
X353647Y116130D01*
X353612Y116021D01*
X353602Y115927D01*
X353565Y115760D01*
X353546Y115435D01*
X353536Y115343D01*
X353536Y73264D01*
X353545Y73150D01*
X353545Y73036D01*
X353565Y72904D01*
X353576Y72772D01*
X353604Y72661D01*
X353621Y72548D01*
X353663Y72422D01*
X353695Y72293D01*
X353740Y72188D01*
X353776Y72080D01*
X353837Y71962D01*
X353889Y71840D01*
X353951Y71744D01*
X354003Y71642D01*
X354062Y71569D01*
X354154Y71424D01*
X354371Y71182D01*
X354429Y71109D01*
X373453Y52085D01*
X373540Y52011D01*
X373620Y51930D01*
X373727Y51852D01*
X373829Y51766D01*
X373927Y51707D01*
X374019Y51639D01*
X374137Y51580D01*
X374251Y51511D01*
X374357Y51469D01*
X374459Y51417D01*
X374586Y51377D01*
X374709Y51328D01*
X374821Y51303D01*
X374930Y51269D01*
X375023Y51258D01*
X375191Y51221D01*
X375515Y51203D01*
X375607Y51193D01*
X376480Y51193D01*
X376660Y51207D01*
X376840Y51214D01*
X376905Y51227D01*
X376971Y51233D01*
X377147Y51276D01*
X377323Y51312D01*
X377386Y51335D01*
X377450Y51351D01*
X377616Y51422D01*
X377785Y51486D01*
X377842Y51520D01*
X377904Y51546D01*
X378056Y51643D01*
X378212Y51733D01*
X378264Y51775D01*
X378320Y51811D01*
X378454Y51931D01*
X378594Y52045D01*
X378638Y52095D01*
X378687Y52140D01*
X378801Y52280D01*
X378920Y52415D01*
X378956Y52472D01*
X378997Y52523D01*
X379086Y52680D01*
X379183Y52833D01*
X379209Y52894D01*
X379241Y52952D01*
X379304Y53121D01*
X379374Y53288D01*
X379390Y53352D01*
X379413Y53415D01*
X379448Y53592D01*
X379490Y53767D01*
X379495Y53834D01*
X379508Y53899D01*
X379513Y54079D01*
X379527Y54259D01*
X379521Y54326D01*
X379523Y54392D01*
X379500Y54571D01*
X379484Y54751D01*
X379469Y54801D01*
X379459Y54881D01*
X379316Y55353D01*
X379301Y55384D01*
X379295Y55406D01*
X378281Y57854D01*
X378281Y60369D01*
X379244Y62693D01*
X379646Y63096D01*
X379720Y63183D01*
X379802Y63263D01*
X379880Y63371D01*
X379966Y63472D01*
X380025Y63570D01*
X380092Y63662D01*
X380152Y63780D01*
X380221Y63894D01*
X380263Y64001D01*
X380314Y64102D01*
X380354Y64229D01*
X380404Y64353D01*
X380428Y64464D01*
X380463Y64573D01*
X380473Y64666D01*
X380510Y64834D01*
X380529Y65158D01*
X380539Y65251D01*
X380539Y74920D01*
X381158Y76414D01*
X417862Y113118D01*
X417936Y113205D01*
X418017Y113285D01*
X418095Y113393D01*
X418181Y113494D01*
X418240Y113592D01*
X418307Y113684D01*
X418367Y113803D01*
X418436Y113917D01*
X418478Y114023D01*
X418530Y114125D01*
X418570Y114251D01*
X418619Y114375D01*
X418644Y114486D01*
X418678Y114595D01*
X418689Y114689D01*
X418726Y114856D01*
X418744Y115181D01*
X418754Y115273D01*
X418754Y274596D01*
X418745Y274709D01*
X418746Y274824D01*
X418725Y274955D01*
X418714Y275087D01*
X418687Y275198D01*
X418669Y275311D01*
X418628Y275437D01*
X418596Y275566D01*
X418551Y275671D01*
X418515Y275780D01*
X418454Y275897D01*
X418401Y276020D01*
X418340Y276116D01*
X418287Y276217D01*
X418228Y276291D01*
X418136Y276436D01*
X417920Y276678D01*
X417862Y276750D01*
X417806Y276806D01*
X416843Y279130D01*
X416843Y281645D01*
X417806Y283969D01*
X419585Y285748D01*
X421908Y286711D01*
X424424Y286711D01*
X426748Y285748D01*
X428526Y283969D01*
X429489Y281645D01*
X429489Y279130D01*
X428526Y276806D01*
X427776Y276056D01*
X427702Y275969D01*
X427621Y275889D01*
X427543Y275782D01*
X427457Y275680D01*
X427398Y275583D01*
X427331Y275490D01*
X427271Y275372D01*
X427202Y275258D01*
X427160Y275152D01*
X427108Y275050D01*
X427069Y274923D01*
X427019Y274800D01*
X426995Y274688D01*
X426960Y274579D01*
X426950Y274486D01*
X426912Y274318D01*
X426894Y273994D01*
X426884Y273902D01*
X426884Y111518D01*
X426265Y110024D01*
X389561Y73320D01*
X389487Y73233D01*
X389406Y73153D01*
X389328Y73046D01*
X389241Y72944D01*
X389182Y72847D01*
X389115Y72754D01*
X389056Y72636D01*
X388987Y72522D01*
X388944Y72416D01*
X388893Y72314D01*
X388853Y72187D01*
X388804Y72064D01*
X388779Y71953D01*
X388745Y71843D01*
X388734Y71750D01*
X388697Y71582D01*
X388679Y71258D01*
X388668Y71166D01*
X388668Y65251D01*
X388678Y65137D01*
X388677Y65023D01*
X388698Y64891D01*
X388708Y64759D01*
X388736Y64648D01*
X388754Y64535D01*
X388795Y64409D01*
X388827Y64280D01*
X388872Y64175D01*
X388908Y64067D01*
X388969Y63949D01*
X389022Y63827D01*
X389083Y63731D01*
X389136Y63629D01*
X389194Y63556D01*
X389287Y63411D01*
X389503Y63169D01*
X389561Y63096D01*
X389964Y62693D01*
X390926Y60369D01*
X390926Y57854D01*
X389912Y55406D01*
X389857Y55234D01*
X389794Y55065D01*
X389782Y55000D01*
X389761Y54936D01*
X389734Y54758D01*
X389700Y54581D01*
X389698Y54514D01*
X389688Y54449D01*
X389690Y54268D01*
X389684Y54088D01*
X389693Y54022D01*
X389694Y53955D01*
X389725Y53778D01*
X389749Y53599D01*
X389768Y53535D01*
X389779Y53469D01*
X389839Y53299D01*
X389891Y53126D01*
X389920Y53067D01*
X389942Y53004D01*
X390029Y52845D01*
X390108Y52683D01*
X390146Y52629D01*
X390178Y52571D01*
X390289Y52428D01*
X390394Y52281D01*
X390440Y52234D01*
X390481Y52181D01*
X390614Y52058D01*
X390740Y51930D01*
X390794Y51891D01*
X390843Y51846D01*
X390993Y51746D01*
X391139Y51639D01*
X391198Y51610D01*
X391254Y51573D01*
X391418Y51499D01*
X391579Y51417D01*
X391643Y51397D01*
X391704Y51370D01*
X391878Y51323D01*
X392050Y51269D01*
X392103Y51263D01*
X392180Y51242D01*
X392671Y51193D01*
X392704Y51195D01*
X392728Y51193D01*
X416451Y51193D01*
X416489Y51196D01*
X416527Y51194D01*
X416735Y51216D01*
X416942Y51233D01*
X416979Y51242D01*
X417017Y51246D01*
X417219Y51301D01*
X417421Y51351D01*
X417456Y51366D01*
X417493Y51376D01*
X417683Y51464D01*
X417875Y51546D01*
X417907Y51566D01*
X417941Y51582D01*
X418115Y51699D01*
X418291Y51811D01*
X418319Y51836D01*
X418351Y51858D01*
X418503Y52000D01*
X418658Y52140D01*
X418683Y52169D01*
X418710Y52195D01*
X418837Y52361D01*
X418968Y52523D01*
X418987Y52556D01*
X419011Y52587D01*
X419109Y52771D01*
X419212Y52952D01*
X419226Y52988D01*
X419244Y53021D01*
X419311Y53219D01*
X419384Y53415D01*
X419391Y53452D01*
X419404Y53488D01*
X419439Y53694D01*
X419479Y53899D01*
X419480Y53937D01*
X419486Y53975D01*
X419488Y54184D01*
X419494Y54392D01*
X419489Y54430D01*
X419489Y54468D01*
X419457Y54675D01*
X419430Y54881D01*
X419419Y54918D01*
X419413Y54955D01*
X419347Y55154D01*
X419287Y55353D01*
X419270Y55388D01*
X419258Y55424D01*
X419162Y55609D01*
X419070Y55796D01*
X419048Y55828D01*
X419031Y55861D01*
X418973Y55934D01*
X418785Y56199D01*
X418664Y56321D01*
X418605Y56395D01*
X417257Y57742D01*
X415711Y61477D01*
X415711Y80759D01*
X417258Y84494D01*
X420116Y87352D01*
X423850Y88899D01*
X427893Y88899D01*
X431627Y87352D01*
X434485Y84494D01*
X435792Y81338D01*
X435864Y81198D01*
X435928Y81054D01*
X435976Y80979D01*
X436017Y80899D01*
X436111Y80772D01*
X436197Y80640D01*
X436257Y80574D01*
X436310Y80502D01*
X436423Y80392D01*
X436529Y80276D01*
X436599Y80220D01*
X436663Y80158D01*
X436793Y80067D01*
X436916Y79970D01*
X436994Y79926D01*
X437067Y79875D01*
X437210Y79807D01*
X437347Y79730D01*
X437432Y79700D01*
X437512Y79661D01*
X437663Y79616D01*
X437812Y79563D01*
X437899Y79547D01*
X437985Y79521D01*
X438142Y79502D01*
X438297Y79473D01*
X438386Y79471D01*
X438475Y79460D01*
X438632Y79466D01*
X438790Y79463D01*
X438879Y79475D01*
X438968Y79479D01*
X439122Y79510D01*
X439278Y79532D01*
X439364Y79559D01*
X439451Y79576D01*
X439599Y79632D01*
X439749Y79679D01*
X439829Y79719D01*
X439913Y79751D01*
X440049Y79830D01*
X440190Y79900D01*
X440262Y79953D01*
X440340Y79997D01*
X440462Y80097D01*
X440590Y80190D01*
X440653Y80253D01*
X440722Y80310D01*
X440826Y80428D01*
X440937Y80540D01*
X440989Y80613D01*
X441048Y80680D01*
X441132Y80814D01*
X441224Y80942D01*
X441252Y81004D01*
X441311Y81098D01*
X441502Y81552D01*
X441504Y81559D01*
X441506Y81563D01*
X441855Y82638D01*
X442581Y84063D01*
X443521Y85357D01*
X444652Y86488D01*
X445946Y87428D01*
X447371Y88154D01*
X448224Y88431D01*
X448224Y71118D01*
X448230Y71042D01*
X448228Y70966D01*
X448250Y70797D01*
X448264Y70627D01*
X448282Y70553D01*
X448292Y70477D01*
X448342Y70313D01*
X448383Y70148D01*
X448413Y70078D01*
X448435Y70005D01*
X448510Y69851D01*
X448577Y69694D01*
X448618Y69630D01*
X448652Y69562D01*
X448750Y69422D01*
X448842Y69278D01*
X448893Y69222D01*
X448937Y69159D01*
X449057Y69038D01*
X449171Y68910D01*
X449231Y68862D01*
X449284Y68808D01*
X449422Y68707D01*
X449555Y68600D01*
X449621Y68562D01*
X449683Y68517D01*
X449836Y68440D01*
X449984Y68356D01*
X450056Y68329D01*
X450123Y68295D01*
X450286Y68244D01*
X450447Y68184D01*
X450521Y68170D01*
X450594Y68147D01*
X450699Y68135D01*
X450931Y68090D01*
X451167Y68082D01*
X451272Y68071D01*
X461432Y68071D01*
X461432Y62698D01*
X461182Y61119D01*
X460688Y59598D01*
X460425Y59083D01*
X460420Y59069D01*
X460412Y59055D01*
X460325Y58840D01*
X460238Y58626D01*
X460234Y58611D01*
X460229Y58597D01*
X460179Y58372D01*
X460126Y58146D01*
X460125Y58131D01*
X460122Y58116D01*
X460109Y57884D01*
X460094Y57654D01*
X460095Y57638D01*
X460094Y57623D01*
X460119Y57393D01*
X460141Y57163D01*
X460145Y57148D01*
X460146Y57133D01*
X460207Y56910D01*
X460267Y56686D01*
X460273Y56672D01*
X460277Y56657D01*
X460374Y56445D01*
X460468Y56235D01*
X460476Y56222D01*
X460483Y56208D01*
X460612Y56017D01*
X460739Y55823D01*
X460750Y55812D01*
X460758Y55799D01*
X460916Y55631D01*
X461073Y55460D01*
X461085Y55451D01*
X461096Y55440D01*
X461280Y55298D01*
X461462Y55156D01*
X461475Y55149D01*
X461487Y55139D01*
X461692Y55029D01*
X461894Y54918D01*
X461909Y54913D01*
X461922Y54906D01*
X462143Y54830D01*
X462359Y54754D01*
X462374Y54751D01*
X462389Y54746D01*
X462618Y54707D01*
X462845Y54666D01*
X462860Y54666D01*
X462875Y54664D01*
X463107Y54662D01*
X463338Y54658D01*
X463353Y54661D01*
X463368Y54660D01*
X463598Y54697D01*
X463826Y54730D01*
X463841Y54735D01*
X463856Y54737D01*
X464077Y54810D01*
X464296Y54880D01*
X464310Y54887D01*
X464324Y54891D01*
X464530Y54998D01*
X464736Y55103D01*
X464748Y55112D01*
X464762Y55119D01*
X464806Y55154D01*
X465134Y55395D01*
X465231Y55493D01*
X465295Y55544D01*
X474514Y64763D01*
X474588Y64851D01*
X474669Y64931D01*
X474748Y65038D01*
X474834Y65139D01*
X474893Y65237D01*
X474960Y65330D01*
X475020Y65448D01*
X475088Y65562D01*
X475131Y65668D01*
X475182Y65770D01*
X475222Y65897D01*
X475271Y66020D01*
X475296Y66131D01*
X475330Y66240D01*
X475341Y66334D01*
X475378Y66502D01*
X475396Y66826D01*
X475407Y66918D01*
X475407Y77372D01*
X475397Y77486D01*
X475398Y77600D01*
X475377Y77731D01*
X475367Y77864D01*
X475339Y77975D01*
X475321Y78087D01*
X475280Y78214D01*
X475248Y78343D01*
X475203Y78447D01*
X475167Y78556D01*
X475106Y78674D01*
X475053Y78796D01*
X474992Y78892D01*
X474939Y78994D01*
X474881Y79067D01*
X474788Y79212D01*
X474572Y79454D01*
X474514Y79527D01*
X466025Y88015D01*
X465407Y89509D01*
X465407Y414179D01*
X465397Y414292D01*
X465398Y414407D01*
X465377Y414538D01*
X465367Y414671D01*
X465339Y414781D01*
X465321Y414894D01*
X465280Y415020D01*
X465248Y415149D01*
X465203Y415254D01*
X465167Y415363D01*
X465106Y415481D01*
X465053Y415603D01*
X464992Y415699D01*
X464939Y415800D01*
X464881Y415874D01*
X464788Y416019D01*
X464572Y416261D01*
X464514Y416334D01*
X464111Y416736D01*
X463149Y419060D01*
X463149Y421576D01*
X464111Y423900D01*
X465890Y425678D01*
X468214Y426641D01*
X470729Y426641D01*
X473053Y425678D01*
X474832Y423900D01*
X475794Y421576D01*
X475794Y419060D01*
X474832Y416736D01*
X474429Y416334D01*
X474355Y416247D01*
X474273Y416166D01*
X474195Y416059D01*
X474109Y415958D01*
X474050Y415860D01*
X473983Y415767D01*
X473923Y415649D01*
X473855Y415535D01*
X473812Y415429D01*
X473761Y415327D01*
X473721Y415200D01*
X473671Y415077D01*
X473647Y414966D01*
X473612Y414857D01*
X473602Y414763D01*
X473565Y414595D01*
X473546Y414271D01*
X473536Y414179D01*
X473536Y93264D01*
X473545Y93150D01*
X473545Y93036D01*
X473565Y92904D01*
X473576Y92772D01*
X473604Y92661D01*
X473621Y92548D01*
X473663Y92422D01*
X473695Y92293D01*
X473740Y92188D01*
X473776Y92080D01*
X473837Y91962D01*
X473889Y91840D01*
X473951Y91744D01*
X474003Y91642D01*
X474062Y91569D01*
X474154Y91424D01*
X474371Y91182D01*
X474429Y91109D01*
X482917Y82620D01*
X483536Y81127D01*
X483536Y72163D01*
X483539Y72125D01*
X483537Y72087D01*
X483559Y71879D01*
X483576Y71672D01*
X483585Y71635D01*
X483589Y71597D01*
X483645Y71395D01*
X483695Y71193D01*
X483710Y71158D01*
X483720Y71121D01*
X483807Y70931D01*
X483889Y70739D01*
X483910Y70707D01*
X483926Y70673D01*
X484042Y70499D01*
X484154Y70323D01*
X484180Y70295D01*
X484201Y70263D01*
X484344Y70111D01*
X484483Y69955D01*
X484513Y69931D01*
X484539Y69904D01*
X484705Y69777D01*
X484867Y69645D01*
X484900Y69627D01*
X484930Y69603D01*
X485114Y69505D01*
X485296Y69401D01*
X485331Y69388D01*
X485365Y69370D01*
X485563Y69302D01*
X485758Y69230D01*
X485796Y69223D01*
X485832Y69210D01*
X486038Y69175D01*
X486242Y69135D01*
X486280Y69134D01*
X486318Y69128D01*
X486528Y69126D01*
X486735Y69120D01*
X486773Y69125D01*
X486811Y69125D01*
X487018Y69157D01*
X487225Y69184D01*
X487261Y69195D01*
X487299Y69201D01*
X487497Y69266D01*
X487697Y69327D01*
X487731Y69344D01*
X487767Y69355D01*
X487953Y69452D01*
X488140Y69544D01*
X488171Y69566D01*
X488205Y69583D01*
X488278Y69641D01*
X488542Y69829D01*
X488665Y69950D01*
X488738Y70009D01*
X494514Y75785D01*
X494588Y75872D01*
X494669Y75952D01*
X494748Y76059D01*
X494834Y76161D01*
X494892Y76258D01*
X494960Y76351D01*
X495020Y76469D01*
X495088Y76583D01*
X495131Y76689D01*
X495182Y76791D01*
X495222Y76918D01*
X495271Y77041D01*
X495296Y77153D01*
X495330Y77262D01*
X495341Y77355D01*
X495378Y77523D01*
X495396Y77847D01*
X495407Y77939D01*
X495407Y417372D01*
X495397Y417486D01*
X495398Y417600D01*
X495377Y417731D01*
X495367Y417864D01*
X495339Y417975D01*
X495321Y418087D01*
X495280Y418214D01*
X495248Y418343D01*
X495203Y418447D01*
X495167Y418556D01*
X495106Y418674D01*
X495053Y418796D01*
X494992Y418892D01*
X494939Y418994D01*
X494881Y419067D01*
X494788Y419212D01*
X494572Y419454D01*
X494514Y419527D01*
X471609Y442432D01*
X471287Y443209D01*
X471222Y443336D01*
X471166Y443467D01*
X471110Y443555D01*
X471062Y443648D01*
X470977Y443763D01*
X470901Y443883D01*
X470867Y443921D01*
X470871Y443940D01*
X470914Y444076D01*
X470923Y444154D01*
X470953Y444281D01*
X470986Y444713D01*
X470990Y444753D01*
X470990Y493885D01*
X470981Y493999D01*
X470982Y494113D01*
X470961Y494244D01*
X470950Y494377D01*
X470923Y494487D01*
X470905Y494600D01*
X470863Y494727D01*
X470831Y494856D01*
X470786Y494960D01*
X470751Y495069D01*
X470689Y495187D01*
X470637Y495309D01*
X470576Y495405D01*
X470523Y495507D01*
X470464Y495580D01*
X470372Y495725D01*
X470155Y495967D01*
X470098Y496040D01*
X469695Y496443D01*
X468732Y498766D01*
X468732Y501282D01*
X469695Y503606D01*
X471473Y505384D01*
X473797Y506347D01*
X476313Y506347D01*
X478636Y505384D01*
X480415Y503606D01*
X481378Y501282D01*
X481378Y498766D01*
X480415Y496443D01*
X480012Y496040D01*
X479938Y495953D01*
X479857Y495872D01*
X479779Y495765D01*
X479693Y495664D01*
X479634Y495566D01*
X479566Y495474D01*
X479507Y495355D01*
X479438Y495241D01*
X479396Y495135D01*
X479344Y495033D01*
X479304Y494906D01*
X479255Y494783D01*
X479230Y494672D01*
X479196Y494563D01*
X479185Y494469D01*
X479148Y494302D01*
X479130Y493977D01*
X479120Y493885D01*
X479120Y447680D01*
X479129Y447567D01*
X479128Y447452D01*
X479149Y447321D01*
X479160Y447189D01*
X479187Y447078D01*
X479205Y446965D01*
X479246Y446839D01*
X479278Y446710D01*
X479323Y446605D01*
X479359Y446496D01*
X479420Y446378D01*
X479473Y446256D01*
X479534Y446160D01*
X479587Y446059D01*
X479645Y445985D01*
X479738Y445840D01*
X479954Y445598D01*
X480012Y445526D01*
X502917Y422620D01*
X503536Y421127D01*
X503536Y82553D01*
X503539Y82515D01*
X503537Y82476D01*
X503559Y82269D01*
X503576Y82061D01*
X503585Y82024D01*
X503589Y81986D01*
X503645Y81784D01*
X503695Y81582D01*
X503710Y81547D01*
X503720Y81510D01*
X503807Y81320D01*
X503889Y81129D01*
X503910Y81096D01*
X503926Y81062D01*
X504042Y80889D01*
X504154Y80713D01*
X504180Y80684D01*
X504201Y80653D01*
X504344Y80500D01*
X504483Y80345D01*
X504513Y80321D01*
X504539Y80293D01*
X504705Y80166D01*
X504867Y80035D01*
X504900Y80016D01*
X504930Y79993D01*
X505115Y79894D01*
X505296Y79791D01*
X505331Y79778D01*
X505365Y79759D01*
X505563Y79692D01*
X505758Y79619D01*
X505796Y79612D01*
X505832Y79599D01*
X506038Y79564D01*
X506242Y79524D01*
X506280Y79523D01*
X506318Y79517D01*
X506528Y79516D01*
X506735Y79509D01*
X506773Y79514D01*
X506811Y79514D01*
X507018Y79546D01*
X507225Y79574D01*
X507261Y79585D01*
X507299Y79590D01*
X507497Y79656D01*
X507697Y79716D01*
X507731Y79733D01*
X507767Y79745D01*
X507953Y79841D01*
X508140Y79933D01*
X508171Y79955D01*
X508205Y79973D01*
X508278Y80031D01*
X508542Y80218D01*
X508665Y80339D01*
X508738Y80398D01*
X512750Y84409D01*
X512824Y84497D01*
X512905Y84577D01*
X512983Y84684D01*
X513069Y84785D01*
X513128Y84883D01*
X513195Y84975D01*
X513255Y85094D01*
X513324Y85208D01*
X513366Y85314D01*
X513418Y85416D01*
X513458Y85543D01*
X513507Y85666D01*
X513531Y85777D01*
X513566Y85886D01*
X513576Y85980D01*
X513614Y86148D01*
X513632Y86472D01*
X513642Y86564D01*
X513642Y489137D01*
X513633Y489250D01*
X513634Y489365D01*
X513613Y489496D01*
X513602Y489628D01*
X513575Y489739D01*
X513557Y489852D01*
X513515Y489978D01*
X513483Y490107D01*
X513438Y490212D01*
X513403Y490321D01*
X513341Y490438D01*
X513289Y490561D01*
X513228Y490657D01*
X513175Y490758D01*
X513116Y490832D01*
X513024Y490977D01*
X512807Y491219D01*
X512750Y491291D01*
X478680Y525361D01*
X478593Y525435D01*
X478513Y525516D01*
X478405Y525594D01*
X478304Y525680D01*
X478206Y525739D01*
X478114Y525806D01*
X477996Y525866D01*
X477882Y525935D01*
X477776Y525977D01*
X477674Y526029D01*
X477547Y526069D01*
X477424Y526118D01*
X477312Y526143D01*
X477203Y526177D01*
X477110Y526187D01*
X476942Y526225D01*
X476618Y526243D01*
X476525Y526253D01*
X342145Y526253D01*
X342031Y526244D01*
X341917Y526245D01*
X341785Y526224D01*
X341653Y526213D01*
X341542Y526186D01*
X341429Y526168D01*
X341303Y526127D01*
X341174Y526095D01*
X341069Y526050D01*
X340961Y526014D01*
X340843Y525952D01*
X340721Y525900D01*
X340625Y525839D01*
X340523Y525786D01*
X340450Y525727D01*
X340305Y525635D01*
X340062Y525419D01*
X339990Y525361D01*
X339340Y524711D01*
X339266Y524624D01*
X339185Y524543D01*
X339107Y524436D01*
X339021Y524335D01*
X338962Y524237D01*
X338894Y524145D01*
X338835Y524026D01*
X338766Y523912D01*
X338723Y523806D01*
X338672Y523704D01*
X338632Y523577D01*
X338583Y523454D01*
X338558Y523343D01*
X338524Y523234D01*
X338513Y523140D01*
X338476Y522973D01*
X338458Y522648D01*
X338447Y522556D01*
X338447Y521986D01*
X337485Y519662D01*
X335706Y517884D01*
X333382Y516921D01*
X330867Y516921D01*
X328543Y517884D01*
X326765Y519662D01*
X325802Y521986D01*
X325802Y522556D01*
X325793Y522670D01*
X325793Y522784D01*
X325773Y522915D01*
X325762Y523048D01*
X325735Y523158D01*
X325717Y523271D01*
X325675Y523398D01*
X325643Y523527D01*
X325598Y523631D01*
X325563Y523740D01*
X325501Y523858D01*
X325449Y523980D01*
X325388Y524076D01*
X325335Y524178D01*
X325276Y524251D01*
X325184Y524396D01*
X324967Y524638D01*
X324909Y524711D01*
X296025Y553595D01*
X295407Y555089D01*
X295407Y787372D01*
X295397Y787486D01*
X295398Y787600D01*
X295377Y787731D01*
X295367Y787864D01*
X295339Y787975D01*
X295321Y788087D01*
X295280Y788214D01*
X295248Y788343D01*
X295203Y788447D01*
X295167Y788556D01*
X295106Y788674D01*
X295053Y788796D01*
X294992Y788892D01*
X294939Y788994D01*
X294881Y789067D01*
X294788Y789212D01*
X294572Y789454D01*
X294514Y789527D01*
X288680Y795361D01*
X288593Y795435D01*
X288513Y795516D01*
X288406Y795594D01*
X288304Y795680D01*
X288206Y795739D01*
X288114Y795806D01*
X287996Y795866D01*
X287882Y795935D01*
X287776Y795977D01*
X287674Y796029D01*
X287547Y796069D01*
X287424Y796118D01*
X287312Y796143D01*
X287203Y796177D01*
X287110Y796187D01*
X286942Y796225D01*
X286618Y796243D01*
X286525Y796253D01*
X272417Y796253D01*
X272304Y796244D01*
X272189Y796245D01*
X272058Y796224D01*
X271926Y796213D01*
X271815Y796186D01*
X271702Y796168D01*
X271576Y796127D01*
X271447Y796095D01*
X271342Y796050D01*
X271233Y796014D01*
X271115Y795952D01*
X270993Y795900D01*
X270897Y795839D01*
X270796Y795786D01*
X270722Y795727D01*
X270577Y795635D01*
X270335Y795419D01*
X270263Y795361D01*
X224429Y749527D01*
X224355Y749440D01*
X224273Y749360D01*
X224195Y749252D01*
X224109Y749151D01*
X224050Y749053D01*
X223983Y748961D01*
X223923Y748842D01*
X223855Y748728D01*
X223812Y748622D01*
X223761Y748520D01*
X223721Y748394D01*
X223671Y748270D01*
X223647Y748159D01*
X223612Y748050D01*
X223602Y747956D01*
X223565Y747789D01*
X223546Y747464D01*
X223536Y747372D01*
X223536Y709509D01*
X222917Y708015D01*
X208224Y693322D01*
X206730Y692703D01*
X199635Y692703D01*
X199417Y692686D01*
X199199Y692672D01*
X199172Y692666D01*
X199143Y692663D01*
X198931Y692611D01*
X198718Y692562D01*
X198692Y692551D01*
X198665Y692545D01*
X198463Y692458D01*
X198262Y692376D01*
X198237Y692361D01*
X198211Y692350D01*
X198027Y692233D01*
X197841Y692119D01*
X197819Y692100D01*
X197795Y692085D01*
X197633Y691940D01*
X197467Y691797D01*
X197448Y691775D01*
X197427Y691756D01*
X197290Y691586D01*
X197150Y691419D01*
X197138Y691398D01*
X197117Y691372D01*
X196966Y691106D01*
X194082Y688222D01*
X190850Y686883D01*
X190816Y686866D01*
X190780Y686853D01*
X190597Y686754D01*
X190411Y686658D01*
X190380Y686636D01*
X190347Y686617D01*
X190182Y686489D01*
X190014Y686365D01*
X189987Y686338D01*
X189957Y686315D01*
X189815Y686162D01*
X189669Y686012D01*
X189647Y685981D01*
X189622Y685953D01*
X189506Y685779D01*
X189386Y685608D01*
X189370Y685574D01*
X189349Y685542D01*
X189263Y685352D01*
X189172Y685163D01*
X189162Y685127D01*
X189146Y685092D01*
X189092Y684891D01*
X189033Y684690D01*
X189028Y684652D01*
X189018Y684616D01*
X188998Y684408D01*
X188972Y684201D01*
X188973Y684163D01*
X188969Y684125D01*
X188982Y683916D01*
X188990Y683708D01*
X188998Y683670D01*
X189000Y683632D01*
X189046Y683429D01*
X189088Y683224D01*
X189101Y683188D01*
X189110Y683151D01*
X189188Y682959D01*
X189262Y682763D01*
X189281Y682730D01*
X189296Y682694D01*
X189404Y682517D01*
X189509Y682336D01*
X189533Y682306D01*
X189553Y682274D01*
X189689Y682115D01*
X189821Y681954D01*
X189850Y681929D01*
X189875Y681900D01*
X190035Y681766D01*
X190191Y681627D01*
X190224Y681607D01*
X190253Y681583D01*
X190334Y681538D01*
X190609Y681365D01*
X190768Y681298D01*
X190850Y681253D01*
X194082Y679914D01*
X196917Y677078D01*
X198452Y673373D01*
X198452Y669363D01*
X196917Y665658D01*
X194082Y662822D01*
X190850Y661483D01*
X190816Y661466D01*
X190780Y661453D01*
X190597Y661354D01*
X190411Y661258D01*
X190380Y661236D01*
X190347Y661217D01*
X190182Y661089D01*
X190014Y660965D01*
X189987Y660938D01*
X189957Y660915D01*
X189815Y660762D01*
X189669Y660612D01*
X189647Y660581D01*
X189622Y660553D01*
X189506Y660379D01*
X189386Y660208D01*
X189370Y660174D01*
X189349Y660142D01*
X189263Y659952D01*
X189172Y659763D01*
X189162Y659727D01*
X189146Y659692D01*
X189092Y659491D01*
X189033Y659290D01*
X189028Y659252D01*
X189018Y659216D01*
X188998Y659008D01*
X188972Y658801D01*
X188973Y658763D01*
X188969Y658725D01*
X188982Y658516D01*
X188990Y658308D01*
X188998Y658270D01*
X189000Y658232D01*
X189046Y658029D01*
X189088Y657824D01*
X189101Y657788D01*
X189110Y657751D01*
X189188Y657559D01*
X189262Y657363D01*
X189281Y657330D01*
X189296Y657294D01*
X189404Y657117D01*
X189509Y656936D01*
X189533Y656906D01*
X189553Y656874D01*
X189689Y656715D01*
X189821Y656554D01*
X189850Y656529D01*
X189875Y656500D01*
X190035Y656366D01*
X190191Y656227D01*
X190224Y656207D01*
X190253Y656183D01*
X190334Y656138D01*
X190609Y655965D01*
X190768Y655898D01*
X190850Y655853D01*
X194082Y654514D01*
X196917Y651678D01*
X198452Y647973D01*
X198452Y643963D01*
X196917Y640258D01*
X194082Y637422D01*
X190377Y635887D01*
X186366Y635887D01*
X182661Y637422D01*
X179825Y640258D01*
X178291Y643963D01*
X178291Y647973D01*
X179825Y651678D01*
X182661Y654514D01*
X185893Y655853D01*
X185927Y655870D01*
X185963Y655883D01*
X186147Y655983D01*
X186332Y656078D01*
X186363Y656100D01*
X186396Y656119D01*
X186561Y656247D01*
X186729Y656371D01*
X186755Y656398D01*
X186786Y656421D01*
X186928Y656575D01*
X187073Y656724D01*
X187095Y656755D01*
X187121Y656783D01*
X187237Y656957D01*
X187356Y657128D01*
X187373Y657162D01*
X187394Y657194D01*
X187480Y657384D01*
X187570Y657572D01*
X187581Y657609D01*
X187597Y657644D01*
X187651Y657845D01*
X187710Y658046D01*
X187715Y658084D01*
X187724Y658120D01*
X187745Y658328D01*
X187771Y658535D01*
X187770Y658573D01*
X187774Y658611D01*
X187761Y658820D01*
X187753Y659028D01*
X187745Y659066D01*
X187743Y659104D01*
X187696Y659307D01*
X187655Y659512D01*
X187641Y659547D01*
X187633Y659585D01*
X187554Y659778D01*
X187480Y659973D01*
X187461Y660006D01*
X187447Y660042D01*
X187338Y660219D01*
X187234Y660400D01*
X187210Y660430D01*
X187190Y660462D01*
X187053Y660621D01*
X186921Y660782D01*
X186893Y660807D01*
X186868Y660836D01*
X186708Y660971D01*
X186551Y661109D01*
X186519Y661129D01*
X186490Y661153D01*
X186408Y661199D01*
X186134Y661371D01*
X185975Y661438D01*
X185893Y661483D01*
X182661Y662822D01*
X179825Y665658D01*
X178291Y669363D01*
X178291Y673373D01*
X179825Y677078D01*
X182661Y679914D01*
X185893Y681253D01*
X185927Y681270D01*
X185963Y681283D01*
X186147Y681383D01*
X186332Y681478D01*
X186363Y681500D01*
X186396Y681519D01*
X186561Y681647D01*
X186729Y681771D01*
X186755Y681798D01*
X186786Y681821D01*
X186928Y681975D01*
X187073Y682124D01*
X187095Y682155D01*
X187121Y682183D01*
X187237Y682357D01*
X187356Y682528D01*
X187373Y682562D01*
X187394Y682594D01*
X187480Y682784D01*
X187570Y682972D01*
X187581Y683009D01*
X187597Y683044D01*
X187651Y683245D01*
X187710Y683446D01*
X187715Y683484D01*
X187724Y683520D01*
X187745Y683728D01*
X187771Y683935D01*
X187770Y683973D01*
X187774Y684011D01*
X187761Y684220D01*
X187753Y684428D01*
X187745Y684466D01*
X187743Y684504D01*
X187696Y684707D01*
X187655Y684912D01*
X187641Y684947D01*
X187633Y684985D01*
X187554Y685178D01*
X187480Y685373D01*
X187461Y685406D01*
X187447Y685442D01*
X187338Y685619D01*
X187234Y685800D01*
X187210Y685830D01*
X187190Y685862D01*
X187053Y686021D01*
X186921Y686182D01*
X186893Y686207D01*
X186868Y686236D01*
X186708Y686371D01*
X186551Y686509D01*
X186519Y686529D01*
X186490Y686553D01*
X186408Y686599D01*
X186134Y686771D01*
X185975Y686838D01*
X185893Y686883D01*
X182661Y688222D01*
X179825Y691058D01*
X178291Y694763D01*
X178291Y698773D01*
X179825Y702478D01*
X182661Y705314D01*
X185893Y706653D01*
X185927Y706670D01*
X185963Y706683D01*
X186147Y706783D01*
X186332Y706878D01*
X186363Y706900D01*
X186396Y706919D01*
X186561Y707047D01*
X186729Y707171D01*
X186755Y707198D01*
X186786Y707221D01*
X186928Y707375D01*
X187073Y707524D01*
X187095Y707555D01*
X187121Y707583D01*
X187237Y707757D01*
X187356Y707928D01*
X187373Y707962D01*
X187394Y707994D01*
X187480Y708184D01*
X187570Y708372D01*
X187581Y708409D01*
X187597Y708444D01*
X187651Y708645D01*
X187710Y708846D01*
X187715Y708884D01*
X187724Y708920D01*
X187745Y709128D01*
X187771Y709335D01*
X187770Y709373D01*
X187774Y709411D01*
X187761Y709620D01*
X187753Y709828D01*
X187745Y709866D01*
X187743Y709904D01*
X187696Y710107D01*
X187655Y710312D01*
X187641Y710347D01*
X187633Y710385D01*
X187554Y710578D01*
X187480Y710773D01*
X187461Y710806D01*
X187447Y710842D01*
X187338Y711019D01*
X187234Y711200D01*
X187210Y711230D01*
X187190Y711262D01*
X187053Y711421D01*
X186921Y711582D01*
X186893Y711607D01*
X186868Y711636D01*
X186708Y711771D01*
X186551Y711909D01*
X186519Y711929D01*
X186490Y711953D01*
X186408Y711999D01*
X186134Y712171D01*
X185975Y712238D01*
X185893Y712283D01*
X182661Y713622D01*
X179825Y716458D01*
X178291Y720163D01*
X178291Y724173D01*
X179825Y727878D01*
X182661Y730714D01*
X185893Y732053D01*
X185927Y732070D01*
X185963Y732083D01*
X186147Y732183D01*
X186332Y732278D01*
X186363Y732300D01*
X186396Y732319D01*
X186561Y732447D01*
X186729Y732571D01*
X186755Y732598D01*
X186786Y732621D01*
X186928Y732775D01*
X187073Y732924D01*
X187095Y732955D01*
X187121Y732983D01*
X187237Y733157D01*
X187356Y733328D01*
X187373Y733362D01*
X187394Y733394D01*
X187480Y733584D01*
X187570Y733772D01*
X187581Y733809D01*
X187597Y733844D01*
X187651Y734045D01*
X187710Y734246D01*
X187715Y734284D01*
X187724Y734320D01*
X187745Y734528D01*
X187771Y734735D01*
X187770Y734773D01*
X187774Y734811D01*
X187761Y735020D01*
X187753Y735228D01*
X187745Y735266D01*
X187743Y735304D01*
X187696Y735507D01*
X187655Y735712D01*
X187641Y735747D01*
X187633Y735785D01*
X187554Y735978D01*
X187480Y736173D01*
X187461Y736206D01*
X187447Y736242D01*
X187338Y736419D01*
X187234Y736600D01*
X187210Y736630D01*
X187190Y736662D01*
X187053Y736821D01*
X186921Y736982D01*
X186893Y737007D01*
X186868Y737036D01*
X186708Y737171D01*
X186551Y737309D01*
X186519Y737329D01*
X186490Y737353D01*
X186408Y737399D01*
X186134Y737571D01*
X185975Y737638D01*
X185893Y737683D01*
X182661Y739022D01*
X179825Y741858D01*
X178291Y745563D01*
X178291Y749573D01*
X179825Y753278D01*
X182661Y756114D01*
X185893Y757453D01*
X185927Y757470D01*
X185963Y757483D01*
X186147Y757583D01*
X186332Y757678D01*
X186363Y757700D01*
X186396Y757719D01*
X186561Y757847D01*
X186729Y757971D01*
X186755Y757998D01*
X186786Y758021D01*
X186928Y758175D01*
X187073Y758324D01*
X187095Y758355D01*
X187121Y758383D01*
X187237Y758557D01*
X187356Y758728D01*
X187373Y758762D01*
X187394Y758794D01*
X187480Y758984D01*
X187570Y759172D01*
X187581Y759209D01*
X187597Y759244D01*
X187651Y759445D01*
X187710Y759646D01*
X187715Y759684D01*
X187724Y759720D01*
X187745Y759928D01*
X187771Y760135D01*
X187770Y760173D01*
X187774Y760211D01*
X187761Y760420D01*
X187753Y760628D01*
X187745Y760666D01*
X187743Y760704D01*
X187696Y760907D01*
X187655Y761112D01*
X187641Y761147D01*
X187633Y761185D01*
X187554Y761378D01*
X187480Y761573D01*
X187461Y761606D01*
X187447Y761642D01*
X187338Y761819D01*
X187234Y762000D01*
X187210Y762030D01*
X187190Y762062D01*
X187053Y762221D01*
X186921Y762382D01*
X186893Y762407D01*
X186868Y762436D01*
X186708Y762571D01*
X186551Y762709D01*
X186519Y762729D01*
X186490Y762753D01*
X186408Y762799D01*
X186134Y762971D01*
X185975Y763038D01*
X185893Y763083D01*
X182661Y764422D01*
X179825Y767258D01*
X178291Y770963D01*
X178291Y774973D01*
X179825Y778678D01*
X182661Y781514D01*
X186002Y782898D01*
X186142Y782970D01*
X186287Y783033D01*
X186362Y783082D01*
X186441Y783123D01*
X186568Y783216D01*
X186700Y783303D01*
X186766Y783363D01*
X186838Y783416D01*
X186948Y783529D01*
X187065Y783635D01*
X187120Y783705D01*
X187182Y783769D01*
X187273Y783898D01*
X187371Y784022D01*
X187414Y784100D01*
X187465Y784173D01*
X187534Y784315D01*
X187610Y784453D01*
X187641Y784537D01*
X187679Y784618D01*
X187724Y784769D01*
X187777Y784917D01*
X187794Y785005D01*
X187819Y785091D01*
X187838Y785247D01*
X187867Y785402D01*
X187869Y785492D01*
X187880Y785580D01*
X187874Y785738D01*
X187878Y785896D01*
X187865Y785984D01*
X187862Y786073D01*
X187831Y786228D01*
X187808Y786384D01*
X187782Y786469D01*
X187764Y786557D01*
X187708Y786704D01*
X187661Y786855D01*
X187621Y786935D01*
X187589Y787018D01*
X187511Y787155D01*
X187440Y787296D01*
X187387Y787368D01*
X187343Y787446D01*
X187243Y787567D01*
X187150Y787695D01*
X187087Y787758D01*
X187030Y787827D01*
X186912Y787932D01*
X186800Y788043D01*
X186727Y788095D01*
X186660Y788154D01*
X186527Y788238D01*
X186399Y788329D01*
X186336Y788358D01*
X186243Y788416D01*
X185788Y788608D01*
X185782Y788609D01*
X185778Y788611D01*
X184502Y789026D01*
X183088Y789746D01*
X181804Y790679D01*
X180682Y791801D01*
X179750Y793084D01*
X179029Y794498D01*
X178762Y795321D01*
X188371Y795321D01*
X188372Y795321D01*
X197981Y795321D01*
X197714Y794498D01*
X196993Y793084D01*
X196060Y791801D01*
X194939Y790679D01*
X193655Y789746D01*
X192241Y789026D01*
X190965Y788611D01*
X190820Y788551D01*
X190671Y788498D01*
X190592Y788456D01*
X190510Y788421D01*
X190376Y788338D01*
X190238Y788262D01*
X190167Y788208D01*
X190091Y788160D01*
X189973Y788056D01*
X189848Y787960D01*
X189787Y787894D01*
X189720Y787835D01*
X189620Y787714D01*
X189513Y787598D01*
X189463Y787524D01*
X189406Y787455D01*
X189327Y787318D01*
X189240Y787187D01*
X189203Y787106D01*
X189158Y787028D01*
X189102Y786881D01*
X189037Y786737D01*
X189014Y786651D01*
X188982Y786568D01*
X188950Y786413D01*
X188909Y786261D01*
X188900Y786172D01*
X188882Y786084D01*
X188876Y785927D01*
X188860Y785770D01*
X188866Y785681D01*
X188862Y785591D01*
X188881Y785435D01*
X188891Y785278D01*
X188911Y785191D01*
X188922Y785102D01*
X188966Y784950D01*
X189001Y784797D01*
X189034Y784714D01*
X189059Y784628D01*
X189127Y784485D01*
X189187Y784340D01*
X189233Y784264D01*
X189272Y784183D01*
X189362Y784053D01*
X189444Y783919D01*
X189502Y783851D01*
X189553Y783778D01*
X189663Y783664D01*
X189766Y783545D01*
X189834Y783487D01*
X189896Y783423D01*
X190023Y783329D01*
X190144Y783228D01*
X190204Y783194D01*
X190292Y783129D01*
X190730Y782902D01*
X190737Y782900D01*
X190741Y782898D01*
X194082Y781514D01*
X196917Y778678D01*
X198452Y774973D01*
X198452Y770963D01*
X196917Y767258D01*
X194082Y764422D01*
X190850Y763083D01*
X190816Y763066D01*
X190780Y763053D01*
X190597Y762954D01*
X190411Y762858D01*
X190380Y762836D01*
X190347Y762817D01*
X190182Y762689D01*
X190014Y762565D01*
X189987Y762538D01*
X189957Y762515D01*
X189815Y762362D01*
X189669Y762212D01*
X189647Y762181D01*
X189622Y762153D01*
X189506Y761979D01*
X189386Y761808D01*
X189370Y761774D01*
X189349Y761742D01*
X189263Y761552D01*
X189172Y761363D01*
X189162Y761327D01*
X189146Y761292D01*
X189092Y761091D01*
X189033Y760890D01*
X189028Y760852D01*
X189018Y760816D01*
X188998Y760608D01*
X188972Y760401D01*
X188973Y760363D01*
X188969Y760325D01*
X188982Y760116D01*
X188990Y759908D01*
X188998Y759870D01*
X189000Y759832D01*
X189046Y759629D01*
X189088Y759424D01*
X189101Y759388D01*
X189110Y759351D01*
X189188Y759159D01*
X189262Y758963D01*
X189281Y758930D01*
X189296Y758894D01*
X189404Y758717D01*
X189509Y758536D01*
X189533Y758506D01*
X189553Y758474D01*
X189689Y758315D01*
X189821Y758154D01*
X189850Y758129D01*
X189875Y758100D01*
X190035Y757966D01*
X190191Y757827D01*
X190224Y757807D01*
X190253Y757783D01*
X190334Y757738D01*
X190609Y757565D01*
X190768Y757498D01*
X190850Y757453D01*
X194082Y756114D01*
X196917Y753278D01*
X198452Y749573D01*
X198452Y745563D01*
X196917Y741858D01*
X194082Y739022D01*
X190850Y737683D01*
X190816Y737666D01*
X190780Y737653D01*
X190597Y737554D01*
X190411Y737458D01*
X190380Y737436D01*
X190347Y737417D01*
X190182Y737289D01*
X190014Y737165D01*
X189987Y737138D01*
X189957Y737115D01*
X189815Y736962D01*
X189669Y736812D01*
X189647Y736781D01*
X189622Y736753D01*
X189506Y736579D01*
X189386Y736408D01*
X189370Y736374D01*
X189349Y736342D01*
X189263Y736152D01*
X189172Y735963D01*
X189162Y735927D01*
X189146Y735892D01*
X189092Y735691D01*
X189033Y735490D01*
X189028Y735452D01*
X189018Y735416D01*
X188998Y735208D01*
X188972Y735001D01*
X188973Y734963D01*
X188969Y734925D01*
X188982Y734716D01*
X188990Y734508D01*
X188998Y734470D01*
X189000Y734432D01*
X189046Y734229D01*
X189088Y734024D01*
X189101Y733988D01*
X189110Y733951D01*
X189188Y733759D01*
X189262Y733563D01*
X189281Y733530D01*
X189296Y733494D01*
X189404Y733317D01*
X189509Y733136D01*
X189533Y733106D01*
X189553Y733074D01*
X189689Y732915D01*
X189821Y732754D01*
X189850Y732729D01*
X189875Y732700D01*
X190035Y732566D01*
X190191Y732427D01*
X190224Y732407D01*
X190253Y732383D01*
X190334Y732338D01*
X190609Y732165D01*
X190768Y732098D01*
X190850Y732053D01*
X194082Y730714D01*
X196917Y727878D01*
X198452Y724173D01*
X198452Y720163D01*
X196917Y716458D01*
X194082Y713622D01*
X190850Y712283D01*
X190816Y712266D01*
X190780Y712253D01*
X190597Y712154D01*
X190411Y712058D01*
X190380Y712036D01*
X190347Y712017D01*
X190182Y711889D01*
X190014Y711765D01*
X189987Y711738D01*
X189957Y711715D01*
X189815Y711562D01*
X189669Y711412D01*
X189647Y711381D01*
X189622Y711353D01*
X189506Y711179D01*
X189386Y711008D01*
X189370Y710974D01*
X189349Y710942D01*
X189263Y710752D01*
X189172Y710563D01*
X189162Y710527D01*
X189146Y710492D01*
X189092Y710291D01*
X189033Y710090D01*
X189028Y710052D01*
X189018Y710016D01*
X188998Y709808D01*
X188972Y709601D01*
X188973Y709563D01*
X188969Y709525D01*
X188982Y709316D01*
X188990Y709108D01*
X188998Y709070D01*
X189000Y709032D01*
X189046Y708829D01*
X189088Y708624D01*
X189101Y708588D01*
X189110Y708551D01*
X189188Y708359D01*
X189262Y708163D01*
X189281Y708130D01*
X189296Y708094D01*
X189404Y707917D01*
X189509Y707736D01*
X189533Y707706D01*
X189553Y707674D01*
X189689Y707515D01*
X189821Y707354D01*
X189850Y707329D01*
X189875Y707300D01*
X190035Y707166D01*
X190191Y707027D01*
X190224Y707007D01*
X190253Y706983D01*
X190334Y706938D01*
X190609Y706765D01*
X190768Y706698D01*
X190850Y706653D01*
X194082Y705314D01*
X196961Y702435D01*
X197015Y702323D01*
X197032Y702300D01*
X197045Y702275D01*
X197175Y702099D01*
X197301Y701921D01*
X197321Y701901D01*
X197338Y701878D01*
X197494Y701725D01*
X197648Y701570D01*
X197671Y701553D01*
X197691Y701533D01*
X197870Y701408D01*
X198046Y701280D01*
X198072Y701267D01*
X198095Y701251D01*
X198292Y701156D01*
X198487Y701057D01*
X198514Y701049D01*
X198540Y701036D01*
X198749Y700975D01*
X198957Y700909D01*
X198981Y700906D01*
X199013Y700897D01*
X199502Y700836D01*
X199583Y700839D01*
X199635Y700833D01*
X202975Y700833D01*
X203089Y700842D01*
X203203Y700841D01*
X203335Y700862D01*
X203467Y700873D01*
X203578Y700900D01*
X203691Y700918D01*
X203817Y700959D01*
X203946Y700991D01*
X204051Y701036D01*
X204159Y701072D01*
X204277Y701134D01*
X204399Y701186D01*
X204496Y701247D01*
X204597Y701300D01*
X204671Y701359D01*
X204815Y701451D01*
X205058Y701667D01*
X205130Y701725D01*
X214514Y711109D01*
X214588Y711196D01*
X214669Y711276D01*
X214747Y711384D01*
X214834Y711485D01*
X214893Y711583D01*
X214960Y711675D01*
X215019Y711794D01*
X215088Y711908D01*
X215131Y712014D01*
X215182Y712116D01*
X215222Y712242D01*
X215271Y712366D01*
X215296Y712477D01*
X215330Y712586D01*
X215341Y712680D01*
X215378Y712847D01*
X215396Y713172D01*
X215407Y713264D01*
X215407Y751127D01*
X216025Y752620D01*
X267169Y803764D01*
X268663Y804383D01*
X290280Y804383D01*
X291774Y803764D01*
X302917Y792620D01*
X303536Y791127D01*
X303536Y558843D01*
X303545Y558729D01*
X303545Y558615D01*
X303565Y558484D01*
X303576Y558351D01*
X303604Y558241D01*
X303621Y558128D01*
X303663Y558001D01*
X303695Y557873D01*
X303740Y557768D01*
X303776Y557659D01*
X303837Y557541D01*
X303889Y557419D01*
X303951Y557323D01*
X304003Y557222D01*
X304062Y557148D01*
X304154Y557003D01*
X304371Y556761D01*
X304429Y556688D01*
X329970Y531147D01*
X330028Y531098D01*
X330080Y531042D01*
X330216Y530938D01*
X330346Y530828D01*
X330411Y530788D01*
X330472Y530742D01*
X330622Y530661D01*
X330768Y530573D01*
X330839Y530545D01*
X330906Y530509D01*
X331068Y530453D01*
X331227Y530390D01*
X331301Y530373D01*
X331373Y530349D01*
X331542Y530320D01*
X331708Y530283D01*
X331784Y530279D01*
X331859Y530266D01*
X332030Y530265D01*
X332201Y530255D01*
X332277Y530264D01*
X332353Y530263D01*
X332522Y530290D01*
X332691Y530308D01*
X332765Y530328D01*
X332840Y530340D01*
X333002Y530393D01*
X333167Y530438D01*
X333236Y530470D01*
X333309Y530494D01*
X333460Y530573D01*
X333615Y530644D01*
X333679Y530687D01*
X333746Y530722D01*
X333829Y530787D01*
X334025Y530919D01*
X334197Y531081D01*
X334279Y531147D01*
X335324Y532192D01*
X336896Y533764D01*
X338390Y534383D01*
X480280Y534383D01*
X481774Y533764D01*
X519581Y495957D01*
X521153Y494385D01*
X521772Y492891D01*
X521772Y82810D01*
X521153Y81316D01*
X519581Y79744D01*
X473158Y33321D01*
X471586Y31749D01*
X470092Y31130D01*
X213996Y31130D01*
G37*
%LPD*%
%LPC*%
G36*
X109050Y53337D02*
X109050Y53337D01*
X105316Y54884D01*
X102458Y57742D01*
X100911Y61477D01*
X100911Y75419D01*
X100899Y75561D01*
X100897Y75704D01*
X100879Y75807D01*
X100871Y75911D01*
X100836Y76049D01*
X100812Y76190D01*
X100777Y76288D01*
X100752Y76390D01*
X100696Y76521D01*
X100649Y76655D01*
X100599Y76747D01*
X100557Y76843D01*
X100481Y76963D01*
X100413Y77089D01*
X100349Y77171D01*
X100292Y77259D01*
X100197Y77366D01*
X100110Y77478D01*
X100033Y77549D01*
X99964Y77627D01*
X99853Y77717D01*
X99748Y77814D01*
X99661Y77871D01*
X99580Y77937D01*
X99456Y78007D01*
X99337Y78086D01*
X99242Y78129D01*
X99151Y78181D01*
X99017Y78231D01*
X98888Y78289D01*
X98787Y78316D01*
X98689Y78353D01*
X98549Y78380D01*
X98411Y78417D01*
X98307Y78427D01*
X98204Y78447D01*
X98062Y78452D01*
X97920Y78466D01*
X97816Y78459D01*
X97711Y78463D01*
X97570Y78444D01*
X97428Y78435D01*
X97326Y78412D01*
X97222Y78398D01*
X97086Y78357D01*
X96947Y78325D01*
X96850Y78286D01*
X96750Y78256D01*
X96622Y78193D01*
X96490Y78139D01*
X96401Y78085D01*
X96307Y78039D01*
X96191Y77956D01*
X96069Y77882D01*
X95990Y77814D01*
X95904Y77753D01*
X95803Y77653D01*
X95695Y77560D01*
X95628Y77480D01*
X95553Y77407D01*
X95470Y77291D01*
X95378Y77182D01*
X95340Y77114D01*
X95263Y77008D01*
X95067Y76620D01*
X95048Y76585D01*
X94457Y75159D01*
X81271Y61972D01*
X81197Y61885D01*
X81115Y61805D01*
X81037Y61698D01*
X80951Y61596D01*
X80892Y61498D01*
X80825Y61406D01*
X80765Y61288D01*
X80697Y61174D01*
X80654Y61067D01*
X80603Y60966D01*
X80563Y60839D01*
X80514Y60716D01*
X80489Y60604D01*
X80454Y60495D01*
X80444Y60402D01*
X80407Y60234D01*
X80389Y59910D01*
X80378Y59817D01*
X80378Y59248D01*
X79416Y56924D01*
X77637Y55145D01*
X75313Y54183D01*
X72798Y54183D01*
X70474Y55145D01*
X68695Y56924D01*
X67733Y59248D01*
X67733Y61763D01*
X68695Y64087D01*
X70474Y65865D01*
X72798Y66828D01*
X73368Y66828D01*
X73481Y66837D01*
X73596Y66837D01*
X73727Y66857D01*
X73859Y66868D01*
X73970Y66895D01*
X74083Y66913D01*
X74209Y66955D01*
X74338Y66987D01*
X74443Y67032D01*
X74551Y67067D01*
X74669Y67129D01*
X74791Y67181D01*
X74888Y67243D01*
X74989Y67295D01*
X75063Y67354D01*
X75208Y67446D01*
X75450Y67663D01*
X75522Y67721D01*
X86054Y78252D01*
X86128Y78339D01*
X86209Y78420D01*
X86287Y78527D01*
X86374Y78628D01*
X86433Y78726D01*
X86500Y78818D01*
X86559Y78937D01*
X86628Y79051D01*
X86671Y79157D01*
X86722Y79259D01*
X86762Y79386D01*
X86811Y79509D01*
X86836Y79620D01*
X86870Y79729D01*
X86881Y79823D01*
X86918Y79991D01*
X86936Y80315D01*
X86947Y80407D01*
X86947Y240204D01*
X86937Y240317D01*
X86938Y240432D01*
X86917Y240563D01*
X86907Y240696D01*
X86879Y240806D01*
X86861Y240919D01*
X86820Y241045D01*
X86788Y241174D01*
X86743Y241279D01*
X86707Y241388D01*
X86646Y241506D01*
X86593Y241628D01*
X86532Y241724D01*
X86479Y241825D01*
X86421Y241899D01*
X86328Y242044D01*
X86112Y242286D01*
X86054Y242359D01*
X85651Y242761D01*
X84689Y245085D01*
X84689Y247601D01*
X85651Y249925D01*
X87430Y251703D01*
X89754Y252666D01*
X92269Y252666D01*
X93926Y251979D01*
X93962Y251968D01*
X93997Y251951D01*
X94197Y251892D01*
X94396Y251828D01*
X94433Y251822D01*
X94470Y251812D01*
X94677Y251786D01*
X94883Y251754D01*
X94922Y251755D01*
X94959Y251750D01*
X95167Y251758D01*
X95377Y251761D01*
X95414Y251767D01*
X95452Y251769D01*
X95656Y251810D01*
X95863Y251846D01*
X95899Y251859D01*
X95936Y251866D01*
X96131Y251940D01*
X96328Y252009D01*
X96362Y252027D01*
X96397Y252041D01*
X96578Y252146D01*
X96761Y252245D01*
X96792Y252269D01*
X96825Y252288D01*
X96986Y252420D01*
X97151Y252548D01*
X97177Y252576D01*
X97206Y252600D01*
X97344Y252756D01*
X97487Y252910D01*
X97508Y252942D01*
X97533Y252970D01*
X97643Y253146D01*
X97759Y253321D01*
X97775Y253356D01*
X97795Y253388D01*
X97876Y253580D01*
X97962Y253770D01*
X97972Y253807D01*
X97987Y253842D01*
X98036Y254045D01*
X98090Y254247D01*
X98094Y254285D01*
X98103Y254322D01*
X98118Y254530D01*
X98139Y254738D01*
X98137Y254776D01*
X98139Y254814D01*
X98121Y255021D01*
X98108Y255230D01*
X98100Y255268D01*
X98096Y255305D01*
X98071Y255394D01*
X97998Y255711D01*
X97933Y255871D01*
X97907Y255961D01*
X97167Y257749D01*
X97167Y314539D01*
X97157Y314653D01*
X97158Y314767D01*
X97137Y314898D01*
X97127Y315031D01*
X97099Y315141D01*
X97081Y315254D01*
X97040Y315381D01*
X97008Y315509D01*
X96963Y315614D01*
X96927Y315723D01*
X96866Y315841D01*
X96813Y315963D01*
X96752Y316059D01*
X96699Y316160D01*
X96641Y316234D01*
X96548Y316379D01*
X96332Y316621D01*
X96274Y316694D01*
X95871Y317096D01*
X94909Y319420D01*
X94909Y321936D01*
X95871Y324260D01*
X97650Y326038D01*
X99974Y327001D01*
X102489Y327001D01*
X104813Y326038D01*
X106591Y324260D01*
X107554Y321936D01*
X107554Y319420D01*
X106591Y317096D01*
X106189Y316694D01*
X106115Y316607D01*
X106033Y316526D01*
X105955Y316419D01*
X105869Y316318D01*
X105810Y316220D01*
X105743Y316128D01*
X105683Y316009D01*
X105614Y315895D01*
X105572Y315789D01*
X105521Y315687D01*
X105481Y315560D01*
X105431Y315437D01*
X105407Y315326D01*
X105372Y315217D01*
X105362Y315123D01*
X105325Y314955D01*
X105306Y314631D01*
X105296Y314539D01*
X105296Y261504D01*
X105305Y261390D01*
X105305Y261276D01*
X105325Y261145D01*
X105336Y261012D01*
X105363Y260901D01*
X105381Y260789D01*
X105423Y260662D01*
X105455Y260533D01*
X105500Y260429D01*
X105535Y260320D01*
X105597Y260202D01*
X105649Y260080D01*
X105710Y259984D01*
X105763Y259882D01*
X105822Y259809D01*
X105914Y259664D01*
X106131Y259422D01*
X106189Y259349D01*
X133247Y232291D01*
X133866Y230797D01*
X133866Y199054D01*
X133875Y198940D01*
X133874Y198826D01*
X133895Y198694D01*
X133905Y198562D01*
X133933Y198451D01*
X133951Y198338D01*
X133992Y198212D01*
X134024Y198083D01*
X134069Y197978D01*
X134105Y197870D01*
X134166Y197752D01*
X134219Y197630D01*
X134280Y197534D01*
X134333Y197432D01*
X134391Y197359D01*
X134484Y197214D01*
X134700Y196972D01*
X134758Y196899D01*
X135161Y196496D01*
X135571Y195506D01*
X135653Y195346D01*
X135729Y195181D01*
X135766Y195126D01*
X135796Y195067D01*
X135903Y194922D01*
X136004Y194772D01*
X136050Y194724D01*
X136089Y194670D01*
X136218Y194544D01*
X136342Y194412D01*
X136395Y194372D01*
X136442Y194325D01*
X136590Y194222D01*
X136733Y194112D01*
X136792Y194081D01*
X136846Y194043D01*
X137009Y193964D01*
X137168Y193879D01*
X137231Y193857D01*
X137291Y193828D01*
X137464Y193777D01*
X137635Y193719D01*
X137700Y193708D01*
X137764Y193689D01*
X137943Y193667D01*
X138121Y193636D01*
X138188Y193636D01*
X138254Y193628D01*
X138433Y193634D01*
X138614Y193633D01*
X138680Y193644D01*
X138747Y193646D01*
X138923Y193682D01*
X139102Y193710D01*
X139165Y193731D01*
X139230Y193744D01*
X139399Y193808D01*
X139570Y193864D01*
X139629Y193895D01*
X139692Y193918D01*
X139848Y194009D01*
X140008Y194092D01*
X140049Y194125D01*
X140119Y194165D01*
X140501Y194478D01*
X140523Y194503D01*
X140541Y194517D01*
X254514Y308490D01*
X254588Y308577D01*
X254669Y308658D01*
X254748Y308765D01*
X254834Y308866D01*
X254893Y308964D01*
X254960Y309056D01*
X255020Y309175D01*
X255088Y309289D01*
X255131Y309395D01*
X255182Y309497D01*
X255222Y309624D01*
X255271Y309747D01*
X255296Y309858D01*
X255330Y309967D01*
X255341Y310061D01*
X255378Y310229D01*
X255396Y310553D01*
X255407Y310645D01*
X255407Y527372D01*
X255397Y527486D01*
X255398Y527600D01*
X255377Y527731D01*
X255367Y527864D01*
X255339Y527975D01*
X255321Y528087D01*
X255280Y528214D01*
X255248Y528343D01*
X255203Y528447D01*
X255167Y528556D01*
X255106Y528674D01*
X255053Y528796D01*
X254992Y528892D01*
X254939Y528994D01*
X254881Y529067D01*
X254788Y529212D01*
X254572Y529454D01*
X254514Y529527D01*
X236722Y547319D01*
X236103Y548813D01*
X236103Y716037D01*
X236094Y716151D01*
X236095Y716265D01*
X236074Y716397D01*
X236064Y716529D01*
X236036Y716640D01*
X236018Y716753D01*
X235977Y716879D01*
X235945Y717008D01*
X235900Y717113D01*
X235864Y717221D01*
X235803Y717339D01*
X235750Y717461D01*
X235689Y717557D01*
X235636Y717659D01*
X235578Y717732D01*
X235485Y717877D01*
X235269Y718119D01*
X235211Y718192D01*
X234808Y718595D01*
X233845Y720919D01*
X233845Y723434D01*
X234808Y725758D01*
X236587Y727537D01*
X238910Y728499D01*
X241426Y728499D01*
X243750Y727537D01*
X245528Y725758D01*
X246491Y723434D01*
X246491Y720919D01*
X245528Y718595D01*
X245125Y718192D01*
X245052Y718105D01*
X244970Y718025D01*
X244892Y717917D01*
X244806Y717816D01*
X244747Y717718D01*
X244680Y717626D01*
X244620Y717507D01*
X244551Y717393D01*
X244509Y717287D01*
X244458Y717185D01*
X244418Y717059D01*
X244368Y716935D01*
X244344Y716824D01*
X244309Y716715D01*
X244299Y716621D01*
X244262Y716454D01*
X244243Y716129D01*
X244233Y716037D01*
X244233Y552567D01*
X244242Y552453D01*
X244241Y552339D01*
X244262Y552208D01*
X244273Y552075D01*
X244300Y551965D01*
X244318Y551852D01*
X244360Y551725D01*
X244392Y551597D01*
X244437Y551492D01*
X244472Y551383D01*
X244534Y551265D01*
X244586Y551143D01*
X244647Y551047D01*
X244700Y550946D01*
X244759Y550872D01*
X244851Y550727D01*
X245068Y550485D01*
X245125Y550412D01*
X262917Y532620D01*
X263536Y531127D01*
X263536Y306891D01*
X262917Y305397D01*
X138742Y181222D01*
X138669Y181135D01*
X138587Y181055D01*
X138509Y180947D01*
X138423Y180846D01*
X138364Y180748D01*
X138297Y180656D01*
X138237Y180537D01*
X138168Y180423D01*
X138126Y180317D01*
X138075Y180215D01*
X138035Y180089D01*
X137985Y179965D01*
X137961Y179854D01*
X137926Y179745D01*
X137916Y179651D01*
X137879Y179484D01*
X137860Y179159D01*
X137850Y179067D01*
X137850Y178497D01*
X136887Y176173D01*
X135109Y174395D01*
X132785Y173432D01*
X130270Y173432D01*
X127946Y174395D01*
X126167Y176173D01*
X125204Y178497D01*
X125204Y181013D01*
X126170Y183343D01*
X126197Y183375D01*
X126252Y183427D01*
X126356Y183563D01*
X126467Y183693D01*
X126506Y183758D01*
X126553Y183819D01*
X126633Y183969D01*
X126722Y184115D01*
X126750Y184186D01*
X126786Y184253D01*
X126841Y184415D01*
X126905Y184573D01*
X126921Y184648D01*
X126946Y184720D01*
X126974Y184888D01*
X127011Y185055D01*
X127016Y185131D01*
X127028Y185206D01*
X127029Y185377D01*
X127039Y185548D01*
X127031Y185623D01*
X127031Y185700D01*
X127005Y185869D01*
X126987Y186038D01*
X126967Y186112D01*
X126955Y186187D01*
X126901Y186349D01*
X126856Y186514D01*
X126824Y186583D01*
X126801Y186656D01*
X126722Y186807D01*
X126650Y186962D01*
X126608Y187026D01*
X126573Y187093D01*
X126507Y187176D01*
X126375Y187372D01*
X126213Y187544D01*
X126147Y187626D01*
X124441Y189333D01*
X123478Y191657D01*
X123478Y194172D01*
X124441Y196496D01*
X124844Y196899D01*
X124917Y196986D01*
X124999Y197066D01*
X125077Y197174D01*
X125163Y197275D01*
X125222Y197373D01*
X125289Y197465D01*
X125349Y197584D01*
X125418Y197698D01*
X125460Y197804D01*
X125511Y197906D01*
X125551Y198032D01*
X125601Y198156D01*
X125625Y198267D01*
X125660Y198376D01*
X125670Y198470D01*
X125707Y198637D01*
X125726Y198962D01*
X125736Y199054D01*
X125736Y227043D01*
X125727Y227156D01*
X125728Y227271D01*
X125707Y227402D01*
X125696Y227534D01*
X125669Y227645D01*
X125651Y227758D01*
X125609Y227884D01*
X125577Y228013D01*
X125532Y228118D01*
X125497Y228227D01*
X125435Y228345D01*
X125383Y228467D01*
X125322Y228563D01*
X125269Y228664D01*
X125210Y228738D01*
X125118Y228883D01*
X124901Y229125D01*
X124844Y229197D01*
X101727Y252313D01*
X101619Y252406D01*
X101517Y252505D01*
X101431Y252565D01*
X101352Y252633D01*
X101229Y252707D01*
X101113Y252788D01*
X101019Y252834D01*
X100929Y252888D01*
X100796Y252941D01*
X100668Y253002D01*
X100568Y253032D01*
X100471Y253071D01*
X100332Y253101D01*
X100195Y253142D01*
X100091Y253155D01*
X99989Y253177D01*
X99847Y253185D01*
X99705Y253203D01*
X99601Y253199D01*
X99497Y253205D01*
X99355Y253190D01*
X99212Y253185D01*
X99110Y253164D01*
X99006Y253153D01*
X98869Y253115D01*
X98729Y253087D01*
X98631Y253050D01*
X98530Y253022D01*
X98401Y252963D01*
X98268Y252912D01*
X98177Y252860D01*
X98082Y252816D01*
X97964Y252737D01*
X97840Y252666D01*
X97759Y252599D01*
X97673Y252541D01*
X97569Y252444D01*
X97458Y252353D01*
X97389Y252275D01*
X97313Y252203D01*
X97226Y252090D01*
X97132Y251983D01*
X97076Y251895D01*
X97013Y251812D01*
X96946Y251686D01*
X96870Y251566D01*
X96829Y251469D01*
X96780Y251377D01*
X96733Y251242D01*
X96678Y251111D01*
X96654Y251010D01*
X96620Y250910D01*
X96596Y250770D01*
X96562Y250631D01*
X96555Y250527D01*
X96537Y250424D01*
X96536Y250281D01*
X96526Y250139D01*
X96535Y250035D01*
X96534Y249931D01*
X96556Y249790D01*
X96569Y249648D01*
X96590Y249573D01*
X96611Y249443D01*
X96746Y249031D01*
X96757Y248993D01*
X97334Y247601D01*
X97334Y245085D01*
X96371Y242761D01*
X95969Y242359D01*
X95895Y242272D01*
X95813Y242191D01*
X95735Y242084D01*
X95649Y241983D01*
X95590Y241885D01*
X95523Y241792D01*
X95463Y241674D01*
X95394Y241560D01*
X95352Y241454D01*
X95301Y241352D01*
X95261Y241225D01*
X95211Y241102D01*
X95187Y240991D01*
X95152Y240882D01*
X95142Y240788D01*
X95105Y240620D01*
X95086Y240296D01*
X95076Y240204D01*
X95076Y81993D01*
X95088Y81851D01*
X95089Y81708D01*
X95108Y81605D01*
X95116Y81501D01*
X95150Y81363D01*
X95175Y81222D01*
X95210Y81123D01*
X95235Y81022D01*
X95291Y80891D01*
X95338Y80757D01*
X95388Y80665D01*
X95429Y80569D01*
X95506Y80448D01*
X95574Y80323D01*
X95638Y80241D01*
X95694Y80153D01*
X95789Y80046D01*
X95877Y79934D01*
X95953Y79863D01*
X96023Y79785D01*
X96134Y79695D01*
X96238Y79598D01*
X96326Y79540D01*
X96407Y79475D01*
X96531Y79404D01*
X96649Y79325D01*
X96745Y79282D01*
X96836Y79231D01*
X96969Y79181D01*
X97099Y79123D01*
X97200Y79096D01*
X97298Y79059D01*
X97438Y79032D01*
X97576Y78995D01*
X97680Y78985D01*
X97782Y78965D01*
X97925Y78960D01*
X98067Y78946D01*
X98171Y78952D01*
X98275Y78949D01*
X98417Y78968D01*
X98559Y78977D01*
X98661Y79000D01*
X98764Y79014D01*
X98901Y79055D01*
X99040Y79086D01*
X99137Y79126D01*
X99237Y79156D01*
X99365Y79219D01*
X99497Y79272D01*
X99586Y79327D01*
X99680Y79373D01*
X99796Y79455D01*
X99918Y79530D01*
X99997Y79598D01*
X100082Y79658D01*
X100184Y79759D01*
X100292Y79852D01*
X100359Y79932D01*
X100433Y80005D01*
X100517Y80120D01*
X100609Y80230D01*
X100647Y80298D01*
X100724Y80404D01*
X100919Y80791D01*
X100939Y80827D01*
X102458Y84494D01*
X105316Y87352D01*
X109050Y88899D01*
X113093Y88899D01*
X116827Y87352D01*
X119685Y84494D01*
X120992Y81338D01*
X121064Y81198D01*
X121128Y81054D01*
X121177Y80979D01*
X121217Y80899D01*
X121311Y80773D01*
X121397Y80640D01*
X121457Y80574D01*
X121510Y80502D01*
X121623Y80392D01*
X121729Y80276D01*
X121800Y80220D01*
X121863Y80158D01*
X121992Y80068D01*
X122116Y79970D01*
X122194Y79926D01*
X122267Y79875D01*
X122410Y79807D01*
X122547Y79730D01*
X122631Y79700D01*
X122712Y79661D01*
X122864Y79616D01*
X123012Y79563D01*
X123099Y79547D01*
X123185Y79521D01*
X123342Y79502D01*
X123497Y79473D01*
X123586Y79471D01*
X123675Y79460D01*
X123832Y79466D01*
X123990Y79463D01*
X124079Y79475D01*
X124168Y79479D01*
X124322Y79510D01*
X124478Y79532D01*
X124564Y79559D01*
X124651Y79576D01*
X124799Y79632D01*
X124949Y79679D01*
X125029Y79719D01*
X125113Y79751D01*
X125249Y79830D01*
X125390Y79900D01*
X125462Y79953D01*
X125540Y79998D01*
X125662Y80098D01*
X125790Y80190D01*
X125853Y80253D01*
X125922Y80310D01*
X126026Y80428D01*
X126137Y80540D01*
X126189Y80613D01*
X126248Y80680D01*
X126332Y80813D01*
X126424Y80942D01*
X126452Y81005D01*
X126511Y81098D01*
X126702Y81552D01*
X126704Y81559D01*
X126706Y81563D01*
X127055Y82638D01*
X127781Y84063D01*
X128721Y85357D01*
X129852Y86488D01*
X131146Y87428D01*
X132571Y88154D01*
X133424Y88431D01*
X133424Y71118D01*
X133424Y53804D01*
X132571Y54082D01*
X131146Y54808D01*
X129852Y55748D01*
X128721Y56879D01*
X127781Y58173D01*
X127055Y59598D01*
X126706Y60673D01*
X126645Y60819D01*
X126593Y60968D01*
X126550Y61046D01*
X126516Y61128D01*
X126432Y61262D01*
X126357Y61401D01*
X126302Y61471D01*
X126255Y61547D01*
X126151Y61666D01*
X126054Y61790D01*
X125989Y61851D01*
X125930Y61918D01*
X125808Y62018D01*
X125692Y62126D01*
X125618Y62175D01*
X125549Y62232D01*
X125413Y62311D01*
X125281Y62399D01*
X125200Y62435D01*
X125123Y62480D01*
X124976Y62537D01*
X124832Y62602D01*
X124745Y62625D01*
X124662Y62657D01*
X124507Y62688D01*
X124355Y62729D01*
X124266Y62738D01*
X124179Y62756D01*
X124021Y62763D01*
X123864Y62778D01*
X123775Y62773D01*
X123686Y62776D01*
X123529Y62757D01*
X123372Y62747D01*
X123285Y62728D01*
X123196Y62717D01*
X123045Y62673D01*
X122891Y62638D01*
X122808Y62604D01*
X122722Y62579D01*
X122580Y62511D01*
X122434Y62452D01*
X122358Y62405D01*
X122277Y62367D01*
X122148Y62277D01*
X122013Y62194D01*
X121945Y62136D01*
X121872Y62085D01*
X121759Y61975D01*
X121639Y61873D01*
X121582Y61804D01*
X121518Y61742D01*
X121423Y61615D01*
X121322Y61495D01*
X121289Y61434D01*
X121223Y61346D01*
X120996Y60908D01*
X120994Y60902D01*
X120992Y60898D01*
X119685Y57742D01*
X116827Y54884D01*
X113093Y53337D01*
X109050Y53337D01*
G37*
%LPD*%
%LPC*%
G36*
X398680Y172623D02*
X398680Y172623D01*
X396356Y173586D01*
X394578Y175364D01*
X393615Y177688D01*
X393615Y180204D01*
X394578Y182527D01*
X394981Y182930D01*
X395055Y183017D01*
X395136Y183098D01*
X395214Y183205D01*
X395300Y183306D01*
X395359Y183404D01*
X395426Y183496D01*
X395486Y183615D01*
X395555Y183729D01*
X395597Y183835D01*
X395649Y183937D01*
X395689Y184063D01*
X395738Y184187D01*
X395763Y184298D01*
X395797Y184407D01*
X395807Y184501D01*
X395845Y184668D01*
X395863Y184993D01*
X395873Y185085D01*
X395873Y373206D01*
X395867Y373282D01*
X395869Y373358D01*
X395847Y373527D01*
X395833Y373698D01*
X395815Y373772D01*
X395805Y373847D01*
X395756Y374011D01*
X395715Y374177D01*
X395685Y374246D01*
X395663Y374319D01*
X395587Y374473D01*
X395520Y374630D01*
X395479Y374694D01*
X395446Y374763D01*
X395347Y374902D01*
X395255Y375046D01*
X395204Y375103D01*
X395160Y375165D01*
X395040Y375286D01*
X394926Y375414D01*
X394867Y375462D01*
X394813Y375516D01*
X394675Y375617D01*
X394542Y375724D01*
X394476Y375761D01*
X394415Y375806D01*
X394262Y375883D01*
X394114Y375968D01*
X394042Y375994D01*
X393974Y376029D01*
X393811Y376080D01*
X393651Y376139D01*
X393576Y376154D01*
X393504Y376177D01*
X393399Y376189D01*
X393167Y376234D01*
X392931Y376241D01*
X392826Y376253D01*
X348663Y376253D01*
X347169Y376872D01*
X296025Y428015D01*
X295407Y429509D01*
X295407Y529134D01*
X295397Y529248D01*
X295398Y529362D01*
X295377Y529494D01*
X295367Y529626D01*
X295339Y529737D01*
X295321Y529849D01*
X295280Y529976D01*
X295248Y530105D01*
X295203Y530210D01*
X295167Y530318D01*
X295106Y530436D01*
X295053Y530558D01*
X294992Y530654D01*
X294939Y530756D01*
X294881Y530829D01*
X294788Y530974D01*
X294632Y531149D01*
X294619Y531168D01*
X294582Y531205D01*
X294572Y531216D01*
X294514Y531289D01*
X272025Y553778D01*
X271406Y555272D01*
X271406Y767677D01*
X271397Y767791D01*
X271398Y767905D01*
X271377Y768036D01*
X271367Y768169D01*
X271339Y768279D01*
X271321Y768392D01*
X271280Y768518D01*
X271248Y768647D01*
X271203Y768752D01*
X271167Y768861D01*
X271106Y768979D01*
X271053Y769101D01*
X270992Y769197D01*
X270939Y769298D01*
X270881Y769372D01*
X270788Y769517D01*
X270572Y769759D01*
X270514Y769832D01*
X270111Y770234D01*
X269148Y772558D01*
X269148Y775074D01*
X270111Y777398D01*
X271890Y779176D01*
X274214Y780139D01*
X276729Y780139D01*
X279053Y779176D01*
X280831Y777398D01*
X281794Y775074D01*
X281794Y772558D01*
X280831Y770234D01*
X280428Y769832D01*
X280355Y769745D01*
X280273Y769664D01*
X280195Y769557D01*
X280109Y769456D01*
X280050Y769358D01*
X279983Y769266D01*
X279923Y769147D01*
X279854Y769033D01*
X279812Y768927D01*
X279761Y768825D01*
X279721Y768698D01*
X279671Y768575D01*
X279647Y768464D01*
X279612Y768355D01*
X279602Y768261D01*
X279565Y768093D01*
X279546Y767769D01*
X279536Y767677D01*
X279536Y559026D01*
X279545Y558912D01*
X279544Y558798D01*
X279565Y558667D01*
X279576Y558534D01*
X279603Y558424D01*
X279621Y558311D01*
X279663Y558184D01*
X279695Y558056D01*
X279740Y557951D01*
X279775Y557842D01*
X279837Y557724D01*
X279889Y557602D01*
X279950Y557506D01*
X280003Y557405D01*
X280062Y557331D01*
X280154Y557186D01*
X280371Y556944D01*
X280428Y556871D01*
X302917Y534383D01*
X303536Y532889D01*
X303536Y433264D01*
X303545Y433150D01*
X303545Y433036D01*
X303565Y432904D01*
X303576Y432772D01*
X303604Y432661D01*
X303621Y432548D01*
X303663Y432422D01*
X303695Y432293D01*
X303740Y432188D01*
X303776Y432080D01*
X303837Y431962D01*
X303889Y431840D01*
X303951Y431744D01*
X304003Y431642D01*
X304062Y431569D01*
X304154Y431424D01*
X304371Y431182D01*
X304429Y431109D01*
X350263Y385275D01*
X350349Y385201D01*
X350430Y385120D01*
X350537Y385042D01*
X350638Y384956D01*
X350736Y384897D01*
X350829Y384830D01*
X350947Y384770D01*
X351061Y384701D01*
X351167Y384659D01*
X351269Y384607D01*
X351396Y384567D01*
X351519Y384518D01*
X351630Y384493D01*
X351740Y384459D01*
X351833Y384448D01*
X352001Y384411D01*
X352325Y384393D01*
X352417Y384383D01*
X400747Y384383D01*
X402241Y383764D01*
X403384Y382620D01*
X404003Y381127D01*
X404003Y185085D01*
X404012Y184971D01*
X404011Y184857D01*
X404032Y184725D01*
X404043Y184593D01*
X404070Y184483D01*
X404088Y184370D01*
X404129Y184243D01*
X404161Y184114D01*
X404206Y184009D01*
X404242Y183901D01*
X404303Y183783D01*
X404356Y183661D01*
X404417Y183565D01*
X404470Y183463D01*
X404529Y183390D01*
X404621Y183245D01*
X404837Y183003D01*
X404895Y182930D01*
X405298Y182527D01*
X406261Y180204D01*
X406261Y177688D01*
X405298Y175364D01*
X403520Y173586D01*
X401196Y172623D01*
X398680Y172623D01*
G37*
%LPD*%
%LPC*%
G36*
X472306Y641430D02*
X472306Y641430D01*
X469982Y642392D01*
X468204Y644171D01*
X467241Y646495D01*
X467241Y649010D01*
X468204Y651334D01*
X468607Y651737D01*
X468681Y651824D01*
X468762Y651904D01*
X468840Y652011D01*
X468926Y652113D01*
X468985Y652211D01*
X469052Y652303D01*
X469112Y652421D01*
X469181Y652535D01*
X469223Y652641D01*
X469275Y652743D01*
X469315Y652870D01*
X469364Y652993D01*
X469389Y653105D01*
X469423Y653214D01*
X469434Y653307D01*
X469471Y653475D01*
X469489Y653799D01*
X469499Y653891D01*
X469499Y795219D01*
X470118Y796713D01*
X484514Y811109D01*
X484588Y811196D01*
X484669Y811276D01*
X484747Y811384D01*
X484834Y811485D01*
X484893Y811583D01*
X484960Y811675D01*
X485019Y811794D01*
X485088Y811908D01*
X485131Y812014D01*
X485182Y812116D01*
X485222Y812242D01*
X485271Y812366D01*
X485296Y812477D01*
X485330Y812586D01*
X485341Y812680D01*
X485378Y812847D01*
X485396Y813172D01*
X485407Y813264D01*
X485407Y827372D01*
X485397Y827486D01*
X485398Y827600D01*
X485377Y827731D01*
X485367Y827864D01*
X485339Y827975D01*
X485321Y828087D01*
X485280Y828214D01*
X485248Y828343D01*
X485203Y828447D01*
X485167Y828556D01*
X485106Y828674D01*
X485053Y828796D01*
X484992Y828892D01*
X484939Y828994D01*
X484881Y829067D01*
X484788Y829212D01*
X484572Y829454D01*
X484514Y829527D01*
X441923Y872117D01*
X441836Y872191D01*
X441756Y872273D01*
X441649Y872351D01*
X441548Y872437D01*
X441450Y872496D01*
X441357Y872563D01*
X441239Y872623D01*
X441125Y872692D01*
X441019Y872734D01*
X440917Y872785D01*
X440790Y872825D01*
X440667Y872875D01*
X440556Y872899D01*
X440446Y872934D01*
X440353Y872944D01*
X440185Y872981D01*
X439861Y873000D01*
X439769Y873010D01*
X164617Y873010D01*
X164503Y873001D01*
X164389Y873001D01*
X164258Y872981D01*
X164125Y872970D01*
X164015Y872943D01*
X163902Y872925D01*
X163775Y872883D01*
X163647Y872851D01*
X163542Y872806D01*
X163433Y872771D01*
X163315Y872709D01*
X163193Y872657D01*
X163097Y872596D01*
X162996Y872543D01*
X162922Y872484D01*
X162777Y872392D01*
X162535Y872175D01*
X162462Y872117D01*
X133067Y842722D01*
X132994Y842636D01*
X132912Y842555D01*
X132834Y842448D01*
X132748Y842347D01*
X132689Y842249D01*
X132622Y842156D01*
X132562Y842038D01*
X132493Y841924D01*
X132451Y841818D01*
X132400Y841716D01*
X132360Y841589D01*
X132310Y841466D01*
X132286Y841355D01*
X132251Y841246D01*
X132241Y841152D01*
X132203Y840984D01*
X132185Y840660D01*
X132175Y840568D01*
X132175Y839998D01*
X131212Y837674D01*
X129434Y835896D01*
X127110Y834933D01*
X124594Y834933D01*
X122271Y835896D01*
X120492Y837674D01*
X119529Y839998D01*
X119529Y842513D01*
X120492Y844837D01*
X122271Y846616D01*
X124594Y847578D01*
X125164Y847578D01*
X125278Y847588D01*
X125392Y847587D01*
X125524Y847608D01*
X125656Y847618D01*
X125767Y847646D01*
X125880Y847664D01*
X126006Y847705D01*
X126135Y847737D01*
X126240Y847782D01*
X126348Y847818D01*
X126466Y847879D01*
X126588Y847932D01*
X126684Y847993D01*
X126786Y848046D01*
X126859Y848104D01*
X127004Y848197D01*
X127246Y848413D01*
X127319Y848471D01*
X159369Y880521D01*
X160863Y881139D01*
X443523Y881139D01*
X445017Y880521D01*
X492917Y832620D01*
X493536Y831127D01*
X493536Y809509D01*
X492917Y808015D01*
X478521Y793619D01*
X478447Y793533D01*
X478366Y793452D01*
X478288Y793345D01*
X478202Y793244D01*
X478143Y793146D01*
X478076Y793053D01*
X478016Y792935D01*
X477947Y792821D01*
X477905Y792715D01*
X477853Y792613D01*
X477813Y792486D01*
X477764Y792363D01*
X477740Y792252D01*
X477705Y792143D01*
X477695Y792049D01*
X477657Y791881D01*
X477639Y791557D01*
X477629Y791465D01*
X477629Y653891D01*
X477638Y653778D01*
X477637Y653663D01*
X477658Y653532D01*
X477669Y653400D01*
X477696Y653289D01*
X477714Y653176D01*
X477756Y653050D01*
X477787Y652921D01*
X477832Y652816D01*
X477868Y652707D01*
X477930Y652590D01*
X477982Y652467D01*
X478043Y652371D01*
X478096Y652270D01*
X478155Y652196D01*
X478247Y652051D01*
X478463Y651809D01*
X478521Y651737D01*
X478924Y651334D01*
X479887Y649010D01*
X479887Y646495D01*
X478924Y644171D01*
X477146Y642392D01*
X474822Y641430D01*
X472306Y641430D01*
G37*
%LPD*%
%LPC*%
G36*
X286103Y173316D02*
X286103Y173316D01*
X283779Y174279D01*
X282000Y176057D01*
X281038Y178381D01*
X281038Y178951D01*
X281028Y179065D01*
X281029Y179179D01*
X281008Y179310D01*
X280998Y179443D01*
X280970Y179553D01*
X280952Y179666D01*
X280911Y179793D01*
X280879Y179921D01*
X280834Y180026D01*
X280798Y180135D01*
X280737Y180253D01*
X280684Y180375D01*
X280623Y180471D01*
X280570Y180572D01*
X280512Y180646D01*
X280419Y180791D01*
X280203Y181033D01*
X280145Y181106D01*
X276025Y185225D01*
X275407Y186719D01*
X275407Y528548D01*
X275397Y528661D01*
X275398Y528776D01*
X275377Y528907D01*
X275367Y529039D01*
X275339Y529150D01*
X275321Y529263D01*
X275280Y529389D01*
X275248Y529518D01*
X275203Y529623D01*
X275167Y529732D01*
X275106Y529849D01*
X275053Y529971D01*
X274992Y530068D01*
X274939Y530169D01*
X274881Y530243D01*
X274788Y530388D01*
X274572Y530630D01*
X274514Y530702D01*
X253707Y551510D01*
X253088Y553004D01*
X253088Y741036D01*
X253079Y741150D01*
X253079Y741264D01*
X253059Y741396D01*
X253048Y741528D01*
X253021Y741639D01*
X253003Y741752D01*
X252961Y741878D01*
X252929Y742007D01*
X252884Y742112D01*
X252849Y742220D01*
X252787Y742338D01*
X252735Y742460D01*
X252673Y742556D01*
X252621Y742658D01*
X252562Y742731D01*
X252470Y742876D01*
X252253Y743118D01*
X252195Y743191D01*
X251793Y743594D01*
X250830Y745918D01*
X250830Y748433D01*
X251793Y750757D01*
X253571Y752536D01*
X255895Y753498D01*
X258410Y753498D01*
X260734Y752536D01*
X262513Y750757D01*
X263475Y748433D01*
X263475Y745918D01*
X262513Y743594D01*
X262110Y743191D01*
X262036Y743104D01*
X261955Y743024D01*
X261877Y742916D01*
X261791Y742815D01*
X261732Y742717D01*
X261664Y742625D01*
X261605Y742506D01*
X261536Y742393D01*
X261493Y742286D01*
X261442Y742184D01*
X261402Y742058D01*
X261353Y741934D01*
X261328Y741823D01*
X261294Y741714D01*
X261283Y741621D01*
X261246Y741453D01*
X261228Y741128D01*
X261217Y741036D01*
X261217Y556758D01*
X261227Y556644D01*
X261226Y556530D01*
X261247Y556399D01*
X261257Y556266D01*
X261285Y556156D01*
X261303Y556043D01*
X261344Y555916D01*
X261376Y555787D01*
X261421Y555683D01*
X261457Y555574D01*
X261518Y555456D01*
X261571Y555334D01*
X261632Y555238D01*
X261685Y555136D01*
X261743Y555063D01*
X261836Y554918D01*
X262052Y554676D01*
X262110Y554603D01*
X281345Y535368D01*
X282917Y533796D01*
X283536Y532302D01*
X283536Y190474D01*
X283545Y190360D01*
X283545Y190246D01*
X283565Y190114D01*
X283576Y189982D01*
X283604Y189871D01*
X283621Y189758D01*
X283663Y189632D01*
X283695Y189503D01*
X283740Y189398D01*
X283776Y189290D01*
X283837Y189172D01*
X283889Y189050D01*
X283951Y188953D01*
X284003Y188852D01*
X284062Y188779D01*
X284154Y188634D01*
X284371Y188391D01*
X284429Y188319D01*
X285893Y186854D01*
X285980Y186780D01*
X286061Y186699D01*
X286168Y186621D01*
X286269Y186535D01*
X286367Y186476D01*
X286459Y186408D01*
X286578Y186349D01*
X286692Y186280D01*
X286798Y186238D01*
X286900Y186186D01*
X287027Y186146D01*
X287150Y186097D01*
X287261Y186072D01*
X287370Y186038D01*
X287464Y186027D01*
X287632Y185990D01*
X287956Y185972D01*
X288048Y185962D01*
X288618Y185962D01*
X290942Y184999D01*
X292720Y183220D01*
X293683Y180897D01*
X293683Y178381D01*
X292720Y176057D01*
X290942Y174279D01*
X288618Y173316D01*
X286103Y173316D01*
G37*
%LPD*%
%LPC*%
G36*
X230046Y52557D02*
X230046Y52557D01*
X227722Y53519D01*
X225944Y55298D01*
X224981Y57622D01*
X224981Y60137D01*
X225944Y62461D01*
X226347Y62864D01*
X226421Y62951D01*
X226502Y63031D01*
X226580Y63138D01*
X226666Y63240D01*
X226725Y63338D01*
X226792Y63430D01*
X226852Y63548D01*
X226921Y63662D01*
X226963Y63768D01*
X227015Y63870D01*
X227054Y63997D01*
X227104Y64120D01*
X227128Y64232D01*
X227163Y64341D01*
X227173Y64434D01*
X227211Y64602D01*
X227229Y64926D01*
X227239Y65018D01*
X227239Y245296D01*
X227858Y246790D01*
X253819Y272752D01*
X253893Y272839D01*
X253975Y272919D01*
X254053Y273026D01*
X254139Y273128D01*
X254198Y273226D01*
X254265Y273318D01*
X254325Y273436D01*
X254394Y273550D01*
X254436Y273656D01*
X254487Y273758D01*
X254527Y273885D01*
X254577Y274008D01*
X254601Y274120D01*
X254636Y274229D01*
X254646Y274322D01*
X254683Y274490D01*
X254702Y274814D01*
X254712Y274907D01*
X254712Y275476D01*
X255675Y277800D01*
X257453Y279579D01*
X259777Y280541D01*
X262292Y280541D01*
X264616Y279579D01*
X266395Y277800D01*
X267357Y275476D01*
X267357Y272961D01*
X266395Y270637D01*
X264616Y268858D01*
X262292Y267896D01*
X261723Y267896D01*
X261609Y267887D01*
X261495Y267887D01*
X261363Y267867D01*
X261231Y267856D01*
X261120Y267828D01*
X261007Y267811D01*
X260881Y267769D01*
X260752Y267737D01*
X260647Y267692D01*
X260539Y267656D01*
X260421Y267595D01*
X260299Y267543D01*
X260202Y267481D01*
X260101Y267429D01*
X260028Y267370D01*
X259883Y267278D01*
X259640Y267061D01*
X259568Y267003D01*
X236261Y243697D01*
X236187Y243610D01*
X236106Y243529D01*
X236028Y243422D01*
X235942Y243321D01*
X235883Y243223D01*
X235816Y243131D01*
X235756Y243012D01*
X235687Y242898D01*
X235645Y242792D01*
X235593Y242690D01*
X235553Y242563D01*
X235504Y242440D01*
X235479Y242329D01*
X235445Y242220D01*
X235434Y242126D01*
X235397Y241958D01*
X235379Y241634D01*
X235369Y241542D01*
X235369Y198877D01*
X235372Y198839D01*
X235370Y198801D01*
X235392Y198593D01*
X235409Y198385D01*
X235418Y198348D01*
X235422Y198310D01*
X235477Y198109D01*
X235527Y197906D01*
X235542Y197871D01*
X235552Y197834D01*
X235639Y197645D01*
X235722Y197453D01*
X235742Y197421D01*
X235758Y197386D01*
X235875Y197212D01*
X235987Y197037D01*
X236012Y197008D01*
X236034Y196977D01*
X236177Y196824D01*
X236316Y196669D01*
X236345Y196645D01*
X236371Y196617D01*
X236537Y196490D01*
X236699Y196359D01*
X236732Y196340D01*
X236763Y196317D01*
X236947Y196218D01*
X237128Y196115D01*
X237164Y196102D01*
X237198Y196084D01*
X237395Y196016D01*
X237591Y195943D01*
X237628Y195936D01*
X237664Y195924D01*
X237870Y195889D01*
X238075Y195849D01*
X238113Y195848D01*
X238151Y195841D01*
X238360Y195840D01*
X238568Y195833D01*
X238606Y195838D01*
X238644Y195838D01*
X238851Y195871D01*
X239057Y195898D01*
X239094Y195909D01*
X239131Y195915D01*
X239329Y195980D01*
X239529Y196040D01*
X239564Y196057D01*
X239600Y196069D01*
X239785Y196165D01*
X239972Y196257D01*
X240004Y196279D01*
X240037Y196297D01*
X240110Y196355D01*
X240375Y196543D01*
X240497Y196663D01*
X240571Y196722D01*
X241426Y197578D01*
X243750Y198541D01*
X246266Y198541D01*
X248590Y197578D01*
X250368Y195799D01*
X251331Y193475D01*
X251331Y192906D01*
X251340Y192792D01*
X251339Y192678D01*
X251360Y192546D01*
X251371Y192414D01*
X251398Y192303D01*
X251416Y192190D01*
X251457Y192064D01*
X251489Y191935D01*
X251534Y191830D01*
X251570Y191722D01*
X251631Y191604D01*
X251684Y191482D01*
X251745Y191386D01*
X251798Y191284D01*
X251857Y191211D01*
X251949Y191066D01*
X252165Y190823D01*
X252223Y190751D01*
X277699Y165275D01*
X277786Y165201D01*
X277866Y165120D01*
X277974Y165042D01*
X278075Y164956D01*
X278173Y164897D01*
X278265Y164830D01*
X278383Y164770D01*
X278497Y164701D01*
X278604Y164659D01*
X278705Y164607D01*
X278832Y164567D01*
X278956Y164518D01*
X279067Y164493D01*
X279176Y164459D01*
X279269Y164448D01*
X279437Y164411D01*
X279761Y164393D01*
X279854Y164383D01*
X296525Y164383D01*
X296639Y164392D01*
X296753Y164391D01*
X296885Y164412D01*
X297017Y164423D01*
X297128Y164450D01*
X297241Y164468D01*
X297367Y164509D01*
X297496Y164541D01*
X297601Y164586D01*
X297709Y164622D01*
X297827Y164684D01*
X297949Y164736D01*
X298046Y164797D01*
X298147Y164850D01*
X298221Y164909D01*
X298365Y165001D01*
X298608Y165217D01*
X298680Y165275D01*
X312984Y179579D01*
X313058Y179666D01*
X313139Y179747D01*
X313218Y179854D01*
X313304Y179955D01*
X313363Y180053D01*
X313430Y180145D01*
X313490Y180264D01*
X313558Y180378D01*
X313601Y180484D01*
X313652Y180586D01*
X313692Y180713D01*
X313741Y180836D01*
X313766Y180947D01*
X313800Y181056D01*
X313811Y181150D01*
X313848Y181317D01*
X313857Y181479D01*
X313858Y181481D01*
X313858Y181491D01*
X313866Y181642D01*
X313877Y181734D01*
X313877Y288057D01*
X313868Y288171D01*
X313868Y288285D01*
X313848Y288416D01*
X313837Y288549D01*
X313809Y288659D01*
X313792Y288772D01*
X313750Y288899D01*
X313718Y289028D01*
X313673Y289132D01*
X313637Y289241D01*
X313576Y289359D01*
X313524Y289481D01*
X313462Y289577D01*
X313410Y289679D01*
X313351Y289752D01*
X313259Y289897D01*
X313042Y290139D01*
X312984Y290212D01*
X312581Y290615D01*
X311619Y292938D01*
X311619Y295454D01*
X312581Y297778D01*
X314360Y299556D01*
X316684Y300519D01*
X319199Y300519D01*
X321523Y299556D01*
X323302Y297778D01*
X324264Y295454D01*
X324264Y292938D01*
X323302Y290615D01*
X322899Y290212D01*
X322825Y290125D01*
X322744Y290044D01*
X322665Y289937D01*
X322579Y289836D01*
X322520Y289738D01*
X322453Y289646D01*
X322393Y289527D01*
X322325Y289413D01*
X322282Y289307D01*
X322231Y289205D01*
X322191Y289078D01*
X322142Y288955D01*
X322117Y288844D01*
X322083Y288735D01*
X322072Y288641D01*
X322035Y288473D01*
X322017Y288149D01*
X322006Y288057D01*
X322006Y177980D01*
X321387Y176486D01*
X301774Y156872D01*
X300280Y156253D01*
X276099Y156253D01*
X274605Y156872D01*
X246475Y185003D01*
X246388Y185076D01*
X246308Y185158D01*
X246200Y185236D01*
X246099Y185322D01*
X246001Y185381D01*
X245909Y185448D01*
X245790Y185508D01*
X245676Y185577D01*
X245570Y185619D01*
X245468Y185670D01*
X245341Y185710D01*
X245218Y185760D01*
X245107Y185784D01*
X244998Y185819D01*
X244904Y185829D01*
X244737Y185866D01*
X244412Y185885D01*
X244320Y185895D01*
X243750Y185895D01*
X241426Y186858D01*
X240571Y187713D01*
X240542Y187738D01*
X240516Y187767D01*
X240354Y187898D01*
X240195Y188033D01*
X240162Y188053D01*
X240132Y188077D01*
X239951Y188180D01*
X239772Y188288D01*
X239737Y188302D01*
X239704Y188321D01*
X239508Y188393D01*
X239314Y188471D01*
X239277Y188479D01*
X239241Y188492D01*
X239037Y188532D01*
X238832Y188577D01*
X238794Y188580D01*
X238757Y188587D01*
X238549Y188593D01*
X238340Y188605D01*
X238302Y188601D01*
X238264Y188602D01*
X238058Y188575D01*
X237849Y188553D01*
X237812Y188543D01*
X237775Y188538D01*
X237575Y188477D01*
X237374Y188422D01*
X237339Y188406D01*
X237302Y188395D01*
X237115Y188303D01*
X236925Y188216D01*
X236893Y188195D01*
X236859Y188178D01*
X236689Y188058D01*
X236516Y187941D01*
X236488Y187915D01*
X236457Y187893D01*
X236308Y187746D01*
X236156Y187603D01*
X236133Y187573D01*
X236106Y187546D01*
X235983Y187378D01*
X235856Y187212D01*
X235838Y187178D01*
X235816Y187147D01*
X235722Y186961D01*
X235623Y186777D01*
X235610Y186741D01*
X235593Y186707D01*
X235530Y186507D01*
X235463Y186310D01*
X235456Y186273D01*
X235445Y186236D01*
X235434Y186144D01*
X235380Y185824D01*
X235379Y185652D01*
X235369Y185559D01*
X235369Y65018D01*
X235378Y64905D01*
X235377Y64790D01*
X235398Y64659D01*
X235409Y64527D01*
X235436Y64416D01*
X235454Y64303D01*
X235495Y64177D01*
X235527Y64048D01*
X235572Y63943D01*
X235608Y63834D01*
X235669Y63717D01*
X235722Y63595D01*
X235783Y63498D01*
X235836Y63397D01*
X235895Y63323D01*
X235987Y63178D01*
X236203Y62936D01*
X236261Y62864D01*
X236664Y62461D01*
X237627Y60137D01*
X237627Y57622D01*
X236664Y55298D01*
X234885Y53519D01*
X232562Y52557D01*
X230046Y52557D01*
G37*
%LPD*%
%LPC*%
G36*
X144558Y725986D02*
X144558Y725986D01*
X142234Y726948D01*
X140455Y728727D01*
X139493Y731051D01*
X139493Y733566D01*
X140455Y735890D01*
X140858Y736293D01*
X140932Y736380D01*
X141013Y736460D01*
X141091Y736567D01*
X141178Y736669D01*
X141237Y736767D01*
X141304Y736859D01*
X141363Y736977D01*
X141432Y737091D01*
X141475Y737197D01*
X141526Y737299D01*
X141566Y737426D01*
X141615Y737549D01*
X141640Y737661D01*
X141674Y737770D01*
X141685Y737863D01*
X141722Y738031D01*
X141740Y738355D01*
X141751Y738448D01*
X141751Y817470D01*
X142369Y818964D01*
X187169Y863764D01*
X188663Y864383D01*
X430280Y864383D01*
X431774Y863764D01*
X452917Y842620D01*
X453536Y841127D01*
X453536Y816457D01*
X453545Y816343D01*
X453545Y816229D01*
X453565Y816098D01*
X453576Y815965D01*
X453604Y815855D01*
X453621Y815742D01*
X453663Y815615D01*
X453695Y815487D01*
X453740Y815382D01*
X453776Y815273D01*
X453837Y815155D01*
X453889Y815033D01*
X453951Y814937D01*
X454003Y814836D01*
X454062Y814762D01*
X454154Y814617D01*
X454371Y814375D01*
X454429Y814302D01*
X454832Y813900D01*
X455794Y811576D01*
X455794Y809060D01*
X454832Y806736D01*
X453053Y804958D01*
X450729Y803995D01*
X448214Y803995D01*
X445890Y804958D01*
X444111Y806736D01*
X443149Y809060D01*
X443149Y811576D01*
X444111Y813900D01*
X444514Y814302D01*
X444588Y814389D01*
X444669Y814470D01*
X444747Y814577D01*
X444834Y814678D01*
X444893Y814776D01*
X444960Y814868D01*
X445019Y814987D01*
X445088Y815101D01*
X445131Y815207D01*
X445182Y815309D01*
X445222Y815436D01*
X445271Y815559D01*
X445296Y815670D01*
X445330Y815779D01*
X445341Y815873D01*
X445378Y816041D01*
X445396Y816365D01*
X445407Y816457D01*
X445407Y837372D01*
X445397Y837486D01*
X445398Y837600D01*
X445377Y837731D01*
X445367Y837864D01*
X445339Y837975D01*
X445321Y838087D01*
X445280Y838214D01*
X445248Y838343D01*
X445203Y838447D01*
X445167Y838556D01*
X445106Y838674D01*
X445053Y838796D01*
X444992Y838892D01*
X444939Y838994D01*
X444881Y839067D01*
X444788Y839212D01*
X444572Y839454D01*
X444514Y839527D01*
X428680Y855361D01*
X428593Y855435D01*
X428513Y855516D01*
X428406Y855594D01*
X428304Y855680D01*
X428206Y855739D01*
X428114Y855806D01*
X427996Y855866D01*
X427882Y855935D01*
X427776Y855977D01*
X427674Y856029D01*
X427547Y856069D01*
X427424Y856118D01*
X427312Y856143D01*
X427203Y856177D01*
X427110Y856187D01*
X426942Y856225D01*
X426618Y856243D01*
X426525Y856253D01*
X192417Y856253D01*
X192304Y856244D01*
X192189Y856245D01*
X192058Y856224D01*
X191926Y856213D01*
X191815Y856186D01*
X191702Y856168D01*
X191576Y856127D01*
X191447Y856095D01*
X191342Y856050D01*
X191233Y856014D01*
X191115Y855952D01*
X190993Y855900D01*
X190897Y855839D01*
X190796Y855786D01*
X190722Y855727D01*
X190577Y855635D01*
X190335Y855419D01*
X190263Y855361D01*
X150773Y815871D01*
X150699Y815784D01*
X150617Y815703D01*
X150539Y815596D01*
X150453Y815495D01*
X150394Y815397D01*
X150327Y815305D01*
X150267Y815186D01*
X150198Y815072D01*
X150156Y814966D01*
X150105Y814864D01*
X150065Y814737D01*
X150015Y814614D01*
X149991Y814503D01*
X149956Y814394D01*
X149946Y814300D01*
X149909Y814133D01*
X149890Y813808D01*
X149880Y813716D01*
X149880Y738448D01*
X149889Y738334D01*
X149889Y738220D01*
X149909Y738088D01*
X149920Y737956D01*
X149947Y737845D01*
X149965Y737732D01*
X150007Y737606D01*
X150039Y737477D01*
X150084Y737372D01*
X150119Y737264D01*
X150181Y737146D01*
X150233Y737024D01*
X150295Y736927D01*
X150347Y736826D01*
X150406Y736752D01*
X150498Y736608D01*
X150715Y736365D01*
X150773Y736293D01*
X151175Y735890D01*
X152138Y733566D01*
X152138Y731051D01*
X151175Y728727D01*
X149397Y726948D01*
X147073Y725986D01*
X144558Y725986D01*
G37*
%LPD*%
%LPC*%
G36*
X414966Y635887D02*
X414966Y635887D01*
X411261Y637422D01*
X408425Y640258D01*
X406891Y643963D01*
X406891Y647973D01*
X408425Y651678D01*
X411261Y654514D01*
X414493Y655853D01*
X414527Y655870D01*
X414563Y655883D01*
X414747Y655983D01*
X414932Y656078D01*
X414963Y656100D01*
X414996Y656119D01*
X415161Y656247D01*
X415329Y656371D01*
X415355Y656398D01*
X415386Y656421D01*
X415528Y656575D01*
X415673Y656724D01*
X415695Y656755D01*
X415721Y656783D01*
X415837Y656957D01*
X415956Y657128D01*
X415973Y657162D01*
X415994Y657194D01*
X416080Y657384D01*
X416170Y657572D01*
X416181Y657609D01*
X416197Y657644D01*
X416251Y657845D01*
X416310Y658046D01*
X416315Y658084D01*
X416324Y658120D01*
X416345Y658328D01*
X416371Y658535D01*
X416370Y658573D01*
X416374Y658611D01*
X416361Y658820D01*
X416353Y659028D01*
X416345Y659066D01*
X416343Y659104D01*
X416296Y659307D01*
X416255Y659512D01*
X416241Y659547D01*
X416233Y659585D01*
X416154Y659778D01*
X416080Y659973D01*
X416061Y660006D01*
X416047Y660042D01*
X415938Y660219D01*
X415834Y660400D01*
X415810Y660430D01*
X415790Y660462D01*
X415653Y660621D01*
X415521Y660782D01*
X415493Y660807D01*
X415468Y660836D01*
X415308Y660971D01*
X415151Y661109D01*
X415119Y661129D01*
X415090Y661153D01*
X415008Y661199D01*
X414734Y661371D01*
X414575Y661438D01*
X414493Y661483D01*
X411261Y662822D01*
X408425Y665658D01*
X406891Y669363D01*
X406891Y673373D01*
X408425Y677078D01*
X411261Y679914D01*
X414493Y681253D01*
X414527Y681270D01*
X414563Y681283D01*
X414747Y681383D01*
X414932Y681478D01*
X414963Y681500D01*
X414996Y681519D01*
X415161Y681647D01*
X415329Y681771D01*
X415355Y681798D01*
X415386Y681821D01*
X415528Y681975D01*
X415673Y682124D01*
X415695Y682155D01*
X415721Y682183D01*
X415837Y682357D01*
X415956Y682528D01*
X415973Y682562D01*
X415994Y682594D01*
X416080Y682784D01*
X416170Y682972D01*
X416181Y683009D01*
X416197Y683044D01*
X416251Y683245D01*
X416310Y683446D01*
X416315Y683484D01*
X416324Y683520D01*
X416345Y683728D01*
X416371Y683935D01*
X416370Y683973D01*
X416374Y684011D01*
X416361Y684220D01*
X416353Y684428D01*
X416345Y684466D01*
X416343Y684504D01*
X416296Y684707D01*
X416255Y684912D01*
X416241Y684947D01*
X416233Y684985D01*
X416154Y685178D01*
X416080Y685373D01*
X416061Y685406D01*
X416047Y685442D01*
X415938Y685619D01*
X415834Y685800D01*
X415810Y685830D01*
X415790Y685862D01*
X415653Y686021D01*
X415521Y686182D01*
X415493Y686207D01*
X415468Y686236D01*
X415308Y686371D01*
X415151Y686509D01*
X415119Y686529D01*
X415090Y686553D01*
X415008Y686599D01*
X414734Y686771D01*
X414575Y686838D01*
X414493Y686883D01*
X411261Y688222D01*
X408425Y691058D01*
X406891Y694763D01*
X406891Y698773D01*
X408425Y702478D01*
X411261Y705314D01*
X414493Y706653D01*
X414527Y706670D01*
X414563Y706683D01*
X414747Y706783D01*
X414932Y706878D01*
X414963Y706900D01*
X414996Y706919D01*
X415161Y707047D01*
X415329Y707171D01*
X415355Y707198D01*
X415386Y707221D01*
X415528Y707375D01*
X415673Y707524D01*
X415695Y707555D01*
X415721Y707583D01*
X415837Y707757D01*
X415956Y707928D01*
X415973Y707962D01*
X415994Y707994D01*
X416080Y708184D01*
X416170Y708372D01*
X416181Y708409D01*
X416197Y708444D01*
X416251Y708645D01*
X416310Y708846D01*
X416315Y708884D01*
X416324Y708920D01*
X416345Y709128D01*
X416371Y709335D01*
X416370Y709373D01*
X416374Y709411D01*
X416361Y709620D01*
X416353Y709828D01*
X416345Y709866D01*
X416343Y709904D01*
X416296Y710107D01*
X416255Y710312D01*
X416241Y710347D01*
X416233Y710385D01*
X416154Y710578D01*
X416080Y710773D01*
X416061Y710806D01*
X416047Y710842D01*
X415938Y711019D01*
X415834Y711200D01*
X415810Y711230D01*
X415790Y711262D01*
X415653Y711421D01*
X415521Y711582D01*
X415493Y711607D01*
X415468Y711636D01*
X415308Y711771D01*
X415151Y711909D01*
X415119Y711929D01*
X415090Y711953D01*
X415008Y711999D01*
X414734Y712171D01*
X414575Y712238D01*
X414493Y712283D01*
X411261Y713622D01*
X408425Y716458D01*
X406891Y720163D01*
X406891Y724173D01*
X408425Y727878D01*
X411261Y730714D01*
X414493Y732053D01*
X414527Y732070D01*
X414563Y732083D01*
X414747Y732183D01*
X414932Y732278D01*
X414963Y732300D01*
X414996Y732319D01*
X415161Y732447D01*
X415329Y732571D01*
X415355Y732598D01*
X415386Y732621D01*
X415528Y732775D01*
X415673Y732924D01*
X415695Y732955D01*
X415721Y732983D01*
X415837Y733157D01*
X415956Y733328D01*
X415973Y733362D01*
X415994Y733394D01*
X416080Y733584D01*
X416170Y733772D01*
X416181Y733809D01*
X416197Y733844D01*
X416251Y734045D01*
X416310Y734246D01*
X416315Y734284D01*
X416324Y734320D01*
X416345Y734528D01*
X416371Y734735D01*
X416370Y734773D01*
X416374Y734811D01*
X416361Y735020D01*
X416353Y735228D01*
X416345Y735266D01*
X416343Y735304D01*
X416296Y735507D01*
X416255Y735712D01*
X416241Y735747D01*
X416233Y735785D01*
X416154Y735978D01*
X416080Y736173D01*
X416061Y736206D01*
X416047Y736242D01*
X415938Y736419D01*
X415834Y736600D01*
X415810Y736630D01*
X415790Y736662D01*
X415653Y736821D01*
X415521Y736982D01*
X415493Y737007D01*
X415468Y737036D01*
X415308Y737171D01*
X415151Y737309D01*
X415119Y737329D01*
X415090Y737353D01*
X415008Y737399D01*
X414734Y737571D01*
X414575Y737638D01*
X414493Y737683D01*
X411261Y739022D01*
X408425Y741858D01*
X406891Y745563D01*
X406891Y749573D01*
X408425Y753278D01*
X411261Y756114D01*
X414493Y757453D01*
X414527Y757470D01*
X414563Y757483D01*
X414747Y757583D01*
X414932Y757678D01*
X414963Y757700D01*
X414996Y757719D01*
X415161Y757847D01*
X415329Y757971D01*
X415355Y757998D01*
X415386Y758021D01*
X415528Y758175D01*
X415673Y758324D01*
X415695Y758355D01*
X415721Y758383D01*
X415837Y758557D01*
X415956Y758728D01*
X415973Y758762D01*
X415994Y758794D01*
X416080Y758984D01*
X416170Y759172D01*
X416181Y759209D01*
X416197Y759244D01*
X416251Y759445D01*
X416310Y759646D01*
X416315Y759684D01*
X416324Y759720D01*
X416345Y759928D01*
X416371Y760135D01*
X416370Y760173D01*
X416374Y760211D01*
X416361Y760420D01*
X416353Y760628D01*
X416345Y760666D01*
X416343Y760704D01*
X416296Y760907D01*
X416255Y761112D01*
X416241Y761147D01*
X416233Y761185D01*
X416154Y761378D01*
X416080Y761573D01*
X416061Y761606D01*
X416047Y761642D01*
X415938Y761819D01*
X415834Y762000D01*
X415810Y762030D01*
X415790Y762062D01*
X415653Y762221D01*
X415521Y762382D01*
X415493Y762407D01*
X415468Y762436D01*
X415308Y762571D01*
X415151Y762709D01*
X415119Y762729D01*
X415090Y762753D01*
X415008Y762799D01*
X414734Y762971D01*
X414575Y763038D01*
X414493Y763083D01*
X411261Y764422D01*
X408425Y767258D01*
X406891Y770963D01*
X406891Y774973D01*
X408425Y778678D01*
X411261Y781514D01*
X414493Y782853D01*
X414527Y782870D01*
X414563Y782883D01*
X414746Y782983D01*
X414932Y783078D01*
X414963Y783100D01*
X414996Y783119D01*
X415161Y783247D01*
X415329Y783371D01*
X415356Y783398D01*
X415386Y783421D01*
X415528Y783575D01*
X415673Y783724D01*
X415695Y783755D01*
X415721Y783783D01*
X415837Y783957D01*
X415956Y784128D01*
X415973Y784162D01*
X415994Y784194D01*
X416080Y784384D01*
X416170Y784572D01*
X416181Y784609D01*
X416197Y784644D01*
X416251Y784846D01*
X416310Y785046D01*
X416315Y785083D01*
X416325Y785120D01*
X416345Y785329D01*
X416371Y785535D01*
X416370Y785573D01*
X416374Y785611D01*
X416361Y785820D01*
X416353Y786028D01*
X416345Y786066D01*
X416343Y786104D01*
X416296Y786307D01*
X416255Y786512D01*
X416241Y786547D01*
X416233Y786585D01*
X416154Y786778D01*
X416080Y786973D01*
X416061Y787006D01*
X416047Y787042D01*
X415938Y787219D01*
X415834Y787400D01*
X415810Y787430D01*
X415790Y787462D01*
X415654Y787621D01*
X415521Y787782D01*
X415493Y787807D01*
X415468Y787836D01*
X415308Y787971D01*
X415151Y788109D01*
X415119Y788129D01*
X415090Y788153D01*
X415008Y788199D01*
X414734Y788371D01*
X414575Y788438D01*
X414493Y788483D01*
X411261Y789822D01*
X408425Y792658D01*
X406891Y796363D01*
X406891Y800373D01*
X408425Y804078D01*
X411261Y806914D01*
X414493Y808253D01*
X414527Y808270D01*
X414563Y808283D01*
X414746Y808382D01*
X414932Y808478D01*
X414963Y808500D01*
X414996Y808519D01*
X415161Y808647D01*
X415329Y808771D01*
X415356Y808798D01*
X415386Y808821D01*
X415527Y808974D01*
X415673Y809124D01*
X415695Y809155D01*
X415721Y809183D01*
X415836Y809357D01*
X415956Y809528D01*
X415973Y809562D01*
X415994Y809594D01*
X416080Y809784D01*
X416170Y809972D01*
X416181Y810009D01*
X416197Y810044D01*
X416251Y810245D01*
X416310Y810446D01*
X416315Y810484D01*
X416324Y810520D01*
X416345Y810728D01*
X416371Y810935D01*
X416370Y810973D01*
X416374Y811011D01*
X416361Y811220D01*
X416353Y811428D01*
X416345Y811466D01*
X416343Y811504D01*
X416296Y811707D01*
X416255Y811912D01*
X416241Y811948D01*
X416233Y811985D01*
X416154Y812177D01*
X416080Y812373D01*
X416061Y812406D01*
X416047Y812441D01*
X415938Y812619D01*
X415834Y812800D01*
X415810Y812830D01*
X415790Y812862D01*
X415654Y813020D01*
X415521Y813182D01*
X415493Y813207D01*
X415468Y813236D01*
X415308Y813370D01*
X415151Y813509D01*
X415119Y813529D01*
X415090Y813553D01*
X415009Y813598D01*
X414734Y813771D01*
X414575Y813838D01*
X414493Y813883D01*
X411261Y815222D01*
X408425Y818058D01*
X406891Y821763D01*
X406891Y825773D01*
X408425Y829478D01*
X411261Y832314D01*
X414966Y833849D01*
X418977Y833849D01*
X422682Y832314D01*
X425517Y829478D01*
X427052Y825773D01*
X427052Y821763D01*
X425517Y818058D01*
X422682Y815222D01*
X419450Y813883D01*
X419416Y813866D01*
X419380Y813853D01*
X419196Y813753D01*
X419011Y813658D01*
X418980Y813636D01*
X418947Y813617D01*
X418781Y813489D01*
X418614Y813365D01*
X418587Y813338D01*
X418557Y813315D01*
X418415Y813161D01*
X418269Y813012D01*
X418248Y812981D01*
X418222Y812953D01*
X418106Y812778D01*
X417986Y812608D01*
X417970Y812574D01*
X417949Y812542D01*
X417863Y812352D01*
X417772Y812163D01*
X417762Y812127D01*
X417746Y812092D01*
X417692Y811890D01*
X417633Y811690D01*
X417628Y811652D01*
X417618Y811616D01*
X417598Y811408D01*
X417572Y811201D01*
X417573Y811163D01*
X417569Y811125D01*
X417582Y810916D01*
X417590Y810708D01*
X417598Y810670D01*
X417600Y810632D01*
X417646Y810429D01*
X417688Y810224D01*
X417701Y810189D01*
X417710Y810151D01*
X417788Y809958D01*
X417862Y809763D01*
X417881Y809730D01*
X417896Y809694D01*
X418005Y809516D01*
X418109Y809336D01*
X418133Y809306D01*
X418153Y809273D01*
X418289Y809115D01*
X418421Y808954D01*
X418450Y808928D01*
X418475Y808900D01*
X418635Y808765D01*
X418791Y808627D01*
X418824Y808607D01*
X418853Y808583D01*
X418935Y808537D01*
X419209Y808365D01*
X419367Y808298D01*
X419450Y808253D01*
X422682Y806914D01*
X425517Y804078D01*
X427052Y800373D01*
X427052Y796363D01*
X425517Y792658D01*
X422682Y789822D01*
X419450Y788483D01*
X419416Y788466D01*
X419380Y788453D01*
X419197Y788354D01*
X419011Y788258D01*
X418980Y788236D01*
X418947Y788217D01*
X418782Y788090D01*
X418614Y787965D01*
X418587Y787938D01*
X418557Y787915D01*
X418415Y787762D01*
X418269Y787612D01*
X418248Y787581D01*
X418222Y787553D01*
X418106Y787379D01*
X417986Y787208D01*
X417970Y787174D01*
X417949Y787142D01*
X417863Y786951D01*
X417772Y786763D01*
X417762Y786727D01*
X417746Y786692D01*
X417692Y786491D01*
X417633Y786290D01*
X417628Y786252D01*
X417618Y786216D01*
X417598Y786008D01*
X417572Y785801D01*
X417573Y785763D01*
X417569Y785725D01*
X417582Y785516D01*
X417590Y785308D01*
X417598Y785270D01*
X417600Y785232D01*
X417646Y785029D01*
X417688Y784824D01*
X417701Y784789D01*
X417710Y784751D01*
X417789Y784558D01*
X417862Y784363D01*
X417881Y784330D01*
X417896Y784294D01*
X418005Y784116D01*
X418109Y783936D01*
X418133Y783906D01*
X418153Y783874D01*
X418289Y783716D01*
X418421Y783554D01*
X418450Y783529D01*
X418475Y783500D01*
X418634Y783366D01*
X418791Y783227D01*
X418824Y783207D01*
X418853Y783183D01*
X418934Y783138D01*
X419209Y782965D01*
X419368Y782898D01*
X419450Y782853D01*
X422682Y781514D01*
X425517Y778678D01*
X427052Y774973D01*
X427052Y770963D01*
X425517Y767258D01*
X422682Y764422D01*
X419450Y763083D01*
X419416Y763066D01*
X419380Y763053D01*
X419197Y762954D01*
X419011Y762858D01*
X418980Y762836D01*
X418947Y762817D01*
X418782Y762689D01*
X418614Y762565D01*
X418587Y762538D01*
X418557Y762515D01*
X418415Y762362D01*
X418269Y762212D01*
X418247Y762181D01*
X418222Y762153D01*
X418106Y761979D01*
X417986Y761808D01*
X417970Y761774D01*
X417949Y761742D01*
X417863Y761552D01*
X417772Y761363D01*
X417762Y761327D01*
X417746Y761292D01*
X417692Y761091D01*
X417633Y760890D01*
X417628Y760852D01*
X417618Y760816D01*
X417598Y760608D01*
X417572Y760401D01*
X417573Y760363D01*
X417569Y760325D01*
X417582Y760116D01*
X417590Y759908D01*
X417598Y759870D01*
X417600Y759832D01*
X417646Y759629D01*
X417688Y759424D01*
X417701Y759388D01*
X417710Y759351D01*
X417788Y759159D01*
X417862Y758963D01*
X417881Y758930D01*
X417896Y758894D01*
X418004Y758717D01*
X418109Y758536D01*
X418133Y758506D01*
X418153Y758474D01*
X418289Y758315D01*
X418421Y758154D01*
X418450Y758129D01*
X418475Y758100D01*
X418635Y757966D01*
X418791Y757827D01*
X418824Y757807D01*
X418853Y757783D01*
X418934Y757738D01*
X419209Y757565D01*
X419368Y757498D01*
X419450Y757453D01*
X422682Y756114D01*
X425517Y753278D01*
X427052Y749573D01*
X427052Y745563D01*
X425517Y741858D01*
X422682Y739022D01*
X419450Y737683D01*
X419416Y737666D01*
X419380Y737653D01*
X419197Y737554D01*
X419011Y737458D01*
X418980Y737436D01*
X418947Y737417D01*
X418782Y737289D01*
X418614Y737165D01*
X418587Y737138D01*
X418557Y737115D01*
X418415Y736962D01*
X418269Y736812D01*
X418247Y736781D01*
X418222Y736753D01*
X418106Y736579D01*
X417986Y736408D01*
X417970Y736374D01*
X417949Y736342D01*
X417863Y736152D01*
X417772Y735963D01*
X417762Y735927D01*
X417746Y735892D01*
X417692Y735691D01*
X417633Y735490D01*
X417628Y735452D01*
X417618Y735416D01*
X417598Y735208D01*
X417572Y735001D01*
X417573Y734963D01*
X417569Y734925D01*
X417582Y734716D01*
X417590Y734508D01*
X417598Y734470D01*
X417600Y734432D01*
X417646Y734229D01*
X417688Y734024D01*
X417701Y733988D01*
X417710Y733951D01*
X417788Y733759D01*
X417862Y733563D01*
X417881Y733530D01*
X417896Y733494D01*
X418004Y733317D01*
X418109Y733136D01*
X418133Y733106D01*
X418153Y733074D01*
X418289Y732915D01*
X418421Y732754D01*
X418450Y732729D01*
X418475Y732700D01*
X418635Y732566D01*
X418791Y732427D01*
X418824Y732407D01*
X418853Y732383D01*
X418934Y732338D01*
X419209Y732165D01*
X419368Y732098D01*
X419450Y732053D01*
X422682Y730714D01*
X425517Y727878D01*
X427052Y724173D01*
X427052Y720163D01*
X425517Y716458D01*
X422682Y713622D01*
X419450Y712283D01*
X419416Y712266D01*
X419380Y712253D01*
X419197Y712154D01*
X419011Y712058D01*
X418980Y712036D01*
X418947Y712017D01*
X418782Y711889D01*
X418614Y711765D01*
X418587Y711738D01*
X418557Y711715D01*
X418415Y711562D01*
X418269Y711412D01*
X418247Y711381D01*
X418222Y711353D01*
X418106Y711179D01*
X417986Y711008D01*
X417970Y710974D01*
X417949Y710942D01*
X417863Y710752D01*
X417772Y710563D01*
X417762Y710527D01*
X417746Y710492D01*
X417692Y710291D01*
X417633Y710090D01*
X417628Y710052D01*
X417618Y710016D01*
X417598Y709808D01*
X417572Y709601D01*
X417573Y709563D01*
X417569Y709525D01*
X417582Y709316D01*
X417590Y709108D01*
X417598Y709070D01*
X417600Y709032D01*
X417646Y708829D01*
X417688Y708624D01*
X417701Y708588D01*
X417710Y708551D01*
X417788Y708359D01*
X417862Y708163D01*
X417881Y708130D01*
X417896Y708094D01*
X418004Y707917D01*
X418109Y707736D01*
X418133Y707706D01*
X418153Y707674D01*
X418289Y707515D01*
X418421Y707354D01*
X418450Y707329D01*
X418475Y707300D01*
X418635Y707166D01*
X418791Y707027D01*
X418824Y707007D01*
X418853Y706983D01*
X418934Y706938D01*
X419209Y706765D01*
X419368Y706698D01*
X419450Y706653D01*
X422682Y705314D01*
X425517Y702478D01*
X427052Y698773D01*
X427052Y694763D01*
X425517Y691058D01*
X422682Y688222D01*
X419450Y686883D01*
X419416Y686866D01*
X419380Y686853D01*
X419197Y686754D01*
X419011Y686658D01*
X418980Y686636D01*
X418947Y686617D01*
X418782Y686489D01*
X418614Y686365D01*
X418587Y686338D01*
X418557Y686315D01*
X418415Y686162D01*
X418269Y686012D01*
X418247Y685981D01*
X418222Y685953D01*
X418106Y685779D01*
X417986Y685608D01*
X417970Y685574D01*
X417949Y685542D01*
X417863Y685352D01*
X417772Y685163D01*
X417762Y685127D01*
X417746Y685092D01*
X417692Y684891D01*
X417633Y684690D01*
X417628Y684652D01*
X417618Y684616D01*
X417598Y684408D01*
X417572Y684201D01*
X417573Y684163D01*
X417569Y684125D01*
X417582Y683916D01*
X417590Y683708D01*
X417598Y683670D01*
X417600Y683632D01*
X417646Y683429D01*
X417688Y683224D01*
X417701Y683188D01*
X417710Y683151D01*
X417788Y682959D01*
X417862Y682763D01*
X417881Y682730D01*
X417896Y682694D01*
X418004Y682517D01*
X418109Y682336D01*
X418133Y682306D01*
X418153Y682274D01*
X418289Y682115D01*
X418421Y681954D01*
X418450Y681929D01*
X418475Y681900D01*
X418635Y681766D01*
X418791Y681627D01*
X418824Y681607D01*
X418853Y681583D01*
X418934Y681538D01*
X419209Y681365D01*
X419368Y681298D01*
X419450Y681253D01*
X422682Y679914D01*
X425517Y677078D01*
X427052Y673373D01*
X427052Y669363D01*
X425517Y665658D01*
X422682Y662822D01*
X419450Y661483D01*
X419416Y661466D01*
X419380Y661453D01*
X419197Y661354D01*
X419011Y661258D01*
X418980Y661236D01*
X418947Y661217D01*
X418782Y661089D01*
X418614Y660965D01*
X418587Y660938D01*
X418557Y660915D01*
X418415Y660762D01*
X418269Y660612D01*
X418247Y660581D01*
X418222Y660553D01*
X418106Y660379D01*
X417986Y660208D01*
X417970Y660174D01*
X417949Y660142D01*
X417863Y659952D01*
X417772Y659763D01*
X417762Y659727D01*
X417746Y659692D01*
X417692Y659491D01*
X417633Y659290D01*
X417628Y659252D01*
X417618Y659216D01*
X417598Y659008D01*
X417572Y658801D01*
X417573Y658763D01*
X417569Y658725D01*
X417582Y658516D01*
X417590Y658308D01*
X417598Y658270D01*
X417600Y658232D01*
X417646Y658029D01*
X417688Y657824D01*
X417701Y657788D01*
X417710Y657751D01*
X417788Y657559D01*
X417862Y657363D01*
X417881Y657330D01*
X417896Y657294D01*
X418004Y657117D01*
X418109Y656936D01*
X418133Y656906D01*
X418153Y656874D01*
X418289Y656715D01*
X418421Y656554D01*
X418450Y656529D01*
X418475Y656500D01*
X418635Y656366D01*
X418791Y656227D01*
X418824Y656207D01*
X418853Y656183D01*
X418934Y656138D01*
X419209Y655965D01*
X419368Y655898D01*
X419450Y655853D01*
X422682Y654514D01*
X425517Y651678D01*
X427052Y647973D01*
X427052Y643963D01*
X425517Y640258D01*
X422682Y637422D01*
X418977Y635887D01*
X414966Y635887D01*
G37*
%LPD*%
%LPC*%
G36*
X449387Y185817D02*
X449387Y185817D01*
X447063Y186779D01*
X445285Y188558D01*
X444322Y190882D01*
X444322Y193397D01*
X445285Y195721D01*
X445688Y196124D01*
X445762Y196211D01*
X445843Y196291D01*
X445921Y196399D01*
X446007Y196500D01*
X446066Y196598D01*
X446133Y196690D01*
X446193Y196808D01*
X446262Y196922D01*
X446304Y197029D01*
X446356Y197130D01*
X446395Y197257D01*
X446445Y197381D01*
X446469Y197492D01*
X446504Y197601D01*
X446514Y197694D01*
X446552Y197862D01*
X446570Y198186D01*
X446580Y198279D01*
X446580Y293900D01*
X446571Y294013D01*
X446572Y294128D01*
X446551Y294259D01*
X446540Y294391D01*
X446513Y294502D01*
X446495Y294615D01*
X446453Y294741D01*
X446421Y294870D01*
X446376Y294975D01*
X446341Y295083D01*
X446279Y295201D01*
X446227Y295323D01*
X446166Y295420D01*
X446113Y295521D01*
X446054Y295595D01*
X445962Y295740D01*
X445745Y295982D01*
X445688Y296054D01*
X445381Y296361D01*
X444418Y298685D01*
X444418Y301200D01*
X445381Y303524D01*
X447160Y305303D01*
X449483Y306265D01*
X451999Y306265D01*
X454323Y305303D01*
X456101Y303524D01*
X457064Y301200D01*
X457064Y298685D01*
X456101Y296361D01*
X455602Y295862D01*
X455528Y295775D01*
X455447Y295694D01*
X455369Y295587D01*
X455283Y295486D01*
X455224Y295388D01*
X455157Y295296D01*
X455097Y295177D01*
X455028Y295063D01*
X454986Y294957D01*
X454934Y294855D01*
X454894Y294728D01*
X454845Y294605D01*
X454820Y294494D01*
X454786Y294385D01*
X454775Y294291D01*
X454738Y294123D01*
X454720Y293799D01*
X454710Y293707D01*
X454710Y198279D01*
X454719Y198165D01*
X454718Y198051D01*
X454739Y197919D01*
X454750Y197787D01*
X454777Y197676D01*
X454795Y197563D01*
X454836Y197437D01*
X454868Y197308D01*
X454913Y197203D01*
X454949Y197095D01*
X455010Y196977D01*
X455063Y196855D01*
X455124Y196759D01*
X455177Y196657D01*
X455236Y196584D01*
X455328Y196439D01*
X455544Y196196D01*
X455602Y196124D01*
X456005Y195721D01*
X456968Y193397D01*
X456968Y190882D01*
X456005Y188558D01*
X454226Y186779D01*
X451903Y185817D01*
X449387Y185817D01*
G37*
%LPD*%
%LPC*%
G36*
X51043Y768957D02*
X51043Y768957D01*
X47308Y770504D01*
X44450Y773362D01*
X42903Y777097D01*
X42903Y781139D01*
X44450Y784874D01*
X47308Y787732D01*
X50464Y789039D01*
X50604Y789111D01*
X50748Y789174D01*
X50823Y789223D01*
X50903Y789264D01*
X51029Y789357D01*
X51162Y789444D01*
X51228Y789504D01*
X51300Y789557D01*
X51410Y789670D01*
X51526Y789776D01*
X51582Y789846D01*
X51644Y789910D01*
X51734Y790039D01*
X51832Y790163D01*
X51876Y790241D01*
X51927Y790314D01*
X51995Y790456D01*
X52072Y790594D01*
X52102Y790678D01*
X52141Y790759D01*
X52186Y790910D01*
X52239Y791058D01*
X52255Y791146D01*
X52281Y791232D01*
X52300Y791388D01*
X52329Y791543D01*
X52331Y791633D01*
X52342Y791721D01*
X52336Y791879D01*
X52339Y792037D01*
X52327Y792125D01*
X52323Y792214D01*
X52292Y792369D01*
X52270Y792525D01*
X52243Y792610D01*
X52226Y792698D01*
X52170Y792845D01*
X52123Y792996D01*
X52083Y793076D01*
X52051Y793159D01*
X51972Y793296D01*
X51902Y793437D01*
X51849Y793509D01*
X51804Y793586D01*
X51704Y793709D01*
X51612Y793836D01*
X51549Y793899D01*
X51492Y793968D01*
X51374Y794073D01*
X51262Y794184D01*
X51189Y794236D01*
X51122Y794295D01*
X50989Y794378D01*
X50860Y794470D01*
X50797Y794499D01*
X50704Y794557D01*
X50250Y794749D01*
X50243Y794750D01*
X50239Y794752D01*
X49164Y795102D01*
X47739Y795828D01*
X46445Y796768D01*
X45314Y797899D01*
X44374Y799193D01*
X43648Y800618D01*
X43371Y801471D01*
X60684Y801471D01*
X77997Y801471D01*
X77720Y800618D01*
X76994Y799193D01*
X76054Y797899D01*
X74923Y796768D01*
X73629Y795828D01*
X72204Y795102D01*
X71129Y794752D01*
X70983Y794691D01*
X70834Y794639D01*
X70756Y794597D01*
X70674Y794562D01*
X70540Y794479D01*
X70401Y794403D01*
X70331Y794349D01*
X70255Y794301D01*
X70136Y794198D01*
X70012Y794101D01*
X69951Y794035D01*
X69884Y793976D01*
X69784Y793855D01*
X69676Y793739D01*
X69627Y793664D01*
X69570Y793596D01*
X69491Y793460D01*
X69403Y793328D01*
X69367Y793246D01*
X69322Y793169D01*
X69265Y793022D01*
X69200Y792878D01*
X69177Y792792D01*
X69145Y792709D01*
X69114Y792554D01*
X69073Y792402D01*
X69064Y792313D01*
X69046Y792225D01*
X69039Y792068D01*
X69024Y791911D01*
X69029Y791822D01*
X69026Y791732D01*
X69045Y791576D01*
X69055Y791418D01*
X69074Y791331D01*
X69085Y791243D01*
X69129Y791091D01*
X69164Y790937D01*
X69198Y790855D01*
X69223Y790769D01*
X69291Y790627D01*
X69350Y790481D01*
X69397Y790404D01*
X69435Y790324D01*
X69525Y790194D01*
X69608Y790060D01*
X69666Y789992D01*
X69717Y789919D01*
X69827Y789805D01*
X69929Y789686D01*
X69998Y789628D01*
X70060Y789564D01*
X70187Y789470D01*
X70307Y789369D01*
X70368Y789335D01*
X70456Y789270D01*
X70894Y789043D01*
X70900Y789041D01*
X70904Y789039D01*
X74060Y787732D01*
X76918Y784874D01*
X78465Y781139D01*
X78465Y777097D01*
X76918Y773362D01*
X74060Y770504D01*
X70325Y768957D01*
X51043Y768957D01*
G37*
%LPD*%
%LPC*%
G36*
X51043Y677457D02*
X51043Y677457D01*
X47308Y679004D01*
X44450Y681862D01*
X42903Y685597D01*
X42903Y689639D01*
X44450Y693374D01*
X47308Y696232D01*
X50464Y697539D01*
X50604Y697611D01*
X50748Y697674D01*
X50823Y697723D01*
X50903Y697764D01*
X51029Y697857D01*
X51162Y697944D01*
X51228Y698004D01*
X51300Y698057D01*
X51410Y698170D01*
X51526Y698276D01*
X51582Y698346D01*
X51644Y698410D01*
X51734Y698539D01*
X51832Y698663D01*
X51876Y698741D01*
X51927Y698814D01*
X51995Y698956D01*
X52072Y699094D01*
X52102Y699178D01*
X52141Y699259D01*
X52186Y699410D01*
X52239Y699558D01*
X52255Y699646D01*
X52281Y699732D01*
X52300Y699888D01*
X52329Y700043D01*
X52331Y700133D01*
X52342Y700221D01*
X52336Y700379D01*
X52339Y700537D01*
X52327Y700625D01*
X52323Y700714D01*
X52292Y700869D01*
X52270Y701025D01*
X52243Y701110D01*
X52226Y701198D01*
X52170Y701345D01*
X52123Y701496D01*
X52083Y701576D01*
X52051Y701659D01*
X51972Y701796D01*
X51902Y701937D01*
X51849Y702009D01*
X51804Y702086D01*
X51704Y702209D01*
X51612Y702336D01*
X51549Y702399D01*
X51492Y702468D01*
X51374Y702573D01*
X51262Y702684D01*
X51189Y702736D01*
X51122Y702795D01*
X50989Y702878D01*
X50860Y702970D01*
X50797Y702999D01*
X50704Y703057D01*
X50250Y703249D01*
X50243Y703250D01*
X50239Y703252D01*
X49164Y703602D01*
X47739Y704328D01*
X46445Y705268D01*
X45314Y706399D01*
X44374Y707693D01*
X43648Y709118D01*
X43371Y709971D01*
X60684Y709971D01*
X77997Y709971D01*
X77720Y709118D01*
X76994Y707693D01*
X76054Y706399D01*
X74923Y705268D01*
X73629Y704328D01*
X72204Y703602D01*
X71129Y703252D01*
X70983Y703191D01*
X70834Y703139D01*
X70756Y703097D01*
X70674Y703062D01*
X70540Y702979D01*
X70401Y702903D01*
X70331Y702849D01*
X70255Y702801D01*
X70136Y702698D01*
X70012Y702601D01*
X69951Y702535D01*
X69884Y702476D01*
X69784Y702355D01*
X69676Y702239D01*
X69627Y702164D01*
X69570Y702096D01*
X69491Y701960D01*
X69403Y701828D01*
X69367Y701746D01*
X69322Y701669D01*
X69265Y701522D01*
X69200Y701378D01*
X69177Y701292D01*
X69145Y701209D01*
X69114Y701054D01*
X69073Y700902D01*
X69064Y700813D01*
X69046Y700725D01*
X69039Y700568D01*
X69024Y700411D01*
X69029Y700322D01*
X69026Y700232D01*
X69045Y700076D01*
X69055Y699918D01*
X69074Y699831D01*
X69085Y699743D01*
X69129Y699591D01*
X69164Y699437D01*
X69198Y699355D01*
X69223Y699269D01*
X69291Y699127D01*
X69350Y698981D01*
X69397Y698904D01*
X69435Y698824D01*
X69525Y698694D01*
X69608Y698560D01*
X69666Y698492D01*
X69717Y698419D01*
X69827Y698305D01*
X69929Y698186D01*
X69998Y698128D01*
X70060Y698064D01*
X70187Y697970D01*
X70307Y697869D01*
X70368Y697835D01*
X70456Y697770D01*
X70894Y697543D01*
X70900Y697541D01*
X70904Y697539D01*
X74060Y696232D01*
X76918Y693374D01*
X78465Y689639D01*
X78465Y685597D01*
X76918Y681862D01*
X74060Y679004D01*
X70325Y677457D01*
X51043Y677457D01*
G37*
%LPD*%
%LPC*%
G36*
X51043Y578957D02*
X51043Y578957D01*
X47308Y580504D01*
X44450Y583362D01*
X42903Y587097D01*
X42903Y591139D01*
X44450Y594874D01*
X47308Y597732D01*
X50464Y599039D01*
X50604Y599111D01*
X50748Y599174D01*
X50823Y599223D01*
X50903Y599264D01*
X51030Y599358D01*
X51162Y599444D01*
X51228Y599504D01*
X51300Y599557D01*
X51410Y599670D01*
X51526Y599776D01*
X51582Y599846D01*
X51644Y599910D01*
X51735Y600039D01*
X51832Y600163D01*
X51876Y600241D01*
X51927Y600314D01*
X51995Y600456D01*
X52072Y600594D01*
X52102Y600678D01*
X52141Y600759D01*
X52186Y600910D01*
X52239Y601058D01*
X52255Y601146D01*
X52281Y601232D01*
X52300Y601388D01*
X52329Y601543D01*
X52331Y601633D01*
X52342Y601721D01*
X52336Y601879D01*
X52339Y602037D01*
X52327Y602125D01*
X52323Y602214D01*
X52292Y602369D01*
X52270Y602525D01*
X52243Y602610D01*
X52226Y602698D01*
X52170Y602846D01*
X52123Y602996D01*
X52083Y603076D01*
X52051Y603159D01*
X51972Y603296D01*
X51902Y603437D01*
X51849Y603509D01*
X51804Y603586D01*
X51705Y603709D01*
X51612Y603836D01*
X51549Y603899D01*
X51492Y603968D01*
X51374Y604073D01*
X51262Y604184D01*
X51189Y604236D01*
X51122Y604295D01*
X50988Y604379D01*
X50860Y604470D01*
X50798Y604499D01*
X50704Y604557D01*
X50250Y604749D01*
X50243Y604750D01*
X50239Y604752D01*
X49164Y605102D01*
X47739Y605828D01*
X46445Y606768D01*
X45314Y607899D01*
X44374Y609193D01*
X43648Y610618D01*
X43371Y611471D01*
X60684Y611471D01*
X77997Y611471D01*
X77720Y610618D01*
X76994Y609193D01*
X76054Y607899D01*
X74923Y606768D01*
X73629Y605828D01*
X72204Y605102D01*
X71129Y604752D01*
X70983Y604692D01*
X70834Y604639D01*
X70756Y604597D01*
X70674Y604562D01*
X70540Y604479D01*
X70401Y604403D01*
X70331Y604349D01*
X70255Y604301D01*
X70136Y604198D01*
X70012Y604101D01*
X69951Y604035D01*
X69884Y603976D01*
X69783Y603855D01*
X69676Y603739D01*
X69627Y603665D01*
X69570Y603596D01*
X69490Y603459D01*
X69403Y603328D01*
X69367Y603247D01*
X69322Y603169D01*
X69265Y603022D01*
X69200Y602878D01*
X69177Y602792D01*
X69145Y602709D01*
X69114Y602554D01*
X69073Y602402D01*
X69064Y602313D01*
X69046Y602225D01*
X69039Y602068D01*
X69024Y601911D01*
X69029Y601822D01*
X69026Y601732D01*
X69045Y601576D01*
X69054Y601418D01*
X69074Y601331D01*
X69085Y601243D01*
X69129Y601091D01*
X69164Y600937D01*
X69198Y600855D01*
X69223Y600769D01*
X69291Y600626D01*
X69350Y600481D01*
X69397Y600404D01*
X69435Y600324D01*
X69525Y600194D01*
X69608Y600060D01*
X69666Y599992D01*
X69717Y599919D01*
X69827Y599805D01*
X69929Y599686D01*
X69998Y599628D01*
X70060Y599564D01*
X70186Y599470D01*
X70307Y599369D01*
X70368Y599335D01*
X70456Y599270D01*
X70894Y599043D01*
X70900Y599041D01*
X70904Y599039D01*
X74060Y597732D01*
X76918Y594874D01*
X78465Y591139D01*
X78465Y587097D01*
X76918Y583362D01*
X74060Y580504D01*
X70325Y578957D01*
X51043Y578957D01*
G37*
%LPD*%
%LPC*%
G36*
X261450Y53337D02*
X261450Y53337D01*
X257716Y54884D01*
X254858Y57742D01*
X253311Y61477D01*
X253311Y80759D01*
X254858Y84494D01*
X257716Y87352D01*
X261450Y88899D01*
X265493Y88899D01*
X269227Y87352D01*
X272085Y84494D01*
X273392Y81338D01*
X273464Y81198D01*
X273528Y81054D01*
X273576Y80979D01*
X273617Y80899D01*
X273711Y80772D01*
X273797Y80640D01*
X273857Y80574D01*
X273910Y80502D01*
X274023Y80392D01*
X274129Y80276D01*
X274199Y80220D01*
X274263Y80158D01*
X274393Y80067D01*
X274516Y79970D01*
X274594Y79926D01*
X274667Y79875D01*
X274810Y79807D01*
X274947Y79730D01*
X275032Y79700D01*
X275112Y79661D01*
X275263Y79616D01*
X275412Y79563D01*
X275499Y79547D01*
X275585Y79521D01*
X275742Y79502D01*
X275897Y79473D01*
X275986Y79471D01*
X276075Y79460D01*
X276232Y79466D01*
X276390Y79463D01*
X276479Y79475D01*
X276568Y79479D01*
X276722Y79510D01*
X276878Y79532D01*
X276964Y79559D01*
X277051Y79576D01*
X277199Y79632D01*
X277349Y79679D01*
X277429Y79719D01*
X277513Y79751D01*
X277649Y79830D01*
X277790Y79900D01*
X277862Y79953D01*
X277940Y79997D01*
X278062Y80097D01*
X278190Y80190D01*
X278253Y80253D01*
X278322Y80310D01*
X278426Y80428D01*
X278537Y80540D01*
X278589Y80613D01*
X278648Y80680D01*
X278732Y80814D01*
X278824Y80942D01*
X278852Y81004D01*
X278911Y81098D01*
X279102Y81552D01*
X279104Y81559D01*
X279106Y81563D01*
X279455Y82638D01*
X280181Y84063D01*
X281121Y85357D01*
X282252Y86488D01*
X283546Y87428D01*
X284971Y88154D01*
X285824Y88431D01*
X285824Y71118D01*
X285824Y53804D01*
X284971Y54082D01*
X283546Y54808D01*
X282252Y55748D01*
X281121Y56879D01*
X280181Y58173D01*
X279455Y59598D01*
X279106Y60673D01*
X279045Y60819D01*
X278993Y60968D01*
X278950Y61046D01*
X278916Y61128D01*
X278832Y61262D01*
X278757Y61401D01*
X278702Y61471D01*
X278655Y61547D01*
X278551Y61666D01*
X278454Y61790D01*
X278389Y61851D01*
X278330Y61918D01*
X278208Y62019D01*
X278092Y62126D01*
X278018Y62175D01*
X277949Y62232D01*
X277813Y62311D01*
X277681Y62399D01*
X277600Y62435D01*
X277523Y62480D01*
X277376Y62537D01*
X277232Y62602D01*
X277145Y62625D01*
X277062Y62657D01*
X276907Y62688D01*
X276755Y62729D01*
X276666Y62738D01*
X276579Y62756D01*
X276421Y62763D01*
X276264Y62778D01*
X276175Y62773D01*
X276086Y62776D01*
X275929Y62757D01*
X275772Y62747D01*
X275685Y62728D01*
X275596Y62717D01*
X275445Y62673D01*
X275291Y62638D01*
X275208Y62604D01*
X275122Y62579D01*
X274980Y62511D01*
X274834Y62452D01*
X274758Y62405D01*
X274677Y62367D01*
X274547Y62277D01*
X274413Y62194D01*
X274345Y62136D01*
X274272Y62085D01*
X274159Y61975D01*
X274039Y61873D01*
X273982Y61804D01*
X273918Y61742D01*
X273824Y61616D01*
X273722Y61495D01*
X273689Y61434D01*
X273623Y61346D01*
X273396Y60908D01*
X273394Y60902D01*
X273392Y60898D01*
X272085Y57742D01*
X269227Y54884D01*
X265493Y53337D01*
X261450Y53337D01*
G37*
%LPD*%
%LPC*%
G36*
X386869Y401893D02*
X386869Y401893D01*
X384545Y402856D01*
X382767Y404635D01*
X381804Y406958D01*
X381804Y409474D01*
X382767Y411798D01*
X384545Y413576D01*
X386891Y414548D01*
X386949Y414547D01*
X387080Y414568D01*
X387212Y414579D01*
X387323Y414606D01*
X387436Y414624D01*
X387562Y414666D01*
X387691Y414698D01*
X387796Y414743D01*
X387905Y414778D01*
X388022Y414840D01*
X388144Y414892D01*
X388241Y414953D01*
X388342Y415006D01*
X388416Y415065D01*
X388561Y415157D01*
X388803Y415374D01*
X388875Y415431D01*
X409566Y436122D01*
X409640Y436209D01*
X409721Y436289D01*
X409800Y436397D01*
X409886Y436498D01*
X409945Y436596D01*
X410012Y436688D01*
X410072Y436807D01*
X410140Y436921D01*
X410183Y437027D01*
X410234Y437129D01*
X410274Y437256D01*
X410323Y437379D01*
X410348Y437490D01*
X410382Y437599D01*
X410393Y437693D01*
X410430Y437860D01*
X410448Y438185D01*
X410459Y438277D01*
X410459Y463020D01*
X410449Y463134D01*
X410450Y463248D01*
X410429Y463379D01*
X410419Y463512D01*
X410391Y463623D01*
X410374Y463735D01*
X410332Y463862D01*
X410300Y463991D01*
X410255Y464095D01*
X410219Y464204D01*
X410158Y464322D01*
X410106Y464444D01*
X410044Y464540D01*
X409991Y464642D01*
X409933Y464715D01*
X409840Y464860D01*
X409687Y465032D01*
X408709Y467394D01*
X408709Y469909D01*
X409671Y472233D01*
X411450Y474011D01*
X413774Y474974D01*
X416289Y474974D01*
X418613Y474011D01*
X420392Y472233D01*
X421354Y469909D01*
X421354Y467394D01*
X420383Y465048D01*
X420341Y465008D01*
X420263Y464900D01*
X420177Y464799D01*
X420118Y464701D01*
X420051Y464609D01*
X419991Y464490D01*
X419923Y464376D01*
X419880Y464270D01*
X419829Y464168D01*
X419789Y464041D01*
X419740Y463918D01*
X419715Y463807D01*
X419680Y463698D01*
X419670Y463604D01*
X419633Y463437D01*
X419615Y463112D01*
X419604Y463020D01*
X419604Y434211D01*
X418908Y432530D01*
X395342Y408964D01*
X395268Y408878D01*
X395187Y408797D01*
X395109Y408690D01*
X395023Y408589D01*
X394964Y408491D01*
X394897Y408398D01*
X394837Y408280D01*
X394768Y408166D01*
X394726Y408060D01*
X394674Y407958D01*
X394634Y407831D01*
X394585Y407708D01*
X394560Y407597D01*
X394526Y407488D01*
X394515Y407394D01*
X394478Y407226D01*
X394465Y406996D01*
X393487Y404635D01*
X391708Y402856D01*
X389385Y401893D01*
X386869Y401893D01*
G37*
%LPD*%
%LPC*%
G36*
X457844Y435290D02*
X457844Y435290D01*
X455520Y436252D01*
X453742Y438031D01*
X452779Y440355D01*
X452779Y442870D01*
X453742Y445194D01*
X454145Y445597D01*
X454218Y445684D01*
X454300Y445764D01*
X454378Y445872D01*
X454464Y445973D01*
X454523Y446071D01*
X454590Y446163D01*
X454650Y446281D01*
X454719Y446395D01*
X454761Y446502D01*
X454812Y446603D01*
X454852Y446730D01*
X454902Y446854D01*
X454926Y446965D01*
X454961Y447074D01*
X454971Y447167D01*
X455008Y447335D01*
X455027Y447659D01*
X455037Y447752D01*
X455037Y476063D01*
X455019Y476281D01*
X455006Y476499D01*
X454999Y476527D01*
X454997Y476555D01*
X454944Y476767D01*
X454896Y476980D01*
X454885Y477006D01*
X454878Y477034D01*
X454792Y477235D01*
X454710Y477437D01*
X454695Y477461D01*
X454684Y477487D01*
X454567Y477671D01*
X454453Y477858D01*
X454434Y477879D01*
X454419Y477903D01*
X454274Y478066D01*
X454131Y478232D01*
X454109Y478250D01*
X454090Y478271D01*
X453920Y478409D01*
X453753Y478549D01*
X453732Y478560D01*
X453706Y478581D01*
X453278Y478825D01*
X453202Y478853D01*
X453156Y478879D01*
X452617Y479102D01*
X450839Y480880D01*
X449876Y483204D01*
X449876Y485720D01*
X450839Y488044D01*
X452617Y489822D01*
X454941Y490785D01*
X457457Y490785D01*
X459780Y489822D01*
X461559Y488044D01*
X462522Y485720D01*
X462522Y484531D01*
X462522Y484521D01*
X462522Y484511D01*
X462542Y484276D01*
X462561Y484039D01*
X462564Y484030D01*
X462565Y484020D01*
X462576Y483982D01*
X462680Y483560D01*
X462732Y483440D01*
X462754Y483365D01*
X463167Y482368D01*
X463167Y447752D01*
X463176Y447638D01*
X463175Y447524D01*
X463196Y447392D01*
X463206Y447260D01*
X463234Y447149D01*
X463252Y447036D01*
X463293Y446910D01*
X463325Y446781D01*
X463370Y446676D01*
X463406Y446568D01*
X463467Y446450D01*
X463520Y446328D01*
X463581Y446232D01*
X463634Y446130D01*
X463692Y446057D01*
X463785Y445912D01*
X464001Y445670D01*
X464059Y445597D01*
X464462Y445194D01*
X465128Y443587D01*
X465193Y443460D01*
X465249Y443329D01*
X465305Y443241D01*
X465353Y443148D01*
X465437Y443033D01*
X465514Y442913D01*
X465548Y442875D01*
X465544Y442857D01*
X465501Y442721D01*
X465492Y442643D01*
X465461Y442516D01*
X465429Y442083D01*
X465425Y442043D01*
X465425Y440355D01*
X464462Y438031D01*
X462683Y436252D01*
X460360Y435290D01*
X457844Y435290D01*
G37*
%LPD*%
%LPC*%
G36*
X188371Y801415D02*
X188371Y801415D01*
X178762Y801415D01*
X179029Y802238D01*
X179750Y803651D01*
X180682Y804935D01*
X181804Y806057D01*
X183088Y806990D01*
X184502Y807710D01*
X185778Y808125D01*
X185923Y808185D01*
X186072Y808237D01*
X186150Y808280D01*
X186233Y808315D01*
X186367Y808398D01*
X186505Y808473D01*
X186576Y808528D01*
X186652Y808576D01*
X186770Y808679D01*
X186895Y808776D01*
X186956Y808842D01*
X187023Y808901D01*
X187123Y809022D01*
X187230Y809138D01*
X187280Y809212D01*
X187336Y809281D01*
X187416Y809418D01*
X187503Y809549D01*
X187540Y809630D01*
X187585Y809708D01*
X187641Y809855D01*
X187706Y809999D01*
X187729Y810085D01*
X187761Y810168D01*
X187793Y810323D01*
X187834Y810475D01*
X187842Y810564D01*
X187860Y810652D01*
X187867Y810809D01*
X187883Y810966D01*
X187877Y811055D01*
X187881Y811144D01*
X187862Y811301D01*
X187852Y811458D01*
X187832Y811545D01*
X187821Y811634D01*
X187777Y811786D01*
X187742Y811939D01*
X187708Y812022D01*
X187683Y812108D01*
X187615Y812250D01*
X187556Y812396D01*
X187510Y812472D01*
X187471Y812553D01*
X187381Y812683D01*
X187299Y812817D01*
X187240Y812885D01*
X187189Y812958D01*
X187080Y813072D01*
X186977Y813191D01*
X186909Y813249D01*
X186846Y813313D01*
X186720Y813407D01*
X186599Y813508D01*
X186539Y813542D01*
X186450Y813607D01*
X186012Y813834D01*
X186006Y813836D01*
X186002Y813838D01*
X182661Y815222D01*
X179825Y818058D01*
X178291Y821763D01*
X178291Y825773D01*
X179825Y829478D01*
X182661Y832314D01*
X186366Y833849D01*
X190377Y833849D01*
X194082Y832314D01*
X196917Y829478D01*
X198452Y825773D01*
X198452Y821763D01*
X196917Y818058D01*
X194082Y815222D01*
X190741Y813838D01*
X190601Y813766D01*
X190456Y813703D01*
X190381Y813654D01*
X190302Y813613D01*
X190175Y813520D01*
X190043Y813433D01*
X189977Y813373D01*
X189905Y813320D01*
X189795Y813207D01*
X189678Y813101D01*
X189623Y813031D01*
X189560Y812967D01*
X189470Y812838D01*
X189372Y812714D01*
X189329Y812636D01*
X189277Y812563D01*
X189209Y812421D01*
X189132Y812283D01*
X189102Y812199D01*
X189063Y812118D01*
X189019Y811967D01*
X188965Y811819D01*
X188949Y811731D01*
X188924Y811645D01*
X188904Y811489D01*
X188875Y811334D01*
X188874Y811244D01*
X188863Y811156D01*
X188868Y810998D01*
X188865Y810840D01*
X188878Y810752D01*
X188881Y810663D01*
X188912Y810508D01*
X188934Y810352D01*
X188961Y810267D01*
X188979Y810179D01*
X189035Y810032D01*
X189082Y809881D01*
X189122Y809801D01*
X189153Y809718D01*
X189232Y809581D01*
X189303Y809440D01*
X189355Y809368D01*
X189400Y809290D01*
X189500Y809168D01*
X189592Y809041D01*
X189656Y808978D01*
X189712Y808909D01*
X189831Y808804D01*
X189943Y808693D01*
X190015Y808641D01*
X190082Y808582D01*
X190216Y808498D01*
X190344Y808407D01*
X190407Y808378D01*
X190500Y808320D01*
X190955Y808128D01*
X190961Y808127D01*
X190965Y808125D01*
X192241Y807710D01*
X193655Y806990D01*
X194939Y806057D01*
X196060Y804935D01*
X196993Y803651D01*
X197714Y802238D01*
X197981Y801415D01*
X188372Y801415D01*
X188371Y801415D01*
X188371Y801415D01*
G37*
%LPD*%
%LPC*%
G36*
X63731Y617565D02*
X63731Y617565D01*
X63731Y624679D01*
X69104Y624679D01*
X70683Y624429D01*
X72204Y623934D01*
X73629Y623208D01*
X74923Y622268D01*
X76054Y621137D01*
X76994Y619843D01*
X77720Y618418D01*
X77997Y617565D01*
X63731Y617565D01*
G37*
%LPD*%
%LPC*%
G36*
X454319Y74165D02*
X454319Y74165D01*
X454319Y88431D01*
X455172Y88154D01*
X456597Y87428D01*
X457891Y86488D01*
X459022Y85357D01*
X459962Y84063D01*
X460688Y82638D01*
X461182Y81117D01*
X461432Y79538D01*
X461432Y74165D01*
X454319Y74165D01*
G37*
%LPD*%
%LPC*%
G36*
X291919Y74165D02*
X291919Y74165D01*
X291919Y88431D01*
X292772Y88154D01*
X294197Y87428D01*
X295491Y86488D01*
X296622Y85357D01*
X297562Y84063D01*
X298288Y82638D01*
X298782Y81117D01*
X299032Y79538D01*
X299032Y74165D01*
X291919Y74165D01*
G37*
%LPD*%
%LPC*%
G36*
X63731Y807565D02*
X63731Y807565D01*
X63731Y814679D01*
X69104Y814679D01*
X70683Y814429D01*
X72204Y813934D01*
X73629Y813208D01*
X74923Y812268D01*
X76054Y811137D01*
X76994Y809843D01*
X77720Y808418D01*
X77997Y807565D01*
X63731Y807565D01*
G37*
%LPD*%
%LPC*%
G36*
X139519Y74165D02*
X139519Y74165D01*
X139519Y88431D01*
X140372Y88154D01*
X141797Y87428D01*
X143091Y86488D01*
X144222Y85357D01*
X145162Y84063D01*
X145888Y82638D01*
X146382Y81117D01*
X146632Y79538D01*
X146632Y74165D01*
X139519Y74165D01*
G37*
%LPD*%
%LPC*%
G36*
X63731Y716065D02*
X63731Y716065D01*
X63731Y723179D01*
X69104Y723179D01*
X70683Y722929D01*
X72204Y722434D01*
X73629Y721708D01*
X74923Y720768D01*
X76054Y719637D01*
X76994Y718343D01*
X77720Y716918D01*
X77997Y716065D01*
X63731Y716065D01*
G37*
%LPD*%
%LPC*%
G36*
X43371Y617565D02*
X43371Y617565D01*
X43648Y618418D01*
X44374Y619843D01*
X45314Y621137D01*
X46445Y622268D01*
X47739Y623208D01*
X49164Y623934D01*
X50685Y624429D01*
X52264Y624679D01*
X57637Y624679D01*
X57637Y617565D01*
X43371Y617565D01*
G37*
%LPD*%
%LPC*%
G36*
X43371Y716065D02*
X43371Y716065D01*
X43648Y716918D01*
X44374Y718343D01*
X45314Y719637D01*
X46445Y720768D01*
X47739Y721708D01*
X49164Y722434D01*
X50685Y722929D01*
X52264Y723179D01*
X57637Y723179D01*
X57637Y716065D01*
X43371Y716065D01*
G37*
%LPD*%
%LPC*%
G36*
X43371Y807565D02*
X43371Y807565D01*
X43648Y808418D01*
X44374Y809843D01*
X45314Y811137D01*
X46445Y812268D01*
X47739Y813208D01*
X49164Y813934D01*
X50685Y814429D01*
X52264Y814679D01*
X57637Y814679D01*
X57637Y807565D01*
X43371Y807565D01*
G37*
%LPD*%
%LPC*%
G36*
X291919Y68071D02*
X291919Y68071D01*
X299032Y68071D01*
X299032Y62698D01*
X298782Y61119D01*
X298288Y59598D01*
X297562Y58173D01*
X296622Y56879D01*
X295491Y55748D01*
X294197Y54808D01*
X292772Y54082D01*
X291919Y53804D01*
X291919Y68071D01*
G37*
%LPD*%
%LPC*%
G36*
X139519Y68071D02*
X139519Y68071D01*
X146632Y68071D01*
X146632Y62698D01*
X146382Y61119D01*
X145888Y59598D01*
X145162Y58173D01*
X144222Y56879D01*
X143091Y55748D01*
X141797Y54808D01*
X140372Y54082D01*
X139519Y53804D01*
X139519Y68071D01*
G37*
%LPD*%
D10*
X68304Y589118D02*
X53064Y589118D01*
X53064Y614518D02*
X68304Y614518D01*
D11*
X416971Y798368D03*
X416971Y772968D03*
X416971Y747568D03*
X416971Y722168D03*
X416971Y696768D03*
X416971Y671368D03*
X416971Y645968D03*
X188371Y798368D03*
X188371Y772968D03*
X188371Y747568D03*
X188371Y722168D03*
X188371Y696768D03*
X188371Y671368D03*
X188371Y645968D03*
X416971Y823768D03*
X188371Y823768D03*
D10*
X111071Y78738D02*
X111071Y63498D01*
X136471Y63498D02*
X136471Y78738D01*
X263471Y78738D02*
X263471Y63498D01*
X288871Y63498D02*
X288871Y78738D01*
X425871Y78738D02*
X425871Y63498D01*
X451271Y63498D02*
X451271Y78738D01*
X68304Y779118D02*
X53064Y779118D01*
X53064Y804518D02*
X68304Y804518D01*
X68304Y687618D02*
X53064Y687618D01*
X53064Y713018D02*
X68304Y713018D01*
D12*
X240168Y722176D03*
X131527Y179755D03*
D13*
X240168Y549621D02*
X240168Y722176D01*
X240168Y549621D02*
X259471Y530318D01*
X259471Y307699D01*
X131527Y179755D01*
D12*
X54241Y639932D03*
X54106Y431357D03*
X235413Y450894D03*
X173301Y493092D03*
X48609Y282637D03*
X169131Y338562D03*
X216168Y320985D03*
X200589Y261024D03*
X76142Y163854D03*
X374054Y161489D03*
X343616Y217806D03*
X365639Y260559D03*
X364929Y299617D03*
X342157Y339857D03*
X272307Y329154D03*
X309471Y515318D03*
X478530Y573255D03*
X449471Y665318D03*
X69471Y840318D03*
X54471Y840318D03*
X54471Y740318D03*
X494576Y659896D03*
X458997Y724477D03*
X479615Y810935D03*
X69471Y740318D03*
X69241Y639932D03*
X84471Y475318D03*
X99471Y475318D03*
X521740Y721018D03*
X519471Y820318D03*
X294471Y820318D03*
X309471Y820318D03*
X324471Y820318D03*
X319471Y660318D03*
X334471Y660318D03*
X349471Y660318D03*
X508530Y613255D03*
X439536Y398324D03*
X454536Y388324D03*
X424536Y398324D03*
X309471Y105318D03*
X324471Y105318D03*
X324471Y90318D03*
X159471Y105318D03*
X174471Y105318D03*
X174471Y90318D03*
X106142Y163854D03*
X309471Y500318D03*
X489227Y469853D03*
X489227Y456712D03*
X48609Y322637D03*
X169131Y353562D03*
X412878Y161489D03*
X109106Y411357D03*
X104241Y614932D03*
X104241Y599932D03*
X231304Y58879D03*
X261035Y274219D03*
D13*
X231304Y244488D01*
X231304Y58879D01*
D12*
X257153Y747175D03*
X287360Y179639D03*
D13*
X257153Y553812D02*
X257153Y747175D01*
X257153Y553812D02*
X279471Y531493D01*
X279471Y187528D02*
X287360Y179639D01*
X279471Y187528D02*
X279471Y531493D01*
D12*
X275471Y773816D03*
X399938Y178946D03*
D13*
X275471Y556080D02*
X275471Y773816D01*
X275471Y556080D02*
X299471Y532080D01*
X299471Y430318D01*
X349471Y380318D01*
X399938Y380318D01*
X399938Y178946D01*
D12*
X61745Y142971D03*
X332125Y523244D03*
D13*
X339199Y530318D01*
X479471Y530318D01*
X517707Y492082D01*
X517707Y83618D02*
X469283Y35195D01*
X214880Y35195D01*
X214757Y35318D01*
X74471Y35318D01*
X42704Y67085D01*
X42704Y133551D01*
X52124Y142971D01*
X61745Y142971D01*
X517707Y83618D02*
X517707Y492082D01*
X205921Y696768D02*
X188371Y696768D01*
X219471Y750318D02*
X269471Y800318D01*
X289471Y800318D01*
X299471Y790318D01*
X299471Y555897D02*
X332125Y523244D01*
X205921Y696768D02*
X219471Y710318D01*
X219471Y750318D01*
X299471Y790318D02*
X299471Y555897D01*
D12*
X212955Y142042D03*
X475055Y500024D03*
D13*
X475055Y444735D01*
X499471Y420318D01*
X499471Y74993D01*
X465783Y41305D01*
X218484Y41305D01*
X189471Y70318D02*
X189471Y130318D01*
X201195Y142042D01*
X212955Y142042D01*
X189471Y70318D02*
X218484Y41305D01*
D12*
X374385Y143203D03*
X469471Y420318D03*
D13*
X469471Y90318D01*
X479471Y80318D01*
X479471Y63972D01*
X462627Y47128D01*
X372662Y47128D01*
X349471Y70318D01*
X349471Y118289D01*
X374385Y143203D01*
D12*
X245008Y192218D03*
X317942Y294196D03*
D13*
X245008Y192218D02*
X276908Y160318D01*
X299471Y160318D01*
X317942Y178788D01*
X317942Y294196D01*
D12*
X384604Y59112D03*
X423166Y280388D03*
D13*
X422819Y280041D01*
X422819Y112327D01*
X384604Y74112D01*
X384604Y59112D01*
D12*
X450741Y299942D03*
X450645Y192140D03*
D13*
X450645Y299846D01*
D14*
X450741Y299942D01*
D12*
X74055Y60505D03*
X91011Y246343D03*
D13*
X91011Y77461D01*
X74055Y60505D01*
D12*
X101231Y320678D03*
X129801Y192915D03*
D13*
X101231Y258558D02*
X101231Y320678D01*
X129801Y229989D02*
X129801Y192915D01*
X129801Y229989D02*
X101231Y258558D01*
D12*
X415031Y468651D03*
X388127Y408216D03*
D15*
X415031Y435121D02*
X415031Y468651D01*
X415031Y435121D02*
X388127Y408216D01*
D12*
X145815Y732308D03*
X449471Y810318D03*
D13*
X145815Y816662D02*
X145815Y732308D01*
X145815Y816662D02*
X189471Y860318D01*
X429471Y860318D01*
X449471Y840318D01*
X449471Y810318D01*
D12*
X473564Y647752D03*
X125852Y841256D03*
D13*
X473564Y794411D02*
X473564Y647752D01*
X473564Y794411D02*
X489471Y810318D01*
X489471Y830318D01*
X442715Y877075D01*
X161671Y877075D01*
X125852Y841256D01*
D12*
X456199Y484462D03*
X459102Y441613D03*
D13*
X459102Y481559D02*
X456199Y484462D01*
X459102Y481559D02*
X459102Y441613D01*
M02*
