G04 EAGLE Gerber RS-274X export*
G75*
%MOMM*%
%FSLAX34Y34*%
%LPD*%
%INBottom Copper*%
%IPPOS*%
%AMOC8*
5,1,8,0,0,1.08239X$1,22.5*%
G01*
%ADD10C,1.524000*%
%ADD11C,1.508000*%
%ADD12C,0.152400*%
%ADD13C,0.756400*%
%ADD14C,0.304800*%

G36*
X368122Y10164D02*
X368122Y10164D01*
X368160Y10163D01*
X368438Y10185D01*
X368443Y10186D01*
X368449Y10186D01*
X368613Y10220D01*
X369142Y10392D01*
X369174Y10408D01*
X369209Y10417D01*
X369355Y10500D01*
X369805Y10827D01*
X369830Y10852D01*
X369860Y10871D01*
X369973Y10995D01*
X370300Y11445D01*
X370316Y11477D01*
X370339Y11505D01*
X370408Y11658D01*
X370580Y12187D01*
X370581Y12192D01*
X370584Y12197D01*
X370615Y12362D01*
X370637Y12640D01*
X370635Y12662D01*
X370639Y12700D01*
X370639Y695200D01*
X370636Y695222D01*
X370637Y695260D01*
X370615Y695538D01*
X370614Y695543D01*
X370614Y695549D01*
X370580Y695713D01*
X370408Y696242D01*
X370392Y696274D01*
X370383Y696309D01*
X370300Y696455D01*
X369973Y696905D01*
X369948Y696930D01*
X369929Y696960D01*
X369805Y697073D01*
X369355Y697400D01*
X369323Y697416D01*
X369295Y697439D01*
X369142Y697508D01*
X368613Y697680D01*
X368608Y697681D01*
X368603Y697684D01*
X368438Y697715D01*
X368160Y697737D01*
X368138Y697735D01*
X368100Y697739D01*
X12700Y697739D01*
X12678Y697736D01*
X12640Y697737D01*
X12362Y697715D01*
X12357Y697714D01*
X12351Y697714D01*
X12187Y697680D01*
X11658Y697508D01*
X11626Y697492D01*
X11591Y697483D01*
X11445Y697400D01*
X10995Y697073D01*
X10970Y697048D01*
X10940Y697029D01*
X10827Y696905D01*
X10500Y696455D01*
X10484Y696423D01*
X10461Y696395D01*
X10392Y696242D01*
X10220Y695713D01*
X10219Y695708D01*
X10216Y695703D01*
X10185Y695538D01*
X10163Y695260D01*
X10165Y695238D01*
X10161Y695200D01*
X10161Y12700D01*
X10164Y12678D01*
X10163Y12640D01*
X10185Y12362D01*
X10186Y12357D01*
X10186Y12351D01*
X10220Y12187D01*
X10392Y11658D01*
X10408Y11626D01*
X10417Y11591D01*
X10500Y11445D01*
X10827Y10995D01*
X10852Y10970D01*
X10871Y10940D01*
X10995Y10827D01*
X11445Y10500D01*
X11477Y10484D01*
X11505Y10461D01*
X11658Y10392D01*
X12187Y10220D01*
X12192Y10219D01*
X12197Y10216D01*
X12362Y10185D01*
X12640Y10163D01*
X12662Y10165D01*
X12700Y10161D01*
X368100Y10161D01*
X368122Y10164D01*
G37*
%LPC*%
G36*
X135902Y307621D02*
X135902Y307621D01*
X133578Y308584D01*
X131800Y310362D01*
X130837Y312686D01*
X130837Y315281D01*
X130823Y315371D01*
X130815Y315462D01*
X130803Y315491D01*
X130798Y315523D01*
X130755Y315604D01*
X130719Y315688D01*
X130693Y315720D01*
X130682Y315741D01*
X130659Y315763D01*
X130614Y315819D01*
X129891Y316542D01*
X129817Y316595D01*
X129748Y316655D01*
X129717Y316667D01*
X129691Y316686D01*
X129604Y316713D01*
X129519Y316747D01*
X129478Y316751D01*
X129456Y316758D01*
X129424Y316757D01*
X129353Y316765D01*
X126758Y316765D01*
X124434Y317728D01*
X122600Y319562D01*
X122526Y319615D01*
X122457Y319675D01*
X122426Y319687D01*
X122400Y319706D01*
X122313Y319733D01*
X122228Y319767D01*
X122187Y319771D01*
X122165Y319778D01*
X122133Y319777D01*
X122062Y319785D01*
X99216Y319785D01*
X97058Y321943D01*
X71881Y347120D01*
X71881Y510384D01*
X193324Y631827D01*
X193377Y631901D01*
X193437Y631970D01*
X193449Y632001D01*
X193468Y632027D01*
X193495Y632114D01*
X193529Y632199D01*
X193533Y632240D01*
X193540Y632262D01*
X193539Y632294D01*
X193547Y632365D01*
X193547Y663048D01*
X193528Y663163D01*
X193511Y663279D01*
X193509Y663285D01*
X193508Y663291D01*
X193453Y663393D01*
X193400Y663498D01*
X193395Y663503D01*
X193392Y663508D01*
X193308Y663588D01*
X193224Y663671D01*
X193218Y663674D01*
X193214Y663678D01*
X193197Y663685D01*
X193077Y663751D01*
X191140Y664554D01*
X188304Y667390D01*
X186769Y671095D01*
X186769Y675105D01*
X188304Y678810D01*
X191140Y681646D01*
X194845Y683181D01*
X198855Y683181D01*
X202560Y681646D01*
X205396Y678810D01*
X206931Y675105D01*
X206931Y671095D01*
X205396Y667390D01*
X202560Y664554D01*
X200623Y663751D01*
X200523Y663689D01*
X200423Y663630D01*
X200419Y663625D01*
X200414Y663622D01*
X200338Y663530D01*
X200263Y663443D01*
X200261Y663437D01*
X200257Y663432D01*
X200215Y663324D01*
X200171Y663215D01*
X200170Y663207D01*
X200169Y663203D01*
X200168Y663184D01*
X200153Y663048D01*
X200153Y629314D01*
X78710Y507871D01*
X78657Y507797D01*
X78597Y507728D01*
X78585Y507697D01*
X78566Y507671D01*
X78539Y507584D01*
X78505Y507499D01*
X78501Y507458D01*
X78494Y507436D01*
X78495Y507404D01*
X78487Y507333D01*
X78487Y350171D01*
X78501Y350081D01*
X78509Y349990D01*
X78521Y349961D01*
X78526Y349929D01*
X78569Y349848D01*
X78605Y349764D01*
X78631Y349732D01*
X78642Y349711D01*
X78665Y349689D01*
X78710Y349633D01*
X101729Y326614D01*
X101803Y326561D01*
X101872Y326501D01*
X101903Y326489D01*
X101929Y326470D01*
X102016Y326443D01*
X102101Y326409D01*
X102142Y326405D01*
X102164Y326398D01*
X102196Y326399D01*
X102267Y326391D01*
X122062Y326391D01*
X122152Y326405D01*
X122243Y326413D01*
X122272Y326425D01*
X122304Y326430D01*
X122385Y326473D01*
X122469Y326509D01*
X122501Y326535D01*
X122522Y326546D01*
X122544Y326569D01*
X122600Y326614D01*
X124434Y328448D01*
X126758Y329411D01*
X129274Y329411D01*
X131598Y328448D01*
X133376Y326670D01*
X134339Y324346D01*
X134339Y321751D01*
X134353Y321661D01*
X134361Y321570D01*
X134373Y321541D01*
X134378Y321509D01*
X134421Y321428D01*
X134457Y321344D01*
X134483Y321312D01*
X134494Y321291D01*
X134517Y321269D01*
X134562Y321213D01*
X135285Y320490D01*
X135359Y320437D01*
X135428Y320377D01*
X135459Y320365D01*
X135485Y320346D01*
X135572Y320319D01*
X135657Y320285D01*
X135698Y320281D01*
X135720Y320274D01*
X135752Y320275D01*
X135823Y320267D01*
X138418Y320267D01*
X140742Y319304D01*
X142520Y317526D01*
X143483Y315202D01*
X143483Y312686D01*
X142520Y310362D01*
X140742Y308584D01*
X138418Y307621D01*
X135902Y307621D01*
G37*
%LPD*%
%LPC*%
G36*
X187718Y298477D02*
X187718Y298477D01*
X185394Y299440D01*
X183616Y301218D01*
X182653Y303542D01*
X182653Y306058D01*
X183616Y308382D01*
X185450Y310216D01*
X185503Y310290D01*
X185563Y310359D01*
X185575Y310390D01*
X185594Y310416D01*
X185621Y310503D01*
X185655Y310588D01*
X185659Y310629D01*
X185666Y310651D01*
X185665Y310683D01*
X185673Y310754D01*
X185673Y339950D01*
X198784Y353061D01*
X212486Y353061D01*
X212576Y353075D01*
X212667Y353083D01*
X212696Y353095D01*
X212728Y353100D01*
X212809Y353143D01*
X212893Y353179D01*
X212925Y353205D01*
X212946Y353216D01*
X212968Y353239D01*
X213024Y353284D01*
X214858Y355118D01*
X216777Y355913D01*
X216860Y355964D01*
X216946Y356010D01*
X216963Y356028D01*
X216986Y356042D01*
X217048Y356118D01*
X217115Y356188D01*
X217126Y356212D01*
X217143Y356232D01*
X217178Y356323D01*
X217219Y356411D01*
X217221Y356437D01*
X217231Y356461D01*
X217235Y356559D01*
X217246Y356655D01*
X217240Y356681D01*
X217241Y356707D01*
X217214Y356801D01*
X217193Y356896D01*
X217180Y356918D01*
X217173Y356943D01*
X217117Y357023D01*
X217067Y357107D01*
X217047Y357124D01*
X217032Y357145D01*
X216954Y357204D01*
X216880Y357267D01*
X216856Y357277D01*
X216835Y357292D01*
X216743Y357322D01*
X216652Y357359D01*
X216620Y357362D01*
X216601Y357368D01*
X216568Y357368D01*
X216485Y357377D01*
X170082Y357377D01*
X152145Y375314D01*
X152145Y409797D01*
X152131Y409887D01*
X152123Y409978D01*
X152111Y410007D01*
X152106Y410039D01*
X152063Y410120D01*
X152027Y410204D01*
X152001Y410236D01*
X151990Y410257D01*
X151967Y410279D01*
X151950Y410300D01*
X151945Y410308D01*
X151941Y410312D01*
X151922Y410335D01*
X151255Y411002D01*
X151181Y411055D01*
X151112Y411115D01*
X151081Y411127D01*
X151055Y411146D01*
X150968Y411173D01*
X150883Y411207D01*
X150842Y411211D01*
X150820Y411218D01*
X150788Y411217D01*
X150717Y411225D01*
X143114Y411225D01*
X143024Y411211D01*
X142933Y411203D01*
X142904Y411191D01*
X142872Y411186D01*
X142791Y411143D01*
X142707Y411107D01*
X142675Y411081D01*
X142654Y411070D01*
X142632Y411047D01*
X142576Y411002D01*
X140742Y409168D01*
X138418Y408205D01*
X135902Y408205D01*
X133578Y409168D01*
X131744Y411002D01*
X131670Y411055D01*
X131601Y411115D01*
X131570Y411127D01*
X131544Y411146D01*
X131457Y411173D01*
X131372Y411207D01*
X131331Y411211D01*
X131309Y411218D01*
X131277Y411217D01*
X131206Y411225D01*
X116491Y411225D01*
X116401Y411211D01*
X116310Y411203D01*
X116281Y411191D01*
X116249Y411186D01*
X116168Y411143D01*
X116084Y411107D01*
X116052Y411081D01*
X116031Y411070D01*
X116009Y411047D01*
X115953Y411002D01*
X91918Y386967D01*
X91865Y386893D01*
X91805Y386824D01*
X91793Y386793D01*
X91774Y386767D01*
X91747Y386680D01*
X91713Y386595D01*
X91709Y386554D01*
X91702Y386532D01*
X91703Y386500D01*
X91695Y386429D01*
X91695Y371714D01*
X91709Y371624D01*
X91717Y371533D01*
X91729Y371504D01*
X91734Y371472D01*
X91777Y371391D01*
X91813Y371307D01*
X91839Y371275D01*
X91850Y371254D01*
X91873Y371232D01*
X91918Y371176D01*
X93752Y369342D01*
X94715Y367018D01*
X94715Y364502D01*
X93752Y362178D01*
X91974Y360400D01*
X89650Y359437D01*
X87134Y359437D01*
X84810Y360400D01*
X83032Y362178D01*
X82069Y364502D01*
X82069Y367018D01*
X83032Y369342D01*
X84866Y371176D01*
X84919Y371250D01*
X84979Y371319D01*
X84991Y371350D01*
X85010Y371376D01*
X85037Y371463D01*
X85071Y371548D01*
X85075Y371589D01*
X85082Y371611D01*
X85081Y371643D01*
X85089Y371714D01*
X85089Y389480D01*
X113440Y417831D01*
X131206Y417831D01*
X131296Y417845D01*
X131387Y417853D01*
X131416Y417865D01*
X131448Y417870D01*
X131529Y417913D01*
X131613Y417949D01*
X131645Y417975D01*
X131666Y417986D01*
X131688Y418009D01*
X131744Y418054D01*
X133578Y419888D01*
X135902Y420851D01*
X138418Y420851D01*
X140742Y419888D01*
X142576Y418054D01*
X142650Y418001D01*
X142719Y417941D01*
X142750Y417929D01*
X142776Y417910D01*
X142863Y417883D01*
X142948Y417849D01*
X142989Y417845D01*
X143011Y417838D01*
X143043Y417839D01*
X143114Y417831D01*
X153768Y417831D01*
X158751Y412848D01*
X158751Y378365D01*
X158765Y378275D01*
X158773Y378184D01*
X158785Y378155D01*
X158790Y378123D01*
X158833Y378042D01*
X158869Y377958D01*
X158895Y377926D01*
X158906Y377905D01*
X158929Y377883D01*
X158974Y377827D01*
X172595Y364206D01*
X172669Y364153D01*
X172738Y364093D01*
X172769Y364081D01*
X172795Y364062D01*
X172882Y364035D01*
X172967Y364001D01*
X173008Y363997D01*
X173030Y363990D01*
X173062Y363991D01*
X173133Y363983D01*
X184546Y363983D01*
X184616Y363994D01*
X184688Y363996D01*
X184737Y364014D01*
X184789Y364022D01*
X184852Y364056D01*
X184919Y364081D01*
X184960Y364113D01*
X185006Y364138D01*
X185055Y364190D01*
X185111Y364234D01*
X185139Y364278D01*
X185175Y364316D01*
X185205Y364381D01*
X185244Y364441D01*
X185257Y364492D01*
X185279Y364539D01*
X185287Y364610D01*
X185304Y364680D01*
X185300Y364732D01*
X185306Y364783D01*
X185291Y364854D01*
X185285Y364925D01*
X185265Y364973D01*
X185254Y365024D01*
X185217Y365085D01*
X185189Y365151D01*
X185144Y365207D01*
X185128Y365235D01*
X185110Y365250D01*
X185084Y365282D01*
X183362Y367004D01*
X182399Y369328D01*
X182399Y371844D01*
X183362Y374168D01*
X185196Y376002D01*
X185249Y376076D01*
X185309Y376145D01*
X185321Y376176D01*
X185340Y376202D01*
X185367Y376289D01*
X185401Y376374D01*
X185405Y376415D01*
X185412Y376437D01*
X185411Y376469D01*
X185419Y376540D01*
X185419Y428339D01*
X185405Y428429D01*
X185397Y428520D01*
X185385Y428549D01*
X185380Y428581D01*
X185337Y428662D01*
X185301Y428746D01*
X185275Y428778D01*
X185264Y428799D01*
X185241Y428821D01*
X185196Y428877D01*
X178178Y435895D01*
X178162Y435907D01*
X178149Y435923D01*
X178062Y435978D01*
X177978Y436039D01*
X177959Y436045D01*
X177942Y436055D01*
X177842Y436081D01*
X177743Y436111D01*
X177723Y436111D01*
X177704Y436115D01*
X177601Y436107D01*
X177497Y436105D01*
X177479Y436098D01*
X177459Y436096D01*
X177363Y436056D01*
X177266Y436020D01*
X177251Y436008D01*
X177232Y436000D01*
X177191Y435967D01*
X173455Y434419D01*
X169445Y434419D01*
X165740Y435954D01*
X162904Y438790D01*
X161369Y442495D01*
X161369Y446505D01*
X162904Y450210D01*
X165740Y453046D01*
X169445Y454581D01*
X173455Y454581D01*
X177160Y453046D01*
X179996Y450210D01*
X181531Y446505D01*
X181531Y442466D01*
X181520Y442419D01*
X181491Y442306D01*
X181492Y442300D01*
X181490Y442293D01*
X181501Y442177D01*
X181510Y442061D01*
X181513Y442055D01*
X181513Y442049D01*
X181561Y441941D01*
X181607Y441834D01*
X181611Y441828D01*
X181613Y441824D01*
X181626Y441810D01*
X181712Y441703D01*
X192025Y431390D01*
X192025Y376540D01*
X192039Y376450D01*
X192047Y376359D01*
X192059Y376330D01*
X192064Y376298D01*
X192107Y376217D01*
X192143Y376133D01*
X192169Y376101D01*
X192180Y376080D01*
X192203Y376058D01*
X192248Y376002D01*
X194082Y374168D01*
X195045Y371844D01*
X195045Y369328D01*
X194082Y367004D01*
X192360Y365282D01*
X192318Y365224D01*
X192269Y365172D01*
X192247Y365125D01*
X192216Y365083D01*
X192195Y365014D01*
X192165Y364949D01*
X192159Y364897D01*
X192144Y364847D01*
X192146Y364776D01*
X192138Y364705D01*
X192149Y364654D01*
X192150Y364602D01*
X192175Y364534D01*
X192190Y364464D01*
X192217Y364419D01*
X192235Y364371D01*
X192280Y364315D01*
X192316Y364253D01*
X192356Y364219D01*
X192389Y364179D01*
X192449Y364140D01*
X192503Y364093D01*
X192552Y364074D01*
X192595Y364046D01*
X192665Y364028D01*
X192732Y364001D01*
X192803Y363993D01*
X192834Y363985D01*
X192857Y363987D01*
X192898Y363983D01*
X241144Y363983D01*
X243302Y361825D01*
X251109Y354018D01*
X251183Y353964D01*
X251252Y353905D01*
X251283Y353893D01*
X251309Y353874D01*
X251396Y353847D01*
X251481Y353813D01*
X251522Y353809D01*
X251544Y353802D01*
X251576Y353803D01*
X251647Y353795D01*
X254242Y353795D01*
X256566Y352832D01*
X258344Y351054D01*
X259307Y348730D01*
X259307Y346214D01*
X258344Y343890D01*
X256566Y342112D01*
X254242Y341149D01*
X251726Y341149D01*
X249402Y342112D01*
X247624Y343890D01*
X246661Y346214D01*
X246661Y348809D01*
X246647Y348899D01*
X246639Y348990D01*
X246627Y349019D01*
X246622Y349051D01*
X246579Y349132D01*
X246543Y349216D01*
X246517Y349248D01*
X246506Y349269D01*
X246483Y349291D01*
X246438Y349347D01*
X238631Y357154D01*
X238557Y357207D01*
X238488Y357267D01*
X238457Y357279D01*
X238431Y357298D01*
X238344Y357325D01*
X238259Y357359D01*
X238218Y357363D01*
X238196Y357370D01*
X238164Y357369D01*
X238093Y357377D01*
X220395Y357377D01*
X220299Y357362D01*
X220202Y357352D01*
X220178Y357342D01*
X220152Y357338D01*
X220066Y357292D01*
X219977Y357252D01*
X219958Y357235D01*
X219934Y357222D01*
X219867Y357152D01*
X219796Y357086D01*
X219783Y357063D01*
X219765Y357044D01*
X219724Y356956D01*
X219677Y356870D01*
X219672Y356845D01*
X219661Y356821D01*
X219651Y356724D01*
X219633Y356628D01*
X219637Y356602D01*
X219634Y356577D01*
X219655Y356481D01*
X219669Y356385D01*
X219681Y356362D01*
X219687Y356336D01*
X219737Y356253D01*
X219781Y356166D01*
X219799Y356147D01*
X219813Y356125D01*
X219887Y356062D01*
X219956Y355994D01*
X219985Y355978D01*
X220000Y355965D01*
X220030Y355953D01*
X220103Y355913D01*
X222022Y355118D01*
X223800Y353340D01*
X224763Y351016D01*
X224763Y348500D01*
X223800Y346176D01*
X222022Y344398D01*
X219698Y343435D01*
X217182Y343435D01*
X214858Y344398D01*
X213024Y346232D01*
X212950Y346285D01*
X212881Y346345D01*
X212850Y346357D01*
X212824Y346376D01*
X212737Y346403D01*
X212652Y346437D01*
X212611Y346441D01*
X212589Y346448D01*
X212557Y346447D01*
X212486Y346455D01*
X201835Y346455D01*
X201745Y346441D01*
X201654Y346433D01*
X201625Y346421D01*
X201593Y346416D01*
X201512Y346373D01*
X201428Y346337D01*
X201396Y346311D01*
X201375Y346300D01*
X201353Y346277D01*
X201297Y346232D01*
X192502Y337437D01*
X192449Y337363D01*
X192389Y337294D01*
X192377Y337263D01*
X192358Y337237D01*
X192331Y337150D01*
X192297Y337065D01*
X192293Y337024D01*
X192286Y337002D01*
X192287Y336970D01*
X192279Y336899D01*
X192279Y310754D01*
X192293Y310664D01*
X192301Y310573D01*
X192313Y310544D01*
X192318Y310512D01*
X192361Y310431D01*
X192397Y310347D01*
X192423Y310315D01*
X192434Y310294D01*
X192457Y310272D01*
X192502Y310216D01*
X194336Y308382D01*
X195299Y306058D01*
X195299Y303542D01*
X194336Y301218D01*
X192558Y299440D01*
X190234Y298477D01*
X187718Y298477D01*
G37*
%LPD*%
%LPC*%
G36*
X129806Y191797D02*
X129806Y191797D01*
X127482Y192760D01*
X125704Y194538D01*
X124741Y196862D01*
X124741Y199378D01*
X125704Y201702D01*
X127482Y203480D01*
X129806Y204443D01*
X132322Y204443D01*
X134646Y203480D01*
X135718Y202408D01*
X135792Y202355D01*
X135861Y202295D01*
X135892Y202283D01*
X135918Y202264D01*
X136005Y202237D01*
X136090Y202203D01*
X136131Y202199D01*
X136153Y202192D01*
X136185Y202193D01*
X136256Y202185D01*
X202072Y202185D01*
X202162Y202199D01*
X202253Y202207D01*
X202282Y202219D01*
X202314Y202224D01*
X202395Y202267D01*
X202479Y202303D01*
X202511Y202329D01*
X202532Y202340D01*
X202554Y202363D01*
X202610Y202408D01*
X203682Y203480D01*
X206006Y204443D01*
X207523Y204443D01*
X207613Y204457D01*
X207704Y204465D01*
X207734Y204477D01*
X207766Y204482D01*
X207846Y204525D01*
X207930Y204561D01*
X207962Y204587D01*
X207983Y204598D01*
X208005Y204621D01*
X208061Y204666D01*
X314261Y310866D01*
X334835Y331440D01*
X334877Y331498D01*
X334927Y331550D01*
X334949Y331597D01*
X334979Y331639D01*
X335000Y331708D01*
X335030Y331773D01*
X335036Y331825D01*
X335051Y331875D01*
X335049Y331946D01*
X335057Y332017D01*
X335046Y332068D01*
X335045Y332120D01*
X335020Y332188D01*
X335005Y332258D01*
X334978Y332303D01*
X334960Y332351D01*
X334916Y332407D01*
X334879Y332469D01*
X334839Y332503D01*
X334807Y332543D01*
X334746Y332582D01*
X334692Y332629D01*
X334644Y332648D01*
X334600Y332676D01*
X334530Y332694D01*
X334464Y332721D01*
X334392Y332729D01*
X334361Y332737D01*
X334338Y332735D01*
X334297Y332739D01*
X333259Y332739D01*
X329524Y334286D01*
X326666Y337144D01*
X325119Y340879D01*
X325119Y344921D01*
X326666Y348656D01*
X329524Y351514D01*
X333259Y353061D01*
X352541Y353061D01*
X356276Y351514D01*
X359134Y348656D01*
X360681Y344921D01*
X360681Y340879D01*
X359134Y337144D01*
X356276Y334286D01*
X352541Y332739D01*
X347947Y332739D01*
X347857Y332725D01*
X347766Y332717D01*
X347736Y332705D01*
X347704Y332700D01*
X347624Y332657D01*
X347540Y332621D01*
X347508Y332595D01*
X347487Y332584D01*
X347465Y332561D01*
X347409Y332516D01*
X345885Y330992D01*
X320739Y305846D01*
X320727Y305830D01*
X320711Y305818D01*
X320655Y305730D01*
X320595Y305647D01*
X320589Y305628D01*
X320578Y305611D01*
X320553Y305510D01*
X320523Y305411D01*
X320523Y305392D01*
X320518Y305372D01*
X320526Y305269D01*
X320529Y305166D01*
X320536Y305147D01*
X320538Y305127D01*
X320578Y305032D01*
X320614Y304935D01*
X320626Y304919D01*
X320634Y304901D01*
X320739Y304770D01*
X321783Y303726D01*
X321857Y303673D01*
X321926Y303613D01*
X321956Y303601D01*
X321982Y303582D01*
X322069Y303555D01*
X322154Y303521D01*
X322195Y303517D01*
X322218Y303510D01*
X322250Y303511D01*
X322321Y303503D01*
X323838Y303503D01*
X326162Y302540D01*
X327940Y300762D01*
X328903Y298438D01*
X328903Y295922D01*
X327940Y293598D01*
X326162Y291820D01*
X323838Y290857D01*
X321322Y290857D01*
X318998Y291820D01*
X317220Y293598D01*
X316257Y295922D01*
X316257Y297439D01*
X316243Y297529D01*
X316235Y297620D01*
X316223Y297650D01*
X316218Y297682D01*
X316175Y297762D01*
X316139Y297846D01*
X316113Y297878D01*
X316102Y297899D01*
X316079Y297921D01*
X316034Y297977D01*
X314990Y299021D01*
X314974Y299033D01*
X314962Y299049D01*
X314874Y299105D01*
X314791Y299165D01*
X314772Y299171D01*
X314755Y299182D01*
X314654Y299207D01*
X314555Y299237D01*
X314536Y299237D01*
X314516Y299242D01*
X314413Y299234D01*
X314310Y299231D01*
X314291Y299224D01*
X314271Y299222D01*
X314176Y299182D01*
X314079Y299146D01*
X314063Y299134D01*
X314045Y299126D01*
X313914Y299021D01*
X213810Y198917D01*
X213757Y198843D01*
X213697Y198774D01*
X213685Y198744D01*
X213666Y198718D01*
X213639Y198631D01*
X213605Y198546D01*
X213601Y198505D01*
X213594Y198482D01*
X213595Y198450D01*
X213587Y198379D01*
X213587Y196862D01*
X212624Y194538D01*
X210846Y192760D01*
X208522Y191797D01*
X206006Y191797D01*
X203682Y192760D01*
X202610Y193832D01*
X202536Y193885D01*
X202467Y193945D01*
X202436Y193957D01*
X202410Y193976D01*
X202323Y194003D01*
X202238Y194037D01*
X202197Y194041D01*
X202175Y194048D01*
X202143Y194047D01*
X202072Y194055D01*
X136256Y194055D01*
X136166Y194041D01*
X136075Y194033D01*
X136046Y194021D01*
X136014Y194016D01*
X135933Y193973D01*
X135849Y193937D01*
X135817Y193911D01*
X135796Y193900D01*
X135774Y193877D01*
X135718Y193832D01*
X134646Y192760D01*
X132322Y191797D01*
X129806Y191797D01*
G37*
%LPD*%
%LPC*%
G36*
X57670Y385853D02*
X57670Y385853D01*
X55346Y386816D01*
X53568Y388594D01*
X52605Y390918D01*
X52605Y393434D01*
X53568Y395758D01*
X55402Y397592D01*
X55455Y397666D01*
X55515Y397735D01*
X55527Y397766D01*
X55546Y397792D01*
X55573Y397879D01*
X55607Y397964D01*
X55611Y398005D01*
X55618Y398027D01*
X55617Y398059D01*
X55625Y398130D01*
X55625Y519528D01*
X167162Y631065D01*
X167215Y631139D01*
X167275Y631208D01*
X167287Y631239D01*
X167306Y631265D01*
X167333Y631352D01*
X167367Y631437D01*
X167371Y631478D01*
X167378Y631500D01*
X167377Y631532D01*
X167385Y631603D01*
X167385Y663364D01*
X167366Y663478D01*
X167349Y663595D01*
X167347Y663600D01*
X167346Y663606D01*
X167291Y663709D01*
X167238Y663814D01*
X167233Y663818D01*
X167230Y663824D01*
X167146Y663904D01*
X167062Y663986D01*
X167056Y663990D01*
X167052Y663993D01*
X167035Y664001D01*
X166915Y664067D01*
X165740Y664554D01*
X162904Y667390D01*
X161369Y671095D01*
X161369Y675105D01*
X162904Y678810D01*
X165740Y681646D01*
X169445Y683181D01*
X173455Y683181D01*
X177160Y681646D01*
X179996Y678810D01*
X181531Y675105D01*
X181531Y671095D01*
X179996Y667390D01*
X177160Y664554D01*
X174461Y663436D01*
X174361Y663374D01*
X174261Y663314D01*
X174257Y663309D01*
X174252Y663306D01*
X174177Y663217D01*
X174101Y663127D01*
X174099Y663121D01*
X174095Y663117D01*
X174053Y663009D01*
X174009Y662899D01*
X174008Y662892D01*
X174007Y662887D01*
X174006Y662869D01*
X173991Y662732D01*
X173991Y628552D01*
X62454Y517015D01*
X62401Y516941D01*
X62341Y516872D01*
X62329Y516841D01*
X62310Y516815D01*
X62283Y516728D01*
X62249Y516643D01*
X62245Y516602D01*
X62238Y516580D01*
X62239Y516548D01*
X62231Y516477D01*
X62231Y398130D01*
X62245Y398040D01*
X62253Y397949D01*
X62265Y397920D01*
X62270Y397888D01*
X62313Y397807D01*
X62349Y397723D01*
X62375Y397691D01*
X62386Y397670D01*
X62409Y397648D01*
X62454Y397592D01*
X64288Y395758D01*
X65251Y393434D01*
X65251Y390918D01*
X64288Y388594D01*
X62510Y386816D01*
X60186Y385853D01*
X57670Y385853D01*
G37*
%LPD*%
%LPC*%
G36*
X245630Y73941D02*
X245630Y73941D01*
X243306Y74904D01*
X241528Y76682D01*
X240565Y79006D01*
X240565Y81522D01*
X241528Y83846D01*
X243306Y85624D01*
X245630Y86587D01*
X248146Y86587D01*
X250470Y85624D01*
X252304Y83790D01*
X252378Y83737D01*
X252447Y83677D01*
X252478Y83665D01*
X252504Y83646D01*
X252591Y83619D01*
X252676Y83585D01*
X252717Y83581D01*
X252739Y83574D01*
X252771Y83575D01*
X252842Y83567D01*
X345582Y83567D01*
X345672Y83581D01*
X345763Y83589D01*
X345792Y83601D01*
X345824Y83606D01*
X345905Y83649D01*
X345989Y83685D01*
X346021Y83711D01*
X346042Y83722D01*
X346064Y83745D01*
X346120Y83790D01*
X347954Y85624D01*
X350278Y86587D01*
X352794Y86587D01*
X355118Y85624D01*
X356896Y83846D01*
X357859Y81522D01*
X357859Y79006D01*
X356896Y76682D01*
X355118Y74904D01*
X352794Y73941D01*
X350278Y73941D01*
X347954Y74904D01*
X346120Y76738D01*
X346046Y76791D01*
X345977Y76851D01*
X345946Y76863D01*
X345920Y76882D01*
X345833Y76909D01*
X345748Y76943D01*
X345707Y76947D01*
X345685Y76954D01*
X345653Y76953D01*
X345582Y76961D01*
X252842Y76961D01*
X252752Y76947D01*
X252661Y76939D01*
X252632Y76927D01*
X252600Y76922D01*
X252519Y76879D01*
X252435Y76843D01*
X252403Y76817D01*
X252382Y76806D01*
X252360Y76783D01*
X252304Y76738D01*
X250470Y74904D01*
X248146Y73941D01*
X245630Y73941D01*
G37*
%LPD*%
%LPC*%
G36*
X49795Y32511D02*
X49795Y32511D01*
X46060Y34058D01*
X43202Y36916D01*
X41655Y40651D01*
X41655Y59933D01*
X43202Y63668D01*
X46060Y66526D01*
X49795Y68073D01*
X53837Y68073D01*
X57572Y66526D01*
X60430Y63668D01*
X61977Y59933D01*
X61977Y40651D01*
X60430Y36916D01*
X57572Y34058D01*
X53837Y32511D01*
X49795Y32511D01*
G37*
%LPD*%
%LPC*%
G36*
X176795Y32511D02*
X176795Y32511D01*
X173060Y34058D01*
X170202Y36916D01*
X168655Y40651D01*
X168655Y59933D01*
X170202Y63668D01*
X173060Y66526D01*
X176795Y68073D01*
X180837Y68073D01*
X184572Y66526D01*
X187430Y63668D01*
X188977Y59933D01*
X188977Y40651D01*
X187430Y36916D01*
X184572Y34058D01*
X180837Y32511D01*
X176795Y32511D01*
G37*
%LPD*%
%LPC*%
G36*
X303795Y32511D02*
X303795Y32511D01*
X300060Y34058D01*
X297202Y36916D01*
X295655Y40651D01*
X295655Y59933D01*
X297202Y63668D01*
X300060Y66526D01*
X303795Y68073D01*
X307837Y68073D01*
X311572Y66526D01*
X314430Y63668D01*
X315977Y59933D01*
X315977Y40651D01*
X314430Y36916D01*
X311572Y34058D01*
X307837Y32511D01*
X303795Y32511D01*
G37*
%LPD*%
%LPC*%
G36*
X28459Y332739D02*
X28459Y332739D01*
X24724Y334286D01*
X21866Y337144D01*
X20319Y340879D01*
X20319Y344921D01*
X21866Y348656D01*
X24724Y351514D01*
X28459Y353061D01*
X47741Y353061D01*
X51476Y351514D01*
X54334Y348656D01*
X55881Y344921D01*
X55881Y340879D01*
X54334Y337144D01*
X51476Y334286D01*
X47741Y332739D01*
X28459Y332739D01*
G37*
%LPD*%
%LPC*%
G36*
X245645Y434419D02*
X245645Y434419D01*
X241940Y435954D01*
X239104Y438790D01*
X237569Y442495D01*
X237569Y446505D01*
X239104Y450210D01*
X241940Y453046D01*
X245645Y454581D01*
X249655Y454581D01*
X253360Y453046D01*
X256196Y450210D01*
X257731Y446505D01*
X257731Y442495D01*
X256196Y438790D01*
X253360Y435954D01*
X249655Y434419D01*
X245645Y434419D01*
G37*
%LPD*%
%LPC*%
G36*
X220245Y434419D02*
X220245Y434419D01*
X216540Y435954D01*
X213704Y438790D01*
X212169Y442495D01*
X212169Y446505D01*
X213704Y450210D01*
X216540Y453046D01*
X220245Y454581D01*
X224255Y454581D01*
X227960Y453046D01*
X230796Y450210D01*
X232331Y446505D01*
X232331Y442495D01*
X230796Y438790D01*
X227960Y435954D01*
X224255Y434419D01*
X220245Y434419D01*
G37*
%LPD*%
%LPC*%
G36*
X93245Y663019D02*
X93245Y663019D01*
X89540Y664554D01*
X86704Y667390D01*
X85169Y671095D01*
X85169Y675105D01*
X86704Y678810D01*
X89540Y681646D01*
X93245Y683181D01*
X97255Y683181D01*
X100960Y681646D01*
X103796Y678810D01*
X105331Y675105D01*
X105331Y671095D01*
X103796Y667390D01*
X100960Y664554D01*
X97255Y663019D01*
X93245Y663019D01*
G37*
%LPD*%
%LPC*%
G36*
X271045Y434419D02*
X271045Y434419D01*
X267340Y435954D01*
X264504Y438790D01*
X262969Y442495D01*
X262969Y446505D01*
X264504Y450210D01*
X267340Y453046D01*
X271045Y454581D01*
X275055Y454581D01*
X278760Y453046D01*
X281596Y450210D01*
X283131Y446505D01*
X283131Y442495D01*
X281596Y438790D01*
X278760Y435954D01*
X275055Y434419D01*
X271045Y434419D01*
G37*
%LPD*%
%LPC*%
G36*
X220245Y663019D02*
X220245Y663019D01*
X216540Y664554D01*
X213704Y667390D01*
X212169Y671095D01*
X212169Y675105D01*
X213704Y678810D01*
X216540Y681646D01*
X220245Y683181D01*
X224255Y683181D01*
X227960Y681646D01*
X230796Y678810D01*
X232331Y675105D01*
X232331Y671095D01*
X230796Y667390D01*
X227960Y664554D01*
X224255Y663019D01*
X220245Y663019D01*
G37*
%LPD*%
%LPC*%
G36*
X93245Y434419D02*
X93245Y434419D01*
X89540Y435954D01*
X86704Y438790D01*
X85169Y442495D01*
X85169Y446505D01*
X86704Y450210D01*
X89540Y453046D01*
X93245Y454581D01*
X97255Y454581D01*
X100960Y453046D01*
X103796Y450210D01*
X105331Y446505D01*
X105331Y442495D01*
X103796Y438790D01*
X100960Y435954D01*
X97255Y434419D01*
X93245Y434419D01*
G37*
%LPD*%
%LPC*%
G36*
X118645Y434419D02*
X118645Y434419D01*
X114940Y435954D01*
X112104Y438790D01*
X110569Y442495D01*
X110569Y446505D01*
X112104Y450210D01*
X114940Y453046D01*
X118645Y454581D01*
X122655Y454581D01*
X126360Y453046D01*
X129196Y450210D01*
X130731Y446505D01*
X130731Y442495D01*
X129196Y438790D01*
X126360Y435954D01*
X122655Y434419D01*
X118645Y434419D01*
G37*
%LPD*%
%LPC*%
G36*
X144045Y434419D02*
X144045Y434419D01*
X140340Y435954D01*
X137504Y438790D01*
X135969Y442495D01*
X135969Y446505D01*
X137504Y450210D01*
X140340Y453046D01*
X144045Y454581D01*
X148055Y454581D01*
X151760Y453046D01*
X154596Y450210D01*
X156131Y446505D01*
X156131Y442495D01*
X154596Y438790D01*
X151760Y435954D01*
X148055Y434419D01*
X144045Y434419D01*
G37*
%LPD*%
%LPC*%
G36*
X144045Y663019D02*
X144045Y663019D01*
X140340Y664554D01*
X137504Y667390D01*
X135969Y671095D01*
X135969Y675105D01*
X137504Y678810D01*
X140340Y681646D01*
X144045Y683181D01*
X148055Y683181D01*
X151760Y681646D01*
X154596Y678810D01*
X156131Y675105D01*
X156131Y671095D01*
X154596Y667390D01*
X151760Y664554D01*
X148055Y663019D01*
X144045Y663019D01*
G37*
%LPD*%
%LPC*%
G36*
X271045Y663019D02*
X271045Y663019D01*
X267340Y664554D01*
X264504Y667390D01*
X262969Y671095D01*
X262969Y675105D01*
X264504Y678810D01*
X267340Y681646D01*
X271045Y683181D01*
X275055Y683181D01*
X278760Y681646D01*
X281596Y678810D01*
X283131Y675105D01*
X283131Y671095D01*
X281596Y667390D01*
X278760Y664554D01*
X275055Y663019D01*
X271045Y663019D01*
G37*
%LPD*%
%LPC*%
G36*
X194845Y434419D02*
X194845Y434419D01*
X191140Y435954D01*
X188304Y438790D01*
X186769Y442495D01*
X186769Y446505D01*
X188304Y450210D01*
X191140Y453046D01*
X194845Y454581D01*
X198855Y454581D01*
X202560Y453046D01*
X205396Y450210D01*
X206931Y446505D01*
X206931Y442495D01*
X205396Y438790D01*
X202560Y435954D01*
X198855Y434419D01*
X194845Y434419D01*
G37*
%LPD*%
%LPC*%
G36*
X118645Y663019D02*
X118645Y663019D01*
X114940Y664554D01*
X112104Y667390D01*
X110569Y671095D01*
X110569Y675105D01*
X112104Y678810D01*
X114940Y681646D01*
X118645Y683181D01*
X122655Y683181D01*
X126360Y681646D01*
X129196Y678810D01*
X130731Y675105D01*
X130731Y671095D01*
X129196Y667390D01*
X126360Y664554D01*
X122655Y663019D01*
X118645Y663019D01*
G37*
%LPD*%
%LPC*%
G36*
X332739Y51815D02*
X332739Y51815D01*
X332739Y67958D01*
X333595Y67823D01*
X335116Y67328D01*
X336541Y66602D01*
X337835Y65662D01*
X338966Y64531D01*
X339906Y63237D01*
X340632Y61812D01*
X341127Y60291D01*
X341377Y58712D01*
X341377Y51815D01*
X332739Y51815D01*
G37*
%LPD*%
%LPC*%
G36*
X205739Y51815D02*
X205739Y51815D01*
X205739Y67958D01*
X206595Y67823D01*
X208116Y67328D01*
X209541Y66602D01*
X210835Y65662D01*
X211966Y64531D01*
X212906Y63237D01*
X213632Y61812D01*
X214127Y60291D01*
X214377Y58712D01*
X214377Y51815D01*
X205739Y51815D01*
G37*
%LPD*%
%LPC*%
G36*
X78739Y51815D02*
X78739Y51815D01*
X78739Y67958D01*
X79595Y67823D01*
X81116Y67328D01*
X82541Y66602D01*
X83835Y65662D01*
X84966Y64531D01*
X85906Y63237D01*
X86632Y61812D01*
X87127Y60291D01*
X87377Y58712D01*
X87377Y51815D01*
X78739Y51815D01*
G37*
%LPD*%
%LPC*%
G36*
X39623Y369823D02*
X39623Y369823D01*
X39623Y378461D01*
X46520Y378461D01*
X48099Y378211D01*
X49620Y377716D01*
X51045Y376990D01*
X52339Y376050D01*
X53470Y374919D01*
X54410Y373625D01*
X55136Y372200D01*
X55631Y370679D01*
X55766Y369823D01*
X39623Y369823D01*
G37*
%LPD*%
%LPC*%
G36*
X344423Y369823D02*
X344423Y369823D01*
X344423Y378461D01*
X351320Y378461D01*
X352899Y378211D01*
X354420Y377716D01*
X355845Y376990D01*
X357139Y376050D01*
X358270Y374919D01*
X359210Y373625D01*
X359936Y372200D01*
X360431Y370679D01*
X360566Y369823D01*
X344423Y369823D01*
G37*
%LPD*%
%LPC*%
G36*
X325234Y369823D02*
X325234Y369823D01*
X325369Y370679D01*
X325864Y372200D01*
X326590Y373625D01*
X327530Y374919D01*
X328661Y376050D01*
X329955Y376990D01*
X331380Y377716D01*
X332901Y378211D01*
X334480Y378461D01*
X341377Y378461D01*
X341377Y369823D01*
X325234Y369823D01*
G37*
%LPD*%
%LPC*%
G36*
X20434Y369823D02*
X20434Y369823D01*
X20569Y370679D01*
X21064Y372200D01*
X21790Y373625D01*
X22730Y374919D01*
X23861Y376050D01*
X25155Y376990D01*
X26580Y377716D01*
X28101Y378211D01*
X29680Y378461D01*
X36577Y378461D01*
X36577Y369823D01*
X20434Y369823D01*
G37*
%LPD*%
%LPC*%
G36*
X205739Y48769D02*
X205739Y48769D01*
X214377Y48769D01*
X214377Y41872D01*
X214127Y40293D01*
X213632Y38772D01*
X212906Y37347D01*
X211966Y36053D01*
X210835Y34922D01*
X209541Y33982D01*
X208116Y33256D01*
X206595Y32761D01*
X205739Y32626D01*
X205739Y48769D01*
G37*
%LPD*%
%LPC*%
G36*
X78739Y48769D02*
X78739Y48769D01*
X87377Y48769D01*
X87377Y41872D01*
X87127Y40293D01*
X86632Y38772D01*
X85906Y37347D01*
X84966Y36053D01*
X83835Y34922D01*
X82541Y33982D01*
X81116Y33256D01*
X79595Y32761D01*
X78739Y32626D01*
X78739Y48769D01*
G37*
%LPD*%
%LPC*%
G36*
X332739Y48769D02*
X332739Y48769D01*
X341377Y48769D01*
X341377Y41872D01*
X341127Y40293D01*
X340632Y38772D01*
X339906Y37347D01*
X338966Y36053D01*
X337835Y34922D01*
X336541Y33982D01*
X335116Y33256D01*
X333595Y32761D01*
X332739Y32626D01*
X332739Y48769D01*
G37*
%LPD*%
%LPC*%
G36*
X67055Y51815D02*
X67055Y51815D01*
X67055Y58712D01*
X67305Y60291D01*
X67800Y61812D01*
X68526Y63237D01*
X69466Y64531D01*
X70597Y65662D01*
X71891Y66602D01*
X73316Y67328D01*
X74837Y67823D01*
X75693Y67958D01*
X75693Y51815D01*
X67055Y51815D01*
G37*
%LPD*%
%LPC*%
G36*
X344423Y358139D02*
X344423Y358139D01*
X344423Y366777D01*
X360566Y366777D01*
X360431Y365921D01*
X359936Y364400D01*
X359210Y362975D01*
X358270Y361681D01*
X357139Y360550D01*
X355845Y359610D01*
X354420Y358884D01*
X352899Y358389D01*
X351320Y358139D01*
X344423Y358139D01*
G37*
%LPD*%
%LPC*%
G36*
X39623Y358139D02*
X39623Y358139D01*
X39623Y366777D01*
X55766Y366777D01*
X55631Y365921D01*
X55136Y364400D01*
X54410Y362975D01*
X53470Y361681D01*
X52339Y360550D01*
X51045Y359610D01*
X49620Y358884D01*
X48099Y358389D01*
X46520Y358139D01*
X39623Y358139D01*
G37*
%LPD*%
%LPC*%
G36*
X194055Y51815D02*
X194055Y51815D01*
X194055Y58712D01*
X194305Y60291D01*
X194800Y61812D01*
X195526Y63237D01*
X196466Y64531D01*
X197597Y65662D01*
X198891Y66602D01*
X200316Y67328D01*
X201837Y67823D01*
X202693Y67958D01*
X202693Y51815D01*
X194055Y51815D01*
G37*
%LPD*%
%LPC*%
G36*
X321055Y51815D02*
X321055Y51815D01*
X321055Y58712D01*
X321305Y60291D01*
X321800Y61812D01*
X322526Y63237D01*
X323466Y64531D01*
X324597Y65662D01*
X325891Y66602D01*
X327316Y67328D01*
X328837Y67823D01*
X329693Y67958D01*
X329693Y51815D01*
X321055Y51815D01*
G37*
%LPD*%
%LPC*%
G36*
X29680Y358139D02*
X29680Y358139D01*
X28101Y358389D01*
X26580Y358884D01*
X25155Y359610D01*
X23861Y360550D01*
X22730Y361681D01*
X21790Y362975D01*
X21064Y364400D01*
X20569Y365921D01*
X20434Y366777D01*
X36577Y366777D01*
X36577Y358139D01*
X29680Y358139D01*
G37*
%LPD*%
%LPC*%
G36*
X334480Y358139D02*
X334480Y358139D01*
X332901Y358389D01*
X331380Y358884D01*
X329955Y359610D01*
X328661Y360550D01*
X327530Y361681D01*
X326590Y362975D01*
X325864Y364400D01*
X325369Y365921D01*
X325234Y366777D01*
X341377Y366777D01*
X341377Y358139D01*
X334480Y358139D01*
G37*
%LPD*%
%LPC*%
G36*
X201837Y32761D02*
X201837Y32761D01*
X200316Y33256D01*
X198891Y33982D01*
X197597Y34922D01*
X196466Y36053D01*
X195526Y37347D01*
X194800Y38772D01*
X194305Y40293D01*
X194055Y41872D01*
X194055Y48769D01*
X202693Y48769D01*
X202693Y32626D01*
X201837Y32761D01*
G37*
%LPD*%
%LPC*%
G36*
X328837Y32761D02*
X328837Y32761D01*
X327316Y33256D01*
X325891Y33982D01*
X324597Y34922D01*
X323466Y36053D01*
X322526Y37347D01*
X321800Y38772D01*
X321305Y40293D01*
X321055Y41872D01*
X321055Y48769D01*
X329693Y48769D01*
X329693Y32626D01*
X328837Y32761D01*
G37*
%LPD*%
%LPC*%
G36*
X74837Y32761D02*
X74837Y32761D01*
X73316Y33256D01*
X71891Y33982D01*
X70597Y34922D01*
X69466Y36053D01*
X68526Y37347D01*
X67800Y38772D01*
X67305Y40293D01*
X67055Y41872D01*
X67055Y48769D01*
X75693Y48769D01*
X75693Y32626D01*
X74837Y32761D01*
G37*
%LPD*%
%LPC*%
G36*
X249173Y674623D02*
X249173Y674623D01*
X249173Y683065D01*
X250011Y682933D01*
X251520Y682442D01*
X252933Y681722D01*
X254217Y680789D01*
X255339Y679667D01*
X256272Y678383D01*
X256992Y676970D01*
X257483Y675461D01*
X257615Y674623D01*
X249173Y674623D01*
G37*
%LPD*%
%LPC*%
G36*
X249173Y671577D02*
X249173Y671577D01*
X257615Y671577D01*
X257483Y670739D01*
X256992Y669230D01*
X256272Y667817D01*
X255339Y666533D01*
X254217Y665411D01*
X252933Y664478D01*
X251520Y663758D01*
X250011Y663267D01*
X249173Y663135D01*
X249173Y671577D01*
G37*
%LPD*%
%LPC*%
G36*
X237685Y674623D02*
X237685Y674623D01*
X237817Y675461D01*
X238308Y676970D01*
X239028Y678383D01*
X239961Y679667D01*
X241083Y680789D01*
X242367Y681722D01*
X243780Y682442D01*
X245289Y682933D01*
X246127Y683065D01*
X246127Y674623D01*
X237685Y674623D01*
G37*
%LPD*%
%LPC*%
G36*
X245289Y663267D02*
X245289Y663267D01*
X243780Y663758D01*
X242367Y664478D01*
X241083Y665411D01*
X239961Y666533D01*
X239028Y667817D01*
X238308Y669230D01*
X237817Y670739D01*
X237685Y671577D01*
X246127Y671577D01*
X246127Y663135D01*
X245289Y663267D01*
G37*
%LPD*%
%LPC*%
G36*
X247649Y673099D02*
X247649Y673099D01*
X247649Y673101D01*
X247651Y673101D01*
X247651Y673099D01*
X247649Y673099D01*
G37*
%LPD*%
%LPC*%
G36*
X77215Y50291D02*
X77215Y50291D01*
X77215Y50293D01*
X77217Y50293D01*
X77217Y50291D01*
X77215Y50291D01*
G37*
%LPD*%
%LPC*%
G36*
X331215Y50291D02*
X331215Y50291D01*
X331215Y50293D01*
X331217Y50293D01*
X331217Y50291D01*
X331215Y50291D01*
G37*
%LPD*%
%LPC*%
G36*
X204215Y50291D02*
X204215Y50291D01*
X204215Y50293D01*
X204217Y50293D01*
X204217Y50291D01*
X204215Y50291D01*
G37*
%LPD*%
%LPC*%
G36*
X38099Y368299D02*
X38099Y368299D01*
X38099Y368301D01*
X38101Y368301D01*
X38101Y368299D01*
X38099Y368299D01*
G37*
%LPD*%
%LPC*%
G36*
X342899Y368299D02*
X342899Y368299D01*
X342899Y368301D01*
X342901Y368301D01*
X342901Y368299D01*
X342899Y368299D01*
G37*
%LPD*%
D10*
X51816Y42672D02*
X51816Y57912D01*
X77216Y57912D02*
X77216Y42672D01*
X178816Y42672D02*
X178816Y57912D01*
X204216Y57912D02*
X204216Y42672D01*
X305816Y42672D02*
X305816Y57912D01*
X331216Y57912D02*
X331216Y42672D01*
X45720Y342900D02*
X30480Y342900D01*
X30480Y368300D02*
X45720Y368300D01*
X335280Y342900D02*
X350520Y342900D01*
X350520Y368300D02*
X335280Y368300D01*
D11*
X247650Y444500D03*
X222250Y444500D03*
X196850Y444500D03*
X171450Y444500D03*
X146050Y444500D03*
X120650Y444500D03*
X95250Y444500D03*
X247650Y673100D03*
X222250Y673100D03*
X196850Y673100D03*
X171450Y673100D03*
X146050Y673100D03*
X120650Y673100D03*
X95250Y673100D03*
X273050Y444500D03*
X273050Y673100D03*
D12*
X170688Y670560D02*
X170688Y629920D01*
X58928Y518160D01*
X58928Y392176D01*
X170688Y670560D02*
X171450Y673100D01*
D13*
X58928Y392176D03*
X50800Y292100D03*
X25400Y254000D03*
X215900Y304800D03*
X152400Y279400D03*
X266700Y368300D03*
X331216Y131572D03*
X228600Y254000D03*
X266700Y304800D03*
X266700Y215900D03*
X317500Y266700D03*
X77216Y131572D03*
X127000Y381000D03*
X127000Y355600D03*
D14*
X131064Y198120D02*
X207264Y198120D01*
X315722Y306578D02*
X344424Y335280D01*
X315722Y306578D02*
X207264Y198120D01*
X344424Y335280D02*
X344424Y341376D01*
X342900Y342900D01*
D13*
X131064Y198120D03*
X207264Y198120D03*
X322580Y297180D03*
D14*
X315722Y304038D01*
X315722Y306578D01*
D12*
X218440Y349758D02*
X200152Y349758D01*
X188976Y338582D01*
X188976Y304800D01*
D13*
X218440Y349758D03*
X188976Y304800D03*
D12*
X137160Y313944D02*
X128016Y323088D01*
X196850Y630682D02*
X196850Y673100D01*
X196850Y630682D02*
X75184Y509016D01*
X75184Y348488D01*
X100584Y323088D01*
X128016Y323088D01*
D13*
X128016Y323088D03*
X137160Y313944D03*
D12*
X137160Y414528D02*
X114808Y414528D01*
X88392Y388112D01*
X88392Y365760D01*
X239776Y360680D02*
X252984Y347472D01*
X239776Y360680D02*
X171450Y360680D01*
X155448Y376682D01*
X155448Y411480D02*
X152400Y414528D01*
X137160Y414528D01*
X155448Y411480D02*
X155448Y376682D01*
D13*
X88392Y365760D03*
X137160Y414528D03*
X252984Y347472D03*
D12*
X188722Y370586D02*
X188722Y430022D01*
X173736Y445008D01*
X171450Y444500D01*
D13*
X188722Y370586D03*
X246888Y80264D03*
X351536Y80264D03*
D12*
X246888Y80264D01*
M02*
