M48
;GenerationSoftware,Autodesk,EAGLE,9.6.2*%
;CreationDate,2021-05-15T22:49:03Z*%
FMAT,2
ICI,OFF
METRIC,TZ,000.000
T4C0.350
T3C1.000
T2C1.016
T1C3.000
%
G90
M71
T1
X2947Y90032
X52947Y90032
X52947Y3032
X2947Y3032
T2
X45127Y7112
X42587Y7112
X28887Y7112
X26347Y7112
X13647Y7112
X11107Y7112
X6068Y71302
X6068Y61452
X6068Y58912
X6068Y77912
X6068Y80452
X6068Y68762
T3
X18837Y82377
X41697Y82377
X18837Y64597
X18837Y67137
X18837Y69677
X18837Y72217
X18837Y77297
X18837Y79837
X41697Y64597
X41697Y67137
X41697Y69677
X41697Y72217
X41697Y74757
X41697Y77297
X41697Y79837
X18837Y74757
T4
X29447Y82032
X30947Y82032
X32447Y82032
X31947Y66032
X33447Y66032
X34947Y66032
X50853Y61325
X43954Y39832
X45454Y38832
X42454Y39832
X30947Y10532
X32447Y10532
X32447Y9032
X15947Y10532
X17447Y10532
X17447Y9032
X10614Y16385
X30947Y50032
X48923Y46985
X48923Y45671
X4861Y32264
X16913Y35356
X41288Y16149
X10911Y41136
X10424Y61493
X10424Y59993
X23130Y5888
X26103Y27422
X24017Y72218
X28736Y17964
X27547Y77382
X39994Y17895
X6175Y14297
X33212Y52324
X21296Y14204
X47505Y50002
X37439Y14320
X46947Y42032
X24501Y19222
X31794Y29420
X38460Y5911
X42317Y28039
X45074Y29994
X45064Y19214
X7406Y6051
X9101Y24634
X10123Y32068
X12980Y19291
X41503Y46865
X38813Y40822
X14582Y73231
X44947Y81032
X47356Y64775
X12585Y84126
X45620Y48446
X45910Y44161
X51947Y82032
X52174Y72102
X9947Y47532
X8447Y47532
X6924Y63993
X6947Y74032
X47962Y81094
X45900Y72448
X49458Y65990
X5447Y74032
X5447Y84032
X6947Y84032
X44947Y66532
X47853Y57325
X30947Y51532
X27231Y32915
X34216Y33986
X36493Y29962
X36564Y26056
X34362Y21781
X37405Y16149
X7614Y16385
X20059Y26102
X21617Y32098
X16913Y33856
X4861Y28264
X17330Y49309
X23541Y45089
X5411Y43136
X5424Y63993
X13153Y17975
X25715Y74718
M30