M48
;GenerationSoftware,Autodesk,EAGLE,9.6.2*%
;CreationDate,2021-06-02T00:01:01Z*%
FMAT,2
ICI,OFF
METRIC,TZ,000.000
T4C0.350
T3C1.000
T2C1.016
T1C3.000
%
G90
M71
T1
X2947Y90032
X52947Y90032
X52947Y3032
X2947Y3032
T2
X4290Y71302
X4290Y68762
X4290Y81468
X4290Y78928
X45212Y7112
X42672Y7112
X29464Y7112
X26924Y7112
X13716Y7112
X11176Y7112
X4290Y45458
X4290Y47998
T3
X18837Y64597
X18837Y67137
X32310Y46700
X18837Y72217
X18837Y74757
X18837Y77297
X18837Y79837
X41697Y64597
X41697Y67137
X41697Y69677
X41697Y72217
X41697Y74757
X41697Y77297
X41697Y79837
X41697Y82377
X18837Y82377
X24690Y46700
X27230Y46700
X29770Y46700
X18837Y69677
T4
X32447Y10532
X32447Y9032
X15947Y10532
X17447Y10532
X17447Y9032
X48923Y48509
X11250Y30750
X15373Y34348
X2500Y41750
X9662Y64033
X10932Y64057
X24025Y39501
X16750Y28250
X16750Y26750
X46317Y89874
X47841Y89874
X48804Y3002
X53287Y7405
X2072Y7320
X6394Y2498
X53287Y8760
X1985Y8591
X15000Y44750
X15000Y43750
X38673Y47509
X23130Y5888
X26357Y28676
X25715Y74718
X28736Y17964
X27547Y77382
X44312Y17895
X6175Y13281
X33212Y52324
X21296Y13188
X47505Y50002
X37439Y13304
X46947Y42032
X38460Y5911
X42317Y28789
X7406Y6051
X11133Y24973
X40995Y46188
X38982Y40144
X5588Y58928
X24017Y72218
X8128Y58928
X9398Y58928
X10668Y58928
X5588Y57658
X6858Y57658
X8128Y57658
X9398Y57658
X10668Y57658
X11938Y58928
X11938Y57658
X13208Y58928
X13208Y57658
X6858Y56388
X5588Y56388
X5588Y55118
X6858Y55118
X5588Y53848
X6858Y53848
X4318Y58928
X4318Y57658
X4318Y56388
X4318Y55118
X4318Y53848
X13208Y60198
X11938Y60198
X10668Y60198
X9398Y60198
X8128Y60198
X6858Y60198
X5588Y60198
X4318Y60198
X3048Y60198
X3048Y58928
X3048Y57658
X3048Y56388
X3048Y55118
X3048Y53848
X14582Y73231
X44439Y80778
X47187Y64775
X15125Y85396
X45620Y48446
X45910Y44161
X30947Y10532
X42454Y39494
X45284Y39510
X43954Y39494
X51700Y60987
X34947Y66032
X33447Y66032
X31947Y66032
X32447Y82032
X30947Y82032
X29447Y82032
X52709Y82032
X52682Y80569
X2500Y40500
X5400Y64755
X6693Y75302
X46438Y81348
X46577Y72278
X50220Y66244
X5447Y75302
X7225Y89874
X8471Y89874
X44947Y66786
X49885Y54023
X31950Y33990
X35493Y30462
X34362Y21781
X21617Y32098
X16643Y34372
X11250Y29250
X7250Y49000
X24025Y41025
X2500Y43000
X5424Y65771
X13153Y17975
X6858Y58928
M30