M48
;GenerationSoftware,Autodesk,EAGLE,9.6.2*%
;CreationDate,2021-05-05T17:17:59Z*%
FMAT,2
ICI,OFF
METRIC,TZ,000.000
T3C0.350
T2C1.000
T1C1.016
%
G90
M71
T1
X5080Y3810
X34290Y36830
X34290Y34290
X3810Y36830
X3810Y34290
X33020Y3810
X30480Y3810
X20320Y3810
X17780Y3810
X7620Y3810
T2
X27305Y67310
X27305Y44450
X9525Y67310
X12065Y67310
X14605Y67310
X17145Y67310
X19685Y67310
X22225Y67310
X24765Y67310
X9525Y44450
X12065Y44450
X14605Y44450
X17145Y44450
X19685Y44450
X22225Y44450
X24765Y44450
T3
X26670Y21590
X26670Y30480
X22860Y25400
X33020Y13970
X26670Y12700
X26670Y36830
X15240Y27940
X21590Y30480
X2540Y25400
X5080Y29210
X18872Y37059
X25298Y34747
X13716Y41453
X8839Y36576
X13716Y31394
X12802Y32309
X18898Y30480
X21234Y34976
X32258Y29718
X20726Y19812
X13106Y19812
X12700Y35560
X12700Y38100
X7620Y13970
X31750Y26670
X7315Y40234
M30