G04 EAGLE Gerber RS-274X export*
G75*
%MOMM*%
%FSLAX34Y34*%
%LPD*%
%IN*%
%IPPOS*%
%AMOC8*
5,1,8,0,0,1.08239X$1,22.5*%
G01*
%ADD10C,0.254000*%


D10*
X-529Y318D02*
X559471Y318D01*
X559471Y930318D01*
X-529Y930318D01*
X-529Y318D01*
X44471Y899782D02*
X44395Y898714D01*
X44242Y897653D01*
X44015Y896606D01*
X43713Y895578D01*
X43338Y894574D01*
X42893Y893599D01*
X42380Y892659D01*
X41801Y891758D01*
X41158Y890900D01*
X40457Y890090D01*
X39699Y889333D01*
X38889Y888631D01*
X38032Y887989D01*
X37130Y887410D01*
X36190Y886896D01*
X35215Y886451D01*
X34211Y886077D01*
X33183Y885775D01*
X32136Y885547D01*
X31076Y885394D01*
X30007Y885318D01*
X28936Y885318D01*
X27867Y885394D01*
X26806Y885547D01*
X25759Y885775D01*
X24731Y886077D01*
X23727Y886451D01*
X22753Y886896D01*
X21812Y887410D01*
X20911Y887989D01*
X20053Y888631D01*
X19244Y889333D01*
X18486Y890090D01*
X17784Y890900D01*
X17142Y891758D01*
X16563Y892659D01*
X16049Y893599D01*
X15604Y894574D01*
X15230Y895578D01*
X14928Y896606D01*
X14700Y897653D01*
X14548Y898714D01*
X14471Y899782D01*
X14471Y900854D01*
X14548Y901922D01*
X14700Y902983D01*
X14928Y904030D01*
X15230Y905058D01*
X15604Y906062D01*
X16049Y907037D01*
X16563Y907977D01*
X17142Y908878D01*
X17784Y909736D01*
X18486Y910546D01*
X19244Y911303D01*
X20053Y912005D01*
X20911Y912647D01*
X21812Y913226D01*
X22753Y913740D01*
X23727Y914185D01*
X24731Y914559D01*
X25759Y914861D01*
X26806Y915089D01*
X27867Y915242D01*
X28936Y915318D01*
X30007Y915318D01*
X31076Y915242D01*
X32136Y915089D01*
X33183Y914861D01*
X34211Y914559D01*
X35215Y914185D01*
X36190Y913740D01*
X37130Y913226D01*
X38032Y912647D01*
X38889Y912005D01*
X39699Y911303D01*
X40457Y910546D01*
X41158Y909736D01*
X41801Y908878D01*
X42380Y907977D01*
X42893Y907037D01*
X43338Y906062D01*
X43713Y905058D01*
X44015Y904030D01*
X44242Y902983D01*
X44395Y901922D01*
X44471Y900854D01*
X44471Y899782D01*
X544471Y899782D02*
X544395Y898714D01*
X544242Y897653D01*
X544015Y896606D01*
X543713Y895578D01*
X543338Y894574D01*
X542893Y893599D01*
X542380Y892659D01*
X541801Y891758D01*
X541158Y890900D01*
X540457Y890090D01*
X539699Y889333D01*
X538889Y888631D01*
X538032Y887989D01*
X537130Y887410D01*
X536190Y886896D01*
X535215Y886451D01*
X534211Y886077D01*
X533183Y885775D01*
X532136Y885547D01*
X531076Y885394D01*
X530007Y885318D01*
X528936Y885318D01*
X527867Y885394D01*
X526806Y885547D01*
X525759Y885775D01*
X524731Y886077D01*
X523727Y886451D01*
X522753Y886896D01*
X521812Y887410D01*
X520911Y887989D01*
X520053Y888631D01*
X519244Y889333D01*
X518486Y890090D01*
X517784Y890900D01*
X517142Y891758D01*
X516563Y892659D01*
X516049Y893599D01*
X515604Y894574D01*
X515230Y895578D01*
X514928Y896606D01*
X514700Y897653D01*
X514548Y898714D01*
X514471Y899782D01*
X514471Y900854D01*
X514548Y901922D01*
X514700Y902983D01*
X514928Y904030D01*
X515230Y905058D01*
X515604Y906062D01*
X516049Y907037D01*
X516563Y907977D01*
X517142Y908878D01*
X517784Y909736D01*
X518486Y910546D01*
X519244Y911303D01*
X520053Y912005D01*
X520911Y912647D01*
X521812Y913226D01*
X522753Y913740D01*
X523727Y914185D01*
X524731Y914559D01*
X525759Y914861D01*
X526806Y915089D01*
X527867Y915242D01*
X528936Y915318D01*
X530007Y915318D01*
X531076Y915242D01*
X532136Y915089D01*
X533183Y914861D01*
X534211Y914559D01*
X535215Y914185D01*
X536190Y913740D01*
X537130Y913226D01*
X538032Y912647D01*
X538889Y912005D01*
X539699Y911303D01*
X540457Y910546D01*
X541158Y909736D01*
X541801Y908878D01*
X542380Y907977D01*
X542893Y907037D01*
X543338Y906062D01*
X543713Y905058D01*
X544015Y904030D01*
X544242Y902983D01*
X544395Y901922D01*
X544471Y900854D01*
X544471Y899782D01*
X544471Y29782D02*
X544395Y28714D01*
X544242Y27653D01*
X544015Y26606D01*
X543713Y25578D01*
X543338Y24574D01*
X542893Y23599D01*
X542380Y22659D01*
X541801Y21758D01*
X541158Y20900D01*
X540457Y20090D01*
X539699Y19333D01*
X538889Y18631D01*
X538032Y17989D01*
X537130Y17410D01*
X536190Y16896D01*
X535215Y16451D01*
X534211Y16077D01*
X533183Y15775D01*
X532136Y15547D01*
X531076Y15394D01*
X530007Y15318D01*
X528936Y15318D01*
X527867Y15394D01*
X526806Y15547D01*
X525759Y15775D01*
X524731Y16077D01*
X523727Y16451D01*
X522753Y16896D01*
X521812Y17410D01*
X520911Y17989D01*
X520053Y18631D01*
X519244Y19333D01*
X518486Y20090D01*
X517784Y20900D01*
X517142Y21758D01*
X516563Y22659D01*
X516049Y23599D01*
X515604Y24574D01*
X515230Y25578D01*
X514928Y26606D01*
X514700Y27653D01*
X514548Y28714D01*
X514471Y29782D01*
X514471Y30854D01*
X514548Y31922D01*
X514700Y32983D01*
X514928Y34030D01*
X515230Y35058D01*
X515604Y36062D01*
X516049Y37037D01*
X516563Y37977D01*
X517142Y38878D01*
X517784Y39736D01*
X518486Y40546D01*
X519244Y41303D01*
X520053Y42005D01*
X520911Y42647D01*
X521812Y43226D01*
X522753Y43740D01*
X523727Y44185D01*
X524731Y44559D01*
X525759Y44861D01*
X526806Y45089D01*
X527867Y45242D01*
X528936Y45318D01*
X530007Y45318D01*
X531076Y45242D01*
X532136Y45089D01*
X533183Y44861D01*
X534211Y44559D01*
X535215Y44185D01*
X536190Y43740D01*
X537130Y43226D01*
X538032Y42647D01*
X538889Y42005D01*
X539699Y41303D01*
X540457Y40546D01*
X541158Y39736D01*
X541801Y38878D01*
X542380Y37977D01*
X542893Y37037D01*
X543338Y36062D01*
X543713Y35058D01*
X544015Y34030D01*
X544242Y32983D01*
X544395Y31922D01*
X544471Y30854D01*
X544471Y29782D01*
X44471Y29782D02*
X44395Y28714D01*
X44242Y27653D01*
X44015Y26606D01*
X43713Y25578D01*
X43338Y24574D01*
X42893Y23599D01*
X42380Y22659D01*
X41801Y21758D01*
X41158Y20900D01*
X40457Y20090D01*
X39699Y19333D01*
X38889Y18631D01*
X38032Y17989D01*
X37130Y17410D01*
X36190Y16896D01*
X35215Y16451D01*
X34211Y16077D01*
X33183Y15775D01*
X32136Y15547D01*
X31076Y15394D01*
X30007Y15318D01*
X28936Y15318D01*
X27867Y15394D01*
X26806Y15547D01*
X25759Y15775D01*
X24731Y16077D01*
X23727Y16451D01*
X22753Y16896D01*
X21812Y17410D01*
X20911Y17989D01*
X20053Y18631D01*
X19244Y19333D01*
X18486Y20090D01*
X17784Y20900D01*
X17142Y21758D01*
X16563Y22659D01*
X16049Y23599D01*
X15604Y24574D01*
X15230Y25578D01*
X14928Y26606D01*
X14700Y27653D01*
X14548Y28714D01*
X14471Y29782D01*
X14471Y30854D01*
X14548Y31922D01*
X14700Y32983D01*
X14928Y34030D01*
X15230Y35058D01*
X15604Y36062D01*
X16049Y37037D01*
X16563Y37977D01*
X17142Y38878D01*
X17784Y39736D01*
X18486Y40546D01*
X19244Y41303D01*
X20053Y42005D01*
X20911Y42647D01*
X21812Y43226D01*
X22753Y43740D01*
X23727Y44185D01*
X24731Y44559D01*
X25759Y44861D01*
X26806Y45089D01*
X27867Y45242D01*
X28936Y45318D01*
X30007Y45318D01*
X31076Y45242D01*
X32136Y45089D01*
X33183Y44861D01*
X34211Y44559D01*
X35215Y44185D01*
X36190Y43740D01*
X37130Y43226D01*
X38032Y42647D01*
X38889Y42005D01*
X39699Y41303D01*
X40457Y40546D01*
X41158Y39736D01*
X41801Y38878D01*
X42380Y37977D01*
X42893Y37037D01*
X43338Y36062D01*
X43713Y35058D01*
X44015Y34030D01*
X44242Y32983D01*
X44395Y31922D01*
X44471Y30854D01*
X44471Y29782D01*
M02*
