G04 EAGLE Gerber RS-274X export*
G75*
%MOMM*%
%FSLAX34Y34*%
%LPD*%
%IN*%
%IPPOS*%
%AMOC8*
5,1,8,0,0,1.08239X$1,22.5*%
G01*
%ADD10C,0.254000*%


D10*
X0Y12700D02*
X48Y11593D01*
X193Y10495D01*
X433Y9413D01*
X766Y8356D01*
X1190Y7333D01*
X1701Y6350D01*
X2297Y5416D01*
X2971Y4537D01*
X3720Y3720D01*
X4537Y2971D01*
X5416Y2297D01*
X6350Y1701D01*
X7333Y1190D01*
X8356Y766D01*
X9413Y433D01*
X10495Y193D01*
X11593Y48D01*
X12700Y0D01*
X368100Y0D01*
X369207Y48D01*
X370305Y193D01*
X371387Y433D01*
X372444Y766D01*
X373467Y1190D01*
X374450Y1701D01*
X375384Y2297D01*
X376263Y2971D01*
X377080Y3720D01*
X377829Y4537D01*
X378503Y5416D01*
X379099Y6350D01*
X379610Y7333D01*
X380034Y8356D01*
X380367Y9413D01*
X380607Y10495D01*
X380752Y11593D01*
X380800Y12700D01*
X380800Y695200D01*
X380752Y696307D01*
X380607Y697405D01*
X380367Y698487D01*
X380034Y699544D01*
X379610Y700567D01*
X379099Y701550D01*
X378503Y702484D01*
X377829Y703363D01*
X377080Y704180D01*
X376263Y704929D01*
X375384Y705603D01*
X374450Y706199D01*
X373467Y706710D01*
X372444Y707134D01*
X371387Y707467D01*
X370305Y707707D01*
X369207Y707852D01*
X368100Y707900D01*
X12700Y707900D01*
X11593Y707852D01*
X10495Y707707D01*
X9413Y707467D01*
X8356Y707134D01*
X7333Y706710D01*
X6350Y706199D01*
X5416Y705603D01*
X4537Y704929D01*
X3720Y704180D01*
X2971Y703363D01*
X2297Y702484D01*
X1701Y701550D01*
X1190Y700567D01*
X766Y699544D01*
X433Y698487D01*
X193Y697405D01*
X48Y696307D01*
X0Y695200D01*
X0Y12700D01*
M02*
