G04 EAGLE Gerber RS-274X export*
G75*
%MOMM*%
%FSLAX34Y34*%
%LPD*%
%INSilkscreen Bottom*%
%IPPOS*%
%AMOC8*
5,1,8,0,0,1.08239X$1,22.5*%
G01*
%ADD10R,0.241300X0.060450*%
%ADD11R,0.060956X0.060450*%
%ADD12R,0.058419X0.060450*%
%ADD13R,0.060963X0.060450*%
%ADD14R,0.482600X0.060450*%
%ADD15R,0.243838X0.060450*%
%ADD16R,0.302256X0.060450*%
%ADD17R,0.726438X0.060450*%
%ADD18R,0.906781X0.060450*%
%ADD19R,0.304800X0.060450*%
%ADD20R,0.906775X0.060450*%
%ADD21R,0.845819X0.060450*%
%ADD22R,0.967738X0.060450*%
%ADD23R,0.363219X0.060450*%
%ADD24R,0.182881X0.060706*%
%ADD25R,0.302262X0.060706*%
%ADD26R,0.241300X0.060706*%
%ADD27R,0.421637X0.060706*%
%ADD28R,0.424175X0.060706*%
%ADD29R,0.363219X0.060706*%
%ADD30R,0.360681X0.060706*%
%ADD31R,0.421637X0.060450*%
%ADD32R,0.424175X0.060450*%
%ADD33R,0.485137X0.060450*%
%ADD34R,0.180338X0.060450*%
%ADD35R,0.182875X0.060450*%
%ADD36R,1.026156X0.060450*%
%ADD37R,0.784863X0.060450*%
%ADD38R,0.302256X0.060706*%
%ADD39R,0.243838X0.060706*%
%ADD40R,0.058419X0.060706*%
%ADD41R,0.360681X0.060450*%
%ADD42R,0.182881X0.060450*%
%ADD43R,0.302262X0.060450*%
%ADD44R,0.424181X0.060450*%
%ADD45R,0.787400X0.060450*%
%ADD46R,0.665475X0.060450*%
%ADD47R,0.848356X0.060450*%
%ADD48R,0.543556X0.060450*%
%ADD49R,0.665481X0.060450*%
%ADD50R,0.546100X0.060450*%
%ADD51R,0.607056X0.060450*%
%ADD52R,0.784856X0.060450*%
%ADD53R,0.723900X0.060450*%
%ADD54R,1.028700X0.060450*%
%ADD55R,0.424181X0.060706*%
%ADD56R,0.485137X0.060706*%
%ADD57R,0.482600X0.060706*%
%ADD58R,0.119381X0.060450*%
%ADD59R,0.121919X0.060450*%
%ADD60R,0.119375X0.060450*%
%ADD61R,1.089662X0.060450*%
%ADD62R,0.909319X0.060450*%
%ADD63R,0.604519X0.060450*%
%ADD64R,1.148081X0.060450*%
%ADD65R,1.150619X0.060450*%
%ADD66R,1.270000X0.060450*%
%ADD67R,1.450338X0.060706*%
%ADD68R,1.572263X0.060450*%
%ADD69R,1.572256X0.060450*%
%ADD70R,2.298700X0.060450*%
%ADD71R,2.420619X0.060450*%
%ADD72R,2.479038X0.060450*%
%ADD73R,2.600963X0.060450*%
%ADD74R,2.600956X0.060450*%
%ADD75R,2.540000X0.060450*%
%ADD76R,2.598419X0.060450*%
%ADD77R,2.540000X0.060706*%
%ADD78R,2.418075X0.060450*%
%ADD79R,2.418081X0.060450*%
%ADD80R,2.359656X0.060450*%
%ADD81R,2.357119X0.060450*%
%ADD82R,2.359656X0.060706*%
%ADD83R,2.357119X0.060706*%
%ADD84R,2.661919X0.060450*%
%ADD85R,2.722881X0.060450*%
%ADD86R,2.722881X0.060706*%
%ADD87R,2.842256X0.060450*%
%ADD88R,2.720338X0.060450*%
%ADD89R,2.722875X0.060450*%
%ADD90R,2.659381X0.060450*%
%ADD91R,2.659375X0.060450*%
%ADD92R,2.961638X0.060450*%
%ADD93R,3.263900X0.060450*%
%ADD94R,3.507738X0.060706*%
%ADD95R,3.507738X0.060450*%
%ADD96R,3.446775X0.060450*%
%ADD97R,3.446781X0.060450*%
%ADD98R,3.385819X0.060450*%
%ADD99R,3.324856X0.060450*%
%ADD100R,3.324863X0.060450*%
%ADD101R,3.324856X0.060706*%
%ADD102R,3.324863X0.060706*%
%ADD103R,3.022600X0.060450*%
%ADD104R,2.781300X0.060450*%
%ADD105R,2.783838X0.060450*%
%ADD106R,2.842263X0.060706*%
%ADD107R,2.842256X0.060706*%
%ADD108R,3.144519X0.060450*%
%ADD109R,6.410956X0.060450*%
%ADD110R,6.289038X0.060450*%
%ADD111R,6.167119X0.060450*%
%ADD112R,6.047738X0.060450*%
%ADD113R,6.167119X0.060706*%
%ADD114R,6.532881X0.060450*%
%ADD115R,6.652256X0.060450*%
%ADD116R,6.771638X0.060450*%
%ADD117R,6.893556X0.060450*%
%ADD118R,7.015481X0.060450*%
%ADD119R,7.015481X0.060706*%
%ADD120R,7.137400X0.060450*%
%ADD121R,7.259319X0.060450*%
%ADD122R,7.376156X0.060450*%
%ADD123R,7.498081X0.060450*%
%ADD124R,1.755138X0.060450*%
%ADD125R,3.388356X0.060450*%
%ADD126R,1.633219X0.060450*%
%ADD127R,2.900681X0.060706*%
%ADD128R,1.330956X0.060450*%
%ADD129R,1.328419X0.060450*%
%ADD130R,2.296156X0.060450*%
%ADD131R,1.935481X0.060450*%
%ADD132R,1.813556X0.060450*%
%ADD133R,1.691638X0.060450*%
%ADD134R,1.572256X0.060706*%
%ADD135R,1.511300X0.060450*%
%ADD136R,1.452881X0.060450*%
%ADD137R,1.330956X0.060706*%
%ADD138R,1.209037X0.060450*%
%ADD139R,23.876000X0.084838*%
%ADD140R,1.016000X0.084838*%
%ADD141R,23.705819X0.084581*%
%ADD142R,1.016000X0.084581*%
%ADD143R,23.538181X0.084581*%
%ADD144R,23.281638X0.084838*%
%ADD145R,23.114000X0.084581*%
%ADD146R,0.254000X0.084581*%
%ADD147R,2.032000X0.084581*%
%ADD148R,0.508000X0.084581*%
%ADD149R,1.270000X0.084581*%
%ADD150R,0.170181X0.084581*%
%ADD151R,2.202181X0.084581*%
%ADD152R,1.356363X0.084581*%
%ADD153R,2.623819X0.084581*%
%ADD154R,2.118362X0.084581*%
%ADD155R,1.861819X0.084581*%
%ADD156R,0.845819X0.084581*%
%ADD157R,0.167637X0.084581*%
%ADD158R,1.945638X0.084581*%
%ADD159R,0.591819X0.084581*%
%ADD160R,0.675638X0.084581*%
%ADD161R,0.762000X0.084581*%
%ADD162R,0.421637X0.084581*%
%ADD163R,0.340363X0.084581*%
%ADD164R,1.099819X0.084581*%
%ADD165R,0.929638X0.084581*%
%ADD166R,0.086363X0.084581*%
%ADD167R,0.932181X0.084581*%
%ADD168R,0.845819X0.084838*%
%ADD169R,0.591819X0.084838*%
%ADD170R,0.508000X0.084838*%
%ADD171R,2.032000X0.084838*%
%ADD172R,1.353819X0.084838*%
%ADD173R,1.099819X0.084838*%
%ADD174R,0.170181X0.084838*%
%ADD175R,0.932181X0.084838*%
%ADD176R,0.678181X0.084581*%
%ADD177R,1.607819X0.084581*%
%ADD178R,1.778000X0.084581*%
%ADD179R,1.353819X0.084581*%
%ADD180R,0.848363X0.084838*%
%ADD181R,1.948181X0.084838*%
%ADD182R,1.437638X0.084838*%
%ADD183R,0.424181X0.084838*%
%ADD184R,2.115819X0.084838*%
%ADD185R,2.115819X0.084581*%
%ADD186R,1.524000X0.084581*%
%ADD187R,0.594363X0.084581*%
%ADD188R,0.762000X0.084838*%
%ADD189R,2.286000X0.084838*%
%ADD190R,1.607819X0.084838*%
%ADD191R,0.678181X0.084838*%
%ADD192R,1.861819X0.084838*%
%ADD193R,0.083819X0.084581*%
%ADD194R,2.369819X0.084581*%
%ADD195R,1.183638X0.084581*%
%ADD196R,0.848363X0.084581*%
%ADD197R,1.691638X0.084581*%
%ADD198R,0.675638X0.084838*%
%ADD199R,1.270000X0.084838*%
%ADD200R,1.437638X0.084581*%
%ADD201R,0.594363X0.084838*%
%ADD202R,1.524000X0.084838*%
%ADD203R,0.929638X0.084838*%
%ADD204R,1.691638X0.084838*%
%ADD205R,1.694181X0.084581*%
%ADD206R,1.102363X0.084581*%
%ADD207R,1.102363X0.084838*%
%ADD208R,1.864363X0.084581*%
%ADD209R,1.186181X0.084581*%
%ADD210R,1.948181X0.084581*%
%ADD211R,2.540000X0.084581*%
%ADD212R,1.945638X0.084838*%
%ADD213R,2.540000X0.084838*%
%ADD214R,2.372362X0.084838*%
%ADD215R,2.456181X0.084838*%
%ADD216R,2.453638X0.084581*%
%ADD217R,2.372362X0.084581*%
%ADD218R,0.424181X0.084581*%
%ADD219R,2.286000X0.084581*%
%ADD220R,2.199638X0.084581*%
%ADD221R,0.337819X0.084838*%
%ADD222R,2.118362X0.084838*%
%ADD223R,0.421637X0.084838*%
%ADD224R,1.778000X0.084838*%
%ADD225R,0.337819X0.084581*%
%ADD226R,1.186181X0.084838*%
%ADD227R,0.083819X0.084838*%
%ADD228R,0.167637X0.084838*%
%ADD229R,0.271781X0.090675*%
%ADD230R,0.817875X0.090675*%
%ADD231R,1.270000X0.090675*%
%ADD232R,1.905000X0.090675*%
%ADD233R,2.087875X0.090675*%
%ADD234R,2.176775X0.090931*%
%ADD235R,2.085338X0.090675*%
%ADD236R,2.176781X0.090675*%
%ADD237R,2.087881X0.090675*%
%ADD238R,2.085338X0.090931*%
%ADD239R,2.176775X0.090675*%
%ADD240R,2.087875X0.090931*%
%ADD241R,0.635000X0.090675*%
%ADD242R,0.546100X0.090675*%
%ADD243R,0.998219X0.090675*%
%ADD244R,3.629656X0.090675*%
%ADD245R,1.633219X0.090675*%
%ADD246R,3.538219X0.090675*%
%ADD247R,1.996438X0.090675*%
%ADD248R,3.538219X0.090931*%
%ADD249R,2.268219X0.090931*%
%ADD250R,3.446781X0.090675*%
%ADD251R,2.448556X0.090675*%
%ADD252R,0.723900X0.090675*%
%ADD253R,3.355338X0.090675*%
%ADD254R,2.540000X0.090675*%
%ADD255R,1.541775X0.090675*%
%ADD256R,2.631438X0.090675*%
%ADD257R,1.724656X0.090675*%
%ADD258R,2.720338X0.090675*%
%ADD259R,1.813556X0.090675*%
%ADD260R,3.266438X0.090675*%
%ADD261R,2.814319X0.090675*%
%ADD262R,1.813563X0.090675*%
%ADD263R,2.903219X0.090675*%
%ADD264R,1.816100X0.090931*%
%ADD265R,3.175000X0.090931*%
%ADD266R,2.903219X0.090931*%
%ADD267R,3.083556X0.090675*%
%ADD268R,2.992119X0.090675*%
%ADD269R,3.175000X0.090675*%
%ADD270R,1.722119X0.090675*%
%ADD271R,2.994656X0.090675*%
%ADD272R,3.263900X0.090675*%
%ADD273R,3.357875X0.090675*%
%ADD274R,1.722119X0.090931*%
%ADD275R,3.446781X0.090931*%
%ADD276R,2.811781X0.090675*%
%ADD277R,2.722881X0.090675*%
%ADD278R,3.627119X0.090675*%
%ADD279R,3.721100X0.090675*%
%ADD280R,4.356100X0.090675*%
%ADD281R,3.718556X0.090675*%
%ADD282R,4.173219X0.090931*%
%ADD283R,3.810000X0.090931*%
%ADD284R,3.990338X0.090675*%
%ADD285R,3.901438X0.090675*%
%ADD286R,3.810000X0.090675*%
%ADD287R,4.081781X0.090675*%
%ADD288R,4.084319X0.090675*%
%ADD289R,4.353556X0.090675*%
%ADD290R,4.173219X0.090675*%
%ADD291R,4.991100X0.090675*%
%ADD292R,4.262119X0.090675*%
%ADD293R,5.440681X0.090931*%
%ADD294R,4.264656X0.090931*%
%ADD295R,5.895338X0.090675*%
%ADD296R,6.350000X0.090675*%
%ADD297R,4.445000X0.090675*%
%ADD298R,6.621781X0.090675*%
%ADD299R,7.073900X0.090675*%
%ADD300R,4.536437X0.090675*%
%ADD301R,7.348219X0.090675*%
%ADD302R,4.625338X0.090675*%
%ADD303R,7.528556X0.090675*%
%ADD304R,4.627875X0.090675*%
%ADD305R,7.802875X0.090931*%
%ADD306R,4.808219X0.090931*%
%ADD307R,7.891781X0.090675*%
%ADD308R,4.716781X0.090675*%
%ADD309R,8.255000X0.090675*%
%ADD310R,4.899656X0.090675*%
%ADD311R,8.618219X0.090675*%
%ADD312R,14.061438X0.090675*%
%ADD313R,13.695681X0.090675*%
%ADD314R,13.606781X0.090675*%
%ADD315R,13.423900X0.090931*%
%ADD316R,13.335000X0.090675*%
%ADD317R,13.063219X0.090675*%
%ADD318R,12.700000X0.090675*%
%ADD319R,11.976100X0.090675*%
%ADD320R,11.610337X0.090675*%
%ADD321R,11.521438X0.090675*%
%ADD322R,11.793219X0.090931*%
%ADD323R,12.336781X0.090675*%
%ADD324R,0.543556X0.090675*%
%ADD325R,0.906775X0.090675*%
%ADD326R,12.519656X0.090675*%
%ADD327R,1.089656X0.090675*%
%ADD328R,13.246100X0.090675*%
%ADD329R,1.181100X0.090675*%
%ADD330R,14.696438X0.090675*%
%ADD331R,1.358900X0.090675*%
%ADD332R,15.511781X0.090675*%
%ADD333R,1.450338X0.090675*%
%ADD334R,15.151100X0.090931*%
%ADD335R,1.450338X0.090931*%
%ADD336R,16.510000X0.090675*%
%ADD337R,16.055338X0.090675*%
%ADD338R,16.238219X0.090675*%
%ADD339R,16.327119X0.090675*%
%ADD340R,16.690338X0.090931*%
%ADD341R,17.053556X0.090675*%
%ADD342R,17.236438X0.090675*%
%ADD343R,17.508219X0.090675*%
%ADD344R,4.264656X0.090675*%
%ADD345R,13.154656X0.090675*%
%ADD346R,12.428219X0.090675*%
%ADD347R,4.170681X0.090931*%
%ADD348R,11.973556X0.090931*%
%ADD349R,11.247119X0.090675*%
%ADD350R,4.081775X0.090675*%
%ADD351R,10.703556X0.090675*%
%ADD352R,10.431775X0.090675*%
%ADD353R,10.160000X0.090675*%
%ADD354R,9.796775X0.090675*%
%ADD355R,3.992875X0.090931*%
%ADD356R,9.613900X0.090931*%
%ADD357R,9.164319X0.090675*%
%ADD358R,8.798556X0.090675*%
%ADD359R,8.526781X0.090675*%
%ADD360R,3.898900X0.090675*%
%ADD361R,7.983219X0.090675*%
%ADD362R,7.620000X0.090675*%
%ADD363R,7.167875X0.090675*%
%ADD364R,6.621781X0.090931*%
%ADD365R,5.806438X0.090675*%
%ADD366R,3.718562X0.090675*%
%ADD367R,5.354319X0.090675*%
%ADD368R,4.897119X0.090675*%
%ADD369R,3.629656X0.090931*%
%ADD370R,3.266438X0.090931*%
%ADD371R,3.535681X0.090675*%
%ADD372R,2.179319X0.090675*%
%ADD373R,1.178556X0.090675*%
%ADD374R,3.086100X0.090675*%
%ADD375R,3.083563X0.090675*%
%ADD376R,2.994656X0.090931*%
%ADD377R,2.900681X0.090675*%
%ADD378R,2.811775X0.090675*%
%ADD379R,2.722881X0.090931*%
%ADD380R,2.722875X0.090675*%
%ADD381R,2.540000X0.090931*%
%ADD382R,2.359656X0.090675*%
%ADD383R,2.448562X0.090675*%
%ADD384R,2.359656X0.090931*%
%ADD385R,2.268219X0.090675*%
%ADD386R,2.265681X0.090675*%
%ADD387R,1.993900X0.090931*%
%ADD388R,1.361438X0.090675*%
%ADD389R,1.087119X0.090675*%
%ADD390R,0.454656X0.090675*%


D10*
X410605Y45432D03*
X432982Y45432D03*
D11*
X442342Y45432D03*
D12*
X450813Y45432D03*
X457468Y45432D03*
D11*
X458675Y45432D03*
D10*
X462599Y45432D03*
D13*
X478639Y45432D03*
D10*
X483782Y45432D03*
D12*
X491936Y45432D03*
D11*
X497994Y45432D03*
D14*
X410592Y46036D03*
D10*
X423305Y46036D03*
X428741Y46036D03*
D14*
X432970Y46036D03*
D15*
X442647Y46036D03*
D10*
X450508Y46036D03*
D16*
X458078Y46036D03*
D14*
X462612Y46036D03*
D10*
X474105Y46036D03*
X479541Y46036D03*
D14*
X483770Y46036D03*
D10*
X491021Y46036D03*
X498895Y46036D03*
D17*
X410592Y46641D03*
D10*
X423305Y46641D03*
D18*
X432068Y46641D03*
D19*
X442952Y46641D03*
D16*
X450204Y46641D03*
D20*
X461100Y46641D03*
D10*
X474105Y46641D03*
D18*
X482868Y46641D03*
D10*
X491021Y46641D03*
X498895Y46641D03*
D21*
X410605Y47246D03*
D10*
X423305Y47246D03*
D22*
X432373Y47246D03*
D19*
X442952Y47246D03*
D16*
X450204Y47246D03*
D22*
X461405Y47246D03*
D10*
X474105Y47246D03*
D18*
X482868Y47246D03*
D10*
X491021Y47246D03*
X498895Y47246D03*
D18*
X410910Y47850D03*
D10*
X423305Y47850D03*
D22*
X432373Y47850D03*
D23*
X442660Y47850D03*
X450508Y47850D03*
D22*
X461405Y47850D03*
D10*
X474105Y47850D03*
D22*
X483173Y47850D03*
D10*
X491021Y47850D03*
X498895Y47850D03*
D24*
X407875Y48456D03*
D25*
X413932Y48456D03*
D26*
X423305Y48456D03*
D25*
X429045Y48456D03*
D26*
X436005Y48456D03*
D27*
X442952Y48456D03*
D28*
X450204Y48456D03*
D29*
X458382Y48456D03*
D30*
X465025Y48456D03*
D26*
X474105Y48456D03*
X479541Y48456D03*
X486805Y48456D03*
X491021Y48456D03*
X498895Y48456D03*
D16*
X414517Y49062D03*
D10*
X423305Y49062D03*
X428741Y49062D03*
D16*
X436310Y49062D03*
D31*
X442952Y49062D03*
D32*
X450204Y49062D03*
D16*
X458078Y49062D03*
X465317Y49062D03*
D10*
X474105Y49062D03*
X479541Y49062D03*
X486805Y49062D03*
X491021Y49062D03*
X498895Y49062D03*
X414821Y49666D03*
X423305Y49666D03*
X428741Y49666D03*
D15*
X436602Y49666D03*
D14*
X442647Y49666D03*
D33*
X450508Y49666D03*
D16*
X458078Y49666D03*
X465317Y49666D03*
D10*
X474105Y49666D03*
X479541Y49666D03*
X486805Y49666D03*
X491021Y49666D03*
X498895Y49666D03*
X414821Y50271D03*
X423305Y50271D03*
X428741Y50271D03*
X436005Y50271D03*
X441441Y50271D03*
D34*
X444158Y50271D03*
D35*
X448997Y50271D03*
D10*
X451728Y50271D03*
D16*
X458078Y50271D03*
D10*
X465621Y50271D03*
X474105Y50271D03*
X479541Y50271D03*
X486805Y50271D03*
X491021Y50271D03*
X498895Y50271D03*
X414821Y50875D03*
X423305Y50875D03*
X428741Y50875D03*
D23*
X435395Y50875D03*
D34*
X441136Y50875D03*
D10*
X444463Y50875D03*
X448705Y50875D03*
X451728Y50875D03*
D16*
X458078Y50875D03*
D10*
X465621Y50875D03*
X474105Y50875D03*
X479541Y50875D03*
D23*
X486195Y50875D03*
D10*
X491021Y50875D03*
X498895Y50875D03*
D36*
X410897Y51480D03*
D10*
X423305Y51480D03*
D18*
X432068Y51480D03*
D10*
X440831Y51480D03*
X444463Y51480D03*
X448705Y51480D03*
D15*
X452325Y51480D03*
D16*
X458078Y51480D03*
D10*
X465621Y51480D03*
X474105Y51480D03*
D18*
X482868Y51480D03*
D10*
X491021Y51480D03*
X498895Y51480D03*
D36*
X410897Y52084D03*
D10*
X423305Y52084D03*
D18*
X432068Y52084D03*
D10*
X440831Y52084D03*
D34*
X444768Y52084D03*
X448400Y52084D03*
D15*
X452325Y52084D03*
D16*
X458078Y52084D03*
D10*
X465621Y52084D03*
X474105Y52084D03*
D21*
X482563Y52084D03*
D10*
X491021Y52084D03*
X498895Y52084D03*
D36*
X410897Y52689D03*
D10*
X423305Y52689D03*
D37*
X431458Y52689D03*
D10*
X440831Y52689D03*
X445073Y52689D03*
X448095Y52689D03*
D15*
X452325Y52689D03*
D16*
X458078Y52689D03*
D10*
X465621Y52689D03*
X474105Y52689D03*
D37*
X482258Y52689D03*
D10*
X491021Y52689D03*
X498895Y52689D03*
X406973Y53293D03*
X414821Y53293D03*
X423305Y53293D03*
X428741Y53293D03*
X440221Y53293D03*
X445073Y53293D03*
X448095Y53293D03*
X452921Y53293D03*
D16*
X458078Y53293D03*
D10*
X465621Y53293D03*
X474105Y53293D03*
X479541Y53293D03*
X491021Y53293D03*
X498895Y53293D03*
X406973Y53898D03*
X414821Y53898D03*
X423305Y53898D03*
X428741Y53898D03*
X440221Y53898D03*
D31*
X446584Y53898D03*
D10*
X452921Y53898D03*
D16*
X458078Y53898D03*
X465317Y53898D03*
D10*
X474105Y53898D03*
X479541Y53898D03*
D16*
X491326Y53898D03*
X498591Y53898D03*
X407278Y54502D03*
X414517Y54502D03*
D10*
X423305Y54502D03*
X428741Y54502D03*
X440221Y54502D03*
D31*
X446584Y54502D03*
D10*
X452921Y54502D03*
D16*
X458078Y54502D03*
X465317Y54502D03*
X473800Y54502D03*
D10*
X479541Y54502D03*
D16*
X491326Y54502D03*
X498591Y54502D03*
D38*
X407887Y55108D03*
D39*
X414225Y55108D03*
D38*
X423000Y55108D03*
D26*
X428741Y55108D03*
D40*
X435091Y55108D03*
D38*
X439917Y55108D03*
D27*
X446584Y55108D03*
D38*
X453226Y55108D03*
D29*
X458382Y55108D03*
D38*
X465317Y55108D03*
X473800Y55108D03*
D26*
X479541Y55108D03*
D29*
X491631Y55108D03*
X498286Y55108D03*
D41*
X408179Y55714D03*
D23*
X413628Y55714D03*
D42*
X418162Y55714D03*
D32*
X422391Y55714D03*
D23*
X429350Y55714D03*
D34*
X435091Y55714D03*
D15*
X439625Y55714D03*
D43*
X446571Y55714D03*
D10*
X453531Y55714D03*
D14*
X458979Y55714D03*
D23*
X464428Y55714D03*
D42*
X468962Y55714D03*
D32*
X473191Y55714D03*
D43*
X479845Y55714D03*
D10*
X485586Y55714D03*
D23*
X492241Y55714D03*
D44*
X497981Y55714D03*
D45*
X410897Y56318D03*
D17*
X420879Y56318D03*
D21*
X432373Y56318D03*
D15*
X439625Y56318D03*
D43*
X446571Y56318D03*
D10*
X453531Y56318D03*
D22*
X461405Y56318D03*
D45*
X471375Y56318D03*
D18*
X482868Y56318D03*
D22*
X495263Y56318D03*
D46*
X410897Y56923D03*
D45*
X420575Y56923D03*
D21*
X432373Y56923D03*
D43*
X439332Y56923D03*
X446571Y56923D03*
D16*
X453836Y56923D03*
D20*
X461100Y56923D03*
D47*
X471070Y56923D03*
D21*
X483173Y56923D03*
D18*
X495568Y56923D03*
D48*
X410897Y57527D03*
D33*
X419063Y57527D03*
D10*
X423305Y57527D03*
D17*
X432360Y57527D03*
D43*
X439332Y57527D03*
D35*
X446584Y57527D03*
D16*
X453836Y57527D03*
X458078Y57527D03*
D14*
X462612Y57527D03*
D33*
X469254Y57527D03*
D10*
X474105Y57527D03*
D49*
X482855Y57527D03*
D14*
X494057Y57527D03*
D10*
X498895Y57527D03*
D16*
X410910Y58132D03*
D43*
X418758Y58132D03*
D10*
X423305Y58132D03*
D32*
X432678Y58132D03*
D10*
X439028Y58132D03*
D35*
X446584Y58132D03*
D10*
X454141Y58132D03*
D16*
X458078Y58132D03*
D10*
X462599Y58132D03*
D43*
X469558Y58132D03*
D10*
X474105Y58132D03*
D23*
X483173Y58132D03*
D15*
X494057Y58132D03*
D10*
X498895Y58132D03*
D16*
X458078Y58736D03*
D10*
X498895Y58736D03*
D16*
X458078Y59341D03*
D10*
X498895Y59341D03*
D16*
X458078Y59946D03*
D10*
X498895Y59946D03*
D16*
X458078Y60550D03*
D10*
X498895Y60550D03*
D38*
X458078Y61156D03*
D26*
X498895Y61156D03*
D16*
X458078Y61762D03*
D10*
X498895Y61762D03*
D16*
X458078Y62366D03*
D10*
X498895Y62366D03*
D16*
X458078Y62971D03*
D10*
X498895Y62971D03*
X498895Y63575D03*
X498895Y64180D03*
X498895Y64784D03*
D16*
X396991Y65389D03*
X407887Y65389D03*
D11*
X420575Y65389D03*
X424816Y65389D03*
X426010Y65389D03*
D15*
X429947Y65389D03*
D43*
X441745Y65389D03*
D16*
X453226Y65389D03*
D12*
X466536Y65389D03*
D11*
X467742Y65389D03*
X473788Y65389D03*
X475007Y65389D03*
D16*
X482868Y65389D03*
D15*
X494057Y65389D03*
D10*
X498895Y65389D03*
X507354Y65389D03*
D50*
X396991Y65993D03*
D48*
X407875Y65993D03*
D10*
X420282Y65993D03*
X425718Y65993D03*
D14*
X429947Y65993D03*
D50*
X441745Y65993D03*
D49*
X453239Y65993D03*
D10*
X466841Y65993D03*
D15*
X474702Y65993D03*
D51*
X482563Y65993D03*
D14*
X494057Y65993D03*
D10*
X498895Y65993D03*
D48*
X507062Y65993D03*
D52*
X396991Y66598D03*
D17*
X407570Y66598D03*
D10*
X420282Y66598D03*
D21*
X428741Y66598D03*
D53*
X441441Y66598D03*
D21*
X453531Y66598D03*
D10*
X466841Y66598D03*
D15*
X474702Y66598D03*
D52*
X482868Y66598D03*
D18*
X495568Y66598D03*
D17*
X507366Y66598D03*
D20*
X396991Y67202D03*
D47*
X407570Y67202D03*
D10*
X420282Y67202D03*
D18*
X429045Y67202D03*
D21*
X441441Y67202D03*
D54*
X453836Y67202D03*
D10*
X466841Y67202D03*
D15*
X474702Y67202D03*
D21*
X482563Y67202D03*
D22*
X495263Y67202D03*
D21*
X507354Y67202D03*
D38*
X394578Y67808D03*
D29*
X399708Y67808D03*
D55*
X405449Y67808D03*
D28*
X410300Y67808D03*
D26*
X420282Y67808D03*
D27*
X426620Y67808D03*
D56*
X431763Y67808D03*
D27*
X439320Y67808D03*
D55*
X444158Y67808D03*
D29*
X450508Y67808D03*
D55*
X456858Y67808D03*
D26*
X466841Y67808D03*
D39*
X474702Y67808D03*
D38*
X480455Y67808D03*
D29*
X485586Y67808D03*
D55*
X492545Y67808D03*
D57*
X497689Y67808D03*
D55*
X504636Y67808D03*
D27*
X509475Y67808D03*
D58*
X394273Y68414D03*
D16*
X400623Y68414D03*
D42*
X404852Y68414D03*
D41*
X411202Y68414D03*
D10*
X420282Y68414D03*
D16*
X426023Y68414D03*
X432678Y68414D03*
D23*
X438418Y68414D03*
D16*
X444768Y68414D03*
X449594Y68414D03*
D34*
X456858Y68414D03*
D10*
X466841Y68414D03*
D15*
X474702Y68414D03*
D59*
X480138Y68414D03*
D16*
X486500Y68414D03*
X491936Y68414D03*
D23*
X498286Y68414D03*
D16*
X504026Y68414D03*
X510681Y68414D03*
D10*
X400928Y69018D03*
D16*
X411494Y69018D03*
D10*
X420282Y69018D03*
X425718Y69018D03*
D16*
X432678Y69018D03*
X438113Y69018D03*
X445378Y69018D03*
D15*
X449302Y69018D03*
D60*
X457163Y69018D03*
D10*
X466841Y69018D03*
D15*
X474702Y69018D03*
D10*
X486805Y69018D03*
D16*
X491326Y69018D03*
X498591Y69018D03*
D10*
X503721Y69018D03*
D16*
X510681Y69018D03*
D10*
X400928Y69623D03*
X411799Y69623D03*
X420282Y69623D03*
X425718Y69623D03*
X432982Y69623D03*
X437808Y69623D03*
D16*
X445378Y69623D03*
X449594Y69623D03*
D10*
X466841Y69623D03*
D15*
X474702Y69623D03*
D10*
X486805Y69623D03*
D16*
X491326Y69623D03*
X498591Y69623D03*
X503417Y69623D03*
D10*
X510986Y69623D03*
D43*
X401232Y70227D03*
D10*
X411799Y70227D03*
X420282Y70227D03*
X425718Y70227D03*
X432982Y70227D03*
X437808Y70227D03*
X445682Y70227D03*
D16*
X449594Y70227D03*
D10*
X466841Y70227D03*
D15*
X474702Y70227D03*
D10*
X486805Y70227D03*
D16*
X491326Y70227D03*
X498591Y70227D03*
X503417Y70227D03*
X511291Y70227D03*
D54*
X397600Y70832D03*
D16*
X412104Y70832D03*
D10*
X420282Y70832D03*
X425718Y70832D03*
X432982Y70832D03*
X437808Y70832D03*
X445682Y70832D03*
D46*
X452020Y70832D03*
D10*
X466841Y70832D03*
D15*
X474702Y70832D03*
D22*
X483173Y70832D03*
D10*
X491021Y70832D03*
X498895Y70832D03*
D16*
X503417Y70832D03*
X511291Y70832D03*
D61*
X397295Y71436D03*
D16*
X412104Y71436D03*
D10*
X420282Y71436D03*
X425718Y71436D03*
X432982Y71436D03*
X437808Y71436D03*
X445682Y71436D03*
D45*
X452629Y71436D03*
D10*
X466841Y71436D03*
D15*
X474702Y71436D03*
D54*
X482868Y71436D03*
D10*
X491021Y71436D03*
X498895Y71436D03*
D16*
X503417Y71436D03*
X511291Y71436D03*
D61*
X397295Y72041D03*
D16*
X412104Y72041D03*
D10*
X420282Y72041D03*
X425718Y72041D03*
X432982Y72041D03*
X437808Y72041D03*
X445682Y72041D03*
D45*
X453239Y72041D03*
D10*
X466841Y72041D03*
D15*
X474702Y72041D03*
D54*
X482868Y72041D03*
D10*
X491021Y72041D03*
X498895Y72041D03*
D16*
X503417Y72041D03*
X511291Y72041D03*
D61*
X397295Y72646D03*
D16*
X412104Y72646D03*
D10*
X420282Y72646D03*
X425718Y72646D03*
X432982Y72646D03*
X437808Y72646D03*
X445682Y72646D03*
D53*
X454141Y72646D03*
D10*
X466841Y72646D03*
D15*
X474702Y72646D03*
D54*
X482868Y72646D03*
D10*
X491021Y72646D03*
X498895Y72646D03*
D16*
X503417Y72646D03*
X511291Y72646D03*
D43*
X393358Y73250D03*
X401232Y73250D03*
D10*
X411799Y73250D03*
X420282Y73250D03*
X425718Y73250D03*
X432982Y73250D03*
X437808Y73250D03*
D16*
X445378Y73250D03*
X456249Y73250D03*
D10*
X466841Y73250D03*
D15*
X474702Y73250D03*
D16*
X479236Y73250D03*
D10*
X486805Y73250D03*
D16*
X491326Y73250D03*
X498591Y73250D03*
X503417Y73250D03*
X511291Y73250D03*
D26*
X393663Y73856D03*
X400928Y73856D03*
X411799Y73856D03*
X420282Y73856D03*
X425718Y73856D03*
X432982Y73856D03*
X437808Y73856D03*
D38*
X445378Y73856D03*
D25*
X456858Y73856D03*
X467145Y73856D03*
D38*
X474410Y73856D03*
X479236Y73856D03*
D26*
X486805Y73856D03*
D38*
X491326Y73856D03*
X498591Y73856D03*
D26*
X503721Y73856D03*
X510986Y73856D03*
D16*
X393968Y74462D03*
D10*
X400928Y74462D03*
D13*
X404852Y74462D03*
D16*
X411494Y74462D03*
X419978Y74462D03*
D10*
X425718Y74462D03*
X432982Y74462D03*
D16*
X438113Y74462D03*
D10*
X445073Y74462D03*
D43*
X456858Y74462D03*
X467145Y74462D03*
D16*
X474410Y74462D03*
D10*
X479541Y74462D03*
D16*
X486500Y74462D03*
X491326Y74462D03*
X498591Y74462D03*
D10*
X503721Y74462D03*
D16*
X510681Y74462D03*
X393968Y75066D03*
X400623Y75066D03*
D42*
X404852Y75066D03*
D41*
X411202Y75066D03*
D13*
X415139Y75066D03*
D23*
X419673Y75066D03*
D10*
X425718Y75066D03*
X432982Y75066D03*
D23*
X438418Y75066D03*
D16*
X444768Y75066D03*
D34*
X450204Y75066D03*
D10*
X456554Y75066D03*
D23*
X467450Y75066D03*
X474105Y75066D03*
D43*
X479845Y75066D03*
D10*
X486195Y75066D03*
D16*
X491936Y75066D03*
D23*
X498286Y75066D03*
D16*
X504026Y75066D03*
D23*
X510376Y75066D03*
X394882Y75671D03*
X399708Y75671D03*
D62*
X407875Y75671D03*
D17*
X417857Y75671D03*
D10*
X425718Y75671D03*
X432982Y75671D03*
D18*
X441745Y75671D03*
D23*
X451118Y75671D03*
X455944Y75671D03*
D22*
X471082Y75671D03*
D23*
X480760Y75671D03*
X485586Y75671D03*
D22*
X495263Y75671D03*
D21*
X507354Y75671D03*
X397295Y76275D03*
D47*
X407570Y76275D03*
D45*
X417552Y76275D03*
D10*
X425718Y76275D03*
X432982Y76275D03*
D37*
X441745Y76275D03*
D20*
X453226Y76275D03*
D22*
X471082Y76275D03*
D52*
X482868Y76275D03*
D22*
X495263Y76275D03*
D21*
X507354Y76275D03*
D53*
X397295Y76880D03*
D17*
X407570Y76880D03*
D47*
X417247Y76880D03*
D10*
X425718Y76880D03*
X432982Y76880D03*
D46*
X441733Y76880D03*
D45*
X453239Y76880D03*
D62*
X471375Y76880D03*
D49*
X482855Y76880D03*
D18*
X495568Y76880D03*
D17*
X507366Y76880D03*
D33*
X397295Y77484D03*
D48*
X407875Y77484D03*
D44*
X415736Y77484D03*
D10*
X420282Y77484D03*
X425718Y77484D03*
X432982Y77484D03*
D50*
X441745Y77484D03*
D63*
X452934Y77484D03*
D33*
X469863Y77484D03*
D15*
X474702Y77484D03*
D33*
X483173Y77484D03*
D14*
X494057Y77484D03*
D10*
X498895Y77484D03*
D33*
X507354Y77484D03*
D58*
X397295Y78089D03*
D59*
X407570Y78089D03*
D34*
X415736Y78089D03*
X441745Y78089D03*
X453226Y78089D03*
D60*
X469863Y78089D03*
D58*
X483173Y78089D03*
D59*
X494057Y78089D03*
X507366Y78089D03*
X423902Y87766D03*
X480747Y87766D03*
D15*
X423902Y88371D03*
X480747Y88371D03*
D31*
X424207Y88975D03*
D44*
X480455Y88975D03*
D48*
X424207Y89580D03*
X480442Y89580D03*
D46*
X424207Y90184D03*
D49*
X480442Y90184D03*
D21*
X424499Y90789D03*
X480150Y90789D03*
D22*
X424499Y91393D03*
X480150Y91393D03*
D64*
X424816Y91998D03*
D58*
X438418Y91998D03*
X466231Y91998D03*
D65*
X479845Y91998D03*
D66*
X424816Y92602D03*
D10*
X437808Y92602D03*
X466841Y92602D03*
D66*
X479833Y92602D03*
D67*
X425108Y93208D03*
D29*
X437808Y93208D03*
X466841Y93208D03*
D67*
X479541Y93208D03*
D68*
X425108Y93814D03*
D14*
X437212Y93814D03*
D33*
X467450Y93814D03*
D69*
X479541Y93814D03*
D70*
X428131Y94418D03*
X476518Y94418D03*
D71*
X428131Y95023D03*
X476518Y95023D03*
D72*
X427839Y95627D03*
X476810Y95627D03*
D73*
X427839Y96232D03*
D74*
X476810Y96232D03*
D73*
X427839Y96836D03*
D74*
X476810Y96836D03*
D75*
X428144Y97441D03*
X476505Y97441D03*
D76*
X428436Y98046D03*
X476213Y98046D03*
D75*
X428728Y98650D03*
X475921Y98650D03*
D77*
X429338Y99256D03*
X475312Y99256D03*
D72*
X429642Y99862D03*
X475007Y99862D03*
D75*
X429947Y100466D03*
X474702Y100466D03*
D72*
X430252Y101071D03*
X474397Y101071D03*
D78*
X430557Y101675D03*
D79*
X474092Y101675D03*
D72*
X430862Y102280D03*
X473788Y102280D03*
D79*
X431166Y102884D03*
D71*
X473495Y102884D03*
X431763Y103489D03*
X472886Y103489D03*
X431763Y104093D03*
X472886Y104093D03*
D80*
X432068Y104698D03*
X472581Y104698D03*
X432678Y105302D03*
D81*
X471984Y105302D03*
D82*
X432678Y105908D03*
D83*
X471984Y105908D03*
D81*
X433275Y106514D03*
X471375Y106514D03*
X433275Y107118D03*
X471375Y107118D03*
D79*
X433579Y107723D03*
D78*
X471070Y107723D03*
D72*
X433275Y108327D03*
X471375Y108327D03*
X433275Y108932D03*
X471375Y108932D03*
D74*
X433275Y109536D03*
X471375Y109536D03*
X433275Y110141D03*
X471375Y110141D03*
D84*
X433579Y110746D03*
X471070Y110746D03*
D85*
X433275Y111350D03*
X471375Y111350D03*
D86*
X433275Y111956D03*
X471375Y111956D03*
D87*
X433287Y112562D03*
X471387Y112562D03*
D88*
X432678Y113166D03*
D89*
X471984Y113166D03*
D90*
X432373Y113771D03*
D84*
X472289Y113771D03*
D91*
X431763Y114375D03*
D90*
X472886Y114375D03*
D75*
X431166Y114980D03*
X473483Y114980D03*
X430557Y115584D03*
X474092Y115584D03*
D72*
X430252Y116189D03*
X474397Y116189D03*
D91*
X428741Y116793D03*
D90*
X475908Y116793D03*
D92*
X427229Y117398D03*
X477420Y117398D03*
D93*
X425108Y118002D03*
X479541Y118002D03*
D94*
X423305Y118608D03*
X481344Y118608D03*
D95*
X423305Y119214D03*
X481344Y119214D03*
D96*
X423000Y119818D03*
D97*
X481649Y119818D03*
D96*
X423000Y120423D03*
D97*
X481649Y120423D03*
D98*
X422695Y121027D03*
X481954Y121027D03*
X422695Y121632D03*
X481954Y121632D03*
X422695Y122236D03*
X481954Y122236D03*
X422695Y122841D03*
X481954Y122841D03*
X422695Y123446D03*
X481954Y123446D03*
D99*
X422391Y124050D03*
D100*
X482258Y124050D03*
D101*
X422391Y124656D03*
D102*
X482258Y124656D03*
D99*
X422391Y125262D03*
D100*
X482258Y125262D03*
D99*
X422391Y125866D03*
D100*
X482258Y125866D03*
D98*
X422695Y126471D03*
X481954Y126471D03*
X422695Y127075D03*
X481954Y127075D03*
X422695Y127680D03*
X481954Y127680D03*
X422695Y128284D03*
X481954Y128284D03*
X422695Y128889D03*
X481954Y128889D03*
D96*
X423000Y129493D03*
D97*
X481649Y129493D03*
D96*
X423000Y130098D03*
D97*
X481649Y130098D03*
D95*
X423305Y130702D03*
X481344Y130702D03*
D94*
X423305Y131308D03*
X481344Y131308D03*
D98*
X424499Y131914D03*
X480150Y131914D03*
D103*
X426315Y132518D03*
X478334Y132518D03*
D104*
X428131Y133123D03*
X476518Y133123D03*
D75*
X429947Y133727D03*
X474702Y133727D03*
D72*
X430862Y134332D03*
X473788Y134332D03*
D75*
X431166Y134936D03*
X473483Y134936D03*
D74*
X431471Y135541D03*
D76*
X473191Y135541D03*
D90*
X432373Y136146D03*
D84*
X472289Y136146D03*
D104*
X432982Y136750D03*
D105*
X471679Y136750D03*
D106*
X433871Y137356D03*
D107*
X470778Y137356D03*
D108*
X435383Y137962D03*
X469266Y137962D03*
D109*
X452325Y138566D03*
X452325Y139171D03*
X452325Y139775D03*
D110*
X452325Y140380D03*
X452325Y140984D03*
D111*
X452325Y141589D03*
X452325Y142193D03*
D112*
X452337Y142798D03*
D111*
X452325Y143402D03*
D113*
X452325Y144008D03*
D110*
X452325Y144614D03*
D109*
X452325Y145218D03*
X452325Y145823D03*
D114*
X452325Y146427D03*
D115*
X452337Y147032D03*
X452337Y147636D03*
D116*
X452325Y148241D03*
D117*
X452325Y148846D03*
D118*
X452325Y149450D03*
D119*
X452325Y150056D03*
D120*
X452325Y150662D03*
D121*
X452325Y151266D03*
X452325Y151871D03*
D122*
X452325Y152475D03*
D123*
X452325Y153080D03*
X452325Y153684D03*
D122*
X452325Y154289D03*
D121*
X452325Y154893D03*
D124*
X425413Y155498D03*
D125*
X452325Y155498D03*
D124*
X479236Y155498D03*
D126*
X425413Y156102D03*
D108*
X452325Y156102D03*
D126*
X479236Y156102D03*
D67*
X425108Y156708D03*
D127*
X452325Y156708D03*
D67*
X479541Y156708D03*
D128*
X425121Y157314D03*
D75*
X452325Y157314D03*
D129*
X479541Y157314D03*
D64*
X424816Y157918D03*
D130*
X452325Y157918D03*
D65*
X479845Y157918D03*
D54*
X424804Y158523D03*
D131*
X452325Y158523D03*
D54*
X479845Y158523D03*
D21*
X424499Y159127D03*
D132*
X452325Y159127D03*
D21*
X480150Y159127D03*
D17*
X424512Y159732D03*
D133*
X452325Y159732D03*
D17*
X480138Y159732D03*
D48*
X424207Y160336D03*
D133*
X452325Y160336D03*
D63*
X480138Y160336D03*
D31*
X424207Y160941D03*
D133*
X452325Y160941D03*
D44*
X480455Y160941D03*
D16*
X424194Y161546D03*
D133*
X452325Y161546D03*
D16*
X480455Y161546D03*
D59*
X423902Y162150D03*
D133*
X452325Y162150D03*
D59*
X480747Y162150D03*
D134*
X452337Y162756D03*
D69*
X452337Y163362D03*
X452337Y163966D03*
X452337Y164571D03*
X452337Y165175D03*
D135*
X452032Y165780D03*
D136*
X452325Y166384D03*
X452325Y166989D03*
X452325Y167593D03*
X452325Y168198D03*
X452325Y168802D03*
D137*
X452325Y169408D03*
D128*
X452325Y170014D03*
X452325Y170618D03*
X452325Y171223D03*
D138*
X452325Y171827D03*
D139*
X273752Y388097D03*
D140*
X399914Y388097D03*
D141*
X273765Y388944D03*
D142*
X399076Y388944D03*
D143*
X273765Y389790D03*
D142*
X398212Y389790D03*
D144*
X274184Y390637D03*
D140*
X397374Y390637D03*
D145*
X274184Y391484D03*
D142*
X396536Y391484D03*
D146*
X161586Y392330D03*
D147*
X181474Y392330D03*
D148*
X195012Y392330D03*
D149*
X204766Y392330D03*
D150*
X231423Y392330D03*
D151*
X251743Y392330D03*
D152*
X277994Y392330D03*
D153*
X301273Y392330D03*
D146*
X320742Y392330D03*
D154*
X340224Y392330D03*
D146*
X359706Y392330D03*
D155*
X378743Y392330D03*
D142*
X395672Y392330D03*
D140*
X394834Y393177D03*
D156*
X167085Y394024D03*
D157*
X191634Y394024D03*
D150*
X198403Y394024D03*
D158*
X220844Y394024D03*
D156*
X236503Y394024D03*
X266983Y394024D03*
D159*
X286033Y394024D03*
D160*
X316094Y394024D03*
D156*
X325403Y394024D03*
D161*
X354626Y394024D03*
D156*
X365205Y394024D03*
D142*
X393996Y394024D03*
D156*
X167085Y394870D03*
D162*
X190364Y394870D03*
D163*
X199254Y394870D03*
D147*
X220412Y394870D03*
D156*
X236503Y394870D03*
X266983Y394870D03*
D164*
X286033Y394870D03*
D165*
X314824Y394870D03*
D156*
X325403Y394870D03*
D166*
X332604Y394870D03*
D167*
X354613Y394870D03*
D156*
X365205Y394870D03*
D142*
X393132Y394870D03*
D168*
X167085Y395717D03*
D169*
X189513Y395717D03*
D170*
X200092Y395717D03*
D171*
X220412Y395717D03*
D168*
X236503Y395717D03*
X266983Y395717D03*
D172*
X286465Y395717D03*
D173*
X313973Y395717D03*
D168*
X325403Y395717D03*
D174*
X333023Y395717D03*
D175*
X354613Y395717D03*
D168*
X365205Y395717D03*
D140*
X392294Y395717D03*
D156*
X167085Y396564D03*
D160*
X189094Y396564D03*
D176*
X200943Y396564D03*
D147*
X220412Y396564D03*
D156*
X236503Y396564D03*
X266983Y396564D03*
D177*
X286033Y396564D03*
D149*
X313122Y396564D03*
D156*
X325403Y396564D03*
D146*
X333442Y396564D03*
D167*
X354613Y396564D03*
D156*
X365205Y396564D03*
D142*
X391456Y396564D03*
D156*
X167085Y397410D03*
D161*
X188662Y397410D03*
X201362Y397410D03*
D147*
X220412Y397410D03*
D156*
X236503Y397410D03*
X266983Y397410D03*
D178*
X286046Y397410D03*
D179*
X312703Y397410D03*
D156*
X325403Y397410D03*
D163*
X333874Y397410D03*
D167*
X354613Y397410D03*
D156*
X365205Y397410D03*
D142*
X390592Y397410D03*
D168*
X167085Y398257D03*
X188243Y398257D03*
D180*
X201794Y398257D03*
D171*
X220412Y398257D03*
D168*
X236503Y398257D03*
X266983Y398257D03*
D181*
X286033Y398257D03*
D182*
X312284Y398257D03*
D168*
X325403Y398257D03*
D183*
X334293Y398257D03*
D175*
X354613Y398257D03*
D184*
X371555Y398257D03*
D140*
X389754Y398257D03*
D156*
X167085Y399104D03*
D165*
X187824Y399104D03*
D167*
X202213Y399104D03*
D147*
X220412Y399104D03*
D156*
X236503Y399104D03*
X266983Y399104D03*
D185*
X286033Y399104D03*
D186*
X311852Y399104D03*
D156*
X325403Y399104D03*
D148*
X334712Y399104D03*
D167*
X354613Y399104D03*
D147*
X371136Y399104D03*
D142*
X388916Y399104D03*
D156*
X167085Y399950D03*
D167*
X186973Y399950D03*
D142*
X202632Y399950D03*
D147*
X220412Y399950D03*
D156*
X236503Y399950D03*
X266983Y399950D03*
D151*
X286465Y399950D03*
D177*
X311433Y399950D03*
D156*
X325403Y399950D03*
D187*
X335144Y399950D03*
D167*
X354613Y399950D03*
D158*
X370704Y399950D03*
D142*
X388052Y399950D03*
D168*
X167085Y400797D03*
X185703Y400797D03*
D188*
X203902Y400797D03*
D171*
X220412Y400797D03*
D168*
X236503Y400797D03*
X266983Y400797D03*
D189*
X286046Y400797D03*
D190*
X311433Y400797D03*
D168*
X325403Y400797D03*
D191*
X335563Y400797D03*
D175*
X354613Y400797D03*
D192*
X370285Y400797D03*
D140*
X387214Y400797D03*
D156*
X167085Y401644D03*
X184865Y401644D03*
D161*
X204766Y401644D03*
D165*
X225924Y401644D03*
D156*
X236503Y401644D03*
D193*
X259795Y401644D03*
D156*
X266983Y401644D03*
D194*
X286465Y401644D03*
D195*
X308474Y401644D03*
D156*
X325403Y401644D03*
D161*
X335982Y401644D03*
D167*
X354613Y401644D03*
D178*
X369866Y401644D03*
D142*
X386376Y401644D03*
D156*
X167085Y402490D03*
D160*
X184014Y402490D03*
D161*
X205604Y402490D03*
D156*
X226343Y402490D03*
X236503Y402490D03*
D164*
X255553Y402490D03*
D156*
X266983Y402490D03*
D142*
X278832Y402490D03*
X293234Y402490D03*
X307636Y402490D03*
D156*
X325403Y402490D03*
D196*
X336414Y402490D03*
D167*
X354613Y402490D03*
D197*
X369434Y402490D03*
D142*
X385512Y402490D03*
D168*
X167085Y403337D03*
D198*
X184014Y403337D03*
D191*
X206023Y403337D03*
D168*
X226343Y403337D03*
X236503Y403337D03*
D199*
X254702Y403337D03*
D168*
X266983Y403337D03*
D175*
X278413Y403337D03*
X293653Y403337D03*
D140*
X306772Y403337D03*
D168*
X325403Y403337D03*
D175*
X336833Y403337D03*
X354613Y403337D03*
D190*
X369015Y403337D03*
D140*
X384674Y403337D03*
D156*
X167085Y404184D03*
D176*
X183163Y404184D03*
D159*
X206455Y404184D03*
D156*
X226343Y404184D03*
X236503Y404184D03*
D179*
X254283Y404184D03*
D156*
X266983Y404184D03*
D196*
X277994Y404184D03*
D156*
X294085Y404184D03*
D167*
X306353Y404184D03*
D156*
X325403Y404184D03*
D142*
X337252Y404184D03*
D167*
X354613Y404184D03*
D186*
X368596Y404184D03*
D142*
X383836Y404184D03*
D156*
X167085Y405030D03*
D187*
X182744Y405030D03*
D148*
X195012Y405030D03*
D160*
X206874Y405030D03*
D156*
X226343Y405030D03*
X236503Y405030D03*
D200*
X253864Y405030D03*
D156*
X266983Y405030D03*
D196*
X277994Y405030D03*
D165*
X294504Y405030D03*
D167*
X305515Y405030D03*
D156*
X325403Y405030D03*
D142*
X338116Y405030D03*
D167*
X354613Y405030D03*
D200*
X368164Y405030D03*
D142*
X382972Y405030D03*
D168*
X167085Y405877D03*
D201*
X182744Y405877D03*
D191*
X195025Y405877D03*
D169*
X207293Y405877D03*
D168*
X226343Y405877D03*
X236503Y405877D03*
D202*
X253432Y405877D03*
D168*
X266983Y405877D03*
D180*
X277994Y405877D03*
D203*
X294504Y405877D03*
D168*
X305083Y405877D03*
X325403Y405877D03*
D140*
X338954Y405877D03*
D175*
X354613Y405877D03*
D168*
X365205Y405877D03*
D140*
X382134Y405877D03*
D156*
X167085Y406724D03*
D176*
X182325Y406724D03*
D156*
X195025Y406724D03*
D159*
X207293Y406724D03*
D156*
X226343Y406724D03*
X236503Y406724D03*
D177*
X253013Y406724D03*
D156*
X266983Y406724D03*
D196*
X277994Y406724D03*
D165*
X294504Y406724D03*
D156*
X305083Y406724D03*
X325403Y406724D03*
D142*
X339792Y406724D03*
D167*
X354613Y406724D03*
D156*
X365205Y406724D03*
D142*
X381296Y406724D03*
D156*
X167085Y407570D03*
D159*
X181893Y407570D03*
D167*
X194593Y407570D03*
D159*
X207293Y407570D03*
D156*
X226343Y407570D03*
X236503Y407570D03*
D197*
X252594Y407570D03*
D156*
X266983Y407570D03*
D196*
X277994Y407570D03*
D165*
X294504Y407570D03*
D156*
X305083Y407570D03*
X325403Y407570D03*
D142*
X340656Y407570D03*
D167*
X354613Y407570D03*
D156*
X365205Y407570D03*
D142*
X380432Y407570D03*
D168*
X167085Y408417D03*
D169*
X181893Y408417D03*
D140*
X195012Y408417D03*
D169*
X207293Y408417D03*
D168*
X226343Y408417D03*
X236503Y408417D03*
D204*
X252594Y408417D03*
D168*
X266983Y408417D03*
D180*
X277994Y408417D03*
D203*
X294504Y408417D03*
D168*
X305083Y408417D03*
X325403Y408417D03*
D199*
X340224Y408417D03*
D175*
X354613Y408417D03*
D168*
X365205Y408417D03*
D140*
X379594Y408417D03*
D156*
X167085Y409264D03*
D159*
X181893Y409264D03*
D142*
X195012Y409264D03*
D159*
X207293Y409264D03*
D156*
X226343Y409264D03*
X236503Y409264D03*
D205*
X251743Y409264D03*
D156*
X266983Y409264D03*
D196*
X277994Y409264D03*
D165*
X294504Y409264D03*
D156*
X305083Y409264D03*
X325403Y409264D03*
D179*
X340643Y409264D03*
D167*
X354613Y409264D03*
D156*
X365205Y409264D03*
D142*
X378756Y409264D03*
D156*
X167085Y410110D03*
D159*
X181893Y410110D03*
D167*
X194593Y410110D03*
D159*
X207293Y410110D03*
D156*
X226343Y410110D03*
X236503Y410110D03*
D206*
X248784Y410110D03*
D156*
X266983Y410110D03*
D196*
X277994Y410110D03*
D165*
X294504Y410110D03*
D156*
X305083Y410110D03*
X325403Y410110D03*
D186*
X340656Y410110D03*
D167*
X354613Y410110D03*
D156*
X365205Y410110D03*
D142*
X377892Y410110D03*
D168*
X167085Y410957D03*
D169*
X181893Y410957D03*
D175*
X194593Y410957D03*
D169*
X207293Y410957D03*
D168*
X226343Y410957D03*
X236503Y410957D03*
D140*
X248352Y410957D03*
D168*
X266983Y410957D03*
D180*
X277994Y410957D03*
D203*
X294504Y410957D03*
D168*
X305083Y410957D03*
X325403Y410957D03*
D175*
X336833Y410957D03*
X354613Y410957D03*
D168*
X365205Y410957D03*
D140*
X377054Y410957D03*
D156*
X167085Y411804D03*
D176*
X182325Y411804D03*
D156*
X195025Y411804D03*
D159*
X207293Y411804D03*
D156*
X226343Y411804D03*
X236503Y411804D03*
D142*
X248352Y411804D03*
D156*
X266983Y411804D03*
D196*
X277994Y411804D03*
D165*
X294504Y411804D03*
D156*
X305083Y411804D03*
X325403Y411804D03*
D196*
X336414Y411804D03*
D167*
X354613Y411804D03*
D156*
X365205Y411804D03*
D142*
X376216Y411804D03*
D156*
X167085Y412650D03*
D187*
X182744Y412650D03*
D176*
X195025Y412650D03*
D159*
X207293Y412650D03*
D156*
X226343Y412650D03*
X236503Y412650D03*
D167*
X247933Y412650D03*
D156*
X266983Y412650D03*
D196*
X277994Y412650D03*
D165*
X294504Y412650D03*
D196*
X305934Y412650D03*
D156*
X325403Y412650D03*
D196*
X336414Y412650D03*
D167*
X354613Y412650D03*
D156*
X365205Y412650D03*
D142*
X375352Y412650D03*
D168*
X167085Y413497D03*
D201*
X182744Y413497D03*
D183*
X194593Y413497D03*
D198*
X206874Y413497D03*
D168*
X226343Y413497D03*
X236503Y413497D03*
D140*
X248352Y413497D03*
D168*
X266983Y413497D03*
D180*
X277994Y413497D03*
D203*
X294504Y413497D03*
D180*
X305934Y413497D03*
D168*
X325403Y413497D03*
D175*
X335995Y413497D03*
X354613Y413497D03*
D192*
X370285Y413497D03*
D156*
X167085Y414344D03*
D176*
X183163Y414344D03*
D159*
X206455Y414344D03*
D156*
X226343Y414344D03*
X236503Y414344D03*
D142*
X248352Y414344D03*
D156*
X266983Y414344D03*
D196*
X277994Y414344D03*
D165*
X294504Y414344D03*
D167*
X306353Y414344D03*
D156*
X325403Y414344D03*
D167*
X335995Y414344D03*
X354613Y414344D03*
D178*
X369866Y414344D03*
D156*
X167085Y415190D03*
D160*
X184014Y415190D03*
D176*
X206023Y415190D03*
D156*
X226343Y415190D03*
X236503Y415190D03*
D142*
X248352Y415190D03*
D156*
X266983Y415190D03*
D196*
X277994Y415190D03*
D165*
X294504Y415190D03*
X307204Y415190D03*
D156*
X325403Y415190D03*
D167*
X335995Y415190D03*
X354613Y415190D03*
D197*
X369434Y415190D03*
D168*
X167085Y416037D03*
D188*
X184446Y416037D03*
X205604Y416037D03*
D168*
X226343Y416037D03*
X236503Y416037D03*
D207*
X248784Y416037D03*
D168*
X266983Y416037D03*
D180*
X277994Y416037D03*
D203*
X294504Y416037D03*
D173*
X308055Y416037D03*
D168*
X325403Y416037D03*
D140*
X336414Y416037D03*
D175*
X354613Y416037D03*
D190*
X369015Y416037D03*
D155*
X169625Y416884D03*
D161*
X185284Y416884D03*
X204766Y416884D03*
X225924Y416884D03*
D156*
X236503Y416884D03*
D208*
X252594Y416884D03*
D156*
X266983Y416884D03*
D196*
X277994Y416884D03*
D156*
X294085Y416884D03*
D153*
X316513Y416884D03*
D209*
X337265Y416884D03*
D196*
X354194Y416884D03*
D186*
X368596Y416884D03*
D210*
X168355Y417730D03*
D156*
X185703Y417730D03*
X203483Y417730D03*
D176*
X225505Y417730D03*
D161*
X236084Y417730D03*
D153*
X257255Y417730D03*
D196*
X277994Y417730D03*
D161*
X293666Y417730D03*
D211*
X316094Y417730D03*
X344872Y417730D03*
D200*
X368164Y417730D03*
D212*
X167504Y418577D03*
D140*
X187392Y418577D03*
X202632Y418577D03*
D169*
X225073Y418577D03*
D191*
X235665Y418577D03*
D213*
X256836Y418577D03*
D180*
X277994Y418577D03*
D198*
X293234Y418577D03*
D214*
X316094Y418577D03*
D215*
X344453Y418577D03*
D172*
X367745Y418577D03*
D210*
X166653Y419424D03*
D194*
X195025Y419424D03*
D148*
X224654Y419424D03*
D159*
X235233Y419424D03*
D216*
X256404Y419424D03*
D196*
X277994Y419424D03*
D159*
X292815Y419424D03*
D185*
X315675Y419424D03*
D217*
X344034Y419424D03*
D149*
X367326Y419424D03*
D210*
X165815Y420270D03*
D151*
X195025Y420270D03*
D218*
X224235Y420270D03*
D148*
X234814Y420270D03*
D219*
X256404Y420270D03*
D196*
X277994Y420270D03*
D148*
X292396Y420270D03*
D210*
X315675Y420270D03*
D220*
X344034Y420270D03*
D195*
X366894Y420270D03*
D212*
X164964Y421117D03*
D171*
X195012Y421117D03*
D221*
X223803Y421117D03*
D183*
X234395Y421117D03*
D222*
X256404Y421117D03*
D180*
X277994Y421117D03*
D223*
X291964Y421117D03*
D224*
X315662Y421117D03*
D184*
X343615Y421117D03*
D173*
X366475Y421117D03*
D210*
X164113Y421964D03*
D155*
X195025Y421964D03*
D146*
X223384Y421964D03*
D225*
X233963Y421964D03*
D158*
X256404Y421964D03*
D196*
X277994Y421964D03*
D225*
X291545Y421964D03*
D186*
X316094Y421964D03*
D210*
X343615Y421964D03*
D142*
X366056Y421964D03*
D210*
X163275Y422810D03*
D186*
X195012Y422810D03*
D150*
X222965Y422810D03*
X233125Y422810D03*
D178*
X256404Y422810D03*
D196*
X277994Y422810D03*
D146*
X291126Y422810D03*
D152*
X316094Y422810D03*
D178*
X343602Y422810D03*
D165*
X365624Y422810D03*
D212*
X162424Y423657D03*
D226*
X195025Y423657D03*
D227*
X222533Y423657D03*
D174*
X233125Y423657D03*
D202*
X256836Y423657D03*
D180*
X277994Y423657D03*
D228*
X290694Y423657D03*
D173*
X316513Y423657D03*
D202*
X344034Y423657D03*
D168*
X365205Y423657D03*
D210*
X161573Y424504D03*
D176*
X195025Y424504D03*
D195*
X257674Y424504D03*
D196*
X277994Y424504D03*
D176*
X317783Y424504D03*
D149*
X344466Y424504D03*
D161*
X364786Y424504D03*
D229*
X211349Y459867D03*
X211349Y460774D03*
D230*
X213165Y461681D03*
D231*
X215426Y462588D03*
D232*
X217687Y463494D03*
D233*
X218601Y464401D03*
D234*
X218157Y465309D03*
D235*
X217699Y466217D03*
X217699Y467124D03*
X216785Y468031D03*
D236*
X216328Y468938D03*
D237*
X215883Y469844D03*
X215883Y470751D03*
D238*
X214982Y471659D03*
D235*
X214982Y472567D03*
X214067Y473474D03*
D239*
X213610Y474381D03*
D233*
X213165Y475288D03*
X213165Y476194D03*
X212251Y477101D03*
D240*
X212251Y478009D03*
D235*
X211349Y478917D03*
X211349Y479824D03*
X210435Y480731D03*
X210435Y481638D03*
D237*
X209533Y482544D03*
X209533Y483451D03*
D238*
X208632Y484359D03*
D235*
X208632Y485267D03*
X207717Y486174D03*
D241*
X185048Y487081D03*
D235*
X207717Y487081D03*
D242*
X360574Y487081D03*
D243*
X185949Y487988D03*
D233*
X206815Y487988D03*
D243*
X360117Y487988D03*
D244*
X199107Y488894D03*
D245*
X360574Y488894D03*
D246*
X198649Y489801D03*
D247*
X359673Y489801D03*
D248*
X198649Y490709D03*
D249*
X358314Y490709D03*
D250*
X198192Y491617D03*
D251*
X356498Y491617D03*
D252*
X147392Y492524D03*
D253*
X197735Y492524D03*
D254*
X355126Y492524D03*
D255*
X151482Y493431D03*
D253*
X197735Y493431D03*
D256*
X352865Y493431D03*
D257*
X153285Y494338D03*
D253*
X197735Y494338D03*
D258*
X350592Y494338D03*
D259*
X154644Y495244D03*
D260*
X197290Y495244D03*
D261*
X349233Y495244D03*
D262*
X155558Y496151D03*
D260*
X197290Y496151D03*
D263*
X346960Y496151D03*
D264*
X157374Y497059D03*
D265*
X196833Y497059D03*
D266*
X345157Y497059D03*
D259*
X158276Y497967D03*
D267*
X196376Y497967D03*
D268*
X342883Y497967D03*
D259*
X159190Y498874D03*
D267*
X196376Y498874D03*
X340623Y498874D03*
D257*
X160549Y499781D03*
D267*
X196376Y499781D03*
D269*
X339251Y499781D03*
D270*
X161451Y500688D03*
D271*
X195932Y500688D03*
D269*
X337448Y500688D03*
D259*
X162823Y501594D03*
D263*
X195474Y501594D03*
D272*
X335174Y501594D03*
D257*
X164182Y502501D03*
D263*
X195474Y502501D03*
D273*
X333815Y502501D03*
D274*
X165083Y503409D03*
D266*
X195474Y503409D03*
D275*
X331542Y503409D03*
D257*
X165985Y504317D03*
D276*
X195017Y504317D03*
D250*
X329739Y504317D03*
D270*
X167801Y505224D03*
D276*
X195017Y505224D03*
D246*
X327453Y505224D03*
D270*
X168715Y506131D03*
D258*
X194560Y506131D03*
D246*
X325649Y506131D03*
D257*
X169617Y507038D03*
D277*
X193658Y507038D03*
D278*
X324290Y507038D03*
D245*
X170989Y507944D03*
D277*
X193658Y507944D03*
D279*
X322017Y507944D03*
D280*
X185492Y508851D03*
D281*
X320201Y508851D03*
D282*
X185492Y509759D03*
D283*
X318855Y509759D03*
D284*
X185492Y510667D03*
D285*
X316569Y510667D03*
D286*
X186394Y511574D03*
D284*
X315210Y511574D03*
D279*
X185949Y512481D03*
D287*
X312949Y512481D03*
D285*
X185048Y513388D03*
D288*
X311133Y513388D03*
D289*
X183676Y514294D03*
D290*
X309774Y514294D03*
D291*
X185949Y515201D03*
D292*
X307501Y515201D03*
D293*
X187308Y516109D03*
D294*
X305685Y516109D03*
D295*
X189582Y517017D03*
D280*
X303424Y517017D03*
D296*
X191855Y517924D03*
D297*
X302065Y517924D03*
D298*
X193214Y518831D03*
D297*
X300237Y518831D03*
D299*
X195474Y519738D03*
D300*
X297976Y519738D03*
D301*
X197735Y520644D03*
D302*
X296617Y520644D03*
D303*
X200465Y521551D03*
D304*
X294801Y521551D03*
D305*
X203640Y522459D03*
D306*
X292985Y522459D03*
D307*
X205914Y523367D03*
D308*
X291639Y523367D03*
D309*
X209533Y524274D03*
D310*
X289810Y524274D03*
D311*
X212264Y525181D03*
D310*
X288007Y525181D03*
D312*
X241283Y526088D03*
D313*
X241283Y526994D03*
D314*
X240839Y527901D03*
D315*
X239924Y528809D03*
D316*
X239480Y529717D03*
D317*
X239010Y530624D03*
D318*
X239912Y531531D03*
D319*
X242642Y532438D03*
D320*
X243557Y533344D03*
D321*
X244915Y534251D03*
D322*
X248078Y535159D03*
D323*
X254428Y536067D03*
D324*
X389594Y536067D03*
D318*
X258962Y536974D03*
D325*
X389607Y536974D03*
D326*
X268957Y537881D03*
D327*
X389607Y537881D03*
D328*
X280742Y538788D03*
D329*
X389149Y538788D03*
D330*
X291626Y539694D03*
D331*
X389149Y539694D03*
D332*
X301164Y540601D03*
D333*
X388692Y540601D03*
D334*
X302967Y541509D03*
D335*
X388692Y541509D03*
D336*
X313394Y542417D03*
D337*
X315667Y543324D03*
X315667Y544231D03*
X315667Y545138D03*
D338*
X314753Y546044D03*
D339*
X314308Y546951D03*
D340*
X315210Y547859D03*
D341*
X315223Y548767D03*
D342*
X315223Y549674D03*
D343*
X315667Y550581D03*
D344*
X248535Y551488D03*
D345*
X338349Y551488D03*
D344*
X246732Y552394D03*
D318*
X341512Y552394D03*
D344*
X245817Y553301D03*
D346*
X343785Y553301D03*
D347*
X244458Y554209D03*
D348*
X346973Y554209D03*
D290*
X243557Y555117D03*
D321*
X350148Y555117D03*
D290*
X241728Y556024D03*
D349*
X352408Y556024D03*
D350*
X240382Y556931D03*
D351*
X355126Y556931D03*
D287*
X239467Y557838D03*
D352*
X356485Y557838D03*
D287*
X237664Y558744D03*
D353*
X357844Y558744D03*
D287*
X236749Y559651D03*
D354*
X359660Y559651D03*
D355*
X235390Y560559D03*
D356*
X360574Y560559D03*
D285*
X234019Y561467D03*
D357*
X361933Y561467D03*
D284*
X232660Y562374D03*
D358*
X362848Y562374D03*
D285*
X231301Y563281D03*
D359*
X363292Y563281D03*
D360*
X230399Y564188D03*
D361*
X364207Y564188D03*
D286*
X229040Y565094D03*
D362*
X365108Y565094D03*
D285*
X227669Y566001D03*
D363*
X365565Y566001D03*
D283*
X226323Y566909D03*
D364*
X366467Y566909D03*
D281*
X224951Y567817D03*
D296*
X366912Y567817D03*
D286*
X223605Y568724D03*
D365*
X367826Y568724D03*
D366*
X222233Y569631D03*
D367*
X368283Y569631D03*
D281*
X221319Y570538D03*
D368*
X368740Y570538D03*
D244*
X219960Y571444D03*
D280*
X369642Y571444D03*
D281*
X218601Y572351D03*
D360*
X370099Y572351D03*
D369*
X217242Y573259D03*
D370*
X370544Y573259D03*
D371*
X215883Y574167D03*
D256*
X371001Y574167D03*
D246*
X214982Y575074D03*
D372*
X371458Y575074D03*
D246*
X213153Y575981D03*
D373*
X371915Y575981D03*
D246*
X212264Y576888D03*
D250*
X210892Y577794D03*
X209089Y578701D03*
D275*
X208174Y579609D03*
D273*
X206815Y580517D03*
X205901Y581424D03*
D253*
X204085Y582331D03*
D260*
X202726Y583238D03*
D272*
X201824Y584144D03*
D269*
X200465Y585051D03*
D265*
X198637Y585959D03*
D269*
X197748Y586867D03*
D267*
X196376Y587774D03*
D374*
X195474Y588681D03*
D375*
X193658Y589588D03*
D271*
X192299Y590494D03*
X191385Y591401D03*
D376*
X189582Y592309D03*
D271*
X188667Y593217D03*
D377*
X187308Y594124D03*
D276*
X185949Y595031D03*
D263*
X184578Y595938D03*
D378*
X183232Y596844D03*
D276*
X182317Y597751D03*
D379*
X180958Y598659D03*
D258*
X179142Y599567D03*
D380*
X178240Y600474D03*
D256*
X176869Y601381D03*
D258*
X175510Y602288D03*
D256*
X174151Y603194D03*
D254*
X172805Y604101D03*
D381*
X171890Y605009D03*
D254*
X170062Y605917D03*
X169173Y606824D03*
D251*
X167801Y607731D03*
D382*
X166442Y608638D03*
D383*
X165083Y609544D03*
D382*
X163724Y610451D03*
D384*
X162810Y611359D03*
D385*
X161464Y612267D03*
X159635Y613174D03*
D386*
X158733Y614081D03*
D236*
X157374Y614988D03*
D239*
X156460Y615894D03*
X154657Y616801D03*
D387*
X153742Y617709D03*
D232*
X153298Y618617D03*
D245*
X152828Y619524D03*
D388*
X153298Y620431D03*
D389*
X152840Y621338D03*
D242*
X153742Y622244D03*
D390*
X153285Y623151D03*
M02*
