G04 EAGLE Gerber RS-274X export*
G75*
%MOMM*%
%FSLAX34Y34*%
%LPD*%
%INSilkscreen Bottom*%
%IPPOS*%
%AMOC8*
5,1,8,0,0,1.08239X$1,22.5*%
G01*
%ADD10R,0.241300X0.060450*%
%ADD11R,0.060956X0.060450*%
%ADD12R,0.058419X0.060450*%
%ADD13R,0.060963X0.060450*%
%ADD14R,0.482600X0.060450*%
%ADD15R,0.243838X0.060450*%
%ADD16R,0.302256X0.060450*%
%ADD17R,0.726438X0.060450*%
%ADD18R,0.906781X0.060450*%
%ADD19R,0.304800X0.060450*%
%ADD20R,0.906775X0.060450*%
%ADD21R,0.845819X0.060450*%
%ADD22R,0.967738X0.060450*%
%ADD23R,0.363219X0.060450*%
%ADD24R,0.182881X0.060706*%
%ADD25R,0.302262X0.060706*%
%ADD26R,0.241300X0.060706*%
%ADD27R,0.421637X0.060706*%
%ADD28R,0.424175X0.060706*%
%ADD29R,0.363219X0.060706*%
%ADD30R,0.360681X0.060706*%
%ADD31R,0.421637X0.060450*%
%ADD32R,0.424175X0.060450*%
%ADD33R,0.485137X0.060450*%
%ADD34R,0.180338X0.060450*%
%ADD35R,0.182875X0.060450*%
%ADD36R,1.026156X0.060450*%
%ADD37R,0.784863X0.060450*%
%ADD38R,0.302256X0.060706*%
%ADD39R,0.243838X0.060706*%
%ADD40R,0.058419X0.060706*%
%ADD41R,0.360681X0.060450*%
%ADD42R,0.182881X0.060450*%
%ADD43R,0.302262X0.060450*%
%ADD44R,0.424181X0.060450*%
%ADD45R,0.787400X0.060450*%
%ADD46R,0.665475X0.060450*%
%ADD47R,0.848356X0.060450*%
%ADD48R,0.543556X0.060450*%
%ADD49R,0.665481X0.060450*%
%ADD50R,0.546100X0.060450*%
%ADD51R,0.607056X0.060450*%
%ADD52R,0.784856X0.060450*%
%ADD53R,0.723900X0.060450*%
%ADD54R,1.028700X0.060450*%
%ADD55R,0.424181X0.060706*%
%ADD56R,0.485137X0.060706*%
%ADD57R,0.482600X0.060706*%
%ADD58R,0.119381X0.060450*%
%ADD59R,0.121919X0.060450*%
%ADD60R,0.119375X0.060450*%
%ADD61R,1.089662X0.060450*%
%ADD62R,0.909319X0.060450*%
%ADD63R,0.604519X0.060450*%
%ADD64R,1.148081X0.060450*%
%ADD65R,1.150619X0.060450*%
%ADD66R,1.270000X0.060450*%
%ADD67R,1.450338X0.060706*%
%ADD68R,1.572263X0.060450*%
%ADD69R,1.572256X0.060450*%
%ADD70R,2.298700X0.060450*%
%ADD71R,2.420619X0.060450*%
%ADD72R,2.479038X0.060450*%
%ADD73R,2.600963X0.060450*%
%ADD74R,2.600956X0.060450*%
%ADD75R,2.540000X0.060450*%
%ADD76R,2.598419X0.060450*%
%ADD77R,2.540000X0.060706*%
%ADD78R,2.418075X0.060450*%
%ADD79R,2.418081X0.060450*%
%ADD80R,2.359656X0.060450*%
%ADD81R,2.357119X0.060450*%
%ADD82R,2.359656X0.060706*%
%ADD83R,2.357119X0.060706*%
%ADD84R,2.661919X0.060450*%
%ADD85R,2.722881X0.060450*%
%ADD86R,2.722881X0.060706*%
%ADD87R,2.842256X0.060450*%
%ADD88R,2.720338X0.060450*%
%ADD89R,2.722875X0.060450*%
%ADD90R,2.659381X0.060450*%
%ADD91R,2.659375X0.060450*%
%ADD92R,2.961638X0.060450*%
%ADD93R,3.263900X0.060450*%
%ADD94R,3.507738X0.060706*%
%ADD95R,3.507738X0.060450*%
%ADD96R,3.446775X0.060450*%
%ADD97R,3.446781X0.060450*%
%ADD98R,3.385819X0.060450*%
%ADD99R,3.324856X0.060450*%
%ADD100R,3.324863X0.060450*%
%ADD101R,3.324856X0.060706*%
%ADD102R,3.324863X0.060706*%
%ADD103R,3.022600X0.060450*%
%ADD104R,2.781300X0.060450*%
%ADD105R,2.783838X0.060450*%
%ADD106R,2.842263X0.060706*%
%ADD107R,2.842256X0.060706*%
%ADD108R,3.144519X0.060450*%
%ADD109R,6.410956X0.060450*%
%ADD110R,6.289038X0.060450*%
%ADD111R,6.167119X0.060450*%
%ADD112R,6.047738X0.060450*%
%ADD113R,6.167119X0.060706*%
%ADD114R,6.532881X0.060450*%
%ADD115R,6.652256X0.060450*%
%ADD116R,6.771638X0.060450*%
%ADD117R,6.893556X0.060450*%
%ADD118R,7.015481X0.060450*%
%ADD119R,7.015481X0.060706*%
%ADD120R,7.137400X0.060450*%
%ADD121R,7.259319X0.060450*%
%ADD122R,7.376156X0.060450*%
%ADD123R,7.498081X0.060450*%
%ADD124R,1.755138X0.060450*%
%ADD125R,3.388356X0.060450*%
%ADD126R,1.633219X0.060450*%
%ADD127R,2.900681X0.060706*%
%ADD128R,1.330956X0.060450*%
%ADD129R,1.328419X0.060450*%
%ADD130R,2.296156X0.060450*%
%ADD131R,1.935481X0.060450*%
%ADD132R,1.813556X0.060450*%
%ADD133R,1.691638X0.060450*%
%ADD134R,1.572256X0.060706*%
%ADD135R,1.511300X0.060450*%
%ADD136R,1.452881X0.060450*%
%ADD137R,1.330956X0.060706*%
%ADD138R,1.209037X0.060450*%
%ADD139R,23.876000X0.084838*%
%ADD140R,1.016000X0.084838*%
%ADD141R,23.705819X0.084581*%
%ADD142R,1.016000X0.084581*%
%ADD143R,23.538181X0.084581*%
%ADD144R,23.281638X0.084838*%
%ADD145R,23.114000X0.084581*%
%ADD146R,0.254000X0.084581*%
%ADD147R,2.032000X0.084581*%
%ADD148R,0.508000X0.084581*%
%ADD149R,1.270000X0.084581*%
%ADD150R,0.170181X0.084581*%
%ADD151R,2.202181X0.084581*%
%ADD152R,1.356363X0.084581*%
%ADD153R,2.623819X0.084581*%
%ADD154R,2.118362X0.084581*%
%ADD155R,1.861819X0.084581*%
%ADD156R,0.845819X0.084581*%
%ADD157R,0.167637X0.084581*%
%ADD158R,1.945638X0.084581*%
%ADD159R,0.591819X0.084581*%
%ADD160R,0.675638X0.084581*%
%ADD161R,0.762000X0.084581*%
%ADD162R,0.421637X0.084581*%
%ADD163R,0.340363X0.084581*%
%ADD164R,1.099819X0.084581*%
%ADD165R,0.929638X0.084581*%
%ADD166R,0.086363X0.084581*%
%ADD167R,0.932181X0.084581*%
%ADD168R,0.845819X0.084838*%
%ADD169R,0.591819X0.084838*%
%ADD170R,0.508000X0.084838*%
%ADD171R,2.032000X0.084838*%
%ADD172R,1.353819X0.084838*%
%ADD173R,1.099819X0.084838*%
%ADD174R,0.170181X0.084838*%
%ADD175R,0.932181X0.084838*%
%ADD176R,0.678181X0.084581*%
%ADD177R,1.607819X0.084581*%
%ADD178R,1.778000X0.084581*%
%ADD179R,1.353819X0.084581*%
%ADD180R,0.848363X0.084838*%
%ADD181R,1.948181X0.084838*%
%ADD182R,1.437638X0.084838*%
%ADD183R,0.424181X0.084838*%
%ADD184R,2.115819X0.084838*%
%ADD185R,2.115819X0.084581*%
%ADD186R,1.524000X0.084581*%
%ADD187R,0.594363X0.084581*%
%ADD188R,0.762000X0.084838*%
%ADD189R,2.286000X0.084838*%
%ADD190R,1.607819X0.084838*%
%ADD191R,0.678181X0.084838*%
%ADD192R,1.861819X0.084838*%
%ADD193R,0.083819X0.084581*%
%ADD194R,2.369819X0.084581*%
%ADD195R,1.183638X0.084581*%
%ADD196R,0.848363X0.084581*%
%ADD197R,1.691638X0.084581*%
%ADD198R,0.675638X0.084838*%
%ADD199R,1.270000X0.084838*%
%ADD200R,1.437638X0.084581*%
%ADD201R,0.594363X0.084838*%
%ADD202R,1.524000X0.084838*%
%ADD203R,0.929638X0.084838*%
%ADD204R,1.691638X0.084838*%
%ADD205R,1.694181X0.084581*%
%ADD206R,1.102363X0.084581*%
%ADD207R,1.102363X0.084838*%
%ADD208R,1.864363X0.084581*%
%ADD209R,1.186181X0.084581*%
%ADD210R,1.948181X0.084581*%
%ADD211R,2.540000X0.084581*%
%ADD212R,1.945638X0.084838*%
%ADD213R,2.540000X0.084838*%
%ADD214R,2.372362X0.084838*%
%ADD215R,2.456181X0.084838*%
%ADD216R,2.453638X0.084581*%
%ADD217R,2.372362X0.084581*%
%ADD218R,0.424181X0.084581*%
%ADD219R,2.286000X0.084581*%
%ADD220R,2.199638X0.084581*%
%ADD221R,0.337819X0.084838*%
%ADD222R,2.118362X0.084838*%
%ADD223R,0.421637X0.084838*%
%ADD224R,1.778000X0.084838*%
%ADD225R,0.337819X0.084581*%
%ADD226R,1.186181X0.084838*%
%ADD227R,0.083819X0.084838*%
%ADD228R,0.167637X0.084838*%


D10*
X230105Y261973D03*
X252483Y261973D03*
D11*
X261843Y261973D03*
D12*
X270313Y261973D03*
X276968Y261973D03*
D11*
X278175Y261973D03*
D10*
X282099Y261973D03*
D13*
X298139Y261973D03*
D10*
X303283Y261973D03*
D12*
X311436Y261973D03*
D11*
X317494Y261973D03*
D14*
X230093Y262578D03*
D10*
X242805Y262578D03*
X248241Y262578D03*
D14*
X252470Y262578D03*
D15*
X262147Y262578D03*
D10*
X270009Y262578D03*
D16*
X277578Y262578D03*
D14*
X282112Y262578D03*
D10*
X293605Y262578D03*
X299041Y262578D03*
D14*
X303270Y262578D03*
D10*
X310522Y262578D03*
X318396Y262578D03*
D17*
X230093Y263182D03*
D10*
X242805Y263182D03*
D18*
X251568Y263182D03*
D19*
X262452Y263182D03*
D16*
X269704Y263182D03*
D20*
X280600Y263182D03*
D10*
X293605Y263182D03*
D18*
X302368Y263182D03*
D10*
X310522Y263182D03*
X318396Y263182D03*
D21*
X230105Y263787D03*
D10*
X242805Y263787D03*
D22*
X251873Y263787D03*
D19*
X262452Y263787D03*
D16*
X269704Y263787D03*
D22*
X280905Y263787D03*
D10*
X293605Y263787D03*
D18*
X302368Y263787D03*
D10*
X310522Y263787D03*
X318396Y263787D03*
D18*
X230410Y264391D03*
D10*
X242805Y264391D03*
D22*
X251873Y264391D03*
D23*
X262160Y264391D03*
X270009Y264391D03*
D22*
X280905Y264391D03*
D10*
X293605Y264391D03*
D22*
X302673Y264391D03*
D10*
X310522Y264391D03*
X318396Y264391D03*
D24*
X227375Y264997D03*
D25*
X233433Y264997D03*
D26*
X242805Y264997D03*
D25*
X248546Y264997D03*
D26*
X255505Y264997D03*
D27*
X262452Y264997D03*
D28*
X269704Y264997D03*
D29*
X277883Y264997D03*
D30*
X284525Y264997D03*
D26*
X293605Y264997D03*
X299041Y264997D03*
X306305Y264997D03*
X310522Y264997D03*
X318396Y264997D03*
D16*
X234017Y265603D03*
D10*
X242805Y265603D03*
X248241Y265603D03*
D16*
X255810Y265603D03*
D31*
X262452Y265603D03*
D32*
X269704Y265603D03*
D16*
X277578Y265603D03*
X284817Y265603D03*
D10*
X293605Y265603D03*
X299041Y265603D03*
X306305Y265603D03*
X310522Y265603D03*
X318396Y265603D03*
X234322Y266207D03*
X242805Y266207D03*
X248241Y266207D03*
D15*
X256102Y266207D03*
D14*
X262147Y266207D03*
D33*
X270009Y266207D03*
D16*
X277578Y266207D03*
X284817Y266207D03*
D10*
X293605Y266207D03*
X299041Y266207D03*
X306305Y266207D03*
X310522Y266207D03*
X318396Y266207D03*
X234322Y266812D03*
X242805Y266812D03*
X248241Y266812D03*
X255505Y266812D03*
X260941Y266812D03*
D34*
X263659Y266812D03*
D35*
X268497Y266812D03*
D10*
X271228Y266812D03*
D16*
X277578Y266812D03*
D10*
X285122Y266812D03*
X293605Y266812D03*
X299041Y266812D03*
X306305Y266812D03*
X310522Y266812D03*
X318396Y266812D03*
X234322Y267416D03*
X242805Y267416D03*
X248241Y267416D03*
D23*
X254896Y267416D03*
D34*
X260636Y267416D03*
D10*
X263963Y267416D03*
X268205Y267416D03*
X271228Y267416D03*
D16*
X277578Y267416D03*
D10*
X285122Y267416D03*
X293605Y267416D03*
X299041Y267416D03*
D23*
X305696Y267416D03*
D10*
X310522Y267416D03*
X318396Y267416D03*
D36*
X230397Y268021D03*
D10*
X242805Y268021D03*
D18*
X251568Y268021D03*
D10*
X260331Y268021D03*
X263963Y268021D03*
X268205Y268021D03*
D15*
X271825Y268021D03*
D16*
X277578Y268021D03*
D10*
X285122Y268021D03*
X293605Y268021D03*
D18*
X302368Y268021D03*
D10*
X310522Y268021D03*
X318396Y268021D03*
D36*
X230397Y268625D03*
D10*
X242805Y268625D03*
D18*
X251568Y268625D03*
D10*
X260331Y268625D03*
D34*
X264268Y268625D03*
X267900Y268625D03*
D15*
X271825Y268625D03*
D16*
X277578Y268625D03*
D10*
X285122Y268625D03*
X293605Y268625D03*
D21*
X302063Y268625D03*
D10*
X310522Y268625D03*
X318396Y268625D03*
D36*
X230397Y269230D03*
D10*
X242805Y269230D03*
D37*
X250959Y269230D03*
D10*
X260331Y269230D03*
X264573Y269230D03*
X267596Y269230D03*
D15*
X271825Y269230D03*
D16*
X277578Y269230D03*
D10*
X285122Y269230D03*
X293605Y269230D03*
D37*
X301759Y269230D03*
D10*
X310522Y269230D03*
X318396Y269230D03*
X226473Y269834D03*
X234322Y269834D03*
X242805Y269834D03*
X248241Y269834D03*
X259722Y269834D03*
X264573Y269834D03*
X267596Y269834D03*
X272422Y269834D03*
D16*
X277578Y269834D03*
D10*
X285122Y269834D03*
X293605Y269834D03*
X299041Y269834D03*
X310522Y269834D03*
X318396Y269834D03*
X226473Y270439D03*
X234322Y270439D03*
X242805Y270439D03*
X248241Y270439D03*
X259722Y270439D03*
D31*
X266084Y270439D03*
D10*
X272422Y270439D03*
D16*
X277578Y270439D03*
X284817Y270439D03*
D10*
X293605Y270439D03*
X299041Y270439D03*
D16*
X310826Y270439D03*
X318091Y270439D03*
X226778Y271043D03*
X234017Y271043D03*
D10*
X242805Y271043D03*
X248241Y271043D03*
X259722Y271043D03*
D31*
X266084Y271043D03*
D10*
X272422Y271043D03*
D16*
X277578Y271043D03*
X284817Y271043D03*
X293300Y271043D03*
D10*
X299041Y271043D03*
D16*
X310826Y271043D03*
X318091Y271043D03*
D38*
X227387Y271649D03*
D39*
X233725Y271649D03*
D38*
X242500Y271649D03*
D26*
X248241Y271649D03*
D40*
X254591Y271649D03*
D38*
X259417Y271649D03*
D27*
X266084Y271649D03*
D38*
X272726Y271649D03*
D29*
X277883Y271649D03*
D38*
X284817Y271649D03*
X293300Y271649D03*
D26*
X299041Y271649D03*
D29*
X311131Y271649D03*
X317786Y271649D03*
D41*
X227680Y272255D03*
D23*
X233128Y272255D03*
D42*
X237662Y272255D03*
D32*
X241891Y272255D03*
D23*
X248850Y272255D03*
D34*
X254591Y272255D03*
D15*
X259125Y272255D03*
D43*
X266072Y272255D03*
D10*
X273031Y272255D03*
D14*
X278480Y272255D03*
D23*
X283928Y272255D03*
D42*
X288462Y272255D03*
D32*
X292691Y272255D03*
D43*
X299346Y272255D03*
D10*
X305086Y272255D03*
D23*
X311741Y272255D03*
D44*
X317481Y272255D03*
D45*
X230397Y272859D03*
D17*
X240380Y272859D03*
D21*
X251873Y272859D03*
D15*
X259125Y272859D03*
D43*
X266072Y272859D03*
D10*
X273031Y272859D03*
D22*
X280905Y272859D03*
D45*
X290875Y272859D03*
D18*
X302368Y272859D03*
D22*
X314763Y272859D03*
D46*
X230397Y273464D03*
D45*
X240075Y273464D03*
D21*
X251873Y273464D03*
D43*
X258833Y273464D03*
X266072Y273464D03*
D16*
X273336Y273464D03*
D20*
X280600Y273464D03*
D47*
X290570Y273464D03*
D21*
X302673Y273464D03*
D18*
X315068Y273464D03*
D48*
X230397Y274069D03*
D33*
X238563Y274069D03*
D10*
X242805Y274069D03*
D17*
X251860Y274069D03*
D43*
X258833Y274069D03*
D35*
X266084Y274069D03*
D16*
X273336Y274069D03*
X277578Y274069D03*
D14*
X282112Y274069D03*
D33*
X288754Y274069D03*
D10*
X293605Y274069D03*
D49*
X302356Y274069D03*
D14*
X313557Y274069D03*
D10*
X318396Y274069D03*
D16*
X230410Y274673D03*
D43*
X238259Y274673D03*
D10*
X242805Y274673D03*
D32*
X252178Y274673D03*
D10*
X258528Y274673D03*
D35*
X266084Y274673D03*
D10*
X273641Y274673D03*
D16*
X277578Y274673D03*
D10*
X282099Y274673D03*
D43*
X289059Y274673D03*
D10*
X293605Y274673D03*
D23*
X302673Y274673D03*
D15*
X313557Y274673D03*
D10*
X318396Y274673D03*
D16*
X277578Y275278D03*
D10*
X318396Y275278D03*
D16*
X277578Y275882D03*
D10*
X318396Y275882D03*
D16*
X277578Y276487D03*
D10*
X318396Y276487D03*
D16*
X277578Y277091D03*
D10*
X318396Y277091D03*
D38*
X277578Y277697D03*
D26*
X318396Y277697D03*
D16*
X277578Y278303D03*
D10*
X318396Y278303D03*
D16*
X277578Y278907D03*
D10*
X318396Y278907D03*
D16*
X277578Y279512D03*
D10*
X318396Y279512D03*
X318396Y280116D03*
X318396Y280721D03*
X318396Y281325D03*
D16*
X216491Y281930D03*
X227387Y281930D03*
D11*
X240075Y281930D03*
X244317Y281930D03*
X245510Y281930D03*
D15*
X249447Y281930D03*
D43*
X261246Y281930D03*
D16*
X272726Y281930D03*
D12*
X286036Y281930D03*
D11*
X287243Y281930D03*
X293288Y281930D03*
X294507Y281930D03*
D16*
X302368Y281930D03*
D15*
X313557Y281930D03*
D10*
X318396Y281930D03*
X326854Y281930D03*
D50*
X216491Y282534D03*
D48*
X227375Y282534D03*
D10*
X239783Y282534D03*
X245218Y282534D03*
D14*
X249447Y282534D03*
D50*
X261246Y282534D03*
D49*
X272739Y282534D03*
D10*
X286341Y282534D03*
D15*
X294202Y282534D03*
D51*
X302063Y282534D03*
D14*
X313557Y282534D03*
D10*
X318396Y282534D03*
D48*
X326562Y282534D03*
D52*
X216491Y283139D03*
D17*
X227070Y283139D03*
D10*
X239783Y283139D03*
D21*
X248241Y283139D03*
D53*
X260941Y283139D03*
D21*
X273031Y283139D03*
D10*
X286341Y283139D03*
D15*
X294202Y283139D03*
D52*
X302368Y283139D03*
D18*
X315068Y283139D03*
D17*
X326867Y283139D03*
D20*
X216491Y283743D03*
D47*
X227070Y283743D03*
D10*
X239783Y283743D03*
D18*
X248546Y283743D03*
D21*
X260941Y283743D03*
D54*
X273336Y283743D03*
D10*
X286341Y283743D03*
D15*
X294202Y283743D03*
D21*
X302063Y283743D03*
D22*
X314763Y283743D03*
D21*
X326854Y283743D03*
D38*
X214078Y284349D03*
D29*
X219209Y284349D03*
D55*
X224949Y284349D03*
D28*
X229800Y284349D03*
D26*
X239783Y284349D03*
D27*
X246120Y284349D03*
D56*
X251263Y284349D03*
D27*
X258820Y284349D03*
D55*
X263659Y284349D03*
D29*
X270009Y284349D03*
D55*
X276359Y284349D03*
D26*
X286341Y284349D03*
D39*
X294202Y284349D03*
D38*
X299955Y284349D03*
D29*
X305086Y284349D03*
D55*
X312046Y284349D03*
D57*
X317189Y284349D03*
D55*
X324136Y284349D03*
D27*
X328975Y284349D03*
D58*
X213773Y284955D03*
D16*
X220123Y284955D03*
D42*
X224352Y284955D03*
D41*
X230702Y284955D03*
D10*
X239783Y284955D03*
D16*
X245523Y284955D03*
X252178Y284955D03*
D23*
X257918Y284955D03*
D16*
X264268Y284955D03*
X269094Y284955D03*
D34*
X276359Y284955D03*
D10*
X286341Y284955D03*
D15*
X294202Y284955D03*
D59*
X299638Y284955D03*
D16*
X306000Y284955D03*
X311436Y284955D03*
D23*
X317786Y284955D03*
D16*
X323526Y284955D03*
X330181Y284955D03*
D10*
X220428Y285559D03*
D16*
X230994Y285559D03*
D10*
X239783Y285559D03*
X245218Y285559D03*
D16*
X252178Y285559D03*
X257613Y285559D03*
X264878Y285559D03*
D15*
X268802Y285559D03*
D60*
X276663Y285559D03*
D10*
X286341Y285559D03*
D15*
X294202Y285559D03*
D10*
X306305Y285559D03*
D16*
X310826Y285559D03*
X318091Y285559D03*
D10*
X323222Y285559D03*
D16*
X330181Y285559D03*
D10*
X220428Y286164D03*
X231299Y286164D03*
X239783Y286164D03*
X245218Y286164D03*
X252483Y286164D03*
X257309Y286164D03*
D16*
X264878Y286164D03*
X269094Y286164D03*
D10*
X286341Y286164D03*
D15*
X294202Y286164D03*
D10*
X306305Y286164D03*
D16*
X310826Y286164D03*
X318091Y286164D03*
X322917Y286164D03*
D10*
X330486Y286164D03*
D43*
X220733Y286769D03*
D10*
X231299Y286769D03*
X239783Y286769D03*
X245218Y286769D03*
X252483Y286769D03*
X257309Y286769D03*
X265183Y286769D03*
D16*
X269094Y286769D03*
D10*
X286341Y286769D03*
D15*
X294202Y286769D03*
D10*
X306305Y286769D03*
D16*
X310826Y286769D03*
X318091Y286769D03*
X322917Y286769D03*
X330791Y286769D03*
D54*
X217100Y287373D03*
D16*
X231604Y287373D03*
D10*
X239783Y287373D03*
X245218Y287373D03*
X252483Y287373D03*
X257309Y287373D03*
X265183Y287373D03*
D46*
X271520Y287373D03*
D10*
X286341Y287373D03*
D15*
X294202Y287373D03*
D22*
X302673Y287373D03*
D10*
X310522Y287373D03*
X318396Y287373D03*
D16*
X322917Y287373D03*
X330791Y287373D03*
D61*
X216796Y287978D03*
D16*
X231604Y287978D03*
D10*
X239783Y287978D03*
X245218Y287978D03*
X252483Y287978D03*
X257309Y287978D03*
X265183Y287978D03*
D45*
X272130Y287978D03*
D10*
X286341Y287978D03*
D15*
X294202Y287978D03*
D54*
X302368Y287978D03*
D10*
X310522Y287978D03*
X318396Y287978D03*
D16*
X322917Y287978D03*
X330791Y287978D03*
D61*
X216796Y288582D03*
D16*
X231604Y288582D03*
D10*
X239783Y288582D03*
X245218Y288582D03*
X252483Y288582D03*
X257309Y288582D03*
X265183Y288582D03*
D45*
X272739Y288582D03*
D10*
X286341Y288582D03*
D15*
X294202Y288582D03*
D54*
X302368Y288582D03*
D10*
X310522Y288582D03*
X318396Y288582D03*
D16*
X322917Y288582D03*
X330791Y288582D03*
D61*
X216796Y289187D03*
D16*
X231604Y289187D03*
D10*
X239783Y289187D03*
X245218Y289187D03*
X252483Y289187D03*
X257309Y289187D03*
X265183Y289187D03*
D53*
X273641Y289187D03*
D10*
X286341Y289187D03*
D15*
X294202Y289187D03*
D54*
X302368Y289187D03*
D10*
X310522Y289187D03*
X318396Y289187D03*
D16*
X322917Y289187D03*
X330791Y289187D03*
D43*
X212859Y289791D03*
X220733Y289791D03*
D10*
X231299Y289791D03*
X239783Y289791D03*
X245218Y289791D03*
X252483Y289791D03*
X257309Y289791D03*
D16*
X264878Y289791D03*
X275749Y289791D03*
D10*
X286341Y289791D03*
D15*
X294202Y289791D03*
D16*
X298736Y289791D03*
D10*
X306305Y289791D03*
D16*
X310826Y289791D03*
X318091Y289791D03*
X322917Y289791D03*
X330791Y289791D03*
D26*
X213163Y290397D03*
X220428Y290397D03*
X231299Y290397D03*
X239783Y290397D03*
X245218Y290397D03*
X252483Y290397D03*
X257309Y290397D03*
D38*
X264878Y290397D03*
D25*
X276359Y290397D03*
X286646Y290397D03*
D38*
X293910Y290397D03*
X298736Y290397D03*
D26*
X306305Y290397D03*
D38*
X310826Y290397D03*
X318091Y290397D03*
D26*
X323222Y290397D03*
X330486Y290397D03*
D16*
X213468Y291003D03*
D10*
X220428Y291003D03*
D13*
X224352Y291003D03*
D16*
X230994Y291003D03*
X239478Y291003D03*
D10*
X245218Y291003D03*
X252483Y291003D03*
D16*
X257613Y291003D03*
D10*
X264573Y291003D03*
D43*
X276359Y291003D03*
X286646Y291003D03*
D16*
X293910Y291003D03*
D10*
X299041Y291003D03*
D16*
X306000Y291003D03*
X310826Y291003D03*
X318091Y291003D03*
D10*
X323222Y291003D03*
D16*
X330181Y291003D03*
X213468Y291607D03*
X220123Y291607D03*
D42*
X224352Y291607D03*
D41*
X230702Y291607D03*
D13*
X234639Y291607D03*
D23*
X239173Y291607D03*
D10*
X245218Y291607D03*
X252483Y291607D03*
D23*
X257918Y291607D03*
D16*
X264268Y291607D03*
D34*
X269704Y291607D03*
D10*
X276054Y291607D03*
D23*
X286950Y291607D03*
X293605Y291607D03*
D43*
X299346Y291607D03*
D10*
X305696Y291607D03*
D16*
X311436Y291607D03*
D23*
X317786Y291607D03*
D16*
X323526Y291607D03*
D23*
X329876Y291607D03*
X214383Y292212D03*
X219209Y292212D03*
D62*
X227375Y292212D03*
D17*
X237357Y292212D03*
D10*
X245218Y292212D03*
X252483Y292212D03*
D18*
X261246Y292212D03*
D23*
X270618Y292212D03*
X275444Y292212D03*
D22*
X290583Y292212D03*
D23*
X300260Y292212D03*
X305086Y292212D03*
D22*
X314763Y292212D03*
D21*
X326854Y292212D03*
X216796Y292816D03*
D47*
X227070Y292816D03*
D45*
X237052Y292816D03*
D10*
X245218Y292816D03*
X252483Y292816D03*
D37*
X261246Y292816D03*
D20*
X272726Y292816D03*
D22*
X290583Y292816D03*
D52*
X302368Y292816D03*
D22*
X314763Y292816D03*
D21*
X326854Y292816D03*
D53*
X216796Y293421D03*
D17*
X227070Y293421D03*
D47*
X236747Y293421D03*
D10*
X245218Y293421D03*
X252483Y293421D03*
D46*
X261233Y293421D03*
D45*
X272739Y293421D03*
D62*
X290875Y293421D03*
D49*
X302356Y293421D03*
D18*
X315068Y293421D03*
D17*
X326867Y293421D03*
D33*
X216796Y294025D03*
D48*
X227375Y294025D03*
D44*
X235236Y294025D03*
D10*
X239783Y294025D03*
X245218Y294025D03*
X252483Y294025D03*
D50*
X261246Y294025D03*
D63*
X272434Y294025D03*
D33*
X289363Y294025D03*
D15*
X294202Y294025D03*
D33*
X302673Y294025D03*
D14*
X313557Y294025D03*
D10*
X318396Y294025D03*
D33*
X326854Y294025D03*
D58*
X216796Y294630D03*
D59*
X227070Y294630D03*
D34*
X235236Y294630D03*
X261246Y294630D03*
X272726Y294630D03*
D60*
X289363Y294630D03*
D58*
X302673Y294630D03*
D59*
X313557Y294630D03*
X326867Y294630D03*
X243402Y304307D03*
X300247Y304307D03*
D15*
X243402Y304912D03*
X300247Y304912D03*
D31*
X243707Y305516D03*
D44*
X299955Y305516D03*
D48*
X243707Y306121D03*
X299943Y306121D03*
D46*
X243707Y306725D03*
D49*
X299943Y306725D03*
D21*
X243999Y307330D03*
X299650Y307330D03*
D22*
X243999Y307934D03*
X299650Y307934D03*
D64*
X244317Y308539D03*
D58*
X257918Y308539D03*
X285731Y308539D03*
D65*
X299346Y308539D03*
D66*
X244317Y309143D03*
D10*
X257309Y309143D03*
X286341Y309143D03*
D66*
X299333Y309143D03*
D67*
X244609Y309749D03*
D29*
X257309Y309749D03*
X286341Y309749D03*
D67*
X299041Y309749D03*
D68*
X244609Y310355D03*
D14*
X256712Y310355D03*
D33*
X286950Y310355D03*
D69*
X299041Y310355D03*
D70*
X247631Y310959D03*
X296018Y310959D03*
D71*
X247631Y311564D03*
X296018Y311564D03*
D72*
X247339Y312169D03*
X296310Y312169D03*
D73*
X247339Y312773D03*
D74*
X296310Y312773D03*
D73*
X247339Y313378D03*
D74*
X296310Y313378D03*
D75*
X247644Y313982D03*
X296006Y313982D03*
D76*
X247936Y314587D03*
X295713Y314587D03*
D75*
X248228Y315191D03*
X295421Y315191D03*
D77*
X248838Y315797D03*
X294812Y315797D03*
D72*
X249143Y316403D03*
X294507Y316403D03*
D75*
X249447Y317007D03*
X294202Y317007D03*
D72*
X249752Y317612D03*
X293897Y317612D03*
D78*
X250057Y318216D03*
D79*
X293593Y318216D03*
D72*
X250362Y318821D03*
X293288Y318821D03*
D79*
X250667Y319425D03*
D71*
X292996Y319425D03*
X251263Y320030D03*
X292386Y320030D03*
X251263Y320634D03*
X292386Y320634D03*
D80*
X251568Y321239D03*
X292081Y321239D03*
X252178Y321843D03*
D81*
X291484Y321843D03*
D82*
X252178Y322449D03*
D83*
X291484Y322449D03*
D81*
X252775Y323055D03*
X290875Y323055D03*
X252775Y323659D03*
X290875Y323659D03*
D79*
X253080Y324264D03*
D78*
X290570Y324264D03*
D72*
X252775Y324869D03*
X290875Y324869D03*
X252775Y325473D03*
X290875Y325473D03*
D74*
X252775Y326078D03*
X290875Y326078D03*
X252775Y326682D03*
X290875Y326682D03*
D84*
X253080Y327287D03*
X290570Y327287D03*
D85*
X252775Y327891D03*
X290875Y327891D03*
D86*
X252775Y328497D03*
X290875Y328497D03*
D87*
X252787Y329103D03*
X290887Y329103D03*
D88*
X252178Y329707D03*
D89*
X291484Y329707D03*
D90*
X251873Y330312D03*
D84*
X291789Y330312D03*
D91*
X251263Y330916D03*
D90*
X292386Y330916D03*
D75*
X250667Y331521D03*
X292983Y331521D03*
X250057Y332125D03*
X293593Y332125D03*
D72*
X249752Y332730D03*
X293897Y332730D03*
D91*
X248241Y333334D03*
D90*
X295409Y333334D03*
D92*
X246730Y333939D03*
X296920Y333939D03*
D93*
X244609Y334543D03*
X299041Y334543D03*
D94*
X242805Y335149D03*
X300844Y335149D03*
D95*
X242805Y335755D03*
X300844Y335755D03*
D96*
X242500Y336359D03*
D97*
X301149Y336359D03*
D96*
X242500Y336964D03*
D97*
X301149Y336964D03*
D98*
X242196Y337569D03*
X301454Y337569D03*
X242196Y338173D03*
X301454Y338173D03*
X242196Y338778D03*
X301454Y338778D03*
X242196Y339382D03*
X301454Y339382D03*
X242196Y339987D03*
X301454Y339987D03*
D99*
X241891Y340591D03*
D100*
X301759Y340591D03*
D101*
X241891Y341197D03*
D102*
X301759Y341197D03*
D99*
X241891Y341803D03*
D100*
X301759Y341803D03*
D99*
X241891Y342407D03*
D100*
X301759Y342407D03*
D98*
X242196Y343012D03*
X301454Y343012D03*
X242196Y343616D03*
X301454Y343616D03*
X242196Y344221D03*
X301454Y344221D03*
X242196Y344825D03*
X301454Y344825D03*
X242196Y345430D03*
X301454Y345430D03*
D96*
X242500Y346034D03*
D97*
X301149Y346034D03*
D96*
X242500Y346639D03*
D97*
X301149Y346639D03*
D95*
X242805Y347243D03*
X300844Y347243D03*
D94*
X242805Y347849D03*
X300844Y347849D03*
D98*
X243999Y348455D03*
X299650Y348455D03*
D103*
X245815Y349059D03*
X297834Y349059D03*
D104*
X247631Y349664D03*
X296018Y349664D03*
D75*
X249447Y350269D03*
X294202Y350269D03*
D72*
X250362Y350873D03*
X293288Y350873D03*
D75*
X250667Y351478D03*
X292983Y351478D03*
D74*
X250971Y352082D03*
D76*
X292691Y352082D03*
D90*
X251873Y352687D03*
D84*
X291789Y352687D03*
D104*
X252483Y353291D03*
D105*
X291180Y353291D03*
D106*
X253372Y353897D03*
D107*
X290278Y353897D03*
D108*
X254883Y354503D03*
X288767Y354503D03*
D109*
X271825Y355107D03*
X271825Y355712D03*
X271825Y356316D03*
D110*
X271825Y356921D03*
X271825Y357525D03*
D111*
X271825Y358130D03*
X271825Y358734D03*
D112*
X271837Y359339D03*
D111*
X271825Y359943D03*
D113*
X271825Y360549D03*
D110*
X271825Y361155D03*
D109*
X271825Y361759D03*
X271825Y362364D03*
D114*
X271825Y362969D03*
D115*
X271837Y363573D03*
X271837Y364178D03*
D116*
X271825Y364782D03*
D117*
X271825Y365387D03*
D118*
X271825Y365991D03*
D119*
X271825Y366597D03*
D120*
X271825Y367203D03*
D121*
X271825Y367807D03*
X271825Y368412D03*
D122*
X271825Y369016D03*
D123*
X271825Y369621D03*
X271825Y370225D03*
D122*
X271825Y370830D03*
D121*
X271825Y371434D03*
D124*
X244913Y372039D03*
D125*
X271825Y372039D03*
D124*
X298736Y372039D03*
D126*
X244913Y372643D03*
D108*
X271825Y372643D03*
D126*
X298736Y372643D03*
D67*
X244609Y373249D03*
D127*
X271825Y373249D03*
D67*
X299041Y373249D03*
D128*
X244621Y373855D03*
D75*
X271825Y373855D03*
D129*
X299041Y373855D03*
D64*
X244317Y374459D03*
D130*
X271825Y374459D03*
D65*
X299346Y374459D03*
D54*
X244304Y375064D03*
D131*
X271825Y375064D03*
D54*
X299346Y375064D03*
D21*
X243999Y375669D03*
D132*
X271825Y375669D03*
D21*
X299650Y375669D03*
D17*
X244012Y376273D03*
D133*
X271825Y376273D03*
D17*
X299638Y376273D03*
D48*
X243707Y376878D03*
D133*
X271825Y376878D03*
D63*
X299638Y376878D03*
D31*
X243707Y377482D03*
D133*
X271825Y377482D03*
D44*
X299955Y377482D03*
D16*
X243694Y378087D03*
D133*
X271825Y378087D03*
D16*
X299955Y378087D03*
D59*
X243402Y378691D03*
D133*
X271825Y378691D03*
D59*
X300247Y378691D03*
D134*
X271837Y379297D03*
D69*
X271837Y379903D03*
X271837Y380507D03*
X271837Y381112D03*
X271837Y381716D03*
D135*
X271533Y382321D03*
D136*
X271825Y382925D03*
X271825Y383530D03*
X271825Y384134D03*
X271825Y384739D03*
X271825Y385343D03*
D137*
X271825Y385949D03*
D128*
X271825Y386555D03*
X271825Y387159D03*
X271825Y387764D03*
D138*
X271825Y388369D03*
D139*
X275566Y462234D03*
D140*
X401728Y462234D03*
D141*
X275579Y463081D03*
D142*
X400890Y463081D03*
D143*
X275579Y463927D03*
D142*
X400026Y463927D03*
D144*
X275998Y464774D03*
D140*
X399188Y464774D03*
D145*
X275998Y465621D03*
D142*
X398350Y465621D03*
D146*
X163400Y466467D03*
D147*
X183288Y466467D03*
D148*
X196826Y466467D03*
D149*
X206580Y466467D03*
D150*
X233237Y466467D03*
D151*
X253557Y466467D03*
D152*
X279808Y466467D03*
D153*
X303087Y466467D03*
D146*
X322556Y466467D03*
D154*
X342038Y466467D03*
D146*
X361520Y466467D03*
D155*
X380557Y466467D03*
D142*
X397486Y466467D03*
D140*
X396648Y467314D03*
D156*
X168899Y468161D03*
D157*
X193448Y468161D03*
D150*
X200217Y468161D03*
D158*
X222658Y468161D03*
D156*
X238317Y468161D03*
X268797Y468161D03*
D159*
X287847Y468161D03*
D160*
X317908Y468161D03*
D156*
X327217Y468161D03*
D161*
X356440Y468161D03*
D156*
X367019Y468161D03*
D142*
X395810Y468161D03*
D156*
X168899Y469007D03*
D162*
X192178Y469007D03*
D163*
X201068Y469007D03*
D147*
X222226Y469007D03*
D156*
X238317Y469007D03*
X268797Y469007D03*
D164*
X287847Y469007D03*
D165*
X316638Y469007D03*
D156*
X327217Y469007D03*
D166*
X334418Y469007D03*
D167*
X356427Y469007D03*
D156*
X367019Y469007D03*
D142*
X394946Y469007D03*
D168*
X168899Y469854D03*
D169*
X191327Y469854D03*
D170*
X201906Y469854D03*
D171*
X222226Y469854D03*
D168*
X238317Y469854D03*
X268797Y469854D03*
D172*
X288279Y469854D03*
D173*
X315787Y469854D03*
D168*
X327217Y469854D03*
D174*
X334837Y469854D03*
D175*
X356427Y469854D03*
D168*
X367019Y469854D03*
D140*
X394108Y469854D03*
D156*
X168899Y470701D03*
D160*
X190908Y470701D03*
D176*
X202757Y470701D03*
D147*
X222226Y470701D03*
D156*
X238317Y470701D03*
X268797Y470701D03*
D177*
X287847Y470701D03*
D149*
X314936Y470701D03*
D156*
X327217Y470701D03*
D146*
X335256Y470701D03*
D167*
X356427Y470701D03*
D156*
X367019Y470701D03*
D142*
X393270Y470701D03*
D156*
X168899Y471547D03*
D161*
X190476Y471547D03*
X203176Y471547D03*
D147*
X222226Y471547D03*
D156*
X238317Y471547D03*
X268797Y471547D03*
D178*
X287860Y471547D03*
D179*
X314517Y471547D03*
D156*
X327217Y471547D03*
D163*
X335688Y471547D03*
D167*
X356427Y471547D03*
D156*
X367019Y471547D03*
D142*
X392406Y471547D03*
D168*
X168899Y472394D03*
X190057Y472394D03*
D180*
X203608Y472394D03*
D171*
X222226Y472394D03*
D168*
X238317Y472394D03*
X268797Y472394D03*
D181*
X287847Y472394D03*
D182*
X314098Y472394D03*
D168*
X327217Y472394D03*
D183*
X336107Y472394D03*
D175*
X356427Y472394D03*
D184*
X373369Y472394D03*
D140*
X391568Y472394D03*
D156*
X168899Y473241D03*
D165*
X189638Y473241D03*
D167*
X204027Y473241D03*
D147*
X222226Y473241D03*
D156*
X238317Y473241D03*
X268797Y473241D03*
D185*
X287847Y473241D03*
D186*
X313666Y473241D03*
D156*
X327217Y473241D03*
D148*
X336526Y473241D03*
D167*
X356427Y473241D03*
D147*
X372950Y473241D03*
D142*
X390730Y473241D03*
D156*
X168899Y474087D03*
D167*
X188787Y474087D03*
D142*
X204446Y474087D03*
D147*
X222226Y474087D03*
D156*
X238317Y474087D03*
X268797Y474087D03*
D151*
X288279Y474087D03*
D177*
X313247Y474087D03*
D156*
X327217Y474087D03*
D187*
X336958Y474087D03*
D167*
X356427Y474087D03*
D158*
X372518Y474087D03*
D142*
X389866Y474087D03*
D168*
X168899Y474934D03*
X187517Y474934D03*
D188*
X205716Y474934D03*
D171*
X222226Y474934D03*
D168*
X238317Y474934D03*
X268797Y474934D03*
D189*
X287860Y474934D03*
D190*
X313247Y474934D03*
D168*
X327217Y474934D03*
D191*
X337377Y474934D03*
D175*
X356427Y474934D03*
D192*
X372099Y474934D03*
D140*
X389028Y474934D03*
D156*
X168899Y475781D03*
X186679Y475781D03*
D161*
X206580Y475781D03*
D165*
X227738Y475781D03*
D156*
X238317Y475781D03*
D193*
X261609Y475781D03*
D156*
X268797Y475781D03*
D194*
X288279Y475781D03*
D195*
X310288Y475781D03*
D156*
X327217Y475781D03*
D161*
X337796Y475781D03*
D167*
X356427Y475781D03*
D178*
X371680Y475781D03*
D142*
X388190Y475781D03*
D156*
X168899Y476627D03*
D160*
X185828Y476627D03*
D161*
X207418Y476627D03*
D156*
X228157Y476627D03*
X238317Y476627D03*
D164*
X257367Y476627D03*
D156*
X268797Y476627D03*
D142*
X280646Y476627D03*
X295048Y476627D03*
X309450Y476627D03*
D156*
X327217Y476627D03*
D196*
X338228Y476627D03*
D167*
X356427Y476627D03*
D197*
X371248Y476627D03*
D142*
X387326Y476627D03*
D168*
X168899Y477474D03*
D198*
X185828Y477474D03*
D191*
X207837Y477474D03*
D168*
X228157Y477474D03*
X238317Y477474D03*
D199*
X256516Y477474D03*
D168*
X268797Y477474D03*
D175*
X280227Y477474D03*
X295467Y477474D03*
D140*
X308586Y477474D03*
D168*
X327217Y477474D03*
D175*
X338647Y477474D03*
X356427Y477474D03*
D190*
X370829Y477474D03*
D140*
X386488Y477474D03*
D156*
X168899Y478321D03*
D176*
X184977Y478321D03*
D159*
X208269Y478321D03*
D156*
X228157Y478321D03*
X238317Y478321D03*
D179*
X256097Y478321D03*
D156*
X268797Y478321D03*
D196*
X279808Y478321D03*
D156*
X295899Y478321D03*
D167*
X308167Y478321D03*
D156*
X327217Y478321D03*
D142*
X339066Y478321D03*
D167*
X356427Y478321D03*
D186*
X370410Y478321D03*
D142*
X385650Y478321D03*
D156*
X168899Y479167D03*
D187*
X184558Y479167D03*
D148*
X196826Y479167D03*
D160*
X208688Y479167D03*
D156*
X228157Y479167D03*
X238317Y479167D03*
D200*
X255678Y479167D03*
D156*
X268797Y479167D03*
D196*
X279808Y479167D03*
D165*
X296318Y479167D03*
D167*
X307329Y479167D03*
D156*
X327217Y479167D03*
D142*
X339930Y479167D03*
D167*
X356427Y479167D03*
D200*
X369978Y479167D03*
D142*
X384786Y479167D03*
D168*
X168899Y480014D03*
D201*
X184558Y480014D03*
D191*
X196839Y480014D03*
D169*
X209107Y480014D03*
D168*
X228157Y480014D03*
X238317Y480014D03*
D202*
X255246Y480014D03*
D168*
X268797Y480014D03*
D180*
X279808Y480014D03*
D203*
X296318Y480014D03*
D168*
X306897Y480014D03*
X327217Y480014D03*
D140*
X340768Y480014D03*
D175*
X356427Y480014D03*
D168*
X367019Y480014D03*
D140*
X383948Y480014D03*
D156*
X168899Y480861D03*
D176*
X184139Y480861D03*
D156*
X196839Y480861D03*
D159*
X209107Y480861D03*
D156*
X228157Y480861D03*
X238317Y480861D03*
D177*
X254827Y480861D03*
D156*
X268797Y480861D03*
D196*
X279808Y480861D03*
D165*
X296318Y480861D03*
D156*
X306897Y480861D03*
X327217Y480861D03*
D142*
X341606Y480861D03*
D167*
X356427Y480861D03*
D156*
X367019Y480861D03*
D142*
X383110Y480861D03*
D156*
X168899Y481707D03*
D159*
X183707Y481707D03*
D167*
X196407Y481707D03*
D159*
X209107Y481707D03*
D156*
X228157Y481707D03*
X238317Y481707D03*
D197*
X254408Y481707D03*
D156*
X268797Y481707D03*
D196*
X279808Y481707D03*
D165*
X296318Y481707D03*
D156*
X306897Y481707D03*
X327217Y481707D03*
D142*
X342470Y481707D03*
D167*
X356427Y481707D03*
D156*
X367019Y481707D03*
D142*
X382246Y481707D03*
D168*
X168899Y482554D03*
D169*
X183707Y482554D03*
D140*
X196826Y482554D03*
D169*
X209107Y482554D03*
D168*
X228157Y482554D03*
X238317Y482554D03*
D204*
X254408Y482554D03*
D168*
X268797Y482554D03*
D180*
X279808Y482554D03*
D203*
X296318Y482554D03*
D168*
X306897Y482554D03*
X327217Y482554D03*
D199*
X342038Y482554D03*
D175*
X356427Y482554D03*
D168*
X367019Y482554D03*
D140*
X381408Y482554D03*
D156*
X168899Y483401D03*
D159*
X183707Y483401D03*
D142*
X196826Y483401D03*
D159*
X209107Y483401D03*
D156*
X228157Y483401D03*
X238317Y483401D03*
D205*
X253557Y483401D03*
D156*
X268797Y483401D03*
D196*
X279808Y483401D03*
D165*
X296318Y483401D03*
D156*
X306897Y483401D03*
X327217Y483401D03*
D179*
X342457Y483401D03*
D167*
X356427Y483401D03*
D156*
X367019Y483401D03*
D142*
X380570Y483401D03*
D156*
X168899Y484247D03*
D159*
X183707Y484247D03*
D167*
X196407Y484247D03*
D159*
X209107Y484247D03*
D156*
X228157Y484247D03*
X238317Y484247D03*
D206*
X250598Y484247D03*
D156*
X268797Y484247D03*
D196*
X279808Y484247D03*
D165*
X296318Y484247D03*
D156*
X306897Y484247D03*
X327217Y484247D03*
D186*
X342470Y484247D03*
D167*
X356427Y484247D03*
D156*
X367019Y484247D03*
D142*
X379706Y484247D03*
D168*
X168899Y485094D03*
D169*
X183707Y485094D03*
D175*
X196407Y485094D03*
D169*
X209107Y485094D03*
D168*
X228157Y485094D03*
X238317Y485094D03*
D140*
X250166Y485094D03*
D168*
X268797Y485094D03*
D180*
X279808Y485094D03*
D203*
X296318Y485094D03*
D168*
X306897Y485094D03*
X327217Y485094D03*
D175*
X338647Y485094D03*
X356427Y485094D03*
D168*
X367019Y485094D03*
D140*
X378868Y485094D03*
D156*
X168899Y485941D03*
D176*
X184139Y485941D03*
D156*
X196839Y485941D03*
D159*
X209107Y485941D03*
D156*
X228157Y485941D03*
X238317Y485941D03*
D142*
X250166Y485941D03*
D156*
X268797Y485941D03*
D196*
X279808Y485941D03*
D165*
X296318Y485941D03*
D156*
X306897Y485941D03*
X327217Y485941D03*
D196*
X338228Y485941D03*
D167*
X356427Y485941D03*
D156*
X367019Y485941D03*
D142*
X378030Y485941D03*
D156*
X168899Y486787D03*
D187*
X184558Y486787D03*
D176*
X196839Y486787D03*
D159*
X209107Y486787D03*
D156*
X228157Y486787D03*
X238317Y486787D03*
D167*
X249747Y486787D03*
D156*
X268797Y486787D03*
D196*
X279808Y486787D03*
D165*
X296318Y486787D03*
D196*
X307748Y486787D03*
D156*
X327217Y486787D03*
D196*
X338228Y486787D03*
D167*
X356427Y486787D03*
D156*
X367019Y486787D03*
D142*
X377166Y486787D03*
D168*
X168899Y487634D03*
D201*
X184558Y487634D03*
D183*
X196407Y487634D03*
D198*
X208688Y487634D03*
D168*
X228157Y487634D03*
X238317Y487634D03*
D140*
X250166Y487634D03*
D168*
X268797Y487634D03*
D180*
X279808Y487634D03*
D203*
X296318Y487634D03*
D180*
X307748Y487634D03*
D168*
X327217Y487634D03*
D175*
X337809Y487634D03*
X356427Y487634D03*
D192*
X372099Y487634D03*
D156*
X168899Y488481D03*
D176*
X184977Y488481D03*
D159*
X208269Y488481D03*
D156*
X228157Y488481D03*
X238317Y488481D03*
D142*
X250166Y488481D03*
D156*
X268797Y488481D03*
D196*
X279808Y488481D03*
D165*
X296318Y488481D03*
D167*
X308167Y488481D03*
D156*
X327217Y488481D03*
D167*
X337809Y488481D03*
X356427Y488481D03*
D178*
X371680Y488481D03*
D156*
X168899Y489327D03*
D160*
X185828Y489327D03*
D176*
X207837Y489327D03*
D156*
X228157Y489327D03*
X238317Y489327D03*
D142*
X250166Y489327D03*
D156*
X268797Y489327D03*
D196*
X279808Y489327D03*
D165*
X296318Y489327D03*
X309018Y489327D03*
D156*
X327217Y489327D03*
D167*
X337809Y489327D03*
X356427Y489327D03*
D197*
X371248Y489327D03*
D168*
X168899Y490174D03*
D188*
X186260Y490174D03*
X207418Y490174D03*
D168*
X228157Y490174D03*
X238317Y490174D03*
D207*
X250598Y490174D03*
D168*
X268797Y490174D03*
D180*
X279808Y490174D03*
D203*
X296318Y490174D03*
D173*
X309869Y490174D03*
D168*
X327217Y490174D03*
D140*
X338228Y490174D03*
D175*
X356427Y490174D03*
D190*
X370829Y490174D03*
D155*
X171439Y491021D03*
D161*
X187098Y491021D03*
X206580Y491021D03*
X227738Y491021D03*
D156*
X238317Y491021D03*
D208*
X254408Y491021D03*
D156*
X268797Y491021D03*
D196*
X279808Y491021D03*
D156*
X295899Y491021D03*
D153*
X318327Y491021D03*
D209*
X339079Y491021D03*
D196*
X356008Y491021D03*
D186*
X370410Y491021D03*
D210*
X170169Y491867D03*
D156*
X187517Y491867D03*
X205297Y491867D03*
D176*
X227319Y491867D03*
D161*
X237898Y491867D03*
D153*
X259069Y491867D03*
D196*
X279808Y491867D03*
D161*
X295480Y491867D03*
D211*
X317908Y491867D03*
X346686Y491867D03*
D200*
X369978Y491867D03*
D212*
X169318Y492714D03*
D140*
X189206Y492714D03*
X204446Y492714D03*
D169*
X226887Y492714D03*
D191*
X237479Y492714D03*
D213*
X258650Y492714D03*
D180*
X279808Y492714D03*
D198*
X295048Y492714D03*
D214*
X317908Y492714D03*
D215*
X346267Y492714D03*
D172*
X369559Y492714D03*
D210*
X168467Y493561D03*
D194*
X196839Y493561D03*
D148*
X226468Y493561D03*
D159*
X237047Y493561D03*
D216*
X258218Y493561D03*
D196*
X279808Y493561D03*
D159*
X294629Y493561D03*
D185*
X317489Y493561D03*
D217*
X345848Y493561D03*
D149*
X369140Y493561D03*
D210*
X167629Y494407D03*
D151*
X196839Y494407D03*
D218*
X226049Y494407D03*
D148*
X236628Y494407D03*
D219*
X258218Y494407D03*
D196*
X279808Y494407D03*
D148*
X294210Y494407D03*
D210*
X317489Y494407D03*
D220*
X345848Y494407D03*
D195*
X368708Y494407D03*
D212*
X166778Y495254D03*
D171*
X196826Y495254D03*
D221*
X225617Y495254D03*
D183*
X236209Y495254D03*
D222*
X258218Y495254D03*
D180*
X279808Y495254D03*
D223*
X293778Y495254D03*
D224*
X317476Y495254D03*
D184*
X345429Y495254D03*
D173*
X368289Y495254D03*
D210*
X165927Y496101D03*
D155*
X196839Y496101D03*
D146*
X225198Y496101D03*
D225*
X235777Y496101D03*
D158*
X258218Y496101D03*
D196*
X279808Y496101D03*
D225*
X293359Y496101D03*
D186*
X317908Y496101D03*
D210*
X345429Y496101D03*
D142*
X367870Y496101D03*
D210*
X165089Y496947D03*
D186*
X196826Y496947D03*
D150*
X224779Y496947D03*
X234939Y496947D03*
D178*
X258218Y496947D03*
D196*
X279808Y496947D03*
D146*
X292940Y496947D03*
D152*
X317908Y496947D03*
D178*
X345416Y496947D03*
D165*
X367438Y496947D03*
D212*
X164238Y497794D03*
D226*
X196839Y497794D03*
D227*
X224347Y497794D03*
D174*
X234939Y497794D03*
D202*
X258650Y497794D03*
D180*
X279808Y497794D03*
D228*
X292508Y497794D03*
D173*
X318327Y497794D03*
D202*
X345848Y497794D03*
D168*
X367019Y497794D03*
D210*
X163387Y498641D03*
D176*
X196839Y498641D03*
D195*
X259488Y498641D03*
D196*
X279808Y498641D03*
D176*
X319597Y498641D03*
D149*
X346280Y498641D03*
D161*
X366600Y498641D03*
M02*
