G04 EAGLE Gerber RS-274X export*
G75*
%MOMM*%
%FSLAX34Y34*%
%LPD*%
%INSoldermask Top*%
%IPPOS*%
%AMOC8*
5,1,8,0,0,1.08239X$1,22.5*%
G01*
%ADD10R,0.903200X1.103200*%
%ADD11R,1.103200X0.903200*%
%ADD12C,1.727200*%
%ADD13R,1.403200X1.403200*%
%ADD14R,1.203200X1.303200*%
%ADD15C,1.711200*%
%ADD16C,0.322038*%
%ADD17C,0.321103*%
%ADD18C,0.959600*%


D10*
X95100Y381000D03*
X108100Y381000D03*
X272900Y355600D03*
X285900Y355600D03*
D11*
X38100Y171300D03*
X38100Y184300D03*
D10*
X95100Y241300D03*
X108100Y241300D03*
X95100Y355600D03*
X108100Y355600D03*
D11*
X152400Y171300D03*
X152400Y184300D03*
D10*
X209400Y241300D03*
X222400Y241300D03*
X95100Y330200D03*
X108100Y330200D03*
D11*
X266700Y171300D03*
X266700Y184300D03*
D10*
X323700Y241300D03*
X336700Y241300D03*
D12*
X50800Y45720D02*
X50800Y30480D01*
X76200Y30480D02*
X76200Y45720D01*
X177800Y45720D02*
X177800Y30480D01*
X203200Y30480D02*
X203200Y45720D01*
X304800Y45720D02*
X304800Y30480D01*
X330200Y30480D02*
X330200Y45720D01*
X45720Y342900D02*
X30480Y342900D01*
X30480Y368300D02*
X45720Y368300D01*
X335280Y342900D02*
X350520Y342900D01*
X350520Y368300D02*
X335280Y368300D01*
D13*
X40300Y76200D03*
X61300Y76200D03*
X167300Y76200D03*
X188300Y76200D03*
X294300Y76200D03*
X315300Y76200D03*
D14*
X42300Y241300D03*
X59300Y241300D03*
X55000Y114300D03*
X72000Y114300D03*
X182000Y114300D03*
X199000Y114300D03*
X309000Y114300D03*
X326000Y114300D03*
X156600Y241300D03*
X173600Y241300D03*
X270900Y241300D03*
X287900Y241300D03*
X80400Y76200D03*
X97400Y76200D03*
X207400Y76200D03*
X224400Y76200D03*
X334400Y76200D03*
X351400Y76200D03*
X67700Y279400D03*
X84700Y279400D03*
X182000Y279400D03*
X199000Y279400D03*
X270900Y279400D03*
X287900Y279400D03*
D15*
X247650Y444500D03*
X222250Y444500D03*
X196850Y444500D03*
X171450Y444500D03*
X146050Y444500D03*
X120650Y444500D03*
X95250Y444500D03*
X247650Y673100D03*
X222250Y673100D03*
X196850Y673100D03*
X171450Y673100D03*
X146050Y673100D03*
X120650Y673100D03*
X95250Y673100D03*
X273050Y444500D03*
X273050Y673100D03*
D16*
X73432Y194435D02*
X54966Y194435D01*
X54966Y199265D01*
X73432Y199265D01*
X73432Y194435D01*
X73432Y197494D02*
X54966Y197494D01*
X54966Y181735D02*
X73432Y181735D01*
X54966Y181735D02*
X54966Y186565D01*
X73432Y186565D01*
X73432Y181735D01*
X73432Y184794D02*
X54966Y184794D01*
X54966Y169035D02*
X73432Y169035D01*
X54966Y169035D02*
X54966Y173865D01*
X73432Y173865D01*
X73432Y169035D01*
X73432Y172094D02*
X54966Y172094D01*
X54966Y156335D02*
X73432Y156335D01*
X54966Y156335D02*
X54966Y161165D01*
X73432Y161165D01*
X73432Y156335D01*
X73432Y159394D02*
X54966Y159394D01*
X104368Y156335D02*
X122834Y156335D01*
X104368Y156335D02*
X104368Y161165D01*
X122834Y161165D01*
X122834Y156335D01*
X122834Y159394D02*
X104368Y159394D01*
X104368Y169035D02*
X122834Y169035D01*
X104368Y169035D02*
X104368Y173865D01*
X122834Y173865D01*
X122834Y169035D01*
X122834Y172094D02*
X104368Y172094D01*
X104368Y181735D02*
X122834Y181735D01*
X104368Y181735D02*
X104368Y186565D01*
X122834Y186565D01*
X122834Y181735D01*
X122834Y184794D02*
X104368Y184794D01*
X104368Y194435D02*
X122834Y194435D01*
X104368Y194435D02*
X104368Y199265D01*
X122834Y199265D01*
X122834Y194435D01*
X122834Y197494D02*
X104368Y197494D01*
X169266Y194435D02*
X187732Y194435D01*
X169266Y194435D02*
X169266Y199265D01*
X187732Y199265D01*
X187732Y194435D01*
X187732Y197494D02*
X169266Y197494D01*
X169266Y181735D02*
X187732Y181735D01*
X169266Y181735D02*
X169266Y186565D01*
X187732Y186565D01*
X187732Y181735D01*
X187732Y184794D02*
X169266Y184794D01*
X169266Y169035D02*
X187732Y169035D01*
X169266Y169035D02*
X169266Y173865D01*
X187732Y173865D01*
X187732Y169035D01*
X187732Y172094D02*
X169266Y172094D01*
X169266Y156335D02*
X187732Y156335D01*
X169266Y156335D02*
X169266Y161165D01*
X187732Y161165D01*
X187732Y156335D01*
X187732Y159394D02*
X169266Y159394D01*
X218668Y156335D02*
X237134Y156335D01*
X218668Y156335D02*
X218668Y161165D01*
X237134Y161165D01*
X237134Y156335D01*
X237134Y159394D02*
X218668Y159394D01*
X218668Y169035D02*
X237134Y169035D01*
X218668Y169035D02*
X218668Y173865D01*
X237134Y173865D01*
X237134Y169035D01*
X237134Y172094D02*
X218668Y172094D01*
X218668Y181735D02*
X237134Y181735D01*
X218668Y181735D02*
X218668Y186565D01*
X237134Y186565D01*
X237134Y181735D01*
X237134Y184794D02*
X218668Y184794D01*
X218668Y194435D02*
X237134Y194435D01*
X218668Y194435D02*
X218668Y199265D01*
X237134Y199265D01*
X237134Y194435D01*
X237134Y197494D02*
X218668Y197494D01*
X283566Y194435D02*
X302032Y194435D01*
X283566Y194435D02*
X283566Y199265D01*
X302032Y199265D01*
X302032Y194435D01*
X302032Y197494D02*
X283566Y197494D01*
X283566Y181735D02*
X302032Y181735D01*
X283566Y181735D02*
X283566Y186565D01*
X302032Y186565D01*
X302032Y181735D01*
X302032Y184794D02*
X283566Y184794D01*
X283566Y169035D02*
X302032Y169035D01*
X283566Y169035D02*
X283566Y173865D01*
X302032Y173865D01*
X302032Y169035D01*
X302032Y172094D02*
X283566Y172094D01*
X283566Y156335D02*
X302032Y156335D01*
X283566Y156335D02*
X283566Y161165D01*
X302032Y161165D01*
X302032Y156335D01*
X302032Y159394D02*
X283566Y159394D01*
X332968Y156335D02*
X351434Y156335D01*
X332968Y156335D02*
X332968Y161165D01*
X351434Y161165D01*
X351434Y156335D01*
X351434Y159394D02*
X332968Y159394D01*
X332968Y169035D02*
X351434Y169035D01*
X332968Y169035D02*
X332968Y173865D01*
X351434Y173865D01*
X351434Y169035D01*
X351434Y172094D02*
X332968Y172094D01*
X332968Y181735D02*
X351434Y181735D01*
X332968Y181735D02*
X332968Y186565D01*
X351434Y186565D01*
X351434Y181735D01*
X351434Y184794D02*
X332968Y184794D01*
X332968Y194435D02*
X351434Y194435D01*
X332968Y194435D02*
X332968Y199265D01*
X351434Y199265D01*
X351434Y194435D01*
X351434Y197494D02*
X332968Y197494D01*
D17*
X176511Y383039D02*
X160689Y383039D01*
X160689Y386661D01*
X176511Y386661D01*
X176511Y383039D01*
X176511Y386089D02*
X160689Y386089D01*
X160689Y376539D02*
X176511Y376539D01*
X160689Y376539D02*
X160689Y380161D01*
X176511Y380161D01*
X176511Y376539D01*
X176511Y379589D02*
X160689Y379589D01*
X160689Y370039D02*
X176511Y370039D01*
X160689Y370039D02*
X160689Y373661D01*
X176511Y373661D01*
X176511Y370039D01*
X176511Y373089D02*
X160689Y373089D01*
X160689Y363539D02*
X176511Y363539D01*
X160689Y363539D02*
X160689Y367161D01*
X176511Y367161D01*
X176511Y363539D01*
X176511Y366589D02*
X160689Y366589D01*
X160689Y357039D02*
X176511Y357039D01*
X160689Y357039D02*
X160689Y360661D01*
X176511Y360661D01*
X176511Y357039D01*
X176511Y360089D02*
X160689Y360089D01*
X160689Y350539D02*
X176511Y350539D01*
X160689Y350539D02*
X160689Y354161D01*
X176511Y354161D01*
X176511Y350539D01*
X176511Y353589D02*
X160689Y353589D01*
X160689Y344039D02*
X176511Y344039D01*
X160689Y344039D02*
X160689Y347661D01*
X176511Y347661D01*
X176511Y344039D01*
X176511Y347089D02*
X160689Y347089D01*
X160689Y337539D02*
X176511Y337539D01*
X160689Y337539D02*
X160689Y341161D01*
X176511Y341161D01*
X176511Y337539D01*
X176511Y340589D02*
X160689Y340589D01*
X160689Y331039D02*
X176511Y331039D01*
X160689Y331039D02*
X160689Y334661D01*
X176511Y334661D01*
X176511Y331039D01*
X176511Y334089D02*
X160689Y334089D01*
X160689Y324539D02*
X176511Y324539D01*
X160689Y324539D02*
X160689Y328161D01*
X176511Y328161D01*
X176511Y324539D01*
X176511Y327589D02*
X160689Y327589D01*
X229889Y324539D02*
X245711Y324539D01*
X229889Y324539D02*
X229889Y328161D01*
X245711Y328161D01*
X245711Y324539D01*
X245711Y327589D02*
X229889Y327589D01*
X229889Y331039D02*
X245711Y331039D01*
X229889Y331039D02*
X229889Y334661D01*
X245711Y334661D01*
X245711Y331039D01*
X245711Y334089D02*
X229889Y334089D01*
X229889Y337539D02*
X245711Y337539D01*
X229889Y337539D02*
X229889Y341161D01*
X245711Y341161D01*
X245711Y337539D01*
X245711Y340589D02*
X229889Y340589D01*
X229889Y344039D02*
X245711Y344039D01*
X229889Y344039D02*
X229889Y347661D01*
X245711Y347661D01*
X245711Y344039D01*
X245711Y347089D02*
X229889Y347089D01*
X229889Y350539D02*
X245711Y350539D01*
X229889Y350539D02*
X229889Y354161D01*
X245711Y354161D01*
X245711Y350539D01*
X245711Y353589D02*
X229889Y353589D01*
X229889Y357039D02*
X245711Y357039D01*
X229889Y357039D02*
X229889Y360661D01*
X245711Y360661D01*
X245711Y357039D01*
X245711Y360089D02*
X229889Y360089D01*
X229889Y363539D02*
X245711Y363539D01*
X229889Y363539D02*
X229889Y367161D01*
X245711Y367161D01*
X245711Y363539D01*
X245711Y366589D02*
X229889Y366589D01*
X229889Y370039D02*
X245711Y370039D01*
X229889Y370039D02*
X229889Y373661D01*
X245711Y373661D01*
X245711Y370039D01*
X245711Y373089D02*
X229889Y373089D01*
X229889Y376539D02*
X245711Y376539D01*
X229889Y376539D02*
X229889Y380161D01*
X245711Y380161D01*
X245711Y376539D01*
X245711Y379589D02*
X229889Y379589D01*
X229889Y383039D02*
X245711Y383039D01*
X229889Y383039D02*
X229889Y386661D01*
X245711Y386661D01*
X245711Y383039D01*
X245711Y386089D02*
X229889Y386089D01*
D18*
X73152Y402336D03*
X50800Y292100D03*
X25400Y254000D03*
X215900Y304800D03*
X152400Y279400D03*
X266700Y368300D03*
X266700Y127000D03*
X330200Y139700D03*
X228600Y254000D03*
X266700Y304800D03*
X266700Y215900D03*
X317500Y266700D03*
X76200Y139700D03*
X127000Y381000D03*
X127000Y355600D03*
X131064Y198120D03*
X207264Y198120D03*
X322580Y297180D03*
X212344Y349758D03*
X188976Y304800D03*
X128016Y323088D03*
X137160Y313944D03*
X88392Y365760D03*
X137160Y414528D03*
X252984Y347472D03*
X188722Y370586D03*
M02*
