G04 EAGLE Gerber RS-274X export*
G75*
%MOMM*%
%FSLAX34Y34*%
%LPD*%
%INSoldermask Bottom*%
%IPPOS*%
%AMOC8*
5,1,8,0,0,1.08239X$1,22.5*%
G01*
%ADD10C,1.727200*%
%ADD11C,1.711200*%
%ADD12C,0.959600*%


D10*
X50800Y30480D02*
X50800Y45720D01*
X76200Y45720D02*
X76200Y30480D01*
X177800Y30480D02*
X177800Y45720D01*
X203200Y45720D02*
X203200Y30480D01*
X304800Y30480D02*
X304800Y45720D01*
X330200Y45720D02*
X330200Y30480D01*
X45720Y342900D02*
X30480Y342900D01*
X30480Y368300D02*
X45720Y368300D01*
X335280Y342900D02*
X350520Y342900D01*
X350520Y368300D02*
X335280Y368300D01*
D11*
X247650Y444500D03*
X222250Y444500D03*
X196850Y444500D03*
X171450Y444500D03*
X146050Y444500D03*
X120650Y444500D03*
X95250Y444500D03*
X247650Y673100D03*
X222250Y673100D03*
X196850Y673100D03*
X171450Y673100D03*
X146050Y673100D03*
X120650Y673100D03*
X95250Y673100D03*
X273050Y444500D03*
X273050Y673100D03*
D12*
X73152Y402336D03*
X50800Y292100D03*
X25400Y254000D03*
X215900Y304800D03*
X152400Y279400D03*
X266700Y368300D03*
X266700Y127000D03*
X330200Y139700D03*
X228600Y254000D03*
X266700Y304800D03*
X266700Y215900D03*
X317500Y266700D03*
X76200Y139700D03*
X127000Y381000D03*
X127000Y355600D03*
X131064Y198120D03*
X207264Y198120D03*
X322580Y297180D03*
X212344Y349758D03*
X188976Y304800D03*
X128016Y323088D03*
X137160Y313944D03*
X88392Y365760D03*
X137160Y414528D03*
X252984Y347472D03*
X188722Y370586D03*
M02*
