G04 EAGLE Gerber RS-274X export*
G75*
%MOMM*%
%FSLAX34Y34*%
%LPD*%
%INSoldermask Top*%
%IPPOS*%
%AMOC8*
5,1,8,0,0,1.08239X$1,22.5*%
G01*
%ADD10C,3.203200*%
%ADD11C,1.727200*%
%ADD12R,1.503200X1.703200*%
%ADD13R,1.703200X1.503200*%
%ADD14R,2.203200X2.403200*%
%ADD15R,3.203200X1.603200*%
%ADD16R,1.403200X1.403200*%
%ADD17R,1.803200X2.006200*%
%ADD18C,1.711200*%
%ADD19C,0.322038*%
%ADD20C,0.321103*%
%ADD21R,1.153200X2.353200*%
%ADD22R,3.453200X2.353200*%
%ADD23R,1.600200X0.635000*%
%ADD24C,0.959600*%


D10*
X29471Y900318D03*
X529471Y900318D03*
X529471Y30318D03*
X29471Y30318D03*
D11*
X53064Y589118D02*
X68304Y589118D01*
X68304Y614518D02*
X53064Y614518D01*
D12*
X296889Y155639D03*
X315889Y155639D03*
D13*
X300871Y457718D03*
X300871Y476718D03*
D12*
X139700Y155639D03*
X158700Y155639D03*
X74171Y77218D03*
X55171Y77218D03*
X125871Y346218D03*
X144871Y346218D03*
X305171Y198618D03*
X324171Y198618D03*
D14*
X159371Y261018D03*
X129371Y261018D03*
D12*
X145971Y195918D03*
X164971Y195918D03*
X81371Y867818D03*
X62371Y867818D03*
D15*
X84571Y431818D03*
X132571Y431818D03*
D12*
X231071Y76218D03*
X212071Y76218D03*
D15*
X174571Y511818D03*
X222571Y511818D03*
D12*
X301771Y346218D03*
X320771Y346218D03*
D14*
X319371Y261018D03*
X289371Y261018D03*
D12*
X462054Y155639D03*
X481054Y155639D03*
X384271Y76218D03*
X365271Y76218D03*
X464971Y346218D03*
X483971Y346218D03*
D14*
X491682Y260786D03*
X461682Y260786D03*
D12*
X467571Y204518D03*
X486571Y204518D03*
D16*
X138175Y124386D03*
X117175Y124386D03*
X288339Y124277D03*
X267339Y124277D03*
X450971Y124618D03*
X429971Y124618D03*
D17*
X297051Y314318D03*
X325491Y314318D03*
X412491Y300718D03*
X384051Y300718D03*
X383151Y340718D03*
X411591Y340718D03*
X121151Y314318D03*
X149591Y314318D03*
X91291Y264218D03*
X62851Y264218D03*
X91291Y300718D03*
X62851Y300718D03*
X62851Y340718D03*
X91291Y340718D03*
X247291Y260718D03*
X218851Y260718D03*
X460251Y314318D03*
X488691Y314318D03*
X62251Y124618D03*
X90691Y124618D03*
X214651Y124618D03*
X243091Y124618D03*
X374351Y124618D03*
X402791Y124618D03*
X244091Y300718D03*
X215651Y300718D03*
X216651Y340718D03*
X245091Y340718D03*
X413291Y260718D03*
X384851Y260718D03*
D18*
X416971Y798368D03*
X416971Y772968D03*
X416971Y747568D03*
X416971Y722168D03*
X416971Y696768D03*
X416971Y671368D03*
X416971Y645968D03*
X188371Y798368D03*
X188371Y772968D03*
X188371Y747568D03*
X188371Y722168D03*
X188371Y696768D03*
X188371Y671368D03*
X188371Y645968D03*
X416971Y823768D03*
X188371Y823768D03*
D19*
X73703Y215553D02*
X55237Y215553D01*
X55237Y220383D01*
X73703Y220383D01*
X73703Y215553D01*
X73703Y218612D02*
X55237Y218612D01*
X55237Y202853D02*
X73703Y202853D01*
X55237Y202853D02*
X55237Y207683D01*
X73703Y207683D01*
X73703Y202853D01*
X73703Y205912D02*
X55237Y205912D01*
X55237Y190153D02*
X73703Y190153D01*
X55237Y190153D02*
X55237Y194983D01*
X73703Y194983D01*
X73703Y190153D01*
X73703Y193212D02*
X55237Y193212D01*
X55237Y177453D02*
X73703Y177453D01*
X55237Y177453D02*
X55237Y182283D01*
X73703Y182283D01*
X73703Y177453D01*
X73703Y180512D02*
X55237Y180512D01*
X104639Y177453D02*
X123105Y177453D01*
X104639Y177453D02*
X104639Y182283D01*
X123105Y182283D01*
X123105Y177453D01*
X123105Y180512D02*
X104639Y180512D01*
X104639Y190153D02*
X123105Y190153D01*
X104639Y190153D02*
X104639Y194983D01*
X123105Y194983D01*
X123105Y190153D01*
X123105Y193212D02*
X104639Y193212D01*
X104639Y202853D02*
X123105Y202853D01*
X104639Y202853D02*
X104639Y207683D01*
X123105Y207683D01*
X123105Y202853D01*
X123105Y205912D02*
X104639Y205912D01*
X104639Y215553D02*
X123105Y215553D01*
X104639Y215553D02*
X104639Y220383D01*
X123105Y220383D01*
X123105Y215553D01*
X123105Y218612D02*
X104639Y218612D01*
X211137Y215553D02*
X229603Y215553D01*
X211137Y215553D02*
X211137Y220383D01*
X229603Y220383D01*
X229603Y215553D01*
X229603Y218612D02*
X211137Y218612D01*
X211137Y202853D02*
X229603Y202853D01*
X211137Y202853D02*
X211137Y207683D01*
X229603Y207683D01*
X229603Y202853D01*
X229603Y205912D02*
X211137Y205912D01*
X211137Y190153D02*
X229603Y190153D01*
X211137Y190153D02*
X211137Y194983D01*
X229603Y194983D01*
X229603Y190153D01*
X229603Y193212D02*
X211137Y193212D01*
X211137Y177453D02*
X229603Y177453D01*
X211137Y177453D02*
X211137Y182283D01*
X229603Y182283D01*
X229603Y177453D01*
X229603Y180512D02*
X211137Y180512D01*
X260539Y177453D02*
X279005Y177453D01*
X260539Y177453D02*
X260539Y182283D01*
X279005Y182283D01*
X279005Y177453D01*
X279005Y180512D02*
X260539Y180512D01*
X260539Y190153D02*
X279005Y190153D01*
X260539Y190153D02*
X260539Y194983D01*
X279005Y194983D01*
X279005Y190153D01*
X279005Y193212D02*
X260539Y193212D01*
X260539Y202853D02*
X279005Y202853D01*
X260539Y202853D02*
X260539Y207683D01*
X279005Y207683D01*
X279005Y202853D01*
X279005Y205912D02*
X260539Y205912D01*
X260539Y215553D02*
X279005Y215553D01*
X260539Y215553D02*
X260539Y220383D01*
X279005Y220383D01*
X279005Y215553D01*
X279005Y218612D02*
X260539Y218612D01*
X364337Y215553D02*
X382803Y215553D01*
X364337Y215553D02*
X364337Y220383D01*
X382803Y220383D01*
X382803Y215553D01*
X382803Y218612D02*
X364337Y218612D01*
X364337Y202853D02*
X382803Y202853D01*
X364337Y202853D02*
X364337Y207683D01*
X382803Y207683D01*
X382803Y202853D01*
X382803Y205912D02*
X364337Y205912D01*
X364337Y190153D02*
X382803Y190153D01*
X364337Y190153D02*
X364337Y194983D01*
X382803Y194983D01*
X382803Y190153D01*
X382803Y193212D02*
X364337Y193212D01*
X364337Y177453D02*
X382803Y177453D01*
X364337Y177453D02*
X364337Y182283D01*
X382803Y182283D01*
X382803Y177453D01*
X382803Y180512D02*
X364337Y180512D01*
X413739Y177453D02*
X432205Y177453D01*
X413739Y177453D02*
X413739Y182283D01*
X432205Y182283D01*
X432205Y177453D01*
X432205Y180512D02*
X413739Y180512D01*
X413739Y190153D02*
X432205Y190153D01*
X413739Y190153D02*
X413739Y194983D01*
X432205Y194983D01*
X432205Y190153D01*
X432205Y193212D02*
X413739Y193212D01*
X413739Y202853D02*
X432205Y202853D01*
X413739Y202853D02*
X413739Y207683D01*
X432205Y207683D01*
X432205Y202853D01*
X432205Y205912D02*
X413739Y205912D01*
X413739Y215553D02*
X432205Y215553D01*
X413739Y215553D02*
X413739Y220383D01*
X432205Y220383D01*
X432205Y215553D01*
X432205Y218612D02*
X413739Y218612D01*
D20*
X374082Y493357D02*
X358260Y493357D01*
X358260Y496979D01*
X374082Y496979D01*
X374082Y493357D01*
X374082Y496407D02*
X358260Y496407D01*
X358260Y486857D02*
X374082Y486857D01*
X358260Y486857D02*
X358260Y490479D01*
X374082Y490479D01*
X374082Y486857D01*
X374082Y489907D02*
X358260Y489907D01*
X358260Y480357D02*
X374082Y480357D01*
X358260Y480357D02*
X358260Y483979D01*
X374082Y483979D01*
X374082Y480357D01*
X374082Y483407D02*
X358260Y483407D01*
X358260Y473857D02*
X374082Y473857D01*
X358260Y473857D02*
X358260Y477479D01*
X374082Y477479D01*
X374082Y473857D01*
X374082Y476907D02*
X358260Y476907D01*
X358260Y467357D02*
X374082Y467357D01*
X358260Y467357D02*
X358260Y470979D01*
X374082Y470979D01*
X374082Y467357D01*
X374082Y470407D02*
X358260Y470407D01*
X358260Y460857D02*
X374082Y460857D01*
X358260Y460857D02*
X358260Y464479D01*
X374082Y464479D01*
X374082Y460857D01*
X374082Y463907D02*
X358260Y463907D01*
X358260Y454357D02*
X374082Y454357D01*
X358260Y454357D02*
X358260Y457979D01*
X374082Y457979D01*
X374082Y454357D01*
X374082Y457407D02*
X358260Y457407D01*
X358260Y447857D02*
X374082Y447857D01*
X358260Y447857D02*
X358260Y451479D01*
X374082Y451479D01*
X374082Y447857D01*
X374082Y450907D02*
X358260Y450907D01*
X358260Y441357D02*
X374082Y441357D01*
X358260Y441357D02*
X358260Y444979D01*
X374082Y444979D01*
X374082Y441357D01*
X374082Y444407D02*
X358260Y444407D01*
X358260Y434857D02*
X374082Y434857D01*
X358260Y434857D02*
X358260Y438479D01*
X374082Y438479D01*
X374082Y434857D01*
X374082Y437907D02*
X358260Y437907D01*
X427460Y434857D02*
X443282Y434857D01*
X427460Y434857D02*
X427460Y438479D01*
X443282Y438479D01*
X443282Y434857D01*
X443282Y437907D02*
X427460Y437907D01*
X427460Y441357D02*
X443282Y441357D01*
X427460Y441357D02*
X427460Y444979D01*
X443282Y444979D01*
X443282Y441357D01*
X443282Y444407D02*
X427460Y444407D01*
X427460Y447857D02*
X443282Y447857D01*
X427460Y447857D02*
X427460Y451479D01*
X443282Y451479D01*
X443282Y447857D01*
X443282Y450907D02*
X427460Y450907D01*
X427460Y454357D02*
X443282Y454357D01*
X427460Y454357D02*
X427460Y457979D01*
X443282Y457979D01*
X443282Y454357D01*
X443282Y457407D02*
X427460Y457407D01*
X427460Y460857D02*
X443282Y460857D01*
X427460Y460857D02*
X427460Y464479D01*
X443282Y464479D01*
X443282Y460857D01*
X443282Y463907D02*
X427460Y463907D01*
X427460Y467357D02*
X443282Y467357D01*
X427460Y467357D02*
X427460Y470979D01*
X443282Y470979D01*
X443282Y467357D01*
X443282Y470407D02*
X427460Y470407D01*
X427460Y473857D02*
X443282Y473857D01*
X427460Y473857D02*
X427460Y477479D01*
X443282Y477479D01*
X443282Y473857D01*
X443282Y476907D02*
X427460Y476907D01*
X427460Y480357D02*
X443282Y480357D01*
X427460Y480357D02*
X427460Y483979D01*
X443282Y483979D01*
X443282Y480357D01*
X443282Y483407D02*
X427460Y483407D01*
X427460Y486857D02*
X443282Y486857D01*
X427460Y486857D02*
X427460Y490479D01*
X443282Y490479D01*
X443282Y486857D01*
X443282Y489907D02*
X427460Y489907D01*
X427460Y493357D02*
X443282Y493357D01*
X427460Y493357D02*
X427460Y496979D01*
X443282Y496979D01*
X443282Y493357D01*
X443282Y496407D02*
X427460Y496407D01*
D21*
X91784Y496318D03*
X114784Y496318D03*
X137784Y496318D03*
D22*
X114784Y554318D03*
D11*
X111071Y78738D02*
X111071Y63498D01*
X136471Y63498D02*
X136471Y78738D01*
X263471Y78738D02*
X263471Y63498D01*
X288871Y63498D02*
X288871Y78738D01*
X425871Y78738D02*
X425871Y63498D01*
X451271Y63498D02*
X451271Y78738D01*
X68304Y779118D02*
X53064Y779118D01*
X53064Y804518D02*
X68304Y804518D01*
D16*
X510871Y840118D03*
X510871Y861118D03*
D17*
X449751Y875618D03*
X478191Y875618D03*
D11*
X68304Y687618D02*
X53064Y687618D01*
X53064Y713018D02*
X68304Y713018D01*
D23*
X457373Y700068D03*
X457373Y693568D03*
X457373Y687068D03*
X457373Y680568D03*
X501569Y680568D03*
X501569Y687068D03*
X501569Y693568D03*
X501569Y700068D03*
D17*
X100594Y732176D03*
X129034Y732176D03*
X127640Y822873D03*
X99200Y822873D03*
X465251Y750318D03*
X493691Y750318D03*
X493691Y790318D03*
X465251Y790318D03*
X493691Y630318D03*
X465251Y630318D03*
X493691Y590318D03*
X465251Y590318D03*
D12*
X488971Y830318D03*
X469971Y830318D03*
D14*
X174471Y440318D03*
X204471Y440318D03*
X133775Y779389D03*
X103775Y779389D03*
X134704Y687995D03*
X104704Y687995D03*
D24*
X240168Y722176D03*
X131527Y179755D03*
X54241Y639932D03*
X54106Y431357D03*
X235413Y450894D03*
X173301Y493092D03*
X48609Y282637D03*
X169131Y338562D03*
X216168Y320985D03*
X200589Y261024D03*
X76142Y163854D03*
X374054Y161489D03*
X343616Y217806D03*
X365639Y260559D03*
X364929Y299617D03*
X342157Y339857D03*
X272307Y329154D03*
X309471Y515318D03*
X478530Y573255D03*
X449471Y665318D03*
X69471Y840318D03*
X54471Y840318D03*
X54471Y740318D03*
X494576Y659896D03*
X458997Y724477D03*
X479615Y810935D03*
X69471Y740318D03*
X69241Y639932D03*
X84471Y475318D03*
X99471Y475318D03*
X521740Y721018D03*
X519471Y820318D03*
X294471Y820318D03*
X309471Y820318D03*
X324471Y820318D03*
X319471Y660318D03*
X334471Y660318D03*
X349471Y660318D03*
X508530Y613255D03*
X439536Y398324D03*
X454536Y388324D03*
X424536Y398324D03*
X309471Y105318D03*
X324471Y105318D03*
X324471Y90318D03*
X159471Y105318D03*
X174471Y105318D03*
X174471Y90318D03*
X106142Y163854D03*
X309471Y500318D03*
X489227Y469853D03*
X489227Y456712D03*
X48609Y322637D03*
X169131Y353562D03*
X412878Y161489D03*
X109106Y411357D03*
X104241Y614932D03*
X104241Y599932D03*
X231304Y58879D03*
X261035Y274219D03*
X257153Y747175D03*
X287360Y179639D03*
X275471Y773816D03*
X399938Y178946D03*
X61745Y142971D03*
X332125Y523244D03*
X212955Y142042D03*
X475055Y500024D03*
X374385Y143203D03*
X469471Y420318D03*
X245008Y192218D03*
X317942Y294196D03*
X384604Y59112D03*
X423166Y280388D03*
X450741Y299942D03*
X450645Y192140D03*
X74055Y60505D03*
X91011Y246343D03*
X101231Y320678D03*
X129801Y192915D03*
X415031Y468651D03*
X388127Y408216D03*
X145815Y732308D03*
X449471Y810318D03*
X473564Y647752D03*
X125852Y841256D03*
X456199Y484462D03*
X459102Y441613D03*
M02*
