G04 EAGLE Gerber RS-274X export*
G75*
%MOMM*%
%FSLAX34Y34*%
%LPD*%
%INSoldermask Top*%
%IPPOS*%
%AMOC8*
5,1,8,0,0,1.08239X$1,22.5*%
G01*
%ADD10R,0.903200X1.103200*%
%ADD11R,1.103200X0.903200*%
%ADD12C,1.727200*%
%ADD13R,1.403200X1.403200*%
%ADD14R,1.203200X1.303200*%
%ADD15C,1.711200*%
%ADD16C,0.322038*%
%ADD17C,0.321103*%
%ADD18C,0.959600*%


D10*
X95100Y381000D03*
X108100Y381000D03*
X272900Y355600D03*
X285900Y355600D03*
D11*
X38100Y162156D03*
X38100Y175156D03*
D10*
X95100Y241300D03*
X108100Y241300D03*
X95100Y355600D03*
X108100Y355600D03*
D11*
X152400Y162156D03*
X152400Y175156D03*
D10*
X209400Y241300D03*
X222400Y241300D03*
X95100Y330200D03*
X108100Y330200D03*
D11*
X266700Y162156D03*
X266700Y175156D03*
D10*
X323700Y241300D03*
X336700Y241300D03*
D12*
X51816Y57912D02*
X51816Y42672D01*
X77216Y42672D02*
X77216Y57912D01*
X178816Y57912D02*
X178816Y42672D01*
X204216Y42672D02*
X204216Y57912D01*
X305816Y57912D02*
X305816Y42672D01*
X331216Y42672D02*
X331216Y57912D01*
X45720Y342900D02*
X30480Y342900D01*
X30480Y368300D02*
X45720Y368300D01*
X335280Y342900D02*
X350520Y342900D01*
X350520Y368300D02*
X335280Y368300D01*
D13*
X40300Y96520D03*
X61300Y96520D03*
X167300Y96520D03*
X188300Y96520D03*
X294300Y96520D03*
X315300Y96520D03*
D14*
X42300Y241300D03*
X59300Y241300D03*
X156600Y241300D03*
X173600Y241300D03*
X270900Y241300D03*
X287900Y241300D03*
X80400Y96520D03*
X97400Y96520D03*
X207400Y96520D03*
X224400Y96520D03*
X334400Y96520D03*
X351400Y96520D03*
X67700Y279400D03*
X84700Y279400D03*
X182000Y279400D03*
X199000Y279400D03*
X270900Y279400D03*
X287900Y279400D03*
D15*
X247650Y444500D03*
X222250Y444500D03*
X196850Y444500D03*
X171450Y444500D03*
X146050Y444500D03*
X120650Y444500D03*
X95250Y444500D03*
X247650Y673100D03*
X222250Y673100D03*
X196850Y673100D03*
X171450Y673100D03*
X146050Y673100D03*
X120650Y673100D03*
X95250Y673100D03*
X273050Y444500D03*
X273050Y673100D03*
D16*
X73432Y185291D02*
X54966Y185291D01*
X54966Y190121D01*
X73432Y190121D01*
X73432Y185291D01*
X73432Y188350D02*
X54966Y188350D01*
X54966Y172591D02*
X73432Y172591D01*
X54966Y172591D02*
X54966Y177421D01*
X73432Y177421D01*
X73432Y172591D01*
X73432Y175650D02*
X54966Y175650D01*
X54966Y159891D02*
X73432Y159891D01*
X54966Y159891D02*
X54966Y164721D01*
X73432Y164721D01*
X73432Y159891D01*
X73432Y162950D02*
X54966Y162950D01*
X54966Y147191D02*
X73432Y147191D01*
X54966Y147191D02*
X54966Y152021D01*
X73432Y152021D01*
X73432Y147191D01*
X73432Y150250D02*
X54966Y150250D01*
X104368Y147191D02*
X122834Y147191D01*
X104368Y147191D02*
X104368Y152021D01*
X122834Y152021D01*
X122834Y147191D01*
X122834Y150250D02*
X104368Y150250D01*
X104368Y159891D02*
X122834Y159891D01*
X104368Y159891D02*
X104368Y164721D01*
X122834Y164721D01*
X122834Y159891D01*
X122834Y162950D02*
X104368Y162950D01*
X104368Y172591D02*
X122834Y172591D01*
X104368Y172591D02*
X104368Y177421D01*
X122834Y177421D01*
X122834Y172591D01*
X122834Y175650D02*
X104368Y175650D01*
X104368Y185291D02*
X122834Y185291D01*
X104368Y185291D02*
X104368Y190121D01*
X122834Y190121D01*
X122834Y185291D01*
X122834Y188350D02*
X104368Y188350D01*
X169266Y185291D02*
X187732Y185291D01*
X169266Y185291D02*
X169266Y190121D01*
X187732Y190121D01*
X187732Y185291D01*
X187732Y188350D02*
X169266Y188350D01*
X169266Y172591D02*
X187732Y172591D01*
X169266Y172591D02*
X169266Y177421D01*
X187732Y177421D01*
X187732Y172591D01*
X187732Y175650D02*
X169266Y175650D01*
X169266Y159891D02*
X187732Y159891D01*
X169266Y159891D02*
X169266Y164721D01*
X187732Y164721D01*
X187732Y159891D01*
X187732Y162950D02*
X169266Y162950D01*
X169266Y147191D02*
X187732Y147191D01*
X169266Y147191D02*
X169266Y152021D01*
X187732Y152021D01*
X187732Y147191D01*
X187732Y150250D02*
X169266Y150250D01*
X218668Y147191D02*
X237134Y147191D01*
X218668Y147191D02*
X218668Y152021D01*
X237134Y152021D01*
X237134Y147191D01*
X237134Y150250D02*
X218668Y150250D01*
X218668Y159891D02*
X237134Y159891D01*
X218668Y159891D02*
X218668Y164721D01*
X237134Y164721D01*
X237134Y159891D01*
X237134Y162950D02*
X218668Y162950D01*
X218668Y172591D02*
X237134Y172591D01*
X218668Y172591D02*
X218668Y177421D01*
X237134Y177421D01*
X237134Y172591D01*
X237134Y175650D02*
X218668Y175650D01*
X218668Y185291D02*
X237134Y185291D01*
X218668Y185291D02*
X218668Y190121D01*
X237134Y190121D01*
X237134Y185291D01*
X237134Y188350D02*
X218668Y188350D01*
X283566Y185291D02*
X302032Y185291D01*
X283566Y185291D02*
X283566Y190121D01*
X302032Y190121D01*
X302032Y185291D01*
X302032Y188350D02*
X283566Y188350D01*
X283566Y172591D02*
X302032Y172591D01*
X283566Y172591D02*
X283566Y177421D01*
X302032Y177421D01*
X302032Y172591D01*
X302032Y175650D02*
X283566Y175650D01*
X283566Y159891D02*
X302032Y159891D01*
X283566Y159891D02*
X283566Y164721D01*
X302032Y164721D01*
X302032Y159891D01*
X302032Y162950D02*
X283566Y162950D01*
X283566Y147191D02*
X302032Y147191D01*
X283566Y147191D02*
X283566Y152021D01*
X302032Y152021D01*
X302032Y147191D01*
X302032Y150250D02*
X283566Y150250D01*
X332968Y147191D02*
X351434Y147191D01*
X332968Y147191D02*
X332968Y152021D01*
X351434Y152021D01*
X351434Y147191D01*
X351434Y150250D02*
X332968Y150250D01*
X332968Y159891D02*
X351434Y159891D01*
X332968Y159891D02*
X332968Y164721D01*
X351434Y164721D01*
X351434Y159891D01*
X351434Y162950D02*
X332968Y162950D01*
X332968Y172591D02*
X351434Y172591D01*
X332968Y172591D02*
X332968Y177421D01*
X351434Y177421D01*
X351434Y172591D01*
X351434Y175650D02*
X332968Y175650D01*
X332968Y185291D02*
X351434Y185291D01*
X332968Y185291D02*
X332968Y190121D01*
X351434Y190121D01*
X351434Y185291D01*
X351434Y188350D02*
X332968Y188350D01*
D17*
X176511Y383039D02*
X160689Y383039D01*
X160689Y386661D01*
X176511Y386661D01*
X176511Y383039D01*
X176511Y386089D02*
X160689Y386089D01*
X160689Y376539D02*
X176511Y376539D01*
X160689Y376539D02*
X160689Y380161D01*
X176511Y380161D01*
X176511Y376539D01*
X176511Y379589D02*
X160689Y379589D01*
X160689Y370039D02*
X176511Y370039D01*
X160689Y370039D02*
X160689Y373661D01*
X176511Y373661D01*
X176511Y370039D01*
X176511Y373089D02*
X160689Y373089D01*
X160689Y363539D02*
X176511Y363539D01*
X160689Y363539D02*
X160689Y367161D01*
X176511Y367161D01*
X176511Y363539D01*
X176511Y366589D02*
X160689Y366589D01*
X160689Y357039D02*
X176511Y357039D01*
X160689Y357039D02*
X160689Y360661D01*
X176511Y360661D01*
X176511Y357039D01*
X176511Y360089D02*
X160689Y360089D01*
X160689Y350539D02*
X176511Y350539D01*
X160689Y350539D02*
X160689Y354161D01*
X176511Y354161D01*
X176511Y350539D01*
X176511Y353589D02*
X160689Y353589D01*
X160689Y344039D02*
X176511Y344039D01*
X160689Y344039D02*
X160689Y347661D01*
X176511Y347661D01*
X176511Y344039D01*
X176511Y347089D02*
X160689Y347089D01*
X160689Y337539D02*
X176511Y337539D01*
X160689Y337539D02*
X160689Y341161D01*
X176511Y341161D01*
X176511Y337539D01*
X176511Y340589D02*
X160689Y340589D01*
X160689Y331039D02*
X176511Y331039D01*
X160689Y331039D02*
X160689Y334661D01*
X176511Y334661D01*
X176511Y331039D01*
X176511Y334089D02*
X160689Y334089D01*
X160689Y324539D02*
X176511Y324539D01*
X160689Y324539D02*
X160689Y328161D01*
X176511Y328161D01*
X176511Y324539D01*
X176511Y327589D02*
X160689Y327589D01*
X229889Y324539D02*
X245711Y324539D01*
X229889Y324539D02*
X229889Y328161D01*
X245711Y328161D01*
X245711Y324539D01*
X245711Y327589D02*
X229889Y327589D01*
X229889Y331039D02*
X245711Y331039D01*
X229889Y331039D02*
X229889Y334661D01*
X245711Y334661D01*
X245711Y331039D01*
X245711Y334089D02*
X229889Y334089D01*
X229889Y337539D02*
X245711Y337539D01*
X229889Y337539D02*
X229889Y341161D01*
X245711Y341161D01*
X245711Y337539D01*
X245711Y340589D02*
X229889Y340589D01*
X229889Y344039D02*
X245711Y344039D01*
X229889Y344039D02*
X229889Y347661D01*
X245711Y347661D01*
X245711Y344039D01*
X245711Y347089D02*
X229889Y347089D01*
X229889Y350539D02*
X245711Y350539D01*
X229889Y350539D02*
X229889Y354161D01*
X245711Y354161D01*
X245711Y350539D01*
X245711Y353589D02*
X229889Y353589D01*
X229889Y357039D02*
X245711Y357039D01*
X229889Y357039D02*
X229889Y360661D01*
X245711Y360661D01*
X245711Y357039D01*
X245711Y360089D02*
X229889Y360089D01*
X229889Y363539D02*
X245711Y363539D01*
X229889Y363539D02*
X229889Y367161D01*
X245711Y367161D01*
X245711Y363539D01*
X245711Y366589D02*
X229889Y366589D01*
X229889Y370039D02*
X245711Y370039D01*
X229889Y370039D02*
X229889Y373661D01*
X245711Y373661D01*
X245711Y370039D01*
X245711Y373089D02*
X229889Y373089D01*
X229889Y376539D02*
X245711Y376539D01*
X229889Y376539D02*
X229889Y380161D01*
X245711Y380161D01*
X245711Y376539D01*
X245711Y379589D02*
X229889Y379589D01*
X229889Y383039D02*
X245711Y383039D01*
X229889Y383039D02*
X229889Y386661D01*
X245711Y386661D01*
X245711Y383039D01*
X245711Y386089D02*
X229889Y386089D01*
D18*
X58928Y392176D03*
X50800Y292100D03*
X25400Y254000D03*
X215900Y304800D03*
X152400Y279400D03*
X266700Y368300D03*
X331216Y131572D03*
X228600Y254000D03*
X266700Y304800D03*
X266700Y215900D03*
X317500Y266700D03*
X77216Y131572D03*
X127000Y381000D03*
X127000Y355600D03*
X131064Y198120D03*
X207264Y198120D03*
X322580Y297180D03*
X218440Y349758D03*
X188976Y304800D03*
X128016Y323088D03*
X137160Y313944D03*
X88392Y365760D03*
X137160Y414528D03*
X252984Y347472D03*
X188722Y370586D03*
X246888Y80264D03*
X351536Y80264D03*
M02*
