G04 EAGLE Gerber RS-274X export*
G75*
%MOMM*%
%FSLAX34Y34*%
%LPD*%
%INSoldermask Bottom*%
%IPPOS*%
%AMOC8*
5,1,8,0,0,1.08239X$1,22.5*%
G01*
%ADD10C,3.203200*%
%ADD11C,1.727200*%
%ADD12C,1.711200*%
%ADD13R,1.711200X1.711200*%
%ADD14C,0.959600*%


D10*
X29471Y900318D03*
X529471Y900318D03*
X529471Y30318D03*
X29471Y30318D03*
D11*
X35284Y454578D02*
X50524Y454578D01*
X50524Y479978D02*
X35284Y479978D01*
D12*
X416971Y798368D03*
X416971Y772968D03*
X416971Y747568D03*
X416971Y722168D03*
X416971Y696768D03*
X416971Y671368D03*
X416971Y645968D03*
X188371Y798368D03*
X188371Y772968D03*
X188371Y747568D03*
X188371Y722168D03*
X188371Y696768D03*
X188371Y671368D03*
X188371Y645968D03*
X416971Y823768D03*
X188371Y823768D03*
D11*
X111760Y78740D02*
X111760Y63500D01*
X137160Y63500D02*
X137160Y78740D01*
X269240Y78740D02*
X269240Y63500D01*
X294640Y63500D02*
X294640Y78740D01*
X426720Y78740D02*
X426720Y63500D01*
X452120Y63500D02*
X452120Y78740D01*
X50524Y789278D02*
X35284Y789278D01*
X35284Y814678D02*
X50524Y814678D01*
X50524Y687618D02*
X35284Y687618D01*
X35284Y713018D02*
X50524Y713018D01*
D13*
X246900Y467000D03*
D12*
X272300Y467000D03*
X297700Y467000D03*
X323100Y467000D03*
D14*
X240168Y722176D03*
X131527Y179755D03*
X54241Y657712D03*
X25000Y430000D03*
X240253Y410254D03*
X72500Y490000D03*
X112500Y292500D03*
X166431Y343722D03*
X216168Y320985D03*
X343616Y217806D03*
X354929Y304617D03*
X319497Y339897D03*
X498850Y540235D03*
X449471Y667858D03*
X84711Y898738D03*
X72251Y898738D03*
X54471Y753018D03*
X502196Y662436D03*
X465770Y722783D03*
X464375Y813475D03*
X66931Y753018D03*
X54001Y647552D03*
X25000Y405000D03*
X526820Y805689D03*
X527091Y820318D03*
X294471Y820318D03*
X309471Y820318D03*
X324471Y820318D03*
X319471Y660318D03*
X334471Y660318D03*
X349471Y660318D03*
X516997Y609868D03*
X439536Y394937D03*
X452843Y395097D03*
X424536Y394937D03*
X309471Y105318D03*
X324471Y105318D03*
X324471Y90318D03*
X159471Y105318D03*
X174471Y105318D03*
X174471Y90318D03*
X489227Y485093D03*
X112500Y307500D03*
X153731Y343482D03*
X25000Y417500D03*
X96621Y640332D03*
X109321Y640572D03*
X240253Y395014D03*
X167500Y282500D03*
X167500Y267500D03*
X463171Y898738D03*
X478411Y898738D03*
X488036Y30024D03*
X532869Y74051D03*
X20716Y73204D03*
X63936Y24984D03*
X532869Y87598D03*
X19846Y85907D03*
X150000Y447500D03*
X150000Y437500D03*
X386727Y475093D03*
X231304Y58879D03*
X263575Y286759D03*
X257153Y747175D03*
X287360Y179639D03*
X275471Y773816D03*
X443118Y178946D03*
X61745Y132811D03*
X332125Y523244D03*
X212955Y131882D03*
X475055Y500024D03*
X374385Y133043D03*
X469471Y420318D03*
X384604Y59112D03*
X423166Y287888D03*
X74055Y60505D03*
X111332Y249730D03*
X409951Y461878D03*
X389820Y401442D03*
X55880Y589280D03*
X68580Y589280D03*
X81280Y589280D03*
X93980Y589280D03*
X106680Y589280D03*
X55880Y576580D03*
X68580Y576580D03*
X81280Y576580D03*
X93980Y576580D03*
X106680Y576580D03*
X119380Y589280D03*
X119380Y576580D03*
X132080Y589280D03*
X132080Y576580D03*
X68580Y563880D03*
X55880Y563880D03*
X55880Y551180D03*
X68580Y551180D03*
X55880Y538480D03*
X68580Y538480D03*
X43180Y589280D03*
X43180Y576580D03*
X43180Y563880D03*
X43180Y551180D03*
X43180Y538480D03*
X132080Y601980D03*
X119380Y601980D03*
X106680Y601980D03*
X93980Y601980D03*
X81280Y601980D03*
X68580Y601980D03*
X55880Y601980D03*
X43180Y601980D03*
X30480Y601980D03*
X30480Y589280D03*
X30480Y576580D03*
X30480Y563880D03*
X30480Y551180D03*
X30480Y538480D03*
X145815Y732308D03*
X444391Y807778D03*
X471871Y647752D03*
X151252Y853956D03*
X456199Y484462D03*
X459102Y441613D03*
M02*
