G04 EAGLE Gerber RS-274X export*
G75*
%MOMM*%
%FSLAX34Y34*%
%LPD*%
%INSoldermask Bottom*%
%IPPOS*%
%AMOC8*
5,1,8,0,0,1.08239X$1,22.5*%
G01*
%ADD10C,3.203200*%
%ADD11C,1.727200*%
%ADD12C,1.711200*%
%ADD13C,0.959600*%


D10*
X29471Y900318D03*
X529471Y900318D03*
X529471Y30318D03*
X29471Y30318D03*
D11*
X53064Y589118D02*
X68304Y589118D01*
X68304Y614518D02*
X53064Y614518D01*
D12*
X416971Y798368D03*
X416971Y772968D03*
X416971Y747568D03*
X416971Y722168D03*
X416971Y696768D03*
X416971Y671368D03*
X416971Y645968D03*
X188371Y798368D03*
X188371Y772968D03*
X188371Y747568D03*
X188371Y722168D03*
X188371Y696768D03*
X188371Y671368D03*
X188371Y645968D03*
X416971Y823768D03*
X188371Y823768D03*
D11*
X111071Y78738D02*
X111071Y63498D01*
X136471Y63498D02*
X136471Y78738D01*
X263471Y78738D02*
X263471Y63498D01*
X288871Y63498D02*
X288871Y78738D01*
X425871Y78738D02*
X425871Y63498D01*
X451271Y63498D02*
X451271Y78738D01*
X68304Y779118D02*
X53064Y779118D01*
X53064Y804518D02*
X68304Y804518D01*
X68304Y687618D02*
X53064Y687618D01*
X53064Y713018D02*
X68304Y713018D01*
D13*
X240168Y722176D03*
X131527Y179755D03*
X54241Y639932D03*
X54106Y431357D03*
X235413Y450894D03*
X173301Y493092D03*
X48609Y282637D03*
X169131Y338562D03*
X216168Y320985D03*
X200589Y261024D03*
X76142Y163854D03*
X374054Y161489D03*
X343616Y217806D03*
X365639Y260559D03*
X364929Y299617D03*
X342157Y339857D03*
X272307Y329154D03*
X309471Y515318D03*
X478530Y573255D03*
X449471Y665318D03*
X69471Y840318D03*
X54471Y840318D03*
X54471Y740318D03*
X494576Y659896D03*
X458997Y724477D03*
X479615Y810935D03*
X69471Y740318D03*
X69241Y639932D03*
X84471Y475318D03*
X99471Y475318D03*
X521740Y721018D03*
X519471Y820318D03*
X294471Y820318D03*
X309471Y820318D03*
X324471Y820318D03*
X319471Y660318D03*
X334471Y660318D03*
X349471Y660318D03*
X508530Y613255D03*
X439536Y398324D03*
X454536Y388324D03*
X424536Y398324D03*
X309471Y105318D03*
X324471Y105318D03*
X324471Y90318D03*
X159471Y105318D03*
X174471Y105318D03*
X174471Y90318D03*
X106142Y163854D03*
X309471Y500318D03*
X489227Y469853D03*
X489227Y456712D03*
X48609Y322637D03*
X169131Y353562D03*
X412878Y161489D03*
X109106Y411357D03*
X104241Y614932D03*
X104241Y599932D03*
X231304Y58879D03*
X261035Y274219D03*
X257153Y747175D03*
X287360Y179639D03*
X275471Y773816D03*
X399938Y178946D03*
X61745Y142971D03*
X332125Y523244D03*
X212955Y142042D03*
X475055Y500024D03*
X374385Y143203D03*
X469471Y420318D03*
X245008Y192218D03*
X317942Y294196D03*
X384604Y59112D03*
X423166Y280388D03*
X450741Y299942D03*
X450645Y192140D03*
X74055Y60505D03*
X91011Y246343D03*
X101231Y320678D03*
X129801Y192915D03*
X415031Y468651D03*
X388127Y408216D03*
X145815Y732308D03*
X449471Y810318D03*
X473564Y647752D03*
X125852Y841256D03*
X456199Y484462D03*
X459102Y441613D03*
M02*
