G04 EAGLE Gerber RS-274X export*
G75*
%MOMM*%
%FSLAX34Y34*%
%LPD*%
%INSoldermask Top*%
%IPPOS*%
%AMOC8*
5,1,8,0,0,1.08239X$1,22.5*%
G01*
%ADD10C,3.203200*%
%ADD11C,1.727200*%
%ADD12R,1.303200X1.203200*%
%ADD13R,1.503200X1.703200*%
%ADD14R,1.403200X2.203200*%
%ADD15R,3.153200X2.903200*%
%ADD16R,2.903200X3.153200*%
%ADD17R,1.003200X1.003200*%
%ADD18R,1.203200X1.303200*%
%ADD19C,1.711200*%
%ADD20C,0.322038*%
%ADD21C,0.321103*%
%ADD22R,1.153200X2.353200*%
%ADD23R,3.453200X2.353200*%
%ADD24R,1.600200X0.635000*%
%ADD25R,1.803200X2.006200*%
%ADD26R,2.203200X2.403200*%
%ADD27R,3.003200X1.203200*%
%ADD28R,2.003200X2.603200*%
%ADD29C,0.959600*%


D10*
X29471Y900318D03*
X529471Y900318D03*
X529471Y30318D03*
X29471Y30318D03*
D11*
X35284Y454578D02*
X50524Y454578D01*
X50524Y479978D02*
X35284Y479978D01*
D12*
X297042Y168339D03*
X314042Y168339D03*
D13*
X464091Y464678D03*
X483091Y464678D03*
D12*
X144571Y168339D03*
X161571Y168339D03*
D13*
X74171Y77218D03*
X55171Y77218D03*
X91531Y153178D03*
X72531Y153178D03*
X309589Y198618D03*
X328589Y198618D03*
D14*
X139291Y310578D03*
X139291Y282578D03*
D13*
X153731Y195918D03*
X172731Y195918D03*
X137251Y883058D03*
X118251Y883058D03*
D15*
X121840Y409157D03*
X54340Y409157D03*
D13*
X231071Y76218D03*
X212071Y76218D03*
D16*
X190950Y533634D03*
X190950Y466134D03*
D13*
X247111Y153178D03*
X228111Y153178D03*
D14*
X297597Y308885D03*
X297597Y280885D03*
D12*
X454884Y168339D03*
X471884Y168339D03*
D13*
X384271Y76218D03*
X365271Y76218D03*
X400151Y153178D03*
X381151Y153178D03*
D14*
X476682Y310578D03*
X476682Y282578D03*
D13*
X477591Y204518D03*
X496591Y204518D03*
D17*
X135175Y111918D03*
X120175Y111918D03*
X291573Y111918D03*
X276573Y111918D03*
X447971Y111918D03*
X432971Y111918D03*
D13*
X323589Y139058D03*
X304589Y139058D03*
X388771Y308218D03*
X407771Y308218D03*
X406871Y340718D03*
X387871Y340718D03*
X167731Y139058D03*
X148731Y139058D03*
X67571Y264218D03*
X86571Y264218D03*
X67571Y300718D03*
X86571Y300718D03*
X86571Y340718D03*
X67571Y340718D03*
X220371Y260718D03*
X239371Y260718D03*
X491591Y139058D03*
X472591Y139058D03*
D18*
X84971Y111918D03*
X67971Y111918D03*
X241021Y111918D03*
X224021Y111918D03*
X397071Y111918D03*
X380071Y111918D03*
D13*
X220371Y300718D03*
X239371Y300718D03*
X239371Y340718D03*
X220371Y340718D03*
X379571Y260718D03*
X398571Y260718D03*
D19*
X416971Y798368D03*
X416971Y772968D03*
X416971Y747568D03*
X416971Y722168D03*
X416971Y696768D03*
X416971Y671368D03*
X416971Y645968D03*
X188371Y798368D03*
X188371Y772968D03*
X188371Y747568D03*
X188371Y722168D03*
X188371Y696768D03*
X188371Y671368D03*
X188371Y645968D03*
X416971Y823768D03*
X188371Y823768D03*
D20*
X73703Y215553D02*
X55237Y215553D01*
X55237Y220383D01*
X73703Y220383D01*
X73703Y215553D01*
X73703Y218612D02*
X55237Y218612D01*
X55237Y202853D02*
X73703Y202853D01*
X55237Y202853D02*
X55237Y207683D01*
X73703Y207683D01*
X73703Y202853D01*
X73703Y205912D02*
X55237Y205912D01*
X55237Y190153D02*
X73703Y190153D01*
X55237Y190153D02*
X55237Y194983D01*
X73703Y194983D01*
X73703Y190153D01*
X73703Y193212D02*
X55237Y193212D01*
X55237Y177453D02*
X73703Y177453D01*
X55237Y177453D02*
X55237Y182283D01*
X73703Y182283D01*
X73703Y177453D01*
X73703Y180512D02*
X55237Y180512D01*
X104639Y177453D02*
X123105Y177453D01*
X104639Y177453D02*
X104639Y182283D01*
X123105Y182283D01*
X123105Y177453D01*
X123105Y180512D02*
X104639Y180512D01*
X104639Y190153D02*
X123105Y190153D01*
X104639Y190153D02*
X104639Y194983D01*
X123105Y194983D01*
X123105Y190153D01*
X123105Y193212D02*
X104639Y193212D01*
X104639Y202853D02*
X123105Y202853D01*
X104639Y202853D02*
X104639Y207683D01*
X123105Y207683D01*
X123105Y202853D01*
X123105Y205912D02*
X104639Y205912D01*
X104639Y215553D02*
X123105Y215553D01*
X104639Y215553D02*
X104639Y220383D01*
X123105Y220383D01*
X123105Y215553D01*
X123105Y218612D02*
X104639Y218612D01*
X211137Y215553D02*
X229603Y215553D01*
X211137Y215553D02*
X211137Y220383D01*
X229603Y220383D01*
X229603Y215553D01*
X229603Y218612D02*
X211137Y218612D01*
X211137Y202853D02*
X229603Y202853D01*
X211137Y202853D02*
X211137Y207683D01*
X229603Y207683D01*
X229603Y202853D01*
X229603Y205912D02*
X211137Y205912D01*
X211137Y190153D02*
X229603Y190153D01*
X211137Y190153D02*
X211137Y194983D01*
X229603Y194983D01*
X229603Y190153D01*
X229603Y193212D02*
X211137Y193212D01*
X211137Y177453D02*
X229603Y177453D01*
X211137Y177453D02*
X211137Y182283D01*
X229603Y182283D01*
X229603Y177453D01*
X229603Y180512D02*
X211137Y180512D01*
X260539Y177453D02*
X279005Y177453D01*
X260539Y177453D02*
X260539Y182283D01*
X279005Y182283D01*
X279005Y177453D01*
X279005Y180512D02*
X260539Y180512D01*
X260539Y190153D02*
X279005Y190153D01*
X260539Y190153D02*
X260539Y194983D01*
X279005Y194983D01*
X279005Y190153D01*
X279005Y193212D02*
X260539Y193212D01*
X260539Y202853D02*
X279005Y202853D01*
X260539Y202853D02*
X260539Y207683D01*
X279005Y207683D01*
X279005Y202853D01*
X279005Y205912D02*
X260539Y205912D01*
X260539Y215553D02*
X279005Y215553D01*
X260539Y215553D02*
X260539Y220383D01*
X279005Y220383D01*
X279005Y215553D01*
X279005Y218612D02*
X260539Y218612D01*
X364337Y215553D02*
X382803Y215553D01*
X364337Y215553D02*
X364337Y220383D01*
X382803Y220383D01*
X382803Y215553D01*
X382803Y218612D02*
X364337Y218612D01*
X364337Y202853D02*
X382803Y202853D01*
X364337Y202853D02*
X364337Y207683D01*
X382803Y207683D01*
X382803Y202853D01*
X382803Y205912D02*
X364337Y205912D01*
X364337Y190153D02*
X382803Y190153D01*
X364337Y190153D02*
X364337Y194983D01*
X382803Y194983D01*
X382803Y190153D01*
X382803Y193212D02*
X364337Y193212D01*
X364337Y177453D02*
X382803Y177453D01*
X364337Y177453D02*
X364337Y182283D01*
X382803Y182283D01*
X382803Y177453D01*
X382803Y180512D02*
X364337Y180512D01*
X413739Y177453D02*
X432205Y177453D01*
X413739Y177453D02*
X413739Y182283D01*
X432205Y182283D01*
X432205Y177453D01*
X432205Y180512D02*
X413739Y180512D01*
X413739Y190153D02*
X432205Y190153D01*
X413739Y190153D02*
X413739Y194983D01*
X432205Y194983D01*
X432205Y190153D01*
X432205Y193212D02*
X413739Y193212D01*
X413739Y202853D02*
X432205Y202853D01*
X413739Y202853D02*
X413739Y207683D01*
X432205Y207683D01*
X432205Y202853D01*
X432205Y205912D02*
X413739Y205912D01*
X413739Y215553D02*
X432205Y215553D01*
X413739Y215553D02*
X413739Y220383D01*
X432205Y220383D01*
X432205Y215553D01*
X432205Y218612D02*
X413739Y218612D01*
D21*
X374082Y493357D02*
X358260Y493357D01*
X358260Y496979D01*
X374082Y496979D01*
X374082Y493357D01*
X374082Y496407D02*
X358260Y496407D01*
X358260Y486857D02*
X374082Y486857D01*
X358260Y486857D02*
X358260Y490479D01*
X374082Y490479D01*
X374082Y486857D01*
X374082Y489907D02*
X358260Y489907D01*
X358260Y480357D02*
X374082Y480357D01*
X358260Y480357D02*
X358260Y483979D01*
X374082Y483979D01*
X374082Y480357D01*
X374082Y483407D02*
X358260Y483407D01*
X358260Y473857D02*
X374082Y473857D01*
X358260Y473857D02*
X358260Y477479D01*
X374082Y477479D01*
X374082Y473857D01*
X374082Y476907D02*
X358260Y476907D01*
X358260Y467357D02*
X374082Y467357D01*
X358260Y467357D02*
X358260Y470979D01*
X374082Y470979D01*
X374082Y467357D01*
X374082Y470407D02*
X358260Y470407D01*
X358260Y460857D02*
X374082Y460857D01*
X358260Y460857D02*
X358260Y464479D01*
X374082Y464479D01*
X374082Y460857D01*
X374082Y463907D02*
X358260Y463907D01*
X358260Y454357D02*
X374082Y454357D01*
X358260Y454357D02*
X358260Y457979D01*
X374082Y457979D01*
X374082Y454357D01*
X374082Y457407D02*
X358260Y457407D01*
X358260Y447857D02*
X374082Y447857D01*
X358260Y447857D02*
X358260Y451479D01*
X374082Y451479D01*
X374082Y447857D01*
X374082Y450907D02*
X358260Y450907D01*
X358260Y441357D02*
X374082Y441357D01*
X358260Y441357D02*
X358260Y444979D01*
X374082Y444979D01*
X374082Y441357D01*
X374082Y444407D02*
X358260Y444407D01*
X358260Y434857D02*
X374082Y434857D01*
X358260Y434857D02*
X358260Y438479D01*
X374082Y438479D01*
X374082Y434857D01*
X374082Y437907D02*
X358260Y437907D01*
X427460Y434857D02*
X443282Y434857D01*
X427460Y434857D02*
X427460Y438479D01*
X443282Y438479D01*
X443282Y434857D01*
X443282Y437907D02*
X427460Y437907D01*
X427460Y441357D02*
X443282Y441357D01*
X427460Y441357D02*
X427460Y444979D01*
X443282Y444979D01*
X443282Y441357D01*
X443282Y444407D02*
X427460Y444407D01*
X427460Y447857D02*
X443282Y447857D01*
X427460Y447857D02*
X427460Y451479D01*
X443282Y451479D01*
X443282Y447857D01*
X443282Y450907D02*
X427460Y450907D01*
X427460Y454357D02*
X443282Y454357D01*
X427460Y454357D02*
X427460Y457979D01*
X443282Y457979D01*
X443282Y454357D01*
X443282Y457407D02*
X427460Y457407D01*
X427460Y460857D02*
X443282Y460857D01*
X427460Y460857D02*
X427460Y464479D01*
X443282Y464479D01*
X443282Y460857D01*
X443282Y463907D02*
X427460Y463907D01*
X427460Y467357D02*
X443282Y467357D01*
X427460Y467357D02*
X427460Y470979D01*
X443282Y470979D01*
X443282Y467357D01*
X443282Y470407D02*
X427460Y470407D01*
X427460Y473857D02*
X443282Y473857D01*
X427460Y473857D02*
X427460Y477479D01*
X443282Y477479D01*
X443282Y473857D01*
X443282Y476907D02*
X427460Y476907D01*
X427460Y480357D02*
X443282Y480357D01*
X427460Y480357D02*
X427460Y483979D01*
X443282Y483979D01*
X443282Y480357D01*
X443282Y483407D02*
X427460Y483407D01*
X427460Y486857D02*
X443282Y486857D01*
X427460Y486857D02*
X427460Y490479D01*
X443282Y490479D01*
X443282Y486857D01*
X443282Y489907D02*
X427460Y489907D01*
X427460Y493357D02*
X443282Y493357D01*
X427460Y493357D02*
X427460Y496979D01*
X443282Y496979D01*
X443282Y493357D01*
X443282Y496407D02*
X427460Y496407D01*
D22*
X91784Y496318D03*
X114784Y496318D03*
X137784Y496318D03*
D23*
X114784Y554318D03*
D11*
X111760Y78740D02*
X111760Y63500D01*
X137160Y63500D02*
X137160Y78740D01*
X269240Y78740D02*
X269240Y63500D01*
X294640Y63500D02*
X294640Y78740D01*
X426720Y78740D02*
X426720Y63500D01*
X452120Y63500D02*
X452120Y78740D01*
X50524Y789278D02*
X35284Y789278D01*
X35284Y814678D02*
X50524Y814678D01*
D17*
X503251Y843118D03*
X503251Y858118D03*
D18*
X472471Y875618D03*
X455471Y875618D03*
D11*
X50524Y687618D02*
X35284Y687618D01*
X35284Y713018D02*
X50524Y713018D01*
D24*
X462453Y700068D03*
X462453Y693568D03*
X462453Y687068D03*
X462453Y680568D03*
X506649Y680568D03*
X506649Y687068D03*
X506649Y693568D03*
X506649Y700068D03*
D13*
X114154Y739796D03*
X95154Y739796D03*
X96300Y850813D03*
X115300Y850813D03*
D25*
X465251Y750318D03*
X493691Y750318D03*
X493691Y790318D03*
X465251Y790318D03*
X500465Y630318D03*
X472025Y630318D03*
X500465Y590318D03*
X472025Y590318D03*
D13*
X473731Y832858D03*
X454731Y832858D03*
D26*
X201765Y414994D03*
X171765Y414994D03*
D27*
X88584Y789549D03*
X135584Y789549D03*
X88584Y687995D03*
X135584Y687995D03*
D28*
X120250Y455000D03*
X79750Y455000D03*
D29*
X240168Y722176D03*
X131527Y179755D03*
X54241Y657712D03*
X25000Y430000D03*
X240253Y410254D03*
X72500Y490000D03*
X112500Y292500D03*
X166431Y343722D03*
X216168Y320985D03*
X343616Y217806D03*
X362429Y304617D03*
X311997Y347397D03*
X498850Y540235D03*
X449471Y667858D03*
X84711Y898738D03*
X72251Y898738D03*
X54471Y753018D03*
X502196Y662436D03*
X465770Y722783D03*
X464375Y813475D03*
X66931Y753018D03*
X54001Y647552D03*
X25000Y405000D03*
X526820Y805689D03*
X527091Y820318D03*
X294471Y820318D03*
X309471Y820318D03*
X324471Y820318D03*
X319471Y660318D03*
X334471Y660318D03*
X349471Y660318D03*
X516997Y609868D03*
X439536Y394937D03*
X452843Y395097D03*
X424536Y394937D03*
X309471Y105318D03*
X324471Y105318D03*
X324471Y90318D03*
X159471Y105318D03*
X174471Y105318D03*
X174471Y90318D03*
X489227Y485093D03*
X112500Y307500D03*
X153731Y343482D03*
X25000Y417500D03*
X96621Y640332D03*
X109321Y640572D03*
X240253Y395014D03*
X167500Y282500D03*
X167500Y267500D03*
X463171Y898738D03*
X478411Y898738D03*
X488036Y30024D03*
X530369Y74051D03*
X23216Y73204D03*
X68936Y27484D03*
X530369Y87598D03*
X22346Y85907D03*
X157500Y472500D03*
X157500Y460000D03*
X231304Y58879D03*
X263575Y286759D03*
X257153Y747175D03*
X287360Y179639D03*
X275471Y773816D03*
X443118Y178946D03*
X61745Y132811D03*
X332125Y523244D03*
X212955Y131882D03*
X475055Y500024D03*
X374385Y133043D03*
X469471Y420318D03*
X384604Y59112D03*
X423166Y287888D03*
X74055Y60505D03*
X111332Y249730D03*
X409951Y461878D03*
X389820Y401442D03*
X55880Y589280D03*
X68580Y589280D03*
X81280Y589280D03*
X93980Y589280D03*
X106680Y589280D03*
X55880Y576580D03*
X68580Y576580D03*
X81280Y576580D03*
X93980Y576580D03*
X106680Y576580D03*
X119380Y589280D03*
X119380Y576580D03*
X132080Y589280D03*
X132080Y576580D03*
X68580Y563880D03*
X55880Y563880D03*
X55880Y551180D03*
X68580Y551180D03*
X55880Y538480D03*
X68580Y538480D03*
X43180Y589280D03*
X43180Y576580D03*
X43180Y563880D03*
X43180Y551180D03*
X43180Y538480D03*
X132080Y601980D03*
X119380Y601980D03*
X106680Y601980D03*
X93980Y601980D03*
X81280Y601980D03*
X68580Y601980D03*
X55880Y601980D03*
X43180Y601980D03*
X30480Y601980D03*
X30480Y589280D03*
X30480Y576580D03*
X30480Y563880D03*
X30480Y551180D03*
X30480Y538480D03*
X145815Y732308D03*
X444391Y807778D03*
X471871Y647752D03*
X151252Y853956D03*
X456199Y484462D03*
X459102Y441613D03*
M02*
